G04 #@! TF.GenerationSoftware,KiCad,Pcbnew,8.0.8-8.0.8-0~ubuntu22.04.1*
G04 #@! TF.CreationDate,2025-02-19T20:45:30+01:00*
G04 #@! TF.ProjectId,kicad_makespace_tutorial,6b696361-645f-46d6-916b-657370616365,v1*
G04 #@! TF.SameCoordinates,Original*
G04 #@! TF.FileFunction,Copper,L2,Bot*
G04 #@! TF.FilePolarity,Positive*
%FSLAX46Y46*%
G04 Gerber Fmt 4.6, Leading zero omitted, Abs format (unit mm)*
G04 Created by KiCad (PCBNEW 8.0.8-8.0.8-0~ubuntu22.04.1) date 2025-02-19 20:45:30*
%MOMM*%
%LPD*%
G01*
G04 APERTURE LIST*
G04 Aperture macros list*
%AMRoundRect*
0 Rectangle with rounded corners*
0 $1 Rounding radius*
0 $2 $3 $4 $5 $6 $7 $8 $9 X,Y pos of 4 corners*
0 Add a 4 corners polygon primitive as box body*
4,1,4,$2,$3,$4,$5,$6,$7,$8,$9,$2,$3,0*
0 Add four circle primitives for the rounded corners*
1,1,$1+$1,$2,$3*
1,1,$1+$1,$4,$5*
1,1,$1+$1,$6,$7*
1,1,$1+$1,$8,$9*
0 Add four rect primitives between the rounded corners*
20,1,$1+$1,$2,$3,$4,$5,0*
20,1,$1+$1,$4,$5,$6,$7,0*
20,1,$1+$1,$6,$7,$8,$9,0*
20,1,$1+$1,$8,$9,$2,$3,0*%
%AMFreePoly0*
4,1,6,1.000000,0.000000,0.500000,-0.750000,-0.500000,-0.750000,-0.500000,0.750000,0.500000,0.750000,1.000000,0.000000,1.000000,0.000000,$1*%
%AMFreePoly1*
4,1,6,0.500000,-0.750000,-0.650000,-0.750000,-0.150000,0.000000,-0.650000,0.750000,0.500000,0.750000,0.500000,-0.750000,0.500000,-0.750000,$1*%
G04 Aperture macros list end*
G04 #@! TA.AperFunction,ComponentPad*
%ADD10C,2.000000*%
G04 #@! TD*
G04 #@! TA.AperFunction,ComponentPad*
%ADD11C,4.700000*%
G04 #@! TD*
G04 #@! TA.AperFunction,ComponentPad*
%ADD12C,0.750000*%
G04 #@! TD*
G04 #@! TA.AperFunction,ComponentPad*
%ADD13O,1.200000X2.000000*%
G04 #@! TD*
G04 #@! TA.AperFunction,ComponentPad*
%ADD14O,1.200000X1.800000*%
G04 #@! TD*
G04 #@! TA.AperFunction,ComponentPad*
%ADD15R,1.350000X1.350000*%
G04 #@! TD*
G04 #@! TA.AperFunction,ComponentPad*
%ADD16O,1.350000X1.350000*%
G04 #@! TD*
G04 #@! TA.AperFunction,SMDPad,CuDef*
%ADD17C,1.000000*%
G04 #@! TD*
G04 #@! TA.AperFunction,SMDPad,CuDef*
%ADD18RoundRect,0.250000X-0.450000X0.350000X-0.450000X-0.350000X0.450000X-0.350000X0.450000X0.350000X0*%
G04 #@! TD*
G04 #@! TA.AperFunction,SMDPad,CuDef*
%ADD19FreePoly0,90.000000*%
G04 #@! TD*
G04 #@! TA.AperFunction,SMDPad,CuDef*
%ADD20FreePoly1,90.000000*%
G04 #@! TD*
G04 #@! TA.AperFunction,SMDPad,CuDef*
%ADD21R,0.650000X3.000000*%
G04 #@! TD*
G04 #@! TA.AperFunction,SMDPad,CuDef*
%ADD22FreePoly0,270.000000*%
G04 #@! TD*
G04 #@! TA.AperFunction,SMDPad,CuDef*
%ADD23FreePoly1,270.000000*%
G04 #@! TD*
G04 #@! TA.AperFunction,ViaPad*
%ADD24C,0.600000*%
G04 #@! TD*
G04 #@! TA.AperFunction,ViaPad*
%ADD25C,0.450000*%
G04 #@! TD*
G04 #@! TA.AperFunction,Conductor*
%ADD26C,0.600000*%
G04 #@! TD*
G04 #@! TA.AperFunction,Conductor*
%ADD27C,1.000000*%
G04 #@! TD*
G04 #@! TA.AperFunction,Conductor*
%ADD28C,0.700000*%
G04 #@! TD*
G04 #@! TA.AperFunction,Conductor*
%ADD29C,0.300000*%
G04 #@! TD*
G04 #@! TA.AperFunction,Conductor*
%ADD30C,0.160000*%
G04 #@! TD*
G04 #@! TA.AperFunction,Conductor*
%ADD31C,0.200000*%
G04 #@! TD*
G04 APERTURE END LIST*
D10*
G04 #@! TO.P,J1,1,Pin_1*
G04 #@! TO.N,Net-(J1-Pin_1)*
X56750000Y-17000000D03*
G04 #@! TO.P,J1,2,Pin_2*
G04 #@! TO.N,Net-(J1-Pin_2)*
X61750000Y-17000000D03*
G04 #@! TD*
D11*
G04 #@! TO.P,H1,1*
G04 #@! TO.N,N/C*
X50750000Y-12250000D03*
G04 #@! TD*
D12*
G04 #@! TO.P,USBC1,*
G04 #@! TO.N,*
X35150000Y-5262500D03*
X29350000Y-5262500D03*
D13*
G04 #@! TO.P,USBC1,0,SH*
G04 #@! TO.N,GND*
X36580000Y-5762500D03*
G04 #@! TO.P,USBC1,1*
G04 #@! TO.N,N/C*
X27920000Y-5762500D03*
D14*
G04 #@! TO.P,USBC1,2*
X27920000Y-1582500D03*
G04 #@! TO.P,USBC1,3*
X36580000Y-1582500D03*
G04 #@! TD*
D11*
G04 #@! TO.P,H3,1*
G04 #@! TO.N,N/C*
X30000000Y-18500000D03*
G04 #@! TD*
D15*
G04 #@! TO.P,J3,1,Pin_1*
G04 #@! TO.N,/GPIO_19*
X55000000Y-4500000D03*
D16*
G04 #@! TO.P,J3,2,Pin_2*
G04 #@! TO.N,/GPIO_17*
X55000000Y-2500000D03*
G04 #@! TO.P,J3,3,Pin_3*
G04 #@! TO.N,GND*
X57000000Y-4500000D03*
G04 #@! TO.P,J3,4,Pin_4*
X57000000Y-2500000D03*
G04 #@! TO.P,J3,5,Pin_5*
G04 #@! TO.N,/GPIO_4*
X59000000Y-4500000D03*
G04 #@! TO.P,J3,6,Pin_6*
G04 #@! TO.N,/GPIO_16*
X59000000Y-2500000D03*
G04 #@! TD*
D17*
G04 #@! TO.P,TP19,1,1*
G04 #@! TO.N,GND*
X22000000Y-2000000D03*
G04 #@! TD*
G04 #@! TO.P,TP2,1,1*
G04 #@! TO.N,/GPIO_21*
X14500000Y-5000000D03*
G04 #@! TD*
D18*
G04 #@! TO.P,R5,1*
G04 #@! TO.N,/5V*
X59350000Y-7300000D03*
G04 #@! TO.P,R5,2*
G04 #@! TO.N,/GAIN_SLOT*
X59350000Y-9300000D03*
G04 #@! TD*
D19*
G04 #@! TO.P,JP5,1,A*
G04 #@! TO.N,/WLED_VDD*
X36350000Y-12725000D03*
D20*
G04 #@! TO.P,JP5,2,B*
G04 #@! TO.N,/3V3*
X36350000Y-11275000D03*
G04 #@! TD*
D17*
G04 #@! TO.P,TP5,1,1*
G04 #@! TO.N,/GPIO_18*
X18500000Y-5000000D03*
G04 #@! TD*
G04 #@! TO.P,TP17,1,1*
G04 #@! TO.N,GND*
X10500000Y-8800000D03*
G04 #@! TD*
D19*
G04 #@! TO.P,JP3,1,A*
G04 #@! TO.N,/GAIN_SLOT*
X56900000Y-9025000D03*
D20*
G04 #@! TO.P,JP3,2,B*
G04 #@! TO.N,/5V*
X56900000Y-7575000D03*
G04 #@! TD*
D21*
G04 #@! TO.P,J2,1,Pin_1*
G04 #@! TO.N,/3V3*
X21995000Y-16050000D03*
G04 #@! TO.P,J2,2,Pin_2*
G04 #@! TO.N,GND*
X20725000Y-19050000D03*
G04 #@! TO.P,J2,3,Pin_3*
G04 #@! TO.N,/GPIO_26*
X19455000Y-16050000D03*
G04 #@! TO.P,J2,4,Pin_4*
G04 #@! TO.N,/GPIO_25*
X18185000Y-19050000D03*
G04 #@! TO.P,J2,5,Pin_5*
G04 #@! TO.N,/GPIO_33*
X16915000Y-16050000D03*
G04 #@! TO.P,J2,6,Pin_6*
G04 #@! TO.N,/GPIO_32*
X15645000Y-19050000D03*
G04 #@! TO.P,J2,7,Pin_7*
G04 #@! TO.N,/GPIO_35*
X14375000Y-16050000D03*
G04 #@! TO.P,J2,8,Pin_8*
G04 #@! TO.N,/GPIO_34*
X13105000Y-19050000D03*
G04 #@! TD*
D17*
G04 #@! TO.P,TP16,1,1*
G04 #@! TO.N,/ESP_TXD*
X9500000Y-7000000D03*
G04 #@! TD*
G04 #@! TO.P,TP1,1,1*
G04 #@! TO.N,GND*
X19500000Y-12000000D03*
G04 #@! TD*
G04 #@! TO.P,TP18,1,1*
G04 #@! TO.N,/ESP_PROG*
X24000000Y-2000000D03*
G04 #@! TD*
D19*
G04 #@! TO.P,JP4,1,A*
G04 #@! TO.N,/WLED_VDD*
X38900000Y-12725000D03*
D20*
G04 #@! TO.P,JP4,2,B*
G04 #@! TO.N,/5V*
X38900000Y-11275000D03*
G04 #@! TD*
D18*
G04 #@! TO.P,R4,1*
G04 #@! TO.N,/5V*
X61700000Y-7350000D03*
G04 #@! TO.P,R4,2*
G04 #@! TO.N,/SD_MODE*
X61700000Y-9350000D03*
G04 #@! TD*
D17*
G04 #@! TO.P,TP12,1,1*
G04 #@! TO.N,/GPIO_5*
X20500000Y-5000000D03*
G04 #@! TD*
D19*
G04 #@! TO.P,JP2,1,A*
G04 #@! TO.N,GND*
X56900000Y-13525000D03*
D20*
G04 #@! TO.P,JP2,2,B*
G04 #@! TO.N,/GAIN_SLOT*
X56900000Y-12075000D03*
G04 #@! TD*
D17*
G04 #@! TO.P,TP6,1,1*
G04 #@! TO.N,GND*
X18500000Y-7000000D03*
G04 #@! TD*
G04 #@! TO.P,TP15,1,1*
G04 #@! TO.N,/ESP_RXD*
X11500000Y-7000000D03*
G04 #@! TD*
G04 #@! TO.P,TP4,1,1*
G04 #@! TO.N,GND*
X20500000Y-7000000D03*
G04 #@! TD*
D22*
G04 #@! TO.P,JP1,1,A*
G04 #@! TO.N,/SD_MODE*
X61700000Y-12125000D03*
D23*
G04 #@! TO.P,JP1,2,B*
G04 #@! TO.N,/5V*
X61700000Y-13575000D03*
G04 #@! TD*
D17*
G04 #@! TO.P,TP3,1,1*
G04 #@! TO.N,/GPIO_19*
X16500000Y-5000000D03*
G04 #@! TD*
D18*
G04 #@! TO.P,R6,1*
G04 #@! TO.N,/GAIN_SLOT*
X59350000Y-11800000D03*
G04 #@! TO.P,R6,2*
G04 #@! TO.N,GND*
X59350000Y-13800000D03*
G04 #@! TD*
D17*
G04 #@! TO.P,TP13,1,1*
G04 #@! TO.N,GND*
X14500000Y-7000000D03*
G04 #@! TD*
D24*
G04 #@! TO.N,/3V3*
X43950000Y-9600000D03*
X24000000Y-6550000D03*
X32600000Y-12400000D03*
X44800000Y-4000000D03*
X20500000Y-13500000D03*
G04 #@! TO.N,GND*
X26200000Y-20600000D03*
X8700000Y-13600000D03*
X59700000Y-17550000D03*
X9600000Y-4750000D03*
X11300000Y-17700000D03*
X48600000Y-14500000D03*
X51800000Y-18750000D03*
X46750000Y-19000000D03*
X41500000Y-11900000D03*
X47600000Y-10400000D03*
X53400000Y-18800000D03*
X44000000Y-6400000D03*
X46400000Y-6400000D03*
X56050000Y-20300000D03*
X32500000Y-1800000D03*
X12900000Y-5700000D03*
X51650000Y-20400000D03*
X56700000Y-18650000D03*
X58250000Y-20400000D03*
X58450000Y-18450000D03*
X9900000Y-10500000D03*
X38900000Y-1800000D03*
X33600000Y-17900000D03*
X54400000Y-12600000D03*
X47700000Y-13400000D03*
X32900000Y-20900000D03*
X23600000Y-16500000D03*
X51150000Y-17150000D03*
X27900000Y-7400000D03*
X53650000Y-20350000D03*
X44800000Y-14600000D03*
X45000000Y-1700000D03*
X23000000Y-13500000D03*
X49900000Y-3600000D03*
X54550000Y-17200000D03*
X38600000Y-6400000D03*
X41400000Y-17300000D03*
X61100000Y-19100000D03*
X47250000Y-18500000D03*
X40100000Y-17300000D03*
X31500000Y-12100000D03*
X46400000Y-11500000D03*
X49400000Y-6500000D03*
G04 #@! TO.N,/5V*
X44800000Y-12800000D03*
X50450000Y-21500000D03*
X48000000Y-15950000D03*
X42500000Y-10500000D03*
X43500000Y-7900000D03*
D25*
G04 #@! TO.N,/SD_MODE*
X58800000Y-10600000D03*
X44700000Y-19900000D03*
X59900000Y-10600000D03*
G04 #@! TO.N,/GAIN_SLOT*
X44800000Y-18590000D03*
G04 #@! TO.N,/ESP_PROG*
X26000000Y-2000000D03*
G04 #@! TO.N,/ESP_EN*
X10400000Y-18400000D03*
X29700000Y-11300000D03*
G04 #@! TO.N,/USB_N*
X32547488Y-8249936D03*
X23680000Y-18510000D03*
G04 #@! TO.N,/ESP_TXD*
X9500000Y-5800000D03*
G04 #@! TO.N,/ESP_RXD*
X11500000Y-5800000D03*
G04 #@! TO.N,/USB_P*
X23560000Y-17610000D03*
X32052512Y-7754960D03*
G04 #@! TO.N,/GPIO_21*
X14397500Y-3400000D03*
G04 #@! TO.N,/GPIO_19*
X15667500Y-3300000D03*
G04 #@! TO.N,/GPIO_16*
X21830000Y-8840000D03*
G04 #@! TO.N,/GPIO_17*
X19800000Y-3400000D03*
G04 #@! TO.N,/GPIO_5*
X18600000Y-3500000D03*
G04 #@! TO.N,/GPIO_18*
X16900000Y-3300000D03*
G04 #@! TO.N,/GPIO_4*
X22400000Y-8550000D03*
G04 #@! TO.N,/GPIO_35*
X15300000Y-16350000D03*
G04 #@! TO.N,/GPIO_25*
X19000000Y-18400000D03*
G04 #@! TO.N,/GPIO_32*
X16550000Y-18400000D03*
G04 #@! TO.N,/GPIO_26*
X20200000Y-16250000D03*
G04 #@! TO.N,/GPIO_34*
X13800000Y-18350000D03*
G04 #@! TO.N,/GPIO_33*
X17850000Y-16150000D03*
D24*
G04 #@! TO.N,/WLED_VDD*
X27400000Y-16500000D03*
X41900000Y-21600000D03*
X52800000Y-8300000D03*
D25*
G04 #@! TO.N,Net-(LED3-DO)*
X30800000Y-15600000D03*
X40650000Y-21600000D03*
G04 #@! TO.N,Net-(LED4-DO)*
X49500000Y-20400000D03*
X42200000Y-17800000D03*
G04 #@! TD*
D26*
G04 #@! TO.N,/3V3*
X34500000Y-9600000D02*
X34675000Y-9600000D01*
D27*
X26550000Y-4000000D02*
X44800000Y-4000000D01*
D26*
X43950000Y-9600000D02*
X34500000Y-9600000D01*
X32600000Y-11500000D02*
X34500000Y-9600000D01*
X34675000Y-9600000D02*
X36350000Y-11275000D01*
X32600000Y-12400000D02*
X32600000Y-11500000D01*
D28*
X20900000Y-13500000D02*
X21995000Y-14595000D01*
D27*
X24000000Y-6550000D02*
X26550000Y-4000000D01*
D28*
X20900000Y-13500000D02*
X20500000Y-13500000D01*
D29*
X21995000Y-16050000D02*
X21995000Y-14595000D01*
G04 #@! TO.N,/5V*
X61700000Y-13575000D02*
X62455000Y-13575000D01*
X56900000Y-7575000D02*
X59075000Y-7575000D01*
D27*
X44850000Y-12800000D02*
X50450000Y-18400000D01*
D29*
X56900000Y-7575000D02*
X43825000Y-7575000D01*
X62705000Y-8355000D02*
X61700000Y-7350000D01*
D27*
X50450000Y-18400000D02*
X50450000Y-21500000D01*
X44800000Y-12800000D02*
X44850000Y-12800000D01*
X42500000Y-10500000D02*
X39520097Y-10500000D01*
D29*
X62705000Y-13325000D02*
X62705000Y-8355000D01*
D27*
X39520097Y-10500000D02*
X38900000Y-11120097D01*
D29*
X62455000Y-13575000D02*
X62705000Y-13325000D01*
X61700000Y-7350000D02*
X59400000Y-7350000D01*
X43825000Y-7575000D02*
X43500000Y-7900000D01*
D30*
G04 #@! TO.N,/SD_MODE*
X44000000Y-17111177D02*
X45330000Y-18441177D01*
X59900000Y-10600000D02*
X60000000Y-10500000D01*
X61700000Y-10500000D02*
X61700000Y-12125000D01*
X55000000Y-9285000D02*
X47325000Y-9285000D01*
X56315000Y-10600000D02*
X55000000Y-9285000D01*
X60000000Y-10500000D02*
X61700000Y-10500000D01*
X58800000Y-10600000D02*
X56315000Y-10600000D01*
X47325000Y-9285000D02*
X44000000Y-12610000D01*
X45330000Y-19270000D02*
X44700000Y-19900000D01*
X45330000Y-18441177D02*
X45330000Y-19270000D01*
X44000000Y-12610000D02*
X44000000Y-17111177D01*
X61700000Y-9350000D02*
X61700000Y-10500000D01*
G04 #@! TO.N,/GAIN_SLOT*
X47217304Y-9025000D02*
X56900000Y-9025000D01*
X56900000Y-9025000D02*
X59075000Y-9025000D01*
X44800000Y-18590000D02*
X44800000Y-18300000D01*
X43739999Y-12502305D02*
X47217304Y-9025000D01*
X44800000Y-18300000D02*
X43739999Y-17239999D01*
X43739999Y-17239999D02*
X43739999Y-12502305D01*
X59350000Y-9300000D02*
X59350000Y-11800000D01*
X59350000Y-11800000D02*
X57175000Y-11800000D01*
G04 #@! TO.N,/ESP_PROG*
X24000000Y-2000000D02*
X26000000Y-2000000D01*
G04 #@! TO.N,/ESP_EN*
X10400000Y-18400000D02*
X10400000Y-17840000D01*
X29100000Y-10700000D02*
X29700000Y-11300000D01*
X17540000Y-10700000D02*
X27900000Y-10700000D01*
X27900000Y-10700000D02*
X29100000Y-10700000D01*
X10400000Y-17840000D02*
X17540000Y-10700000D01*
D31*
G04 #@! TO.N,/USB_N*
X32547488Y-9797512D02*
X32547488Y-8249936D01*
X23680000Y-18510000D02*
X23835000Y-18510000D01*
X23835000Y-18510000D02*
X32547488Y-9797512D01*
D30*
G04 #@! TO.N,/ESP_TXD*
X9500000Y-5800000D02*
X9500000Y-7000000D01*
G04 #@! TO.N,/ESP_RXD*
X11500000Y-5800000D02*
X11500000Y-7000000D01*
D31*
G04 #@! TO.N,/USB_P*
X32047488Y-7759984D02*
X32052512Y-7754960D01*
X23560000Y-17610000D02*
X23570000Y-17600000D01*
X23570000Y-17600000D02*
X24165736Y-17600000D01*
X32047488Y-9718248D02*
X32047488Y-7759984D01*
X24165736Y-17600000D02*
X32047488Y-9718248D01*
D30*
G04 #@! TO.N,/GPIO_21*
X14397500Y-3400000D02*
X14500000Y-3502500D01*
X14500000Y-3502500D02*
X14500000Y-5000000D01*
G04 #@! TO.N,/GPIO_19*
X41392304Y-5240000D02*
X39052304Y-7580000D01*
X39052304Y-7580000D02*
X34915392Y-7580000D01*
X54260000Y-5240000D02*
X41392304Y-5240000D01*
X31164608Y-6000000D02*
X28784608Y-8380000D01*
X55000000Y-4500000D02*
X54260000Y-5240000D01*
X17650000Y-8070000D02*
X16500000Y-6920000D01*
X15667500Y-3300000D02*
X15667500Y-4167500D01*
X16500000Y-6920000D02*
X16500000Y-5000000D01*
X22988112Y-8380000D02*
X22678112Y-8070000D01*
X28784608Y-8380000D02*
X22988112Y-8380000D01*
X34915392Y-7580000D02*
X33335392Y-6000000D01*
X15667500Y-4167500D02*
X16500000Y-5000000D01*
X22678112Y-8070000D02*
X17650000Y-8070000D01*
X33335392Y-6000000D02*
X31164608Y-6000000D01*
G04 #@! TO.N,/GPIO_16*
X33120000Y-6520000D02*
X34700000Y-8100000D01*
X29000000Y-8900000D02*
X31380000Y-6520000D01*
X31380000Y-6520000D02*
X33120000Y-6520000D01*
X22728823Y-8900000D02*
X29000000Y-8900000D01*
X22020000Y-9030000D02*
X22598823Y-9030000D01*
X21830000Y-8840000D02*
X22020000Y-9030000D01*
X22598823Y-9030000D02*
X22728823Y-8900000D01*
X59855000Y-3355000D02*
X59000000Y-2500000D01*
X34700000Y-8100000D02*
X39267696Y-8100000D01*
X58949153Y-5760000D02*
X59855000Y-4854153D01*
X59855000Y-4854153D02*
X59855000Y-3355000D01*
X41607696Y-5760000D02*
X58949153Y-5760000D01*
X39267696Y-8100000D02*
X41607696Y-5760000D01*
G04 #@! TO.N,/GPIO_17*
X21700000Y-5238334D02*
X19861666Y-3400000D01*
X38944608Y-7320000D02*
X35023088Y-7320000D01*
X28676912Y-8120000D02*
X23095808Y-8120000D01*
X50499999Y-4979999D02*
X41284609Y-4979999D01*
X55000000Y-2500000D02*
X52520000Y-4980000D01*
X21700000Y-6724192D02*
X21700000Y-5238334D01*
X52520000Y-4980000D02*
X50500000Y-4980000D01*
X35023088Y-7320000D02*
X33403088Y-5700000D01*
X50500000Y-4980000D02*
X50499999Y-4979999D01*
X33403088Y-5700000D02*
X31096912Y-5700000D01*
X31096912Y-5700000D02*
X28676912Y-8120000D01*
X41284609Y-4979999D02*
X38944608Y-7320000D01*
X19861666Y-3400000D02*
X19800000Y-3400000D01*
X23095808Y-8120000D02*
X21700000Y-6724192D01*
G04 #@! TO.N,/GPIO_5*
X18600000Y-3500000D02*
X19000000Y-3500000D01*
X19000000Y-3500000D02*
X20500000Y-5000000D01*
G04 #@! TO.N,/GPIO_18*
X16900000Y-3300000D02*
X16900000Y-3400000D01*
X16900000Y-3400000D02*
X18500000Y-5000000D01*
G04 #@! TO.N,/GPIO_4*
X28892304Y-8640000D02*
X31272304Y-6260000D01*
X39160000Y-7840000D02*
X41500000Y-5500000D01*
X22490000Y-8640000D02*
X28892304Y-8640000D01*
X41500000Y-5500000D02*
X57209153Y-5500000D01*
X58209153Y-4500000D02*
X59000000Y-4500000D01*
X31272304Y-6260000D02*
X33227696Y-6260000D01*
X33227696Y-6260000D02*
X34807696Y-7840000D01*
X22400000Y-8550000D02*
X22490000Y-8640000D01*
X34807696Y-7840000D02*
X39160000Y-7840000D01*
X57209153Y-5500000D02*
X58209153Y-4500000D01*
G04 #@! TO.N,/GPIO_35*
X15300000Y-16350000D02*
X14675000Y-16350000D01*
X14675000Y-16350000D02*
X14375000Y-16050000D01*
G04 #@! TO.N,/GPIO_25*
X19000000Y-18400000D02*
X18835000Y-18400000D01*
X18835000Y-18400000D02*
X18185000Y-19050000D01*
G04 #@! TO.N,/GPIO_32*
X16550000Y-18400000D02*
X16295000Y-18400000D01*
X16295000Y-18400000D02*
X15645000Y-19050000D01*
G04 #@! TO.N,/GPIO_26*
X20200000Y-16250000D02*
X19655000Y-16250000D01*
G04 #@! TO.N,/GPIO_34*
X13800000Y-18355000D02*
X13105000Y-19050000D01*
X13800000Y-18350000D02*
X13800000Y-18355000D01*
G04 #@! TO.N,/GPIO_33*
X17850000Y-16150000D02*
X17015000Y-16150000D01*
D26*
G04 #@! TO.N,/WLED_VDD*
X52700000Y-8200000D02*
X52800000Y-8300000D01*
X33400000Y-13230000D02*
X30670000Y-13230000D01*
X38900000Y-12725000D02*
X36350000Y-12725000D01*
X36350000Y-12725000D02*
X35845000Y-13230000D01*
X33400000Y-13230000D02*
X33449239Y-13230000D01*
X49800000Y-8200000D02*
X52700000Y-8200000D01*
X33449239Y-13230000D02*
X37409620Y-17190380D01*
X35845000Y-13230000D02*
X33400000Y-13230000D01*
X37409620Y-17190380D02*
X41819239Y-21600000D01*
X37409620Y-17190380D02*
X46400000Y-8200000D01*
X30670000Y-13230000D02*
X27400000Y-16500000D01*
X46400000Y-8200000D02*
X49800000Y-8200000D01*
X41819239Y-21600000D02*
X41900000Y-21600000D01*
D30*
G04 #@! TO.N,Net-(LED3-DO)*
X40650000Y-21600000D02*
X38578823Y-21600000D01*
X38578823Y-21600000D02*
X32578823Y-15600000D01*
X32578823Y-15600000D02*
X30800000Y-15600000D01*
G04 #@! TO.N,Net-(LED4-DO)*
X42200000Y-17800000D02*
X42200000Y-20500000D01*
X42200000Y-20500000D02*
X43400000Y-21700000D01*
X48200000Y-21700000D02*
X49500000Y-20400000D01*
X43400000Y-21700000D02*
X48200000Y-21700000D01*
G04 #@! TD*
G04 #@! TA.AperFunction,Conductor*
G04 #@! TO.N,GND*
G36*
X40986604Y-4719407D02*
G01*
X41022568Y-4768907D01*
X41022568Y-4830093D01*
X40998417Y-4869504D01*
X38857418Y-7010504D01*
X38802901Y-7038281D01*
X38787414Y-7039500D01*
X37123796Y-7039500D01*
X37065605Y-7020593D01*
X37029641Y-6971093D01*
X37029641Y-6909907D01*
X37065605Y-6860407D01*
X37068795Y-6858184D01*
X37121840Y-6822740D01*
X37240240Y-6704340D01*
X37333260Y-6565125D01*
X37397335Y-6410434D01*
X37429999Y-6246220D01*
X37430000Y-6246216D01*
X37430000Y-6012501D01*
X37429999Y-6012500D01*
X36979999Y-6012500D01*
X36979999Y-5512500D01*
X37429999Y-5512500D01*
X37430000Y-5512499D01*
X37430000Y-5278783D01*
X37429999Y-5278779D01*
X37397335Y-5114565D01*
X37333260Y-4959874D01*
X37262852Y-4854501D01*
X37246244Y-4795613D01*
X37267422Y-4738210D01*
X37318295Y-4704217D01*
X37345168Y-4700500D01*
X40928413Y-4700500D01*
X40986604Y-4719407D01*
G37*
G04 #@! TD.AperFunction*
G04 #@! TA.AperFunction,Conductor*
G36*
X27389106Y-519406D02*
G01*
X27425070Y-568906D01*
X27425070Y-630092D01*
X27400919Y-669503D01*
X27298214Y-772207D01*
X27298211Y-772211D01*
X27210609Y-903314D01*
X27210603Y-903325D01*
X27150263Y-1049001D01*
X27150263Y-1049003D01*
X27119500Y-1203655D01*
X27119500Y-1961344D01*
X27150263Y-2115996D01*
X27150263Y-2115998D01*
X27210603Y-2261674D01*
X27210609Y-2261685D01*
X27263312Y-2340559D01*
X27298211Y-2392789D01*
X27409711Y-2504289D01*
X27482105Y-2552661D01*
X27540814Y-2591890D01*
X27540825Y-2591896D01*
X27594638Y-2614185D01*
X27686503Y-2652237D01*
X27841158Y-2683000D01*
X27841159Y-2683000D01*
X27998841Y-2683000D01*
X27998842Y-2683000D01*
X28153497Y-2652237D01*
X28299179Y-2591894D01*
X28430289Y-2504289D01*
X28541789Y-2392789D01*
X28629394Y-2261679D01*
X28689737Y-2115997D01*
X28720500Y-1961342D01*
X28720500Y-1203658D01*
X28689737Y-1049003D01*
X28629394Y-903321D01*
X28629393Y-903319D01*
X28629390Y-903314D01*
X28594017Y-850376D01*
X28541789Y-772211D01*
X28439081Y-669503D01*
X28411304Y-614986D01*
X28420875Y-554554D01*
X28464140Y-511289D01*
X28509085Y-500499D01*
X35990915Y-500499D01*
X36049106Y-519406D01*
X36085070Y-568906D01*
X36085070Y-630092D01*
X36060919Y-669503D01*
X35958214Y-772207D01*
X35958211Y-772211D01*
X35870609Y-903314D01*
X35870603Y-903325D01*
X35810263Y-1049001D01*
X35810263Y-1049003D01*
X35779500Y-1203655D01*
X35779500Y-1961344D01*
X35810263Y-2115996D01*
X35810263Y-2115998D01*
X35870603Y-2261674D01*
X35870609Y-2261685D01*
X35923312Y-2340559D01*
X35958211Y-2392789D01*
X36069711Y-2504289D01*
X36142105Y-2552661D01*
X36200814Y-2591890D01*
X36200825Y-2591896D01*
X36254638Y-2614185D01*
X36346503Y-2652237D01*
X36501158Y-2683000D01*
X36501159Y-2683000D01*
X36658841Y-2683000D01*
X36658842Y-2683000D01*
X36813497Y-2652237D01*
X36959179Y-2591894D01*
X37090289Y-2504289D01*
X37201789Y-2392789D01*
X37289394Y-2261679D01*
X37349737Y-2115997D01*
X37380500Y-1961342D01*
X37380500Y-1203658D01*
X37349737Y-1049003D01*
X37289394Y-903321D01*
X37289393Y-903319D01*
X37289390Y-903314D01*
X37254017Y-850376D01*
X37201789Y-772211D01*
X37099081Y-669503D01*
X37071304Y-614986D01*
X37080875Y-554554D01*
X37124140Y-511289D01*
X37169085Y-500499D01*
X63060712Y-500499D01*
X63075292Y-501578D01*
X63218737Y-522939D01*
X63234848Y-526737D01*
X63378443Y-573564D01*
X63393694Y-579993D01*
X63527480Y-650093D01*
X63541449Y-658974D01*
X63661682Y-750384D01*
X63673976Y-761470D01*
X63777291Y-871630D01*
X63787567Y-884610D01*
X63871091Y-1010461D01*
X63879059Y-1024970D01*
X63940436Y-1162958D01*
X63945876Y-1178593D01*
X63983408Y-1324897D01*
X63986166Y-1341220D01*
X63999153Y-1496008D01*
X63999500Y-1504285D01*
X63999500Y-21900500D01*
X63980593Y-21958691D01*
X63931093Y-21994655D01*
X63900500Y-21999500D01*
X51143945Y-21999500D01*
X51085754Y-21980593D01*
X51049790Y-21931093D01*
X51049790Y-21869907D01*
X51061631Y-21845497D01*
X51070770Y-21831819D01*
X51070771Y-21831816D01*
X51070775Y-21831811D01*
X51123580Y-21704328D01*
X51150500Y-21568993D01*
X51150500Y-18331007D01*
X51149404Y-18325500D01*
X51149405Y-18325488D01*
X51149402Y-18325489D01*
X51123580Y-18195672D01*
X51070775Y-18068189D01*
X50994114Y-17953457D01*
X50040657Y-17000000D01*
X55544357Y-17000000D01*
X55564885Y-17221536D01*
X55625771Y-17435528D01*
X55724942Y-17634689D01*
X55859019Y-17812236D01*
X56023438Y-17962124D01*
X56212599Y-18079247D01*
X56420060Y-18159618D01*
X56638757Y-18200500D01*
X56861243Y-18200500D01*
X57079940Y-18159618D01*
X57287401Y-18079247D01*
X57476562Y-17962124D01*
X57640981Y-17812236D01*
X57775058Y-17634689D01*
X57874229Y-17435528D01*
X57935115Y-17221536D01*
X57955643Y-17000000D01*
X60544357Y-17000000D01*
X60564885Y-17221536D01*
X60625771Y-17435528D01*
X60724942Y-17634689D01*
X60859019Y-17812236D01*
X61023438Y-17962124D01*
X61212599Y-18079247D01*
X61420060Y-18159618D01*
X61638757Y-18200500D01*
X61861243Y-18200500D01*
X62079940Y-18159618D01*
X62287401Y-18079247D01*
X62476562Y-17962124D01*
X62640981Y-17812236D01*
X62775058Y-17634689D01*
X62874229Y-17435528D01*
X62935115Y-17221536D01*
X62955643Y-17000000D01*
X62935115Y-16778464D01*
X62874229Y-16564472D01*
X62775058Y-16365311D01*
X62640981Y-16187764D01*
X62476562Y-16037876D01*
X62287401Y-15920753D01*
X62079940Y-15840382D01*
X62079939Y-15840381D01*
X62079937Y-15840381D01*
X61861243Y-15799500D01*
X61638757Y-15799500D01*
X61420062Y-15840381D01*
X61386921Y-15853220D01*
X61212599Y-15920753D01*
X61064853Y-16012233D01*
X61023438Y-16037876D01*
X60859020Y-16187763D01*
X60724943Y-16365309D01*
X60724938Y-16365318D01*
X60625772Y-16564469D01*
X60625771Y-16564472D01*
X60564885Y-16778464D01*
X60544357Y-17000000D01*
X57955643Y-17000000D01*
X57935115Y-16778464D01*
X57874229Y-16564472D01*
X57775058Y-16365311D01*
X57640981Y-16187764D01*
X57476562Y-16037876D01*
X57287401Y-15920753D01*
X57079940Y-15840382D01*
X57079939Y-15840381D01*
X57079937Y-15840381D01*
X56861243Y-15799500D01*
X56638757Y-15799500D01*
X56420062Y-15840381D01*
X56386921Y-15853220D01*
X56212599Y-15920753D01*
X56064853Y-16012233D01*
X56023438Y-16037876D01*
X55859020Y-16187763D01*
X55724943Y-16365309D01*
X55724938Y-16365318D01*
X55625772Y-16564469D01*
X55625771Y-16564472D01*
X55564885Y-16778464D01*
X55544357Y-17000000D01*
X50040657Y-17000000D01*
X45296543Y-12255886D01*
X45287734Y-12250000D01*
X45181810Y-12179224D01*
X45068133Y-12132138D01*
X45021608Y-12092401D01*
X45007324Y-12032907D01*
X45030739Y-11976379D01*
X45036002Y-11970683D01*
X47412190Y-9594496D01*
X47466707Y-9566719D01*
X47482194Y-9565500D01*
X50166028Y-9565500D01*
X50224219Y-9584407D01*
X50260183Y-9633907D01*
X50260183Y-9695093D01*
X50224219Y-9744593D01*
X50190650Y-9760388D01*
X50095953Y-9784703D01*
X49960293Y-9819534D01*
X49661904Y-9937674D01*
X49661901Y-9937676D01*
X49380682Y-10092277D01*
X49380673Y-10092283D01*
X49380672Y-10092284D01*
X49245790Y-10190281D01*
X49121033Y-10280922D01*
X48887093Y-10500605D01*
X48887083Y-10500616D01*
X48682521Y-10747890D01*
X48510568Y-11018844D01*
X48510561Y-11018857D01*
X48373918Y-11309235D01*
X48274745Y-11614460D01*
X48274742Y-11614470D01*
X48214608Y-11929700D01*
X48194457Y-12250000D01*
X48214608Y-12570299D01*
X48274742Y-12885529D01*
X48274744Y-12885538D01*
X48364567Y-13161985D01*
X48373918Y-13190764D01*
X48510561Y-13481142D01*
X48510568Y-13481155D01*
X48682521Y-13752109D01*
X48887083Y-13999383D01*
X48887093Y-13999394D01*
X49016300Y-14120727D01*
X49121036Y-14219080D01*
X49380672Y-14407716D01*
X49380679Y-14407719D01*
X49380682Y-14407722D01*
X49661901Y-14562323D01*
X49661904Y-14562325D01*
X49811098Y-14621395D01*
X49960294Y-14680466D01*
X50271139Y-14760277D01*
X50589536Y-14800500D01*
X50910464Y-14800500D01*
X51228861Y-14760277D01*
X51539706Y-14680466D01*
X51786688Y-14582678D01*
X51838095Y-14562325D01*
X51838097Y-14562324D01*
X52119328Y-14407716D01*
X52378964Y-14219080D01*
X52401599Y-14197824D01*
X58399999Y-14197824D01*
X58406401Y-14257370D01*
X58406403Y-14257381D01*
X58456646Y-14392088D01*
X58456647Y-14392090D01*
X58542807Y-14507184D01*
X58542815Y-14507192D01*
X58657909Y-14593352D01*
X58657911Y-14593353D01*
X58792618Y-14643596D01*
X58792629Y-14643598D01*
X58852176Y-14650000D01*
X59099999Y-14650000D01*
X59100000Y-14649999D01*
X59100000Y-14050001D01*
X59600000Y-14050001D01*
X59600000Y-14649999D01*
X59600001Y-14650000D01*
X59847824Y-14650000D01*
X59907370Y-14643598D01*
X59907381Y-14643596D01*
X60042088Y-14593353D01*
X60042090Y-14593352D01*
X60157184Y-14507192D01*
X60157192Y-14507184D01*
X60243352Y-14392090D01*
X60243353Y-14392088D01*
X60293596Y-14257381D01*
X60293598Y-14257370D01*
X60300000Y-14197824D01*
X60300000Y-14050001D01*
X60299999Y-14050000D01*
X59600001Y-14050000D01*
X59600000Y-14050001D01*
X59100000Y-14050001D01*
X59099999Y-14050000D01*
X58400001Y-14050000D01*
X58400000Y-14050001D01*
X58400000Y-14197824D01*
X58399999Y-14197824D01*
X52401599Y-14197824D01*
X52612911Y-13999390D01*
X52817478Y-13752110D01*
X52989439Y-13481142D01*
X53026598Y-13402175D01*
X58400000Y-13402175D01*
X58400000Y-13549999D01*
X58400001Y-13550000D01*
X59099999Y-13550000D01*
X59100000Y-13549999D01*
X59100000Y-12950001D01*
X59600000Y-12950001D01*
X59600000Y-13549999D01*
X59600001Y-13550000D01*
X60299999Y-13550000D01*
X60300000Y-13549999D01*
X60300000Y-13402175D01*
X60293598Y-13342629D01*
X60293596Y-13342618D01*
X60243353Y-13207911D01*
X60243352Y-13207909D01*
X60157192Y-13092815D01*
X60157184Y-13092807D01*
X60042090Y-13006647D01*
X60042088Y-13006646D01*
X59907381Y-12956403D01*
X59907370Y-12956401D01*
X59847824Y-12950000D01*
X59600001Y-12950000D01*
X59600000Y-12950001D01*
X59100000Y-12950001D01*
X59099999Y-12950000D01*
X58852176Y-12950000D01*
X58792629Y-12956401D01*
X58792618Y-12956403D01*
X58657911Y-13006646D01*
X58657909Y-13006647D01*
X58542815Y-13092807D01*
X58542807Y-13092815D01*
X58456647Y-13207909D01*
X58456646Y-13207911D01*
X58406403Y-13342618D01*
X58406401Y-13342629D01*
X58400000Y-13402175D01*
X53026598Y-13402175D01*
X53126084Y-13190758D01*
X53225256Y-12885538D01*
X53285392Y-12570294D01*
X53305543Y-12250000D01*
X53285392Y-11929706D01*
X53284496Y-11925011D01*
X53242968Y-11707314D01*
X53225256Y-11614462D01*
X53126084Y-11309242D01*
X53124941Y-11306814D01*
X53074914Y-11200500D01*
X52989439Y-11018858D01*
X52989435Y-11018853D01*
X52989431Y-11018844D01*
X52817478Y-10747890D01*
X52612916Y-10500616D01*
X52612906Y-10500605D01*
X52378966Y-10280922D01*
X52378964Y-10280920D01*
X52119328Y-10092284D01*
X52119322Y-10092280D01*
X52119317Y-10092277D01*
X51838098Y-9937676D01*
X51838095Y-9937674D01*
X51539706Y-9819534D01*
X51309350Y-9760389D01*
X51257691Y-9727605D01*
X51235167Y-9670717D01*
X51250383Y-9611453D01*
X51297527Y-9572452D01*
X51333972Y-9565500D01*
X54842806Y-9565500D01*
X54900997Y-9584407D01*
X54912809Y-9594495D01*
X56142769Y-10824456D01*
X56206731Y-10861384D01*
X56206733Y-10861384D01*
X56206734Y-10861385D01*
X56218841Y-10864629D01*
X56278068Y-10880499D01*
X56278070Y-10880500D01*
X56278071Y-10880500D01*
X56278072Y-10880500D01*
X58437744Y-10880500D01*
X58495935Y-10899407D01*
X58507747Y-10909496D01*
X58530500Y-10932248D01*
X58546780Y-10948528D01*
X58566157Y-10958401D01*
X58609419Y-11001663D01*
X58618991Y-11062095D01*
X58591214Y-11116612D01*
X58580001Y-11126262D01*
X58577855Y-11127845D01*
X58577845Y-11127855D01*
X58497207Y-11237116D01*
X58452355Y-11365296D01*
X58452353Y-11365305D01*
X58449500Y-11395725D01*
X58449500Y-11420500D01*
X58430593Y-11478691D01*
X58381093Y-11514655D01*
X58350500Y-11519500D01*
X57907848Y-11519500D01*
X57849657Y-11500593D01*
X57818653Y-11463456D01*
X57810667Y-11446874D01*
X57810666Y-11446873D01*
X57739162Y-11389850D01*
X57650000Y-11369500D01*
X56150000Y-11369500D01*
X56149998Y-11369500D01*
X56104272Y-11374651D01*
X56021872Y-11414334D01*
X55964850Y-11485837D01*
X55944500Y-11575000D01*
X55944500Y-12724999D01*
X55944501Y-12725011D01*
X55957933Y-12798079D01*
X55957935Y-12798085D01*
X56008666Y-12874181D01*
X56087389Y-12920730D01*
X56094558Y-12921342D01*
X56178514Y-12928512D01*
X56263991Y-12895986D01*
X56845085Y-12508589D01*
X56903989Y-12492043D01*
X56954914Y-12508590D01*
X57536006Y-12895985D01*
X57536009Y-12895986D01*
X57604272Y-12925348D01*
X57604273Y-12925348D01*
X57695728Y-12925348D01*
X57778127Y-12885666D01*
X57835149Y-12814163D01*
X57855500Y-12725000D01*
X57855500Y-12179500D01*
X57874407Y-12121309D01*
X57923907Y-12085345D01*
X57954500Y-12080500D01*
X58350500Y-12080500D01*
X58408691Y-12099407D01*
X58444655Y-12148907D01*
X58449500Y-12179500D01*
X58449500Y-12204274D01*
X58452353Y-12234694D01*
X58452355Y-12234703D01*
X58497206Y-12362880D01*
X58497207Y-12362883D01*
X58577845Y-12472144D01*
X58577847Y-12472146D01*
X58577850Y-12472150D01*
X58577853Y-12472152D01*
X58577855Y-12472154D01*
X58687116Y-12552792D01*
X58687117Y-12552792D01*
X58687118Y-12552793D01*
X58815301Y-12597646D01*
X58845725Y-12600499D01*
X58845727Y-12600500D01*
X58845734Y-12600500D01*
X59854273Y-12600500D01*
X59854273Y-12600499D01*
X59884699Y-12597646D01*
X60012882Y-12552793D01*
X60122150Y-12472150D01*
X60202793Y-12362882D01*
X60206058Y-12353553D01*
X60232547Y-12277849D01*
X60247646Y-12234699D01*
X60250499Y-12204273D01*
X60250500Y-12204273D01*
X60250500Y-11395727D01*
X60250499Y-11395725D01*
X60249948Y-11389850D01*
X60247646Y-11365301D01*
X60202793Y-11237118D01*
X60202621Y-11236885D01*
X60122154Y-11127855D01*
X60122152Y-11127853D01*
X60122150Y-11127850D01*
X60120002Y-11126264D01*
X60118591Y-11124292D01*
X60116903Y-11122604D01*
X60117183Y-11122323D01*
X60084409Y-11076499D01*
X60084865Y-11015316D01*
X60121197Y-10966085D01*
X60133830Y-10958407D01*
X60153220Y-10948528D01*
X60248528Y-10853220D01*
X60258038Y-10834554D01*
X60301303Y-10791290D01*
X60346248Y-10780500D01*
X61320500Y-10780500D01*
X61378691Y-10799407D01*
X61414655Y-10848907D01*
X61419500Y-10879500D01*
X61419500Y-11320500D01*
X61400593Y-11378691D01*
X61351093Y-11414655D01*
X61320500Y-11419500D01*
X60949998Y-11419500D01*
X60904272Y-11424651D01*
X60821872Y-11464334D01*
X60764850Y-11535837D01*
X60744500Y-11625000D01*
X60744500Y-12625009D01*
X60745244Y-12642484D01*
X60745244Y-12642485D01*
X60751197Y-12661093D01*
X60767031Y-12710593D01*
X60776509Y-12740219D01*
X60774285Y-12740930D01*
X60784269Y-12785624D01*
X60768317Y-12825129D01*
X60769689Y-12825790D01*
X60764851Y-12835835D01*
X60744500Y-12925000D01*
X60744500Y-14075001D01*
X60749651Y-14120727D01*
X60778435Y-14180496D01*
X60789334Y-14203127D01*
X60860837Y-14260149D01*
X60950000Y-14280500D01*
X62449999Y-14280500D01*
X62450000Y-14280500D01*
X62495728Y-14275348D01*
X62578127Y-14235666D01*
X62635149Y-14164163D01*
X62655500Y-14075000D01*
X62655500Y-13911189D01*
X62674407Y-13852998D01*
X62684496Y-13841186D01*
X62741127Y-13784555D01*
X62985469Y-13540212D01*
X63031614Y-13460288D01*
X63031616Y-13460282D01*
X63037127Y-13439714D01*
X63037127Y-13439712D01*
X63039941Y-13429210D01*
X63055500Y-13371144D01*
X63055500Y-8308856D01*
X63031614Y-8219712D01*
X63012014Y-8185764D01*
X63012013Y-8185762D01*
X63012013Y-8185761D01*
X62995185Y-8156615D01*
X62985470Y-8139788D01*
X62811393Y-7965711D01*
X62629496Y-7783813D01*
X62601719Y-7729297D01*
X62600500Y-7713810D01*
X62600500Y-6945727D01*
X62600499Y-6945725D01*
X62599127Y-6931093D01*
X62597646Y-6915301D01*
X62552793Y-6787118D01*
X62550705Y-6784289D01*
X62472154Y-6677855D01*
X62472152Y-6677853D01*
X62472150Y-6677850D01*
X62472146Y-6677847D01*
X62472144Y-6677845D01*
X62362883Y-6597207D01*
X62234703Y-6552355D01*
X62234694Y-6552353D01*
X62204274Y-6549500D01*
X62204266Y-6549500D01*
X61195734Y-6549500D01*
X61195725Y-6549500D01*
X61165305Y-6552353D01*
X61165296Y-6552355D01*
X61037116Y-6597207D01*
X60927855Y-6677845D01*
X60927845Y-6677855D01*
X60847207Y-6787116D01*
X60802355Y-6915296D01*
X60801069Y-6921185D01*
X60798193Y-6920556D01*
X60778656Y-6965871D01*
X60726033Y-6997087D01*
X60704308Y-6999500D01*
X60349500Y-6999500D01*
X60291309Y-6980593D01*
X60255345Y-6931093D01*
X60250500Y-6900500D01*
X60250500Y-6895727D01*
X60250499Y-6895725D01*
X60248264Y-6871890D01*
X60247646Y-6865301D01*
X60202793Y-6737118D01*
X60159055Y-6677855D01*
X60122154Y-6627855D01*
X60122152Y-6627853D01*
X60122150Y-6627850D01*
X60122146Y-6627847D01*
X60122144Y-6627845D01*
X60012883Y-6547207D01*
X59884703Y-6502355D01*
X59884694Y-6502353D01*
X59854274Y-6499500D01*
X59854266Y-6499500D01*
X58845734Y-6499500D01*
X58845725Y-6499500D01*
X58815305Y-6502353D01*
X58815296Y-6502355D01*
X58687116Y-6547207D01*
X58577855Y-6627845D01*
X58577845Y-6627855D01*
X58497207Y-6737116D01*
X58452355Y-6865296D01*
X58452353Y-6865305D01*
X58449500Y-6895725D01*
X58449500Y-7125500D01*
X58430593Y-7183691D01*
X58381093Y-7219655D01*
X58350500Y-7224500D01*
X57954500Y-7224500D01*
X57896309Y-7205593D01*
X57860345Y-7156093D01*
X57855500Y-7125500D01*
X57855500Y-7075000D01*
X57850348Y-7029272D01*
X57810666Y-6946873D01*
X57809227Y-6945725D01*
X57739162Y-6889850D01*
X57650000Y-6869500D01*
X56150000Y-6869500D01*
X56149998Y-6869500D01*
X56104272Y-6874651D01*
X56021872Y-6914334D01*
X55964850Y-6985837D01*
X55944500Y-7075000D01*
X55944500Y-7125500D01*
X55925593Y-7183691D01*
X55876093Y-7219655D01*
X55845500Y-7224500D01*
X43778856Y-7224500D01*
X43689712Y-7248386D01*
X43689711Y-7248386D01*
X43689709Y-7248387D01*
X43609789Y-7294529D01*
X43533814Y-7370504D01*
X43479297Y-7398281D01*
X43463811Y-7399500D01*
X43428035Y-7399500D01*
X43289949Y-7440046D01*
X43289942Y-7440049D01*
X43168873Y-7517855D01*
X43074622Y-7626628D01*
X43014834Y-7757543D01*
X42994353Y-7899997D01*
X42994353Y-7900002D01*
X43014834Y-8042456D01*
X43067394Y-8157544D01*
X43074623Y-8173373D01*
X43160283Y-8272231D01*
X43168873Y-8282144D01*
X43280707Y-8354015D01*
X43289947Y-8359953D01*
X43396403Y-8391211D01*
X43428035Y-8400499D01*
X43428036Y-8400499D01*
X43428039Y-8400500D01*
X43428041Y-8400500D01*
X43571959Y-8400500D01*
X43571961Y-8400500D01*
X43710053Y-8359953D01*
X43831128Y-8282143D01*
X43925377Y-8173373D01*
X43985165Y-8042457D01*
X43987747Y-8024500D01*
X43989773Y-8010411D01*
X44016768Y-7955504D01*
X44070883Y-7926950D01*
X44087765Y-7925500D01*
X45727679Y-7925500D01*
X45785870Y-7944407D01*
X45821834Y-7993907D01*
X45821834Y-8055093D01*
X45797683Y-8094504D01*
X44535825Y-9356360D01*
X44481308Y-9384137D01*
X44420876Y-9374566D01*
X44377611Y-9331301D01*
X44375768Y-9327482D01*
X44375377Y-9326627D01*
X44365742Y-9315508D01*
X44354823Y-9300174D01*
X44350500Y-9292686D01*
X44319044Y-9261230D01*
X44314230Y-9256058D01*
X44281129Y-9217858D01*
X44281127Y-9217856D01*
X44274807Y-9213794D01*
X44258338Y-9200523D01*
X44257318Y-9199503D01*
X44257309Y-9199496D01*
X44212613Y-9173691D01*
X44208589Y-9171239D01*
X44160054Y-9140047D01*
X44159770Y-9139964D01*
X44149408Y-9135528D01*
X44149176Y-9136089D01*
X44143187Y-9133608D01*
X44086421Y-9118398D01*
X44084153Y-9117761D01*
X44021964Y-9099500D01*
X44021961Y-9099500D01*
X44015892Y-9099500D01*
X34565893Y-9099500D01*
X34434108Y-9099500D01*
X34364706Y-9118096D01*
X34306809Y-9133609D01*
X34192690Y-9199496D01*
X32292686Y-11099500D01*
X32292685Y-11099499D01*
X32199500Y-11192685D01*
X32199496Y-11192690D01*
X32133609Y-11306809D01*
X32116811Y-11369500D01*
X32099763Y-11433129D01*
X32099500Y-11434109D01*
X32099500Y-12357122D01*
X32098492Y-12371211D01*
X32094353Y-12399998D01*
X32094353Y-12400001D01*
X32098492Y-12428786D01*
X32099500Y-12442876D01*
X32099500Y-12465893D01*
X32107310Y-12495042D01*
X32109675Y-12506572D01*
X32114835Y-12542457D01*
X32123937Y-12562388D01*
X32129506Y-12577881D01*
X32133608Y-12593186D01*
X32133608Y-12593187D01*
X32135288Y-12599454D01*
X32133939Y-12599815D01*
X32138171Y-12653615D01*
X32106199Y-12705783D01*
X32049670Y-12729195D01*
X32041907Y-12729500D01*
X30735892Y-12729500D01*
X30604107Y-12729500D01*
X30561450Y-12740930D01*
X30476809Y-12763609D01*
X30362690Y-12829496D01*
X30362684Y-12829500D01*
X30362685Y-12829501D01*
X27091665Y-16100519D01*
X27075194Y-16113793D01*
X27068872Y-16117856D01*
X27068871Y-16117857D01*
X27035768Y-16156059D01*
X27030956Y-16161227D01*
X26999500Y-16192685D01*
X26999499Y-16192686D01*
X26995172Y-16200180D01*
X26984266Y-16215496D01*
X26974622Y-16226627D01*
X26974621Y-16226628D01*
X26956591Y-16266107D01*
X26952277Y-16274475D01*
X26933608Y-16306813D01*
X26933607Y-16306813D01*
X26929507Y-16322117D01*
X26923938Y-16337608D01*
X26918280Y-16349999D01*
X26914835Y-16357543D01*
X26909674Y-16393430D01*
X26907310Y-16404953D01*
X26899500Y-16434104D01*
X26899500Y-16457122D01*
X26898492Y-16471211D01*
X26894353Y-16499998D01*
X26894353Y-16500001D01*
X26898492Y-16528786D01*
X26899500Y-16542876D01*
X26899500Y-16565893D01*
X26907310Y-16595042D01*
X26909675Y-16606572D01*
X26914835Y-16642457D01*
X26923937Y-16662388D01*
X26929506Y-16677881D01*
X26933127Y-16691392D01*
X26933608Y-16693186D01*
X26952277Y-16725523D01*
X26956592Y-16733893D01*
X26974622Y-16773373D01*
X26984259Y-16784494D01*
X26995172Y-16799820D01*
X26999497Y-16807310D01*
X26999498Y-16807311D01*
X26999500Y-16807314D01*
X27030959Y-16838773D01*
X27030961Y-16838775D01*
X27035764Y-16843934D01*
X27068872Y-16882143D01*
X27075186Y-16886201D01*
X27091662Y-16899476D01*
X27092686Y-16900500D01*
X27133256Y-16923923D01*
X27137392Y-16926311D01*
X27141414Y-16928763D01*
X27189942Y-16959950D01*
X27189947Y-16959953D01*
X27190046Y-16959982D01*
X27190215Y-16960032D01*
X27200584Y-16964474D01*
X27200819Y-16963909D01*
X27206809Y-16966389D01*
X27206814Y-16966392D01*
X27263579Y-16981601D01*
X27265813Y-16982228D01*
X27276814Y-16985458D01*
X27328033Y-17000499D01*
X27328038Y-17000499D01*
X27328039Y-17000500D01*
X27328040Y-17000500D01*
X27471958Y-17000500D01*
X27471961Y-17000500D01*
X27534190Y-16982227D01*
X27536393Y-16981608D01*
X27593186Y-16966392D01*
X27593192Y-16966388D01*
X27599188Y-16963906D01*
X27599424Y-16964476D01*
X27609792Y-16960029D01*
X27610053Y-16959953D01*
X27658605Y-16928749D01*
X27662580Y-16926326D01*
X27707314Y-16900500D01*
X27708326Y-16899487D01*
X27724808Y-16886203D01*
X27731128Y-16882143D01*
X27764236Y-16843932D01*
X27769025Y-16838787D01*
X27993991Y-16613821D01*
X27998053Y-16611751D01*
X28000295Y-16607517D01*
X30848318Y-13759496D01*
X30902835Y-13731719D01*
X30918322Y-13730500D01*
X33200917Y-13730500D01*
X33259108Y-13749407D01*
X33270921Y-13759496D01*
X37009120Y-17497694D01*
X40542965Y-21031540D01*
X40570742Y-21086057D01*
X40561171Y-21146489D01*
X40517907Y-21189753D01*
X40396780Y-21251471D01*
X40357747Y-21290504D01*
X40303230Y-21318281D01*
X40287744Y-21319500D01*
X38736018Y-21319500D01*
X38677827Y-21300593D01*
X38666014Y-21290504D01*
X32803280Y-15427771D01*
X32803279Y-15427769D01*
X32751054Y-15375544D01*
X32687092Y-15338616D01*
X32687091Y-15338615D01*
X32687088Y-15338614D01*
X32615754Y-15319500D01*
X32615752Y-15319500D01*
X32615751Y-15319500D01*
X31162256Y-15319500D01*
X31104065Y-15300593D01*
X31092253Y-15290504D01*
X31053221Y-15251473D01*
X31053217Y-15251470D01*
X30933129Y-15190282D01*
X30933127Y-15190281D01*
X30800000Y-15169196D01*
X30666872Y-15190281D01*
X30666870Y-15190282D01*
X30546782Y-15251470D01*
X30451470Y-15346782D01*
X30390282Y-15466870D01*
X30390281Y-15466872D01*
X30390281Y-15466874D01*
X30369196Y-15600000D01*
X30390281Y-15733126D01*
X30415689Y-15782992D01*
X30439038Y-15828817D01*
X30448609Y-15889249D01*
X30420832Y-15943766D01*
X30366315Y-15971543D01*
X30338420Y-15971981D01*
X30160464Y-15949500D01*
X29839536Y-15949500D01*
X29521143Y-15989722D01*
X29210293Y-16069534D01*
X28911904Y-16187674D01*
X28911901Y-16187676D01*
X28630682Y-16342277D01*
X28630673Y-16342283D01*
X28630672Y-16342284D01*
X28552248Y-16399262D01*
X28371033Y-16530922D01*
X28138071Y-16749687D01*
X28137713Y-16749855D01*
X27932521Y-16997890D01*
X27760568Y-17268844D01*
X27760561Y-17268857D01*
X27623918Y-17559235D01*
X27588945Y-17666872D01*
X27541714Y-17812236D01*
X27524745Y-17864460D01*
X27524742Y-17864470D01*
X27464608Y-18179700D01*
X27444457Y-18500000D01*
X27464608Y-18820299D01*
X27520407Y-19112805D01*
X27524744Y-19135538D01*
X27580431Y-19306925D01*
X27623918Y-19440764D01*
X27760561Y-19731142D01*
X27760568Y-19731155D01*
X27932521Y-20002109D01*
X28137083Y-20249383D01*
X28137093Y-20249394D01*
X28201331Y-20309717D01*
X28371036Y-20469080D01*
X28630672Y-20657716D01*
X28630679Y-20657719D01*
X28630682Y-20657722D01*
X28911901Y-20812323D01*
X28911904Y-20812325D01*
X29031813Y-20859800D01*
X29210294Y-20930466D01*
X29521139Y-21010277D01*
X29839536Y-21050500D01*
X30160464Y-21050500D01*
X30478861Y-21010277D01*
X30789706Y-20930466D01*
X31041422Y-20830804D01*
X31088095Y-20812325D01*
X31088097Y-20812324D01*
X31369328Y-20657716D01*
X31628964Y-20469080D01*
X31862911Y-20249390D01*
X32067478Y-20002110D01*
X32216764Y-19766872D01*
X32239431Y-19731155D01*
X32239432Y-19731152D01*
X32239439Y-19731142D01*
X32376084Y-19440758D01*
X32475256Y-19135538D01*
X32535392Y-18820294D01*
X32555543Y-18500000D01*
X32535392Y-18179706D01*
X32475256Y-17864462D01*
X32376084Y-17559242D01*
X32337322Y-17476870D01*
X32306905Y-17412230D01*
X32239439Y-17268858D01*
X32239435Y-17268853D01*
X32239431Y-17268844D01*
X32067478Y-16997890D01*
X31862916Y-16750616D01*
X31862906Y-16750605D01*
X31666207Y-16565893D01*
X31628964Y-16530920D01*
X31369328Y-16342284D01*
X31369322Y-16342280D01*
X31369317Y-16342277D01*
X31088098Y-16187676D01*
X31088095Y-16187674D01*
X31008215Y-16156048D01*
X30961071Y-16117047D01*
X30945854Y-16057784D01*
X30968378Y-16000895D01*
X30999711Y-15975791D01*
X31053220Y-15948528D01*
X31080995Y-15920753D01*
X31092253Y-15909496D01*
X31146770Y-15881719D01*
X31162256Y-15880500D01*
X32421629Y-15880500D01*
X32479820Y-15899407D01*
X32491632Y-15909495D01*
X35425353Y-18843217D01*
X38354366Y-21772230D01*
X38354367Y-21772231D01*
X38354366Y-21772231D01*
X38411180Y-21829044D01*
X38409418Y-21830805D01*
X38437994Y-21872389D01*
X38436388Y-21933554D01*
X38399137Y-21982093D01*
X38343069Y-21999500D01*
X7399000Y-21999500D01*
X7340809Y-21980593D01*
X7304845Y-21931093D01*
X7300000Y-21900500D01*
X7300000Y-18399999D01*
X9969196Y-18399999D01*
X9969196Y-18400000D01*
X9990281Y-18533127D01*
X9990282Y-18533129D01*
X10046329Y-18643127D01*
X10051472Y-18653220D01*
X10146780Y-18748528D01*
X10266874Y-18809719D01*
X10400000Y-18830804D01*
X10533126Y-18809719D01*
X10653220Y-18748528D01*
X10748528Y-18653220D01*
X10809719Y-18533126D01*
X10830804Y-18400000D01*
X10809719Y-18266874D01*
X10748528Y-18146780D01*
X10731979Y-18130231D01*
X10709496Y-18107747D01*
X10681719Y-18053230D01*
X10680500Y-18037744D01*
X10680500Y-17997194D01*
X10699407Y-17939003D01*
X10709496Y-17927190D01*
X11106433Y-17530253D01*
X12579500Y-17530253D01*
X12579500Y-20569746D01*
X12579501Y-20569758D01*
X12591132Y-20628227D01*
X12591134Y-20628233D01*
X12620531Y-20672228D01*
X12635448Y-20694552D01*
X12635451Y-20694554D01*
X12688853Y-20730237D01*
X12701769Y-20738867D01*
X12746231Y-20747711D01*
X12760241Y-20750498D01*
X12760246Y-20750498D01*
X12760252Y-20750500D01*
X12760253Y-20750500D01*
X13449747Y-20750500D01*
X13449748Y-20750500D01*
X13508231Y-20738867D01*
X13574552Y-20694552D01*
X13618867Y-20628231D01*
X13630500Y-20569748D01*
X13630500Y-18962192D01*
X13649407Y-18904001D01*
X13659491Y-18892194D01*
X13742657Y-18809027D01*
X13797171Y-18781251D01*
X13797173Y-18781251D01*
X13799997Y-18780803D01*
X13800000Y-18780804D01*
X13933126Y-18759719D01*
X14053220Y-18698528D01*
X14148528Y-18603220D01*
X14209719Y-18483126D01*
X14230804Y-18350000D01*
X14209719Y-18216874D01*
X14148528Y-18096780D01*
X14053220Y-18001472D01*
X14053217Y-18001470D01*
X13933129Y-17940282D01*
X13933127Y-17940281D01*
X13800000Y-17919196D01*
X13799999Y-17919196D01*
X13744987Y-17927909D01*
X13684555Y-17918338D01*
X13641290Y-17875073D01*
X13630500Y-17830128D01*
X13630500Y-17530253D01*
X13630498Y-17530241D01*
X13619882Y-17476872D01*
X13618867Y-17471769D01*
X13574552Y-17405448D01*
X13574548Y-17405445D01*
X13508233Y-17361134D01*
X13508231Y-17361133D01*
X13508228Y-17361132D01*
X13508227Y-17361132D01*
X13449758Y-17349501D01*
X13449748Y-17349500D01*
X12760252Y-17349500D01*
X12760251Y-17349500D01*
X12760241Y-17349501D01*
X12701772Y-17361132D01*
X12701766Y-17361134D01*
X12635451Y-17405445D01*
X12635445Y-17405451D01*
X12591134Y-17471766D01*
X12591132Y-17471772D01*
X12579501Y-17530241D01*
X12579500Y-17530253D01*
X11106433Y-17530253D01*
X13680496Y-14956190D01*
X13735013Y-14928413D01*
X13795445Y-14937984D01*
X13838710Y-14981249D01*
X13849500Y-15026194D01*
X13849500Y-17569746D01*
X13849501Y-17569758D01*
X13861132Y-17628227D01*
X13861134Y-17628233D01*
X13905445Y-17694548D01*
X13905448Y-17694552D01*
X13971769Y-17738867D01*
X14016231Y-17747711D01*
X14030241Y-17750498D01*
X14030246Y-17750498D01*
X14030252Y-17750500D01*
X14030253Y-17750500D01*
X14719747Y-17750500D01*
X14719748Y-17750500D01*
X14778231Y-17738867D01*
X14844552Y-17694552D01*
X14888867Y-17628231D01*
X14900500Y-17569748D01*
X14900500Y-17530253D01*
X15119500Y-17530253D01*
X15119500Y-20569746D01*
X15119501Y-20569758D01*
X15131132Y-20628227D01*
X15131134Y-20628233D01*
X15160531Y-20672228D01*
X15175448Y-20694552D01*
X15175451Y-20694554D01*
X15228853Y-20730237D01*
X15241769Y-20738867D01*
X15286231Y-20747711D01*
X15300241Y-20750498D01*
X15300246Y-20750498D01*
X15300252Y-20750500D01*
X15300253Y-20750500D01*
X15989747Y-20750500D01*
X15989748Y-20750500D01*
X16048231Y-20738867D01*
X16114552Y-20694552D01*
X16158867Y-20628231D01*
X16170500Y-20569748D01*
X16170500Y-18962194D01*
X16189407Y-18904003D01*
X16199496Y-18892191D01*
X16276643Y-18815043D01*
X16331159Y-18787265D01*
X16391589Y-18796835D01*
X16416874Y-18809719D01*
X16550000Y-18830804D01*
X16683126Y-18809719D01*
X16803220Y-18748528D01*
X16898528Y-18653220D01*
X16959719Y-18533126D01*
X16980804Y-18400000D01*
X16959719Y-18266874D01*
X16898528Y-18146780D01*
X16803220Y-18051472D01*
X16803217Y-18051470D01*
X16683129Y-17990282D01*
X16683127Y-17990281D01*
X16550000Y-17969196D01*
X16416874Y-17990281D01*
X16314445Y-18042471D01*
X16254013Y-18052042D01*
X16199496Y-18024264D01*
X16171719Y-17969748D01*
X16170500Y-17954261D01*
X16170500Y-17530253D01*
X16170498Y-17530241D01*
X16159882Y-17476872D01*
X16158867Y-17471769D01*
X16114552Y-17405448D01*
X16114548Y-17405445D01*
X16048233Y-17361134D01*
X16048231Y-17361133D01*
X16048228Y-17361132D01*
X16048227Y-17361132D01*
X15989758Y-17349501D01*
X15989748Y-17349500D01*
X15300252Y-17349500D01*
X15300251Y-17349500D01*
X15300241Y-17349501D01*
X15241772Y-17361132D01*
X15241766Y-17361134D01*
X15175451Y-17405445D01*
X15175445Y-17405451D01*
X15131134Y-17471766D01*
X15131132Y-17471772D01*
X15119501Y-17530241D01*
X15119500Y-17530253D01*
X14900500Y-17530253D01*
X14900500Y-16785547D01*
X14919407Y-16727356D01*
X14968907Y-16691392D01*
X15030093Y-16691392D01*
X15044446Y-16697338D01*
X15046778Y-16698526D01*
X15046780Y-16698528D01*
X15166874Y-16759719D01*
X15300000Y-16780804D01*
X15433126Y-16759719D01*
X15553220Y-16698528D01*
X15648528Y-16603220D01*
X15709719Y-16483126D01*
X15730804Y-16350000D01*
X15709719Y-16216874D01*
X15648528Y-16096780D01*
X15553220Y-16001472D01*
X15553217Y-16001470D01*
X15433129Y-15940282D01*
X15433127Y-15940281D01*
X15300000Y-15919196D01*
X15166874Y-15940281D01*
X15047913Y-16000895D01*
X15044445Y-16002662D01*
X14984013Y-16012233D01*
X14929497Y-15984456D01*
X14901719Y-15929939D01*
X14900500Y-15914452D01*
X14900500Y-14530253D01*
X16389500Y-14530253D01*
X16389500Y-17569746D01*
X16389501Y-17569758D01*
X16401132Y-17628227D01*
X16401134Y-17628233D01*
X16445445Y-17694548D01*
X16445448Y-17694552D01*
X16511769Y-17738867D01*
X16556231Y-17747711D01*
X16570241Y-17750498D01*
X16570246Y-17750498D01*
X16570252Y-17750500D01*
X16570253Y-17750500D01*
X17259747Y-17750500D01*
X17259748Y-17750500D01*
X17318231Y-17738867D01*
X17384552Y-17694552D01*
X17428867Y-17628231D01*
X17440500Y-17569748D01*
X17440500Y-17530253D01*
X17659500Y-17530253D01*
X17659500Y-20569746D01*
X17659501Y-20569758D01*
X17671132Y-20628227D01*
X17671134Y-20628233D01*
X17700531Y-20672228D01*
X17715448Y-20694552D01*
X17715451Y-20694554D01*
X17768853Y-20730237D01*
X17781769Y-20738867D01*
X17826231Y-20747711D01*
X17840241Y-20750498D01*
X17840246Y-20750498D01*
X17840252Y-20750500D01*
X17840253Y-20750500D01*
X18529747Y-20750500D01*
X18529748Y-20750500D01*
X18588231Y-20738867D01*
X18654552Y-20694552D01*
X18698867Y-20628231D01*
X18710500Y-20569748D01*
X18710500Y-19300001D01*
X20150000Y-19300001D01*
X20150000Y-20574624D01*
X20164506Y-20647546D01*
X20164507Y-20647548D01*
X20219758Y-20730237D01*
X20219762Y-20730241D01*
X20302451Y-20785492D01*
X20302453Y-20785493D01*
X20375375Y-20799999D01*
X20375377Y-20800000D01*
X20474999Y-20800000D01*
X20475000Y-20799999D01*
X20475000Y-19300001D01*
X20975000Y-19300001D01*
X20975000Y-20799999D01*
X20975001Y-20800000D01*
X21074623Y-20800000D01*
X21074624Y-20799999D01*
X21147546Y-20785493D01*
X21147548Y-20785492D01*
X21230237Y-20730241D01*
X21230241Y-20730237D01*
X21285492Y-20647548D01*
X21285493Y-20647546D01*
X21299999Y-20574624D01*
X21300000Y-20574622D01*
X21300000Y-19300001D01*
X21299999Y-19300000D01*
X20975001Y-19300000D01*
X20975000Y-19300001D01*
X20475000Y-19300001D01*
X20474999Y-19300000D01*
X20150001Y-19300000D01*
X20150000Y-19300001D01*
X18710500Y-19300001D01*
X18710500Y-18962194D01*
X18729407Y-18904003D01*
X18739496Y-18892191D01*
X18792438Y-18839248D01*
X18846954Y-18811470D01*
X18877929Y-18811470D01*
X18999999Y-18830804D01*
X18999999Y-18830803D01*
X19000000Y-18830804D01*
X19133126Y-18809719D01*
X19253220Y-18748528D01*
X19348528Y-18653220D01*
X19409719Y-18533126D01*
X19430804Y-18400000D01*
X19409719Y-18266874D01*
X19348528Y-18146780D01*
X19253220Y-18051472D01*
X19253217Y-18051470D01*
X19133129Y-17990282D01*
X19133127Y-17990281D01*
X19000000Y-17969196D01*
X18866874Y-17990281D01*
X18854445Y-17996614D01*
X18794013Y-18006185D01*
X18739496Y-17978408D01*
X18711719Y-17923891D01*
X18710500Y-17908404D01*
X18710500Y-17530253D01*
X18710498Y-17530241D01*
X18699882Y-17476872D01*
X18698867Y-17471769D01*
X18654552Y-17405448D01*
X18654548Y-17405445D01*
X18588233Y-17361134D01*
X18588231Y-17361133D01*
X18588228Y-17361132D01*
X18588227Y-17361132D01*
X18529758Y-17349501D01*
X18529748Y-17349500D01*
X17840252Y-17349500D01*
X17840251Y-17349500D01*
X17840241Y-17349501D01*
X17781772Y-17361132D01*
X17781766Y-17361134D01*
X17715451Y-17405445D01*
X17715445Y-17405451D01*
X17671134Y-17471766D01*
X17671132Y-17471772D01*
X17659501Y-17530241D01*
X17659500Y-17530253D01*
X17440500Y-17530253D01*
X17440500Y-16579281D01*
X17459407Y-16521090D01*
X17508907Y-16485126D01*
X17570093Y-16485126D01*
X17589758Y-16495147D01*
X17589838Y-16494991D01*
X17660353Y-16530920D01*
X17716874Y-16559719D01*
X17850000Y-16580804D01*
X17983126Y-16559719D01*
X18103220Y-16498528D01*
X18198528Y-16403220D01*
X18259719Y-16283126D01*
X18280804Y-16150000D01*
X18259719Y-16016874D01*
X18198528Y-15896780D01*
X18103220Y-15801472D01*
X18103217Y-15801470D01*
X17983129Y-15740282D01*
X17983127Y-15740281D01*
X17850000Y-15719196D01*
X17716872Y-15740281D01*
X17716870Y-15740282D01*
X17589838Y-15805009D01*
X17589118Y-15803596D01*
X17539497Y-15819718D01*
X17481307Y-15800809D01*
X17445344Y-15751308D01*
X17440500Y-15720718D01*
X17440500Y-14530253D01*
X18929500Y-14530253D01*
X18929500Y-17569746D01*
X18929501Y-17569758D01*
X18941132Y-17628227D01*
X18941134Y-17628233D01*
X18985445Y-17694548D01*
X18985448Y-17694552D01*
X19051769Y-17738867D01*
X19096231Y-17747711D01*
X19110241Y-17750498D01*
X19110246Y-17750498D01*
X19110252Y-17750500D01*
X19110253Y-17750500D01*
X19799747Y-17750500D01*
X19799748Y-17750500D01*
X19858231Y-17738867D01*
X19924552Y-17694552D01*
X19968685Y-17628502D01*
X20016735Y-17590624D01*
X20077873Y-17588222D01*
X20128747Y-17622215D01*
X20149924Y-17679619D01*
X20150000Y-17683505D01*
X20150000Y-18799999D01*
X20150001Y-18800000D01*
X20474999Y-18800000D01*
X20475000Y-18799999D01*
X20475000Y-17300001D01*
X20474999Y-17300000D01*
X20375375Y-17300000D01*
X20302453Y-17314506D01*
X20302451Y-17314507D01*
X20219762Y-17369758D01*
X20219758Y-17369762D01*
X20161815Y-17456480D01*
X20113765Y-17494359D01*
X20052627Y-17496761D01*
X20001753Y-17462768D01*
X19980576Y-17405364D01*
X19980500Y-17401478D01*
X19980500Y-16761952D01*
X19999407Y-16703761D01*
X20048907Y-16667797D01*
X20094984Y-16664171D01*
X20200000Y-16680804D01*
X20333126Y-16659719D01*
X20453220Y-16598528D01*
X20548528Y-16503220D01*
X20609719Y-16383126D01*
X20630804Y-16250000D01*
X20609719Y-16116874D01*
X20548528Y-15996780D01*
X20453220Y-15901472D01*
X20453217Y-15901470D01*
X20333129Y-15840282D01*
X20333127Y-15840281D01*
X20200000Y-15819196D01*
X20199999Y-15819196D01*
X20094987Y-15835828D01*
X20034555Y-15826257D01*
X19991290Y-15782992D01*
X19980500Y-15738047D01*
X19980500Y-14530253D01*
X19980498Y-14530241D01*
X19975911Y-14507184D01*
X19968867Y-14471769D01*
X19924552Y-14405448D01*
X19890231Y-14382515D01*
X19858233Y-14361134D01*
X19858231Y-14361133D01*
X19858228Y-14361132D01*
X19858227Y-14361132D01*
X19799758Y-14349501D01*
X19799748Y-14349500D01*
X19110252Y-14349500D01*
X19110251Y-14349500D01*
X19110241Y-14349501D01*
X19051772Y-14361132D01*
X19051766Y-14361134D01*
X18985451Y-14405445D01*
X18985445Y-14405451D01*
X18941134Y-14471766D01*
X18941132Y-14471772D01*
X18929501Y-14530241D01*
X18929500Y-14530253D01*
X17440500Y-14530253D01*
X17440498Y-14530241D01*
X17435911Y-14507184D01*
X17428867Y-14471769D01*
X17384552Y-14405448D01*
X17350231Y-14382515D01*
X17318233Y-14361134D01*
X17318231Y-14361133D01*
X17318228Y-14361132D01*
X17318227Y-14361132D01*
X17259758Y-14349501D01*
X17259748Y-14349500D01*
X16570252Y-14349500D01*
X16570251Y-14349500D01*
X16570241Y-14349501D01*
X16511772Y-14361132D01*
X16511766Y-14361134D01*
X16445451Y-14405445D01*
X16445445Y-14405451D01*
X16401134Y-14471766D01*
X16401132Y-14471772D01*
X16389501Y-14530241D01*
X16389500Y-14530253D01*
X14900500Y-14530253D01*
X14900498Y-14530241D01*
X14895911Y-14507184D01*
X14888867Y-14471769D01*
X14844552Y-14405448D01*
X14810231Y-14382515D01*
X14778233Y-14361134D01*
X14778231Y-14361133D01*
X14778228Y-14361132D01*
X14778227Y-14361132D01*
X14719758Y-14349501D01*
X14719748Y-14349500D01*
X14719747Y-14349500D01*
X14526195Y-14349500D01*
X14468004Y-14330593D01*
X14432040Y-14281093D01*
X14432040Y-14219907D01*
X14456191Y-14180496D01*
X15209162Y-13427525D01*
X19949500Y-13427525D01*
X19949500Y-13572474D01*
X19987017Y-13712489D01*
X20059487Y-13838010D01*
X20059489Y-13838012D01*
X20059491Y-13838015D01*
X20161985Y-13940509D01*
X20161987Y-13940510D01*
X20161989Y-13940512D01*
X20287511Y-14012982D01*
X20287512Y-14012982D01*
X20287515Y-14012984D01*
X20427525Y-14050500D01*
X20630967Y-14050500D01*
X20689158Y-14069407D01*
X20700971Y-14079496D01*
X21440504Y-14819029D01*
X21468281Y-14873546D01*
X21469500Y-14889033D01*
X21469500Y-17401478D01*
X21450593Y-17459669D01*
X21401093Y-17495633D01*
X21339907Y-17495633D01*
X21290407Y-17459669D01*
X21288185Y-17456480D01*
X21230241Y-17369762D01*
X21230237Y-17369758D01*
X21147548Y-17314507D01*
X21147546Y-17314506D01*
X21074624Y-17300000D01*
X20975001Y-17300000D01*
X20975000Y-17300001D01*
X20975000Y-18799999D01*
X20975001Y-18800000D01*
X21299999Y-18800000D01*
X21300000Y-18799999D01*
X21300000Y-17683505D01*
X21318907Y-17625314D01*
X21368407Y-17589350D01*
X21429593Y-17589350D01*
X21479093Y-17625314D01*
X21481308Y-17628494D01*
X21525448Y-17694552D01*
X21591769Y-17738867D01*
X21636231Y-17747711D01*
X21650241Y-17750498D01*
X21650246Y-17750498D01*
X21650252Y-17750500D01*
X21650253Y-17750500D01*
X22339747Y-17750500D01*
X22339748Y-17750500D01*
X22398231Y-17738867D01*
X22464552Y-17694552D01*
X22508867Y-17628231D01*
X22520500Y-17569748D01*
X22520500Y-14773808D01*
X22523873Y-14748185D01*
X22545500Y-14667474D01*
X22545500Y-14522526D01*
X22507984Y-14382515D01*
X22435510Y-14256985D01*
X21238015Y-13059490D01*
X21112485Y-12987016D01*
X21112484Y-12987015D01*
X21112481Y-12987014D01*
X21065779Y-12974500D01*
X21065779Y-12974501D01*
X20972475Y-12949500D01*
X20427525Y-12949500D01*
X20365790Y-12966041D01*
X20287510Y-12987017D01*
X20161989Y-13059487D01*
X20059487Y-13161989D01*
X19987017Y-13287510D01*
X19949500Y-13427525D01*
X15209162Y-13427525D01*
X15956420Y-12680267D01*
X19173284Y-12680267D01*
X19332046Y-12735821D01*
X19332050Y-12735822D01*
X19500000Y-12754745D01*
X19667949Y-12735822D01*
X19667953Y-12735821D01*
X19826713Y-12680267D01*
X19499999Y-12353553D01*
X19173284Y-12680267D01*
X15956420Y-12680267D01*
X16636687Y-12000000D01*
X18745254Y-12000000D01*
X18764177Y-12167949D01*
X18764178Y-12167953D01*
X18819731Y-12326713D01*
X19146446Y-11999999D01*
X19853553Y-11999999D01*
X20180267Y-12326713D01*
X20235821Y-12167953D01*
X20235822Y-12167949D01*
X20254745Y-12000000D01*
X20235822Y-11832050D01*
X20235821Y-11832046D01*
X20180267Y-11673285D01*
X20180267Y-11673284D01*
X19853553Y-11999999D01*
X19146446Y-11999999D01*
X18819731Y-11673284D01*
X18764178Y-11832046D01*
X18764177Y-11832050D01*
X18745254Y-12000000D01*
X16636687Y-12000000D01*
X17316956Y-11319731D01*
X19173284Y-11319731D01*
X19499999Y-11646445D01*
X19826713Y-11319731D01*
X19826714Y-11319731D01*
X19667953Y-11264178D01*
X19667949Y-11264177D01*
X19500000Y-11245254D01*
X19332050Y-11264177D01*
X19332046Y-11264178D01*
X19173284Y-11319731D01*
X17316956Y-11319731D01*
X17627191Y-11009496D01*
X17681708Y-10981719D01*
X17697195Y-10980500D01*
X27863072Y-10980500D01*
X28942807Y-10980500D01*
X29000998Y-10999407D01*
X29012803Y-11009489D01*
X29240201Y-11236888D01*
X29267977Y-11291402D01*
X29268118Y-11293197D01*
X29290281Y-11433127D01*
X29290282Y-11433129D01*
X29351470Y-11553217D01*
X29351472Y-11553220D01*
X29446780Y-11648528D01*
X29487974Y-11669517D01*
X29531238Y-11712780D01*
X29540810Y-11773212D01*
X29513033Y-11827729D01*
X29513033Y-11827730D01*
X24070261Y-17270504D01*
X24015744Y-17298281D01*
X24000257Y-17299500D01*
X23892255Y-17299500D01*
X23834064Y-17280593D01*
X23822257Y-17270509D01*
X23813220Y-17261472D01*
X23813217Y-17261470D01*
X23693129Y-17200282D01*
X23693127Y-17200281D01*
X23560000Y-17179196D01*
X23426872Y-17200281D01*
X23426870Y-17200282D01*
X23306782Y-17261470D01*
X23211470Y-17356782D01*
X23150282Y-17476870D01*
X23150281Y-17476872D01*
X23129196Y-17609999D01*
X23129196Y-17610000D01*
X23150281Y-17743127D01*
X23150282Y-17743129D01*
X23211470Y-17863217D01*
X23211472Y-17863220D01*
X23306780Y-17958528D01*
X23399308Y-18005673D01*
X23442572Y-18048937D01*
X23452143Y-18109369D01*
X23424366Y-18163885D01*
X23331473Y-18256778D01*
X23331470Y-18256782D01*
X23270282Y-18376870D01*
X23270281Y-18376872D01*
X23249196Y-18509999D01*
X23249196Y-18510000D01*
X23270281Y-18643127D01*
X23270282Y-18643129D01*
X23329688Y-18759719D01*
X23331472Y-18763220D01*
X23426780Y-18858528D01*
X23546874Y-18919719D01*
X23680000Y-18940804D01*
X23813126Y-18919719D01*
X23933220Y-18858528D01*
X24028528Y-18763220D01*
X24044033Y-18732787D01*
X24062238Y-18707732D01*
X24075460Y-18694511D01*
X32787948Y-9982023D01*
X32787951Y-9982018D01*
X32827508Y-9913504D01*
X32827508Y-9913502D01*
X32827510Y-9913500D01*
X32847988Y-9837074D01*
X32847988Y-9757950D01*
X32847988Y-8592191D01*
X32866895Y-8534000D01*
X32876978Y-8522193D01*
X32896016Y-8503156D01*
X32957207Y-8383062D01*
X32978292Y-8249936D01*
X32977071Y-8242230D01*
X32969340Y-8193417D01*
X32957207Y-8116810D01*
X32896016Y-7996716D01*
X32800708Y-7901408D01*
X32800705Y-7901406D01*
X32680617Y-7840218D01*
X32680616Y-7840217D01*
X32563131Y-7821609D01*
X32508615Y-7793831D01*
X32480838Y-7739315D01*
X32477481Y-7718122D01*
X32462231Y-7621834D01*
X32441289Y-7580734D01*
X32401041Y-7501742D01*
X32401040Y-7501740D01*
X32305732Y-7406432D01*
X32305729Y-7406430D01*
X32185641Y-7345242D01*
X32185639Y-7345241D01*
X32052512Y-7324156D01*
X31919384Y-7345241D01*
X31919382Y-7345242D01*
X31799294Y-7406430D01*
X31703982Y-7501742D01*
X31642794Y-7621830D01*
X31642793Y-7621832D01*
X31621708Y-7754959D01*
X31621708Y-7754960D01*
X31642793Y-7888087D01*
X31642794Y-7888089D01*
X31702225Y-8004728D01*
X31703984Y-8008180D01*
X31717993Y-8022189D01*
X31745769Y-8076704D01*
X31746988Y-8092191D01*
X31746988Y-9552768D01*
X31728081Y-9610959D01*
X31717992Y-9622772D01*
X30227730Y-11113033D01*
X30173213Y-11140810D01*
X30112781Y-11131239D01*
X30069518Y-11087976D01*
X30048528Y-11046780D01*
X29953220Y-10951472D01*
X29953217Y-10951470D01*
X29833129Y-10890282D01*
X29833127Y-10890281D01*
X29692305Y-10867977D01*
X29692835Y-10864629D01*
X29648699Y-10850289D01*
X29636887Y-10840200D01*
X29330102Y-10533416D01*
X29330099Y-10533412D01*
X29330099Y-10533413D01*
X29324457Y-10527771D01*
X29324456Y-10527769D01*
X29272231Y-10475544D01*
X29208269Y-10438616D01*
X29208268Y-10438615D01*
X29208265Y-10438614D01*
X29136931Y-10419500D01*
X29136929Y-10419500D01*
X29136928Y-10419500D01*
X27936928Y-10419500D01*
X17576929Y-10419500D01*
X17503071Y-10419500D01*
X17503068Y-10419500D01*
X17431734Y-10438614D01*
X17431733Y-10438614D01*
X17389371Y-10463072D01*
X17367769Y-10475544D01*
X10227771Y-17615542D01*
X10227769Y-17615544D01*
X10227768Y-17615543D01*
X10175546Y-17667766D01*
X10175544Y-17667768D01*
X10175544Y-17667769D01*
X10166459Y-17683505D01*
X10138616Y-17731730D01*
X10138616Y-17731731D01*
X10119500Y-17803072D01*
X10119500Y-17803074D01*
X10119500Y-18037744D01*
X10100593Y-18095935D01*
X10090504Y-18107747D01*
X10051473Y-18146778D01*
X10051470Y-18146782D01*
X9990282Y-18266870D01*
X9990281Y-18266872D01*
X9969196Y-18399999D01*
X7300000Y-18399999D01*
X7300000Y-9480267D01*
X10173284Y-9480267D01*
X10332046Y-9535821D01*
X10332050Y-9535822D01*
X10500000Y-9554745D01*
X10667949Y-9535822D01*
X10667953Y-9535821D01*
X10826713Y-9480267D01*
X10499999Y-9153553D01*
X10173284Y-9480267D01*
X7300000Y-9480267D01*
X7300000Y-8800000D01*
X9745254Y-8800000D01*
X9764177Y-8967949D01*
X9764178Y-8967953D01*
X9819731Y-9126713D01*
X10146446Y-8799999D01*
X10853553Y-8799999D01*
X11180267Y-9126713D01*
X11235821Y-8967953D01*
X11235822Y-8967949D01*
X11254745Y-8800000D01*
X11235822Y-8632050D01*
X11235821Y-8632046D01*
X11180267Y-8473285D01*
X11180267Y-8473284D01*
X10853553Y-8799999D01*
X10146446Y-8799999D01*
X9819731Y-8473284D01*
X9764178Y-8632046D01*
X9764177Y-8632050D01*
X9745254Y-8800000D01*
X7300000Y-8800000D01*
X7300000Y-8119731D01*
X10173284Y-8119731D01*
X10499999Y-8446445D01*
X10826713Y-8119731D01*
X10826714Y-8119731D01*
X10667953Y-8064178D01*
X10667949Y-8064177D01*
X10500000Y-8045254D01*
X10332050Y-8064177D01*
X10332046Y-8064178D01*
X10173284Y-8119731D01*
X7300000Y-8119731D01*
X7300000Y-7000000D01*
X8794355Y-7000000D01*
X8814860Y-7168872D01*
X8875182Y-7327930D01*
X8971817Y-7467929D01*
X9099148Y-7580734D01*
X9249775Y-7659790D01*
X9414944Y-7700500D01*
X9414947Y-7700500D01*
X9585053Y-7700500D01*
X9585056Y-7700500D01*
X9750225Y-7659790D01*
X9900852Y-7580734D01*
X10028183Y-7467929D01*
X10124818Y-7327930D01*
X10185140Y-7168872D01*
X10205645Y-7000000D01*
X10794355Y-7000000D01*
X10814860Y-7168872D01*
X10875182Y-7327930D01*
X10971817Y-7467929D01*
X11099148Y-7580734D01*
X11249775Y-7659790D01*
X11414944Y-7700500D01*
X11414947Y-7700500D01*
X11585053Y-7700500D01*
X11585056Y-7700500D01*
X11667146Y-7680267D01*
X14173284Y-7680267D01*
X14332046Y-7735821D01*
X14332050Y-7735822D01*
X14500000Y-7754745D01*
X14667949Y-7735822D01*
X14667953Y-7735821D01*
X14826713Y-7680267D01*
X14499999Y-7353553D01*
X14173284Y-7680267D01*
X11667146Y-7680267D01*
X11750225Y-7659790D01*
X11900852Y-7580734D01*
X12028183Y-7467929D01*
X12124818Y-7327930D01*
X12185140Y-7168872D01*
X12205645Y-7000000D01*
X13745254Y-7000000D01*
X13764177Y-7167949D01*
X13764178Y-7167953D01*
X13819731Y-7326713D01*
X14146446Y-6999999D01*
X14853553Y-6999999D01*
X15180267Y-7326713D01*
X15235821Y-7167953D01*
X15235822Y-7167949D01*
X15254745Y-7000000D01*
X15235822Y-6832050D01*
X15235821Y-6832046D01*
X15180267Y-6673285D01*
X15180267Y-6673284D01*
X14853553Y-6999999D01*
X14146446Y-6999999D01*
X13819731Y-6673284D01*
X13764178Y-6832046D01*
X13764177Y-6832050D01*
X13745254Y-7000000D01*
X12205645Y-7000000D01*
X12205644Y-6999995D01*
X12199410Y-6948649D01*
X12185140Y-6831128D01*
X12124818Y-6672070D01*
X12028183Y-6532071D01*
X11994640Y-6502355D01*
X11900852Y-6419266D01*
X11900848Y-6419263D01*
X11833491Y-6383910D01*
X11790753Y-6340126D01*
X11785987Y-6319731D01*
X14173284Y-6319731D01*
X14499999Y-6646445D01*
X14826713Y-6319731D01*
X14826714Y-6319731D01*
X14667953Y-6264178D01*
X14667949Y-6264177D01*
X14500000Y-6245254D01*
X14332050Y-6264177D01*
X14332046Y-6264178D01*
X14173284Y-6319731D01*
X11785987Y-6319731D01*
X11780500Y-6296251D01*
X11780500Y-6162255D01*
X11799407Y-6104064D01*
X11809490Y-6092257D01*
X11848528Y-6053220D01*
X11909719Y-5933126D01*
X11930804Y-5800000D01*
X11909719Y-5666874D01*
X11848528Y-5546780D01*
X11753220Y-5451472D01*
X11753217Y-5451470D01*
X11633129Y-5390282D01*
X11633127Y-5390281D01*
X11500000Y-5369196D01*
X11366872Y-5390281D01*
X11366870Y-5390282D01*
X11246782Y-5451470D01*
X11151470Y-5546782D01*
X11090282Y-5666870D01*
X11090281Y-5666872D01*
X11069196Y-5799999D01*
X11069196Y-5800000D01*
X11090281Y-5933127D01*
X11090282Y-5933129D01*
X11151470Y-6053217D01*
X11151472Y-6053220D01*
X11190505Y-6092253D01*
X11218281Y-6146768D01*
X11219500Y-6162255D01*
X11219500Y-6296251D01*
X11200593Y-6354442D01*
X11166509Y-6383910D01*
X11099151Y-6419263D01*
X11099147Y-6419266D01*
X10971818Y-6532069D01*
X10971816Y-6532072D01*
X10892870Y-6646445D01*
X10875182Y-6672070D01*
X10822482Y-6811032D01*
X10814860Y-6831129D01*
X10794356Y-6999995D01*
X10794355Y-7000000D01*
X10205645Y-7000000D01*
X10205644Y-6999995D01*
X10199410Y-6948649D01*
X10185140Y-6831128D01*
X10124818Y-6672070D01*
X10028183Y-6532071D01*
X9994640Y-6502355D01*
X9900852Y-6419266D01*
X9900848Y-6419263D01*
X9833491Y-6383910D01*
X9790753Y-6340126D01*
X9780500Y-6296251D01*
X9780500Y-6162255D01*
X9799407Y-6104064D01*
X9809490Y-6092257D01*
X9848528Y-6053220D01*
X9909719Y-5933126D01*
X9930804Y-5800000D01*
X9909719Y-5666874D01*
X9848528Y-5546780D01*
X9753220Y-5451472D01*
X9753217Y-5451470D01*
X9633129Y-5390282D01*
X9633127Y-5390281D01*
X9500000Y-5369196D01*
X9366872Y-5390281D01*
X9366870Y-5390282D01*
X9246782Y-5451470D01*
X9151470Y-5546782D01*
X9090282Y-5666870D01*
X9090281Y-5666872D01*
X9069196Y-5799999D01*
X9069196Y-5800000D01*
X9090281Y-5933127D01*
X9090282Y-5933129D01*
X9151470Y-6053217D01*
X9151472Y-6053220D01*
X9190505Y-6092253D01*
X9218281Y-6146768D01*
X9219500Y-6162255D01*
X9219500Y-6296251D01*
X9200593Y-6354442D01*
X9166509Y-6383910D01*
X9099151Y-6419263D01*
X9099147Y-6419266D01*
X8971818Y-6532069D01*
X8971816Y-6532072D01*
X8892870Y-6646445D01*
X8875182Y-6672070D01*
X8822482Y-6811032D01*
X8814860Y-6831129D01*
X8794356Y-6999995D01*
X8794355Y-7000000D01*
X7300000Y-7000000D01*
X7300000Y-4999998D01*
X13794355Y-4999998D01*
X13794355Y-5000001D01*
X13797559Y-5026384D01*
X13814860Y-5168872D01*
X13875182Y-5327930D01*
X13971816Y-5467927D01*
X13971818Y-5467930D01*
X13982435Y-5477336D01*
X14099148Y-5580734D01*
X14249775Y-5659790D01*
X14414944Y-5700500D01*
X14414947Y-5700500D01*
X14585053Y-5700500D01*
X14585056Y-5700500D01*
X14750225Y-5659790D01*
X14900852Y-5580734D01*
X15028183Y-5467929D01*
X15124818Y-5327930D01*
X15185140Y-5168872D01*
X15205645Y-5000000D01*
X15185140Y-4831128D01*
X15124818Y-4672070D01*
X15028183Y-4532071D01*
X14991983Y-4500001D01*
X14900852Y-4419266D01*
X14900848Y-4419263D01*
X14833491Y-4383910D01*
X14790753Y-4340126D01*
X14780500Y-4296251D01*
X14780500Y-3609332D01*
X14791291Y-3564386D01*
X14792281Y-3562442D01*
X14807219Y-3533126D01*
X14828304Y-3400000D01*
X14812465Y-3299999D01*
X15236696Y-3299999D01*
X15236696Y-3300000D01*
X15257781Y-3433127D01*
X15257782Y-3433129D01*
X15308734Y-3533127D01*
X15318972Y-3553220D01*
X15358005Y-3592253D01*
X15385781Y-3646768D01*
X15387000Y-3662255D01*
X15387000Y-4204431D01*
X15396087Y-4238342D01*
X15406116Y-4275769D01*
X15443044Y-4339731D01*
X15495269Y-4391956D01*
X15495271Y-4391957D01*
X15500913Y-4397599D01*
X15500912Y-4397599D01*
X15500916Y-4397602D01*
X15802480Y-4699167D01*
X15830257Y-4753683D01*
X15825044Y-4804272D01*
X15814860Y-4831127D01*
X15794355Y-4999998D01*
X15794355Y-5000001D01*
X15797559Y-5026384D01*
X15814860Y-5168872D01*
X15875182Y-5327930D01*
X15971816Y-5467927D01*
X15971818Y-5467930D01*
X15982435Y-5477336D01*
X16099148Y-5580734D01*
X16166508Y-5616087D01*
X16209246Y-5659871D01*
X16219500Y-5703747D01*
X16219500Y-6956931D01*
X16221896Y-6965871D01*
X16231041Y-7000000D01*
X16238616Y-7028269D01*
X16275544Y-7092231D01*
X16327769Y-7144456D01*
X16327771Y-7144457D01*
X17425543Y-8242230D01*
X17425544Y-8242231D01*
X17425543Y-8242231D01*
X17454524Y-8271211D01*
X17477769Y-8294456D01*
X17541731Y-8331384D01*
X17613072Y-8350500D01*
X21478745Y-8350500D01*
X21536936Y-8369407D01*
X21572900Y-8418907D01*
X21572900Y-8480093D01*
X21548750Y-8519501D01*
X21494881Y-8573371D01*
X21481470Y-8586782D01*
X21420282Y-8706870D01*
X21420281Y-8706872D01*
X21399196Y-8839999D01*
X21399196Y-8840000D01*
X21420281Y-8973127D01*
X21420282Y-8973129D01*
X21481470Y-9093217D01*
X21481472Y-9093220D01*
X21576780Y-9188528D01*
X21696874Y-9249719D01*
X21830000Y-9270804D01*
X21831532Y-9270561D01*
X21833066Y-9270804D01*
X21837792Y-9270804D01*
X21837792Y-9271552D01*
X21891964Y-9280128D01*
X21896523Y-9282604D01*
X21903065Y-9286381D01*
X21911728Y-9291382D01*
X21911727Y-9291382D01*
X21911731Y-9291384D01*
X21983072Y-9310500D01*
X21983074Y-9310500D01*
X22635750Y-9310500D01*
X22635752Y-9310500D01*
X22707092Y-9291384D01*
X22715752Y-9286384D01*
X22771054Y-9254456D01*
X22816015Y-9209494D01*
X22870530Y-9181719D01*
X22886017Y-9180500D01*
X29036930Y-9180500D01*
X29036930Y-9180499D01*
X29108265Y-9161385D01*
X29108266Y-9161385D01*
X29108266Y-9161384D01*
X29108269Y-9161384D01*
X29172231Y-9124456D01*
X29224456Y-9072231D01*
X29224457Y-9072228D01*
X31467191Y-6829496D01*
X31521708Y-6801719D01*
X31537195Y-6800500D01*
X32962806Y-6800500D01*
X33020997Y-6819407D01*
X33032810Y-6829496D01*
X34475543Y-8272230D01*
X34475544Y-8272231D01*
X34475543Y-8272231D01*
X34527769Y-8324456D01*
X34572878Y-8350500D01*
X34572879Y-8350500D01*
X34591731Y-8361384D01*
X34591733Y-8361384D01*
X34591734Y-8361385D01*
X34621672Y-8369407D01*
X34663068Y-8380499D01*
X34663070Y-8380500D01*
X34663071Y-8380500D01*
X39304626Y-8380500D01*
X39304626Y-8380499D01*
X39375965Y-8361384D01*
X39388730Y-8354014D01*
X39439927Y-8324456D01*
X39492152Y-8272231D01*
X39492153Y-8272228D01*
X41694887Y-6069496D01*
X41749404Y-6041719D01*
X41764891Y-6040500D01*
X58986083Y-6040500D01*
X58986083Y-6040499D01*
X59057418Y-6021385D01*
X59057419Y-6021385D01*
X59057419Y-6021384D01*
X59057422Y-6021384D01*
X59121384Y-5984456D01*
X59173609Y-5932231D01*
X59173610Y-5932228D01*
X60027228Y-5078610D01*
X60027231Y-5078609D01*
X60079456Y-5026384D01*
X60116384Y-4962422D01*
X60135500Y-4891081D01*
X60135500Y-3318072D01*
X60116384Y-3246731D01*
X60079456Y-3182769D01*
X60063557Y-3166870D01*
X60027231Y-3130543D01*
X60027231Y-3130544D01*
X59834980Y-2938293D01*
X59807203Y-2883776D01*
X59810830Y-2837696D01*
X59861085Y-2683029D01*
X59880322Y-2500000D01*
X59861085Y-2316971D01*
X59804214Y-2141941D01*
X59804211Y-2141936D01*
X59804209Y-2141931D01*
X59756935Y-2060052D01*
X59712195Y-1982560D01*
X59589050Y-1845793D01*
X59440161Y-1737619D01*
X59440157Y-1737617D01*
X59440154Y-1737615D01*
X59272036Y-1662765D01*
X59272034Y-1662764D01*
X59272031Y-1662763D01*
X59272030Y-1662763D01*
X59195260Y-1646445D01*
X59092019Y-1624500D01*
X58907981Y-1624500D01*
X58810797Y-1645157D01*
X58727969Y-1662763D01*
X58727963Y-1662765D01*
X58559845Y-1737615D01*
X58559842Y-1737617D01*
X58410948Y-1845794D01*
X58287803Y-1982562D01*
X58287803Y-1982563D01*
X58195790Y-2141931D01*
X58195784Y-2141945D01*
X58138916Y-2316965D01*
X58138915Y-2316969D01*
X58138915Y-2316971D01*
X58119678Y-2500000D01*
X58136472Y-2659790D01*
X58138916Y-2683034D01*
X58195784Y-2858054D01*
X58195790Y-2858068D01*
X58242109Y-2938293D01*
X58287805Y-3017440D01*
X58334406Y-3069196D01*
X58408485Y-3151470D01*
X58410950Y-3154207D01*
X58559839Y-3262381D01*
X58559843Y-3262383D01*
X58559845Y-3262384D01*
X58611363Y-3285321D01*
X58727966Y-3337236D01*
X58907981Y-3375500D01*
X58907983Y-3375500D01*
X59092017Y-3375500D01*
X59092019Y-3375500D01*
X59272034Y-3337236D01*
X59293293Y-3327771D01*
X59326475Y-3312997D01*
X59387325Y-3306600D01*
X59436747Y-3333433D01*
X59545504Y-3442190D01*
X59573281Y-3496707D01*
X59574500Y-3512194D01*
X59574500Y-3644983D01*
X59555593Y-3703174D01*
X59506093Y-3739138D01*
X59444907Y-3739138D01*
X59435234Y-3735424D01*
X59272040Y-3662766D01*
X59272035Y-3662764D01*
X59272034Y-3662764D01*
X59272031Y-3662763D01*
X59272030Y-3662763D01*
X59225135Y-3652795D01*
X59092019Y-3624500D01*
X58907981Y-3624500D01*
X58811618Y-3644983D01*
X58727969Y-3662763D01*
X58727963Y-3662765D01*
X58559845Y-3737615D01*
X58559842Y-3737617D01*
X58559839Y-3737618D01*
X58559839Y-3737619D01*
X58547249Y-3746766D01*
X58410948Y-3845794D01*
X58287803Y-3982562D01*
X58287803Y-3982563D01*
X58195790Y-4141931D01*
X58195783Y-4141946D01*
X58187037Y-4168863D01*
X58151072Y-4218362D01*
X58118509Y-4233893D01*
X58100885Y-4238615D01*
X58100883Y-4238616D01*
X58040683Y-4273371D01*
X58040684Y-4273372D01*
X58031304Y-4278788D01*
X58030450Y-4277309D01*
X57980519Y-4294990D01*
X57921854Y-4277612D01*
X57884607Y-4229070D01*
X57883774Y-4226617D01*
X57849681Y-4121691D01*
X57849679Y-4121686D01*
X57752464Y-3953307D01*
X57752460Y-3953301D01*
X57622359Y-3808809D01*
X57622358Y-3808808D01*
X57465044Y-3694512D01*
X57465037Y-3694508D01*
X57287419Y-3615428D01*
X57287411Y-3615426D01*
X57250000Y-3607474D01*
X57250000Y-4184314D01*
X57245606Y-4179920D01*
X57154394Y-4127259D01*
X57052661Y-4100000D01*
X56947339Y-4100000D01*
X56845606Y-4127259D01*
X56754394Y-4179920D01*
X56750000Y-4184314D01*
X56750000Y-3607474D01*
X56712588Y-3615426D01*
X56712584Y-3615427D01*
X56534959Y-3694510D01*
X56534956Y-3694512D01*
X56377640Y-3808808D01*
X56377640Y-3808809D01*
X56247539Y-3953301D01*
X56247535Y-3953307D01*
X56150320Y-4121686D01*
X56150317Y-4121694D01*
X56108629Y-4250000D01*
X56684314Y-4250000D01*
X56679920Y-4254394D01*
X56627259Y-4345606D01*
X56600000Y-4447339D01*
X56600000Y-4552661D01*
X56627259Y-4654394D01*
X56679920Y-4745606D01*
X56684314Y-4750000D01*
X56108629Y-4750000D01*
X56150317Y-4878305D01*
X56150320Y-4878313D01*
X56247535Y-5046692D01*
X56247539Y-5046698D01*
X56254344Y-5054256D01*
X56279231Y-5110152D01*
X56266509Y-5170000D01*
X56221040Y-5210941D01*
X56180773Y-5219500D01*
X55974500Y-5219500D01*
X55916309Y-5200593D01*
X55880345Y-5151093D01*
X55875500Y-5120500D01*
X55875500Y-3805253D01*
X55875498Y-3805241D01*
X55871840Y-3786854D01*
X55863867Y-3746769D01*
X55819552Y-3680448D01*
X55819548Y-3680445D01*
X55753233Y-3636134D01*
X55753231Y-3636133D01*
X55753228Y-3636132D01*
X55753227Y-3636132D01*
X55694758Y-3624501D01*
X55694748Y-3624500D01*
X54511192Y-3624500D01*
X54453001Y-3605593D01*
X54417037Y-3556093D01*
X54417037Y-3494907D01*
X54441188Y-3455497D01*
X54499754Y-3396931D01*
X54563253Y-3333431D01*
X54617768Y-3305655D01*
X54673519Y-3312994D01*
X54727966Y-3337236D01*
X54907981Y-3375500D01*
X54907983Y-3375500D01*
X55092017Y-3375500D01*
X55092019Y-3375500D01*
X55272034Y-3337236D01*
X55440161Y-3262381D01*
X55589050Y-3154207D01*
X55712195Y-3017440D01*
X55804214Y-2858059D01*
X55861085Y-2683029D01*
X55880322Y-2500000D01*
X55861085Y-2316971D01*
X55839325Y-2250000D01*
X56108629Y-2250000D01*
X56684314Y-2250000D01*
X56679920Y-2254394D01*
X56627259Y-2345606D01*
X56600000Y-2447339D01*
X56600000Y-2552661D01*
X56627259Y-2654394D01*
X56679920Y-2745606D01*
X56684314Y-2750000D01*
X56108629Y-2750000D01*
X56150317Y-2878305D01*
X56150320Y-2878313D01*
X56247535Y-3046692D01*
X56247539Y-3046698D01*
X56377640Y-3191190D01*
X56377641Y-3191191D01*
X56534955Y-3305487D01*
X56534958Y-3305489D01*
X56712580Y-3384571D01*
X56749999Y-3392524D01*
X56750000Y-3392524D01*
X56750000Y-2815686D01*
X56754394Y-2820080D01*
X56845606Y-2872741D01*
X56947339Y-2900000D01*
X57052661Y-2900000D01*
X57154394Y-2872741D01*
X57245606Y-2820080D01*
X57250000Y-2815686D01*
X57250000Y-3392524D01*
X57287419Y-3384571D01*
X57465041Y-3305489D01*
X57465044Y-3305487D01*
X57622358Y-3191191D01*
X57622359Y-3191190D01*
X57752460Y-3046698D01*
X57752464Y-3046692D01*
X57849679Y-2878313D01*
X57849682Y-2878305D01*
X57891371Y-2750000D01*
X57315686Y-2750000D01*
X57320080Y-2745606D01*
X57372741Y-2654394D01*
X57400000Y-2552661D01*
X57400000Y-2447339D01*
X57372741Y-2345606D01*
X57320080Y-2254394D01*
X57315686Y-2250000D01*
X57891371Y-2250000D01*
X57849682Y-2121694D01*
X57849679Y-2121686D01*
X57752464Y-1953307D01*
X57752460Y-1953301D01*
X57622359Y-1808809D01*
X57622358Y-1808808D01*
X57465044Y-1694512D01*
X57465037Y-1694508D01*
X57287419Y-1615428D01*
X57287411Y-1615426D01*
X57250000Y-1607474D01*
X57250000Y-2184314D01*
X57245606Y-2179920D01*
X57154394Y-2127259D01*
X57052661Y-2100000D01*
X56947339Y-2100000D01*
X56845606Y-2127259D01*
X56754394Y-2179920D01*
X56750000Y-2184314D01*
X56750000Y-1607474D01*
X56712588Y-1615426D01*
X56712584Y-1615427D01*
X56534959Y-1694510D01*
X56534956Y-1694512D01*
X56377640Y-1808808D01*
X56377640Y-1808809D01*
X56247539Y-1953301D01*
X56247535Y-1953307D01*
X56150320Y-2121686D01*
X56150317Y-2121694D01*
X56108629Y-2250000D01*
X55839325Y-2250000D01*
X55804214Y-2141941D01*
X55804211Y-2141936D01*
X55804209Y-2141931D01*
X55756935Y-2060052D01*
X55712195Y-1982560D01*
X55589050Y-1845793D01*
X55440161Y-1737619D01*
X55440157Y-1737617D01*
X55440154Y-1737615D01*
X55272036Y-1662765D01*
X55272034Y-1662764D01*
X55272031Y-1662763D01*
X55272030Y-1662763D01*
X55195260Y-1646445D01*
X55092019Y-1624500D01*
X54907981Y-1624500D01*
X54810797Y-1645157D01*
X54727969Y-1662763D01*
X54727963Y-1662765D01*
X54559845Y-1737615D01*
X54559842Y-1737617D01*
X54410948Y-1845794D01*
X54287803Y-1982562D01*
X54287803Y-1982563D01*
X54195790Y-2141931D01*
X54195784Y-2141945D01*
X54138916Y-2316965D01*
X54138915Y-2316969D01*
X54138915Y-2316971D01*
X54119678Y-2500000D01*
X54138915Y-2683029D01*
X54189170Y-2837696D01*
X54189170Y-2898880D01*
X54165019Y-2938292D01*
X52432810Y-4670504D01*
X52378293Y-4698281D01*
X52362806Y-4699500D01*
X50543007Y-4699500D01*
X50542991Y-4699499D01*
X50536928Y-4699499D01*
X50536927Y-4699499D01*
X45330165Y-4699499D01*
X45271974Y-4680592D01*
X45236010Y-4631092D01*
X45236010Y-4569906D01*
X45260161Y-4530495D01*
X45295501Y-4495155D01*
X45344114Y-4446542D01*
X45420775Y-4331811D01*
X45473580Y-4204328D01*
X45500500Y-4068993D01*
X45500500Y-3931007D01*
X45473580Y-3795672D01*
X45437977Y-3709719D01*
X45420777Y-3668193D01*
X45420771Y-3668182D01*
X45344114Y-3553458D01*
X45246541Y-3455885D01*
X45131817Y-3379228D01*
X45131806Y-3379222D01*
X45004328Y-3326420D01*
X44868995Y-3299500D01*
X44868993Y-3299500D01*
X26618994Y-3299500D01*
X26481006Y-3299500D01*
X26481003Y-3299500D01*
X26345672Y-3326420D01*
X26345670Y-3326420D01*
X26218191Y-3379223D01*
X26103460Y-3455883D01*
X23455883Y-6103460D01*
X23379223Y-6218191D01*
X23326420Y-6345670D01*
X23326420Y-6345672D01*
X23299500Y-6481003D01*
X23299500Y-6618996D01*
X23326420Y-6754327D01*
X23326420Y-6754329D01*
X23379223Y-6881808D01*
X23448732Y-6985837D01*
X23455886Y-6996543D01*
X23553457Y-7094114D01*
X23668189Y-7170775D01*
X23795672Y-7223580D01*
X23931006Y-7250500D01*
X23931007Y-7250500D01*
X24068993Y-7250500D01*
X24068994Y-7250500D01*
X24204328Y-7223580D01*
X24331811Y-7170775D01*
X24446543Y-7094114D01*
X26811161Y-4729496D01*
X26865678Y-4701719D01*
X26881165Y-4700500D01*
X27214366Y-4700500D01*
X27272557Y-4719407D01*
X27308521Y-4768907D01*
X27308521Y-4830093D01*
X27296683Y-4854497D01*
X27272278Y-4891022D01*
X27210609Y-4983314D01*
X27210603Y-4983325D01*
X27150263Y-5129001D01*
X27150263Y-5129003D01*
X27119500Y-5283655D01*
X27119500Y-6241344D01*
X27150263Y-6395996D01*
X27150263Y-6395998D01*
X27210603Y-6541674D01*
X27210609Y-6541685D01*
X27254924Y-6608005D01*
X27298211Y-6672789D01*
X27409711Y-6784289D01*
X27482326Y-6832809D01*
X27540814Y-6871890D01*
X27540825Y-6871896D01*
X27584171Y-6889850D01*
X27686503Y-6932237D01*
X27841158Y-6963000D01*
X27841159Y-6963000D01*
X27998841Y-6963000D01*
X27998842Y-6963000D01*
X28153497Y-6932237D01*
X28299179Y-6871894D01*
X28430289Y-6784289D01*
X28541789Y-6672789D01*
X28629394Y-6541679D01*
X28689737Y-6395997D01*
X28720500Y-6241342D01*
X28720500Y-5756599D01*
X28739407Y-5698408D01*
X28788907Y-5662444D01*
X28850093Y-5662444D01*
X28889504Y-5686595D01*
X28951267Y-5748358D01*
X29053714Y-5816811D01*
X29167548Y-5863963D01*
X29288394Y-5888000D01*
X29288396Y-5888000D01*
X29411604Y-5888000D01*
X29411606Y-5888000D01*
X29532452Y-5863963D01*
X29646286Y-5816811D01*
X29748733Y-5748358D01*
X29835858Y-5661233D01*
X29904311Y-5558786D01*
X29951463Y-5444952D01*
X29975500Y-5324106D01*
X29975500Y-5200894D01*
X29951463Y-5080048D01*
X29904311Y-4966214D01*
X29835858Y-4863767D01*
X29835856Y-4863764D01*
X29834654Y-4862300D01*
X29834338Y-4861493D01*
X29833156Y-4859724D01*
X29833544Y-4859464D01*
X29812357Y-4805322D01*
X29827810Y-4746120D01*
X29875110Y-4707307D01*
X29911186Y-4700500D01*
X34588814Y-4700500D01*
X34647005Y-4719407D01*
X34682969Y-4768907D01*
X34682969Y-4830093D01*
X34666779Y-4859680D01*
X34666844Y-4859724D01*
X34666355Y-4860455D01*
X34665346Y-4862300D01*
X34664143Y-4863764D01*
X34595688Y-4966214D01*
X34548536Y-5080049D01*
X34524500Y-5200891D01*
X34524500Y-5324108D01*
X34548536Y-5444950D01*
X34595688Y-5558785D01*
X34595689Y-5558786D01*
X34664142Y-5661233D01*
X34751267Y-5748358D01*
X34853714Y-5816811D01*
X34967548Y-5863963D01*
X35088394Y-5888000D01*
X35088396Y-5888000D01*
X35211604Y-5888000D01*
X35211606Y-5888000D01*
X35332452Y-5863963D01*
X35446286Y-5816811D01*
X35548733Y-5748358D01*
X35635858Y-5661233D01*
X35666024Y-5616087D01*
X35705841Y-5556498D01*
X35753892Y-5518619D01*
X35788156Y-5512500D01*
X36180001Y-5512500D01*
X36180001Y-6012500D01*
X35730001Y-6012500D01*
X35730000Y-6012501D01*
X35730000Y-6246220D01*
X35762664Y-6410434D01*
X35826739Y-6565125D01*
X35919759Y-6704340D01*
X36038159Y-6822740D01*
X36091205Y-6858184D01*
X36129085Y-6906234D01*
X36131487Y-6967372D01*
X36097495Y-7018246D01*
X36040091Y-7039424D01*
X36036204Y-7039500D01*
X35180283Y-7039500D01*
X35122092Y-7020593D01*
X35110279Y-7010504D01*
X33627545Y-5527771D01*
X33627544Y-5527769D01*
X33575319Y-5475544D01*
X33511357Y-5438616D01*
X33511356Y-5438615D01*
X33511353Y-5438614D01*
X33440019Y-5419500D01*
X33440017Y-5419500D01*
X33440016Y-5419500D01*
X31133841Y-5419500D01*
X31059983Y-5419500D01*
X31059980Y-5419500D01*
X30988646Y-5438614D01*
X30988645Y-5438614D01*
X30937869Y-5467930D01*
X30924681Y-5475544D01*
X29753781Y-6646445D01*
X28589722Y-7810504D01*
X28535205Y-7838281D01*
X28519718Y-7839500D01*
X23253003Y-7839500D01*
X23194812Y-7820593D01*
X23182999Y-7810504D01*
X22009496Y-6637001D01*
X21981719Y-6582484D01*
X21980500Y-6566997D01*
X21980500Y-5201405D01*
X21972682Y-5172232D01*
X21972681Y-5172229D01*
X21971781Y-5168870D01*
X21961384Y-5130065D01*
X21924456Y-5066103D01*
X20248362Y-3390010D01*
X20220587Y-3335496D01*
X20209719Y-3266874D01*
X20209716Y-3266869D01*
X20209716Y-3266867D01*
X20148529Y-3146782D01*
X20148528Y-3146780D01*
X20053220Y-3051472D01*
X20053217Y-3051470D01*
X19933129Y-2990282D01*
X19933127Y-2990281D01*
X19800000Y-2969196D01*
X19666872Y-2990281D01*
X19666870Y-2990282D01*
X19546782Y-3051470D01*
X19451470Y-3146782D01*
X19390282Y-3266870D01*
X19390280Y-3266875D01*
X19389675Y-3270696D01*
X19387920Y-3274138D01*
X19387874Y-3274282D01*
X19387851Y-3274274D01*
X19361893Y-3325210D01*
X19307374Y-3352983D01*
X19246943Y-3343407D01*
X19221894Y-3325207D01*
X19172231Y-3275544D01*
X19108269Y-3238616D01*
X19108268Y-3238615D01*
X19108265Y-3238614D01*
X19036931Y-3219500D01*
X19036929Y-3219500D01*
X19036928Y-3219500D01*
X18962256Y-3219500D01*
X18904065Y-3200593D01*
X18892253Y-3190504D01*
X18853221Y-3151473D01*
X18853217Y-3151470D01*
X18733129Y-3090282D01*
X18733127Y-3090281D01*
X18600000Y-3069196D01*
X18466872Y-3090281D01*
X18466870Y-3090282D01*
X18346782Y-3151470D01*
X18251470Y-3246782D01*
X18190282Y-3366870D01*
X18190281Y-3366872D01*
X18169196Y-3499999D01*
X18169196Y-3500000D01*
X18190281Y-3633127D01*
X18190282Y-3633129D01*
X18249081Y-3748528D01*
X18251472Y-3753220D01*
X18346780Y-3848528D01*
X18466874Y-3909719D01*
X18600000Y-3930804D01*
X18733126Y-3909719D01*
X18853220Y-3848528D01*
X18853222Y-3848525D01*
X18854462Y-3847894D01*
X18914894Y-3838322D01*
X18969411Y-3866099D01*
X18969412Y-3866099D01*
X19802480Y-4699167D01*
X19830257Y-4753684D01*
X19825044Y-4804274D01*
X19814859Y-4831129D01*
X19794355Y-4999998D01*
X19794355Y-5000001D01*
X19797559Y-5026384D01*
X19814860Y-5168872D01*
X19875182Y-5327930D01*
X19971816Y-5467927D01*
X19971818Y-5467930D01*
X19982435Y-5477336D01*
X20099148Y-5580734D01*
X20249775Y-5659790D01*
X20414944Y-5700500D01*
X20414947Y-5700500D01*
X20585053Y-5700500D01*
X20585056Y-5700500D01*
X20750225Y-5659790D01*
X20900852Y-5580734D01*
X21028183Y-5467929D01*
X21124818Y-5327930D01*
X21144237Y-5276723D01*
X21182549Y-5229021D01*
X21241585Y-5212947D01*
X21298794Y-5234642D01*
X21306806Y-5241827D01*
X21390503Y-5325523D01*
X21418281Y-5380039D01*
X21419500Y-5395527D01*
X21419500Y-6761120D01*
X21420065Y-6765412D01*
X21417568Y-6778882D01*
X21430665Y-6802790D01*
X21438614Y-6832457D01*
X21438614Y-6832458D01*
X21438616Y-6832461D01*
X21475544Y-6896423D01*
X21527769Y-6948648D01*
X21527771Y-6948649D01*
X22199617Y-7620496D01*
X22227394Y-7675013D01*
X22217823Y-7735445D01*
X22174558Y-7778710D01*
X22129613Y-7789500D01*
X20925924Y-7789500D01*
X20867733Y-7770593D01*
X20831769Y-7721093D01*
X20830087Y-7683641D01*
X20499999Y-7353553D01*
X20169159Y-7684392D01*
X20165108Y-7729409D01*
X20124852Y-7775486D01*
X20074075Y-7789500D01*
X18925924Y-7789500D01*
X18867733Y-7770593D01*
X18831769Y-7721093D01*
X18830087Y-7683641D01*
X18499999Y-7353553D01*
X18169159Y-7684392D01*
X18165108Y-7729409D01*
X18124852Y-7775486D01*
X18074075Y-7789500D01*
X17807195Y-7789500D01*
X17749004Y-7770593D01*
X17737191Y-7760504D01*
X16976687Y-7000000D01*
X17745254Y-7000000D01*
X17764177Y-7167949D01*
X17764178Y-7167953D01*
X17819731Y-7326713D01*
X18146446Y-6999999D01*
X18853553Y-6999999D01*
X19180267Y-7326713D01*
X19235821Y-7167953D01*
X19235822Y-7167949D01*
X19254745Y-7000000D01*
X19745254Y-7000000D01*
X19764177Y-7167949D01*
X19764178Y-7167953D01*
X19819731Y-7326713D01*
X20146446Y-6999999D01*
X20853553Y-6999999D01*
X21180267Y-7326713D01*
X21235821Y-7167953D01*
X21235822Y-7167949D01*
X21254746Y-6999996D01*
X21254746Y-6999995D01*
X21236662Y-6839499D01*
X21238967Y-6828238D01*
X21228468Y-6811032D01*
X21180267Y-6673285D01*
X21180267Y-6673284D01*
X20853553Y-6999999D01*
X20146446Y-6999999D01*
X19819731Y-6673284D01*
X19764178Y-6832046D01*
X19764177Y-6832050D01*
X19745254Y-7000000D01*
X19254745Y-7000000D01*
X19235822Y-6832050D01*
X19235821Y-6832046D01*
X19180267Y-6673285D01*
X19180267Y-6673284D01*
X18853553Y-6999999D01*
X18146446Y-6999999D01*
X17819731Y-6673284D01*
X17764178Y-6832046D01*
X17764177Y-6832050D01*
X17745254Y-7000000D01*
X16976687Y-7000000D01*
X16809496Y-6832809D01*
X16781719Y-6778292D01*
X16780500Y-6762805D01*
X16780500Y-6319731D01*
X18173284Y-6319731D01*
X18499999Y-6646445D01*
X18826713Y-6319731D01*
X18826714Y-6319731D01*
X20173284Y-6319731D01*
X20499999Y-6646445D01*
X20826713Y-6319731D01*
X20826714Y-6319731D01*
X20667953Y-6264178D01*
X20667949Y-6264177D01*
X20500000Y-6245254D01*
X20332050Y-6264177D01*
X20332046Y-6264178D01*
X20173284Y-6319731D01*
X18826714Y-6319731D01*
X18667953Y-6264178D01*
X18667949Y-6264177D01*
X18500000Y-6245254D01*
X18332050Y-6264177D01*
X18332046Y-6264178D01*
X18173284Y-6319731D01*
X16780500Y-6319731D01*
X16780500Y-5703747D01*
X16799407Y-5645556D01*
X16833490Y-5616088D01*
X16900852Y-5580734D01*
X17028183Y-5467929D01*
X17124818Y-5327930D01*
X17185140Y-5168872D01*
X17205645Y-5000000D01*
X17185140Y-4831128D01*
X17124818Y-4672070D01*
X17028183Y-4532071D01*
X16900852Y-4419266D01*
X16750225Y-4340210D01*
X16750224Y-4340209D01*
X16750223Y-4340209D01*
X16585058Y-4299500D01*
X16585056Y-4299500D01*
X16414944Y-4299500D01*
X16338795Y-4318268D01*
X16293656Y-4329394D01*
X16232632Y-4324961D01*
X16199961Y-4303274D01*
X15976996Y-4080309D01*
X15949219Y-4025792D01*
X15948000Y-4010305D01*
X15948000Y-3662255D01*
X15966907Y-3604064D01*
X15976990Y-3592257D01*
X16016028Y-3553220D01*
X16077219Y-3433126D01*
X16098304Y-3300000D01*
X16098304Y-3299999D01*
X16469196Y-3299999D01*
X16469196Y-3300000D01*
X16490281Y-3433127D01*
X16490282Y-3433129D01*
X16541234Y-3533127D01*
X16551472Y-3553220D01*
X16646780Y-3648528D01*
X16646782Y-3648529D01*
X16766867Y-3709716D01*
X16766870Y-3709717D01*
X16766874Y-3709719D01*
X16789947Y-3713373D01*
X16844460Y-3741147D01*
X16844463Y-3741149D01*
X17802480Y-4699167D01*
X17830257Y-4753684D01*
X17825044Y-4804274D01*
X17814859Y-4831129D01*
X17794355Y-4999998D01*
X17794355Y-5000001D01*
X17797559Y-5026384D01*
X17814860Y-5168872D01*
X17875182Y-5327930D01*
X17971816Y-5467927D01*
X17971818Y-5467930D01*
X17982435Y-5477336D01*
X18099148Y-5580734D01*
X18249775Y-5659790D01*
X18414944Y-5700500D01*
X18414947Y-5700500D01*
X18585053Y-5700500D01*
X18585056Y-5700500D01*
X18750225Y-5659790D01*
X18900852Y-5580734D01*
X19028183Y-5467929D01*
X19124818Y-5327930D01*
X19185140Y-5168872D01*
X19205645Y-5000000D01*
X19185140Y-4831128D01*
X19124818Y-4672070D01*
X19028183Y-4532071D01*
X18900852Y-4419266D01*
X18750225Y-4340210D01*
X18750224Y-4340209D01*
X18750223Y-4340209D01*
X18585058Y-4299500D01*
X18585056Y-4299500D01*
X18414944Y-4299500D01*
X18338795Y-4318268D01*
X18293656Y-4329394D01*
X18232632Y-4324961D01*
X18199961Y-4303274D01*
X17348134Y-3451448D01*
X17320357Y-3396931D01*
X17320357Y-3365956D01*
X17324907Y-3337234D01*
X17330804Y-3300000D01*
X17309719Y-3166874D01*
X17248528Y-3046780D01*
X17153220Y-2951472D01*
X17153217Y-2951470D01*
X17033129Y-2890282D01*
X17033127Y-2890281D01*
X16900000Y-2869196D01*
X16766872Y-2890281D01*
X16766870Y-2890282D01*
X16646782Y-2951470D01*
X16551470Y-3046782D01*
X16490282Y-3166870D01*
X16490281Y-3166872D01*
X16469196Y-3299999D01*
X16098304Y-3299999D01*
X16077219Y-3166874D01*
X16016028Y-3046780D01*
X15920720Y-2951472D01*
X15920717Y-2951470D01*
X15800629Y-2890282D01*
X15800627Y-2890281D01*
X15667500Y-2869196D01*
X15534372Y-2890281D01*
X15534370Y-2890282D01*
X15414282Y-2951470D01*
X15318970Y-3046782D01*
X15257782Y-3166870D01*
X15257781Y-3166872D01*
X15236696Y-3299999D01*
X14812465Y-3299999D01*
X14807219Y-3266874D01*
X14746028Y-3146780D01*
X14650720Y-3051472D01*
X14650717Y-3051470D01*
X14530629Y-2990282D01*
X14530627Y-2990281D01*
X14397500Y-2969196D01*
X14264372Y-2990281D01*
X14264370Y-2990282D01*
X14144282Y-3051470D01*
X14048970Y-3146782D01*
X13987782Y-3266870D01*
X13987781Y-3266872D01*
X13966696Y-3399999D01*
X13966696Y-3400000D01*
X13987781Y-3533127D01*
X13987782Y-3533129D01*
X14048970Y-3653217D01*
X14048972Y-3653220D01*
X14144280Y-3748528D01*
X14144282Y-3748529D01*
X14144283Y-3748530D01*
X14165444Y-3759312D01*
X14208709Y-3802576D01*
X14219500Y-3847522D01*
X14219500Y-4296251D01*
X14200593Y-4354442D01*
X14166509Y-4383910D01*
X14099151Y-4419263D01*
X14099147Y-4419266D01*
X13971818Y-4532069D01*
X13971816Y-4532072D01*
X13945701Y-4569906D01*
X13875182Y-4672070D01*
X13814861Y-4831127D01*
X13814860Y-4831129D01*
X13794355Y-4999998D01*
X7300000Y-4999998D01*
X7300000Y-2680267D01*
X21673284Y-2680267D01*
X21832046Y-2735821D01*
X21832050Y-2735822D01*
X22000000Y-2754745D01*
X22167949Y-2735822D01*
X22167953Y-2735821D01*
X22326713Y-2680267D01*
X21999999Y-2353553D01*
X21673284Y-2680267D01*
X7300000Y-2680267D01*
X7300000Y-2000000D01*
X21245254Y-2000000D01*
X21264177Y-2167949D01*
X21264178Y-2167953D01*
X21319731Y-2326713D01*
X21646446Y-1999999D01*
X22353553Y-1999999D01*
X22680267Y-2326713D01*
X22735821Y-2167953D01*
X22735822Y-2167949D01*
X22754745Y-2000000D01*
X23294355Y-2000000D01*
X23314860Y-2168872D01*
X23375182Y-2327930D01*
X23471817Y-2467929D01*
X23599148Y-2580734D01*
X23749775Y-2659790D01*
X23914944Y-2700500D01*
X23914947Y-2700500D01*
X24085053Y-2700500D01*
X24085056Y-2700500D01*
X24250225Y-2659790D01*
X24400852Y-2580734D01*
X24528183Y-2467929D01*
X24624818Y-2327930D01*
X24624817Y-2327930D01*
X24628041Y-2323261D01*
X24676658Y-2286112D01*
X24709516Y-2280500D01*
X25637744Y-2280500D01*
X25695935Y-2299407D01*
X25707747Y-2309496D01*
X25743858Y-2345606D01*
X25746780Y-2348528D01*
X25866874Y-2409719D01*
X26000000Y-2430804D01*
X26133126Y-2409719D01*
X26253220Y-2348528D01*
X26348528Y-2253220D01*
X26409719Y-2133126D01*
X26430804Y-2000000D01*
X26409719Y-1866874D01*
X26391505Y-1831128D01*
X26348529Y-1746782D01*
X26348528Y-1746780D01*
X26253220Y-1651472D01*
X26253217Y-1651470D01*
X26133129Y-1590282D01*
X26133127Y-1590281D01*
X26000000Y-1569196D01*
X25866872Y-1590281D01*
X25866870Y-1590282D01*
X25746782Y-1651470D01*
X25746778Y-1651473D01*
X25707747Y-1690504D01*
X25653230Y-1718281D01*
X25637744Y-1719500D01*
X24709516Y-1719500D01*
X24651325Y-1700593D01*
X24628041Y-1676739D01*
X24605630Y-1644272D01*
X24528183Y-1532071D01*
X24400852Y-1419266D01*
X24250225Y-1340210D01*
X24250224Y-1340209D01*
X24250223Y-1340209D01*
X24085058Y-1299500D01*
X24085056Y-1299500D01*
X23914944Y-1299500D01*
X23914941Y-1299500D01*
X23749776Y-1340209D01*
X23599146Y-1419267D01*
X23471818Y-1532069D01*
X23471816Y-1532072D01*
X23381605Y-1662765D01*
X23375182Y-1672070D01*
X23323325Y-1808809D01*
X23314860Y-1831129D01*
X23296473Y-1982560D01*
X23294355Y-2000000D01*
X22754745Y-2000000D01*
X22735822Y-1832050D01*
X22735821Y-1832046D01*
X22680267Y-1673285D01*
X22680267Y-1673284D01*
X22353553Y-1999999D01*
X21646446Y-1999999D01*
X21319731Y-1673284D01*
X21264178Y-1832046D01*
X21264177Y-1832050D01*
X21245254Y-2000000D01*
X7300000Y-2000000D01*
X7300000Y-1319731D01*
X21673284Y-1319731D01*
X21999999Y-1646445D01*
X22326713Y-1319731D01*
X22326714Y-1319731D01*
X22167953Y-1264178D01*
X22167949Y-1264177D01*
X22000000Y-1245254D01*
X21832050Y-1264177D01*
X21832046Y-1264178D01*
X21673284Y-1319731D01*
X7300000Y-1319731D01*
X7300000Y-599499D01*
X7318907Y-541308D01*
X7368407Y-505344D01*
X7399000Y-500499D01*
X27330915Y-500499D01*
X27389106Y-519406D01*
G37*
G04 #@! TD.AperFunction*
G04 #@! TA.AperFunction,Conductor*
G36*
X46964301Y-8719407D02*
G01*
X47000265Y-8768907D01*
X47000265Y-8830093D01*
X46976115Y-8869501D01*
X45270966Y-10574651D01*
X43567770Y-12277847D01*
X43567768Y-12277849D01*
X43567767Y-12277848D01*
X43515547Y-12330069D01*
X43515544Y-12330072D01*
X43515543Y-12330074D01*
X43496602Y-12362882D01*
X43494700Y-12366175D01*
X43478616Y-12394032D01*
X43478615Y-12394036D01*
X43466897Y-12437769D01*
X43463198Y-12451573D01*
X43459499Y-12465376D01*
X43459499Y-17276930D01*
X43465546Y-17299498D01*
X43478613Y-17348264D01*
X43478614Y-17348266D01*
X43478615Y-17348268D01*
X43515543Y-17412230D01*
X43567768Y-17464455D01*
X43567770Y-17464456D01*
X44396770Y-18293457D01*
X44424547Y-18347974D01*
X44414976Y-18408405D01*
X44390282Y-18456869D01*
X44390281Y-18456874D01*
X44369196Y-18589999D01*
X44369196Y-18590000D01*
X44390281Y-18723127D01*
X44390282Y-18723129D01*
X44449448Y-18839248D01*
X44451472Y-18843220D01*
X44546780Y-18938528D01*
X44666874Y-18999719D01*
X44774945Y-19016835D01*
X44799999Y-19020804D01*
X44799999Y-19020803D01*
X44800000Y-19020804D01*
X44933126Y-18999719D01*
X44933126Y-18999718D01*
X44935013Y-18999420D01*
X44995445Y-19008991D01*
X45038710Y-19052256D01*
X45049500Y-19097201D01*
X45049500Y-19112805D01*
X45030593Y-19170996D01*
X45020504Y-19182808D01*
X44763111Y-19440200D01*
X44708596Y-19467977D01*
X44706804Y-19468117D01*
X44566872Y-19490281D01*
X44566870Y-19490282D01*
X44446782Y-19551470D01*
X44351470Y-19646782D01*
X44290282Y-19766870D01*
X44290281Y-19766872D01*
X44269196Y-19899999D01*
X44269196Y-19900000D01*
X44290281Y-20033127D01*
X44290282Y-20033129D01*
X44351470Y-20153217D01*
X44351472Y-20153220D01*
X44446780Y-20248528D01*
X44566874Y-20309719D01*
X44700000Y-20330804D01*
X44833126Y-20309719D01*
X44953220Y-20248528D01*
X45048528Y-20153220D01*
X45109719Y-20033126D01*
X45130804Y-19900000D01*
X45130804Y-19899999D01*
X45132023Y-19892304D01*
X45135370Y-19892834D01*
X45149711Y-19848698D01*
X45159801Y-19836885D01*
X45265544Y-19731142D01*
X45554456Y-19442231D01*
X45555306Y-19440758D01*
X45591384Y-19378269D01*
X45610500Y-19306928D01*
X45610500Y-18404249D01*
X45609361Y-18400000D01*
X45591384Y-18332908D01*
X45587101Y-18325489D01*
X45554456Y-18268946D01*
X45502231Y-18216721D01*
X45502228Y-18216719D01*
X44309496Y-17023987D01*
X44281719Y-16969470D01*
X44280500Y-16953983D01*
X44280500Y-13480581D01*
X44299407Y-13422390D01*
X44348907Y-13386426D01*
X44410093Y-13386426D01*
X44434499Y-13398264D01*
X44452286Y-13410149D01*
X44468187Y-13420774D01*
X44468191Y-13420776D01*
X44470352Y-13421671D01*
X44472296Y-13422970D01*
X44472474Y-13423065D01*
X44472464Y-13423082D01*
X44502476Y-13443133D01*
X49720504Y-18661161D01*
X49748281Y-18715678D01*
X49749500Y-18731165D01*
X49749500Y-19892799D01*
X49730593Y-19950990D01*
X49681093Y-19986954D01*
X49635013Y-19990580D01*
X49633126Y-19990281D01*
X49500000Y-19969196D01*
X49366872Y-19990281D01*
X49366870Y-19990282D01*
X49246782Y-20051470D01*
X49151470Y-20146782D01*
X49090282Y-20266870D01*
X49090281Y-20266872D01*
X49067977Y-20407695D01*
X49064628Y-20407164D01*
X49050289Y-20451299D01*
X49040200Y-20463111D01*
X48112810Y-21390503D01*
X48058293Y-21418281D01*
X48042806Y-21419500D01*
X43557195Y-21419500D01*
X43499004Y-21400593D01*
X43487191Y-21390504D01*
X42509496Y-20412809D01*
X42481719Y-20358292D01*
X42480500Y-20342805D01*
X42480500Y-18162255D01*
X42499407Y-18104064D01*
X42509490Y-18092257D01*
X42548528Y-18053220D01*
X42609719Y-17933126D01*
X42630804Y-17800000D01*
X42609719Y-17666874D01*
X42548528Y-17546780D01*
X42453220Y-17451472D01*
X42453217Y-17451470D01*
X42333129Y-17390282D01*
X42333127Y-17390281D01*
X42200000Y-17369196D01*
X42066872Y-17390281D01*
X42066870Y-17390282D01*
X41946782Y-17451470D01*
X41851470Y-17546782D01*
X41790282Y-17666870D01*
X41790281Y-17666872D01*
X41769196Y-17799999D01*
X41769196Y-17800000D01*
X41790281Y-17933127D01*
X41790282Y-17933129D01*
X41851470Y-18053217D01*
X41851472Y-18053220D01*
X41890505Y-18092253D01*
X41918281Y-18146768D01*
X41919500Y-18162255D01*
X41919500Y-20463071D01*
X41919500Y-20536929D01*
X41936266Y-20599500D01*
X41936266Y-20599501D01*
X41938615Y-20608265D01*
X41938619Y-20608276D01*
X41967167Y-20657722D01*
X41975544Y-20672231D01*
X42027769Y-20724456D01*
X42027771Y-20724457D01*
X43133809Y-21830496D01*
X43161586Y-21885013D01*
X43152015Y-21945445D01*
X43108750Y-21988710D01*
X43063805Y-21999500D01*
X42421824Y-21999500D01*
X42363633Y-21980593D01*
X42327669Y-21931093D01*
X42327669Y-21869907D01*
X42331769Y-21859378D01*
X42343405Y-21833896D01*
X42347713Y-21825537D01*
X42366392Y-21793186D01*
X42370491Y-21777885D01*
X42376064Y-21762383D01*
X42385165Y-21742457D01*
X42390326Y-21706557D01*
X42392683Y-21695061D01*
X42400500Y-21665892D01*
X42400500Y-21642876D01*
X42401508Y-21628786D01*
X42405647Y-21600001D01*
X42405647Y-21599998D01*
X42401508Y-21571211D01*
X42400500Y-21557122D01*
X42400500Y-21534109D01*
X42400500Y-21534108D01*
X42392688Y-21504953D01*
X42390324Y-21493431D01*
X42385165Y-21457543D01*
X42376058Y-21437603D01*
X42370489Y-21422106D01*
X42366394Y-21406819D01*
X42366391Y-21406813D01*
X42347720Y-21374472D01*
X42343404Y-21366099D01*
X42325377Y-21326627D01*
X42315742Y-21315508D01*
X42304823Y-21300174D01*
X42300500Y-21292686D01*
X42269044Y-21261230D01*
X42264230Y-21256058D01*
X42231129Y-21217858D01*
X42231127Y-21217856D01*
X42224807Y-21213794D01*
X42208338Y-21200523D01*
X42207318Y-21199503D01*
X42207309Y-21199496D01*
X42162613Y-21173691D01*
X42158589Y-21171239D01*
X42110054Y-21140047D01*
X42109770Y-21139964D01*
X42099408Y-21135528D01*
X42099176Y-21136089D01*
X42093182Y-21133606D01*
X42074379Y-21128568D01*
X42029999Y-21102946D01*
X38187437Y-17260384D01*
X38159660Y-17205867D01*
X38169231Y-17145435D01*
X38187437Y-17120376D01*
X46578317Y-8729496D01*
X46632834Y-8701719D01*
X46648321Y-8700500D01*
X46906110Y-8700500D01*
X46964301Y-8719407D01*
G37*
G04 #@! TD.AperFunction*
G04 #@! TA.AperFunction,Conductor*
G36*
X42510869Y-11219407D02*
G01*
X42546833Y-11268907D01*
X42546833Y-11330093D01*
X42522682Y-11369503D01*
X39992681Y-13899504D01*
X37479623Y-16412562D01*
X37425106Y-16440339D01*
X37364674Y-16430768D01*
X37339615Y-16412562D01*
X34826557Y-13899504D01*
X34798780Y-13844987D01*
X34808351Y-13784555D01*
X34851616Y-13741290D01*
X34896561Y-13730500D01*
X35910890Y-13730500D01*
X35910892Y-13730500D01*
X36038186Y-13696392D01*
X36038188Y-13696390D01*
X36038190Y-13696390D01*
X36152309Y-13630503D01*
X36152309Y-13630502D01*
X36152314Y-13630500D01*
X36242604Y-13540210D01*
X36323319Y-13459496D01*
X36377835Y-13431719D01*
X36393322Y-13430500D01*
X37099999Y-13430500D01*
X37100000Y-13430500D01*
X37145728Y-13425348D01*
X37228127Y-13385666D01*
X37285149Y-13314163D01*
X37287818Y-13302470D01*
X37319200Y-13249946D01*
X37375462Y-13225899D01*
X37384336Y-13225500D01*
X37865666Y-13225500D01*
X37923857Y-13244407D01*
X37954860Y-13281542D01*
X37989334Y-13353127D01*
X38060837Y-13410149D01*
X38150000Y-13430500D01*
X39649999Y-13430500D01*
X39650000Y-13430500D01*
X39695728Y-13425348D01*
X39778127Y-13385666D01*
X39835149Y-13314163D01*
X39855500Y-13225000D01*
X39855500Y-12225000D01*
X39854755Y-12207513D01*
X39826890Y-12120405D01*
X39826889Y-12120404D01*
X39823491Y-12109781D01*
X39825715Y-12109069D01*
X39815729Y-12064388D01*
X39831684Y-12024874D01*
X39830310Y-12024212D01*
X39835149Y-12014163D01*
X39855500Y-11924999D01*
X39855500Y-11299500D01*
X39874407Y-11241309D01*
X39923907Y-11205345D01*
X39954500Y-11200500D01*
X42452678Y-11200500D01*
X42510869Y-11219407D01*
G37*
G04 #@! TD.AperFunction*
G04 #@! TD*
M02*
