G04 #@! TF.GenerationSoftware,KiCad,Pcbnew,8.0.8-8.0.8-0~ubuntu22.04.1*
G04 #@! TF.CreationDate,2025-02-19T20:45:30+01:00*
G04 #@! TF.ProjectId,kicad_makespace_tutorial,6b696361-645f-46d6-916b-657370616365,v1*
G04 #@! TF.SameCoordinates,Original*
G04 #@! TF.FileFunction,Copper,L1,Top*
G04 #@! TF.FilePolarity,Positive*
%FSLAX46Y46*%
G04 Gerber Fmt 4.6, Leading zero omitted, Abs format (unit mm)*
G04 Created by KiCad (PCBNEW 8.0.8-8.0.8-0~ubuntu22.04.1) date 2025-02-19 20:45:30*
%MOMM*%
%LPD*%
G01*
G04 APERTURE LIST*
G04 #@! TA.AperFunction,SMDPad,CuDef*
%ADD10R,0.700000X0.900000*%
G04 #@! TD*
G04 #@! TA.AperFunction,SMDPad,CuDef*
%ADD11R,0.900000X0.700000*%
G04 #@! TD*
G04 #@! TA.AperFunction,SMDPad,CuDef*
%ADD12R,1.130000X1.380000*%
G04 #@! TD*
G04 #@! TA.AperFunction,ComponentPad*
%ADD13C,2.000000*%
G04 #@! TD*
G04 #@! TA.AperFunction,SMDPad,CuDef*
%ADD14R,0.900000X1.500000*%
G04 #@! TD*
G04 #@! TA.AperFunction,SMDPad,CuDef*
%ADD15R,1.500000X0.900000*%
G04 #@! TD*
G04 #@! TA.AperFunction,SMDPad,CuDef*
%ADD16R,0.900000X0.900000*%
G04 #@! TD*
G04 #@! TA.AperFunction,ComponentPad*
%ADD17C,4.700000*%
G04 #@! TD*
G04 #@! TA.AperFunction,SMDPad,CuDef*
%ADD18R,1.500000X1.360000*%
G04 #@! TD*
G04 #@! TA.AperFunction,SMDPad,CuDef*
%ADD19R,1.000000X1.250000*%
G04 #@! TD*
G04 #@! TA.AperFunction,SMDPad,CuDef*
%ADD20R,2.500000X1.100000*%
G04 #@! TD*
G04 #@! TA.AperFunction,SMDPad,CuDef*
%ADD21R,2.340000X3.600000*%
G04 #@! TD*
G04 #@! TA.AperFunction,ComponentPad*
%ADD22C,0.750000*%
G04 #@! TD*
G04 #@! TA.AperFunction,ComponentPad*
%ADD23O,1.200000X2.000000*%
G04 #@! TD*
G04 #@! TA.AperFunction,ComponentPad*
%ADD24O,1.200000X1.800000*%
G04 #@! TD*
G04 #@! TA.AperFunction,SMDPad,CuDef*
%ADD25R,0.300000X1.300000*%
G04 #@! TD*
G04 #@! TA.AperFunction,ComponentPad*
%ADD26R,1.350000X1.350000*%
G04 #@! TD*
G04 #@! TA.AperFunction,ComponentPad*
%ADD27O,1.350000X1.350000*%
G04 #@! TD*
G04 #@! TA.AperFunction,SMDPad,CuDef*
%ADD28R,1.410000X1.350000*%
G04 #@! TD*
G04 #@! TA.AperFunction,SMDPad,CuDef*
%ADD29R,1.350000X1.410000*%
G04 #@! TD*
G04 #@! TA.AperFunction,SMDPad,CuDef*
%ADD30R,0.600000X0.250000*%
G04 #@! TD*
G04 #@! TA.AperFunction,SMDPad,CuDef*
%ADD31R,0.250000X0.600000*%
G04 #@! TD*
G04 #@! TA.AperFunction,SMDPad,CuDef*
%ADD32R,1.500000X1.500000*%
G04 #@! TD*
G04 #@! TA.AperFunction,SMDPad,CuDef*
%ADD33R,1.000000X1.400000*%
G04 #@! TD*
G04 #@! TA.AperFunction,ViaPad*
%ADD34C,0.600000*%
G04 #@! TD*
G04 #@! TA.AperFunction,ViaPad*
%ADD35C,0.450000*%
G04 #@! TD*
G04 #@! TA.AperFunction,Conductor*
%ADD36C,0.600000*%
G04 #@! TD*
G04 #@! TA.AperFunction,Conductor*
%ADD37C,0.800000*%
G04 #@! TD*
G04 #@! TA.AperFunction,Conductor*
%ADD38C,1.000000*%
G04 #@! TD*
G04 #@! TA.AperFunction,Conductor*
%ADD39C,0.160000*%
G04 #@! TD*
G04 #@! TA.AperFunction,Conductor*
%ADD40C,0.300000*%
G04 #@! TD*
G04 #@! TA.AperFunction,Conductor*
%ADD41C,0.200000*%
G04 #@! TD*
G04 #@! TA.AperFunction,Conductor*
%ADD42C,0.500000*%
G04 #@! TD*
G04 #@! TA.AperFunction,Conductor*
%ADD43C,0.400000*%
G04 #@! TD*
G04 APERTURE END LIST*
D10*
G04 #@! TO.P,LED5,1,DO*
G04 #@! TO.N,unconnected-(LED5-DO-Pad1)*
X59650000Y-8920000D03*
G04 #@! TO.P,LED5,2,GND*
G04 #@! TO.N,GND*
X60750000Y-8920000D03*
G04 #@! TO.P,LED5,3,DI*
G04 #@! TO.N,Net-(LED4-DO)*
X60750000Y-7080000D03*
G04 #@! TO.P,LED5,4,VDD*
G04 #@! TO.N,/WLED_VDD*
X59650000Y-7080000D03*
G04 #@! TD*
D11*
G04 #@! TO.P,LED3,1,DO*
G04 #@! TO.N,Net-(LED3-DO)*
X29320000Y-15450000D03*
G04 #@! TO.P,LED3,2,GND*
G04 #@! TO.N,GND*
X29320000Y-14350000D03*
G04 #@! TO.P,LED3,3,DI*
G04 #@! TO.N,/WLED*
X27480000Y-14350000D03*
G04 #@! TO.P,LED3,4,VDD*
G04 #@! TO.N,/WLED_VDD*
X27480000Y-15450000D03*
G04 #@! TD*
D12*
G04 #@! TO.P,R1,1,1*
G04 #@! TO.N,/ESP_EN*
X37100000Y-14200000D03*
G04 #@! TO.P,R1,2,2*
G04 #@! TO.N,/3V3*
X35100000Y-14200000D03*
G04 #@! TD*
D10*
G04 #@! TO.P,LED4,1,DO*
G04 #@! TO.N,Net-(LED4-DO)*
X41950000Y-18880000D03*
G04 #@! TO.P,LED4,2,GND*
G04 #@! TO.N,GND*
X40850000Y-18880000D03*
G04 #@! TO.P,LED4,3,DI*
G04 #@! TO.N,Net-(LED3-DO)*
X40850000Y-20720000D03*
G04 #@! TO.P,LED4,4,VDD*
G04 #@! TO.N,/WLED_VDD*
X41950000Y-20720000D03*
G04 #@! TD*
D13*
G04 #@! TO.P,J1,1,Pin_1*
G04 #@! TO.N,Net-(J1-Pin_1)*
X56750000Y-17000000D03*
G04 #@! TO.P,J1,2,Pin_2*
G04 #@! TO.N,Net-(J1-Pin_2)*
X61750000Y-17000000D03*
G04 #@! TD*
D14*
G04 #@! TO.P,U5,1,GND*
G04 #@! TO.N,GND*
X8047500Y-19750000D03*
G04 #@! TO.P,U5,2,3V3*
G04 #@! TO.N,/3V3*
X9317500Y-19750000D03*
G04 #@! TO.P,U5,3,EN*
G04 #@! TO.N,/ESP_EN*
X10587500Y-19750000D03*
G04 #@! TO.P,U5,4,IO4*
G04 #@! TO.N,unconnected-(U5-IO4-Pad4)*
X11857500Y-19750000D03*
G04 #@! TO.P,U5,5,IO5*
G04 #@! TO.N,unconnected-(U5-IO5-Pad5)*
X13127500Y-19750000D03*
G04 #@! TO.P,U5,6,IO6*
G04 #@! TO.N,/GPIO_34*
X14397500Y-19750000D03*
G04 #@! TO.P,U5,7,IO7*
G04 #@! TO.N,/GPIO_35*
X15667500Y-19750000D03*
G04 #@! TO.P,U5,8,IO15*
G04 #@! TO.N,/GPIO_32*
X16937500Y-19750000D03*
G04 #@! TO.P,U5,9,IO16*
G04 #@! TO.N,/GPIO_33*
X18207500Y-19750000D03*
G04 #@! TO.P,U5,10,IO17*
G04 #@! TO.N,/GPIO_25*
X19477500Y-19750000D03*
G04 #@! TO.P,U5,11,IO18*
G04 #@! TO.N,/GPIO_26*
X20747500Y-19750000D03*
G04 #@! TO.P,U5,12,IO8*
G04 #@! TO.N,unconnected-(U5-IO8-Pad12)*
X22017500Y-19750000D03*
G04 #@! TO.P,U5,13,IO19*
G04 #@! TO.N,/USB_N*
X23287500Y-19750000D03*
G04 #@! TO.P,U5,14,IO20*
G04 #@! TO.N,/USB_P*
X24557500Y-19750000D03*
D15*
G04 #@! TO.P,U5,15,IO3*
G04 #@! TO.N,unconnected-(U5-IO3-Pad15)*
X25827500Y-17990000D03*
G04 #@! TO.P,U5,16,IO46*
G04 #@! TO.N,unconnected-(U5-IO46-Pad16)*
X25827500Y-16720000D03*
G04 #@! TO.P,U5,17,IO9*
G04 #@! TO.N,unconnected-(U5-IO9-Pad17)*
X25827500Y-15450000D03*
G04 #@! TO.P,U5,18,IO10*
G04 #@! TO.N,/WLED*
X25827500Y-14180000D03*
G04 #@! TO.P,U5,19,IO11*
G04 #@! TO.N,/I2S_DIN*
X25827500Y-12910000D03*
G04 #@! TO.P,U5,20,IO12*
G04 #@! TO.N,/I2S_BCLK*
X25827500Y-11630000D03*
G04 #@! TO.P,U5,21,IO13*
G04 #@! TO.N,/I2S_LRCLK*
X25827500Y-10370000D03*
G04 #@! TO.P,U5,22,IO14*
G04 #@! TO.N,unconnected-(U5-IO14-Pad22)*
X25827500Y-9100000D03*
G04 #@! TO.P,U5,23,IO21*
G04 #@! TO.N,unconnected-(U5-IO21-Pad23)*
X25827500Y-7830000D03*
G04 #@! TO.P,U5,24,IO47*
G04 #@! TO.N,/ESP_LED*
X25827500Y-6550000D03*
G04 #@! TO.P,U5,25,IO48*
G04 #@! TO.N,unconnected-(U5-IO48-Pad25)*
X25827500Y-5280000D03*
G04 #@! TO.P,U5,26,IO45*
G04 #@! TO.N,unconnected-(U5-IO45-Pad26)*
X25797500Y-4010000D03*
D14*
G04 #@! TO.P,U5,27,IO0*
G04 #@! TO.N,/ESP_PROG*
X24557500Y-2250000D03*
G04 #@! TO.P,U5,28,IO35*
G04 #@! TO.N,unconnected-(U5-IO35-Pad28)*
X23287500Y-2250000D03*
G04 #@! TO.P,U5,29,IO36*
G04 #@! TO.N,/GPIO_4*
X22017500Y-2250000D03*
G04 #@! TO.P,U5,30,IO37*
G04 #@! TO.N,/GPIO_16*
X20747500Y-2250000D03*
G04 #@! TO.P,U5,31,IO38*
G04 #@! TO.N,/GPIO_17*
X19477500Y-2250000D03*
G04 #@! TO.P,U5,32,IO39*
G04 #@! TO.N,/GPIO_5*
X18207500Y-2250000D03*
G04 #@! TO.P,U5,33,IO40*
G04 #@! TO.N,/GPIO_18*
X16937500Y-2250000D03*
G04 #@! TO.P,U5,34,IO41*
G04 #@! TO.N,/GPIO_19*
X15667500Y-2250000D03*
G04 #@! TO.P,U5,35,IO42*
G04 #@! TO.N,/GPIO_21*
X14397500Y-2250000D03*
G04 #@! TO.P,U5,36,RXD0*
G04 #@! TO.N,/ESP_RXD*
X13127500Y-2250000D03*
G04 #@! TO.P,U5,37,TXD0*
G04 #@! TO.N,/ESP_TXD*
X11857500Y-2250000D03*
G04 #@! TO.P,U5,38,IO2*
G04 #@! TO.N,unconnected-(U5-IO2-Pad38)*
X10587500Y-2250000D03*
G04 #@! TO.P,U5,39,IO1*
G04 #@! TO.N,unconnected-(U5-IO1-Pad39)*
X9317500Y-2250000D03*
G04 #@! TO.P,U5,40,GND*
G04 #@! TO.N,GND*
X8047500Y-2250000D03*
D16*
G04 #@! TO.P,U5,41,EPAD*
X14367500Y-13900000D03*
X15767500Y-13900000D03*
X17167500Y-13900000D03*
X14367500Y-12500000D03*
X15767500Y-12500000D03*
X17167500Y-12500000D03*
X14367500Y-11100000D03*
X15767500Y-11100000D03*
X17167500Y-11100000D03*
G04 #@! TD*
D17*
G04 #@! TO.P,H1,1*
G04 #@! TO.N,N/C*
X50750000Y-12250000D03*
G04 #@! TD*
D12*
G04 #@! TO.P,U3,1,1*
G04 #@! TO.N,GND*
X35900000Y-8700000D03*
G04 #@! TO.P,U3,2,2*
G04 #@! TO.N,Net-(USBC1-CC1)*
X33900000Y-8700000D03*
G04 #@! TD*
D18*
G04 #@! TO.P,C1,1,1*
G04 #@! TO.N,/3V3*
X47700000Y-8500000D03*
G04 #@! TO.P,C1,2,2*
G04 #@! TO.N,GND*
X45300000Y-8500000D03*
G04 #@! TD*
D19*
G04 #@! TO.P,LED2,1,K*
G04 #@! TO.N,Net-(LED2-K)*
X35800000Y-12500000D03*
G04 #@! TO.P,LED2,2,A*
G04 #@! TO.N,/3V3*
X33600000Y-12500000D03*
G04 #@! TD*
D12*
G04 #@! TO.P,U2,1,1*
G04 #@! TO.N,GND*
X29000000Y-8700000D03*
G04 #@! TO.P,U2,2,2*
G04 #@! TO.N,Net-(USBC1-CC2)*
X31000000Y-8700000D03*
G04 #@! TD*
D20*
G04 #@! TO.P,U1,1,GND*
G04 #@! TO.N,GND*
X42030000Y-1700000D03*
G04 #@! TO.P,U1,2,VOUT*
G04 #@! TO.N,/3V3*
X42030000Y-4000000D03*
G04 #@! TO.P,U1,3,VIN*
G04 #@! TO.N,/5V*
X42030000Y-6300000D03*
D21*
G04 #@! TO.P,U1,4,VOUT*
G04 #@! TO.N,/3V3*
X47970000Y-4000000D03*
G04 #@! TD*
D22*
G04 #@! TO.P,USBC1,*
G04 #@! TO.N,*
X35150000Y-5262500D03*
X29350000Y-5262500D03*
D23*
G04 #@! TO.P,USBC1,0,SH*
G04 #@! TO.N,GND*
X36580000Y-5762500D03*
G04 #@! TO.P,USBC1,1*
G04 #@! TO.N,N/C*
X27920000Y-5762500D03*
D24*
G04 #@! TO.P,USBC1,2*
X27920000Y-1582500D03*
G04 #@! TO.P,USBC1,3*
X36580000Y-1582500D03*
D25*
G04 #@! TO.P,USBC1,A1,GND*
G04 #@! TO.N,GND*
X35600000Y-6522500D03*
G04 #@! TO.P,USBC1,A4,VBUS*
G04 #@! TO.N,/5V*
X34800000Y-6522500D03*
G04 #@! TO.P,USBC1,A5,CC1*
G04 #@! TO.N,Net-(USBC1-CC1)*
X33500000Y-6522500D03*
G04 #@! TO.P,USBC1,A6,DP1*
G04 #@! TO.N,/USB_P*
X32500000Y-6522500D03*
G04 #@! TO.P,USBC1,A7,DN1*
G04 #@! TO.N,/USB_N*
X32000000Y-6522500D03*
G04 #@! TO.P,USBC1,A8,SBU1*
G04 #@! TO.N,unconnected-(USBC1-SBU1-PadA8)*
X31000000Y-6522500D03*
G04 #@! TO.P,USBC1,A9,VBUS*
G04 #@! TO.N,/5V*
X29700000Y-6522500D03*
G04 #@! TO.P,USBC1,A12,GND*
G04 #@! TO.N,GND*
X28900000Y-6522500D03*
G04 #@! TO.P,USBC1,B1,GND*
X29200000Y-6522500D03*
G04 #@! TO.P,USBC1,B4,VBUS*
G04 #@! TO.N,/5V*
X30000000Y-6522500D03*
G04 #@! TO.P,USBC1,B5,CC2*
G04 #@! TO.N,Net-(USBC1-CC2)*
X30500000Y-6522500D03*
G04 #@! TO.P,USBC1,B6,DP2*
G04 #@! TO.N,/USB_P*
X31500000Y-6522500D03*
G04 #@! TO.P,USBC1,B7,DN2*
G04 #@! TO.N,/USB_N*
X33000000Y-6522500D03*
G04 #@! TO.P,USBC1,B8,SBU2*
G04 #@! TO.N,unconnected-(USBC1-SBU2-PadB8)*
X34000000Y-6522500D03*
G04 #@! TO.P,USBC1,B9,VBUS*
G04 #@! TO.N,/5V*
X34500000Y-6522500D03*
G04 #@! TO.P,USBC1,B12,GND*
G04 #@! TO.N,GND*
X35300000Y-6522500D03*
G04 #@! TD*
D12*
G04 #@! TO.P,R3,1,1*
G04 #@! TO.N,GND*
X39450000Y-12400000D03*
G04 #@! TO.P,R3,2,2*
G04 #@! TO.N,Net-(LED2-K)*
X37450000Y-12400000D03*
G04 #@! TD*
D17*
G04 #@! TO.P,H3,1*
G04 #@! TO.N,N/C*
X30000000Y-18500000D03*
G04 #@! TD*
D26*
G04 #@! TO.P,J3,1,Pin_1*
G04 #@! TO.N,/GPIO_19*
X55000000Y-4500000D03*
D27*
G04 #@! TO.P,J3,2,Pin_2*
G04 #@! TO.N,/GPIO_17*
X55000000Y-2500000D03*
G04 #@! TO.P,J3,3,Pin_3*
G04 #@! TO.N,GND*
X57000000Y-4500000D03*
G04 #@! TO.P,J3,4,Pin_4*
X57000000Y-2500000D03*
G04 #@! TO.P,J3,5,Pin_5*
G04 #@! TO.N,/GPIO_4*
X59000000Y-4500000D03*
G04 #@! TO.P,J3,6,Pin_6*
G04 #@! TO.N,/GPIO_16*
X59000000Y-2500000D03*
G04 #@! TD*
D28*
G04 #@! TO.P,C3,1,1*
G04 #@! TO.N,/5V*
X49600000Y-15900000D03*
G04 #@! TO.P,C3,2,2*
G04 #@! TO.N,GND*
X51600000Y-15900000D03*
G04 #@! TD*
D29*
G04 #@! TO.P,C6,1,1*
G04 #@! TO.N,GND*
X43500000Y-18500000D03*
G04 #@! TO.P,C6,2,2*
G04 #@! TO.N,/5V*
X43500000Y-20500000D03*
G04 #@! TD*
D30*
G04 #@! TO.P,U4,1,DIN*
G04 #@! TO.N,/I2S_DIN*
X45500000Y-18000000D03*
G04 #@! TO.P,U4,2,GAIN_SLOT*
G04 #@! TO.N,/GAIN_SLOT*
X45500000Y-18500000D03*
G04 #@! TO.P,U4,3,GND*
G04 #@! TO.N,GND*
X45500000Y-19000000D03*
G04 #@! TO.P,U4,4,~{SD_MODE}*
G04 #@! TO.N,/SD_MODE*
X45500000Y-19500000D03*
D31*
G04 #@! TO.P,U4,5,N.C.*
G04 #@! TO.N,unconnected-(U4-N.C.-Pad5)*
X46250000Y-20250000D03*
G04 #@! TO.P,U4,6,N.C.*
G04 #@! TO.N,unconnected-(U4-N.C.-Pad6)*
X46750000Y-20250000D03*
G04 #@! TO.P,U4,7,VDD*
G04 #@! TO.N,/5V*
X47250000Y-20250000D03*
G04 #@! TO.P,U4,8,VDD*
X47750000Y-20250000D03*
D30*
G04 #@! TO.P,U4,9,OUTP*
G04 #@! TO.N,Net-(J1-Pin_2)*
X48500000Y-19500000D03*
G04 #@! TO.P,U4,10,OUTN*
G04 #@! TO.N,Net-(J1-Pin_1)*
X48500000Y-19000000D03*
G04 #@! TO.P,U4,11,GND*
G04 #@! TO.N,GND*
X48500000Y-18500000D03*
G04 #@! TO.P,U4,12,N.C.*
G04 #@! TO.N,unconnected-(U4-N.C.-Pad12)*
X48500000Y-18000000D03*
D31*
G04 #@! TO.P,U4,13,N.C.*
G04 #@! TO.N,unconnected-(U4-N.C.-Pad13)*
X47750000Y-17250000D03*
G04 #@! TO.P,U4,14,LRCLK*
G04 #@! TO.N,/I2S_LRCLK*
X47250000Y-17250000D03*
G04 #@! TO.P,U4,15,GND*
G04 #@! TO.N,GND*
X46750000Y-17250000D03*
G04 #@! TO.P,U4,16,BCLK*
G04 #@! TO.N,/I2S_BCLK*
X46250000Y-17250000D03*
D32*
G04 #@! TO.P,U4,17,EP*
G04 #@! TO.N,GND*
X47000000Y-18750000D03*
G04 #@! TD*
D12*
G04 #@! TO.P,R8,1,1*
G04 #@! TO.N,GND*
X39450000Y-10700000D03*
G04 #@! TO.P,R8,2,2*
G04 #@! TO.N,Net-(LED1--)*
X37450000Y-10700000D03*
G04 #@! TD*
D18*
G04 #@! TO.P,C2,1,1*
G04 #@! TO.N,/5V*
X41700000Y-8500000D03*
G04 #@! TO.P,C2,2,2*
G04 #@! TO.N,GND*
X39300000Y-8500000D03*
G04 #@! TD*
D33*
G04 #@! TO.P,LED1,1,+*
G04 #@! TO.N,/ESP_LED*
X33650000Y-10800000D03*
G04 #@! TO.P,LED1,2,-*
G04 #@! TO.N,Net-(LED1--)*
X35750000Y-10800000D03*
G04 #@! TD*
D34*
G04 #@! TO.N,/3V3*
X43950000Y-9600000D03*
X24000000Y-6550000D03*
X32600000Y-12400000D03*
X44800000Y-4000000D03*
X20500000Y-13500000D03*
G04 #@! TO.N,GND*
X26200000Y-20600000D03*
X8700000Y-13600000D03*
X59700000Y-17550000D03*
X9600000Y-4750000D03*
X11300000Y-17700000D03*
X48600000Y-14500000D03*
X51800000Y-18750000D03*
X46750000Y-19000000D03*
X41500000Y-11900000D03*
X47600000Y-10400000D03*
X53400000Y-18800000D03*
X44000000Y-6400000D03*
X46400000Y-6400000D03*
X56050000Y-20300000D03*
X32500000Y-1800000D03*
X12900000Y-5700000D03*
X51650000Y-20400000D03*
X56700000Y-18650000D03*
X58250000Y-20400000D03*
X58450000Y-18450000D03*
X9900000Y-10500000D03*
X38900000Y-1800000D03*
X33600000Y-17900000D03*
X54400000Y-12600000D03*
X47700000Y-13400000D03*
X32900000Y-20900000D03*
X23600000Y-16500000D03*
X51150000Y-17150000D03*
X27900000Y-7400000D03*
X53650000Y-20350000D03*
X44800000Y-14600000D03*
X45000000Y-1700000D03*
X23000000Y-13500000D03*
X49900000Y-3600000D03*
X54550000Y-17200000D03*
X38600000Y-6400000D03*
X41400000Y-17300000D03*
X61100000Y-19100000D03*
X47250000Y-18500000D03*
X40100000Y-17300000D03*
X31500000Y-12100000D03*
X46400000Y-11500000D03*
X49400000Y-6500000D03*
G04 #@! TO.N,/5V*
X44800000Y-12800000D03*
X50450000Y-21500000D03*
X48000000Y-15950000D03*
X42500000Y-10500000D03*
X43500000Y-7900000D03*
D35*
G04 #@! TO.N,/SD_MODE*
X58800000Y-10600000D03*
X44700000Y-19900000D03*
X59900000Y-10600000D03*
G04 #@! TO.N,/GAIN_SLOT*
X44800000Y-18590000D03*
G04 #@! TO.N,/ESP_PROG*
X26000000Y-2000000D03*
G04 #@! TO.N,/ESP_EN*
X10400000Y-18400000D03*
X29700000Y-11300000D03*
G04 #@! TO.N,/USB_N*
X32547488Y-8249936D03*
X23680000Y-18510000D03*
G04 #@! TO.N,/ESP_TXD*
X9500000Y-5800000D03*
G04 #@! TO.N,/ESP_RXD*
X11500000Y-5800000D03*
G04 #@! TO.N,/USB_P*
X23560000Y-17610000D03*
X32052512Y-7754960D03*
G04 #@! TO.N,/GPIO_21*
X14397500Y-3400000D03*
G04 #@! TO.N,/GPIO_19*
X15667500Y-3300000D03*
G04 #@! TO.N,/GPIO_16*
X21830000Y-8840000D03*
G04 #@! TO.N,/GPIO_17*
X19800000Y-3400000D03*
G04 #@! TO.N,/GPIO_5*
X18600000Y-3500000D03*
G04 #@! TO.N,/GPIO_18*
X16900000Y-3300000D03*
G04 #@! TO.N,/GPIO_4*
X22400000Y-8550000D03*
G04 #@! TO.N,/GPIO_35*
X15300000Y-16350000D03*
G04 #@! TO.N,/GPIO_25*
X19000000Y-18400000D03*
G04 #@! TO.N,/GPIO_32*
X16550000Y-18400000D03*
G04 #@! TO.N,/GPIO_26*
X20200000Y-16250000D03*
G04 #@! TO.N,/GPIO_34*
X13800000Y-18350000D03*
G04 #@! TO.N,/GPIO_33*
X17850000Y-16150000D03*
D34*
G04 #@! TO.N,/WLED_VDD*
X27400000Y-16500000D03*
X41900000Y-21600000D03*
X52800000Y-8300000D03*
D35*
G04 #@! TO.N,Net-(LED3-DO)*
X30800000Y-15600000D03*
X40650000Y-21600000D03*
G04 #@! TO.N,Net-(LED4-DO)*
X49500000Y-20400000D03*
X42200000Y-17800000D03*
G04 #@! TD*
D36*
G04 #@! TO.N,/3V3*
X33600000Y-12500000D02*
X33600000Y-12700000D01*
D37*
X9317500Y-19750000D02*
X9317500Y-17382500D01*
D36*
X46600000Y-9600000D02*
X47700000Y-8500000D01*
X47970000Y-4000000D02*
X47970000Y-8230000D01*
X43950000Y-9600000D02*
X46600000Y-9600000D01*
D38*
X9317500Y-17382500D02*
X11500000Y-15200000D01*
D36*
X33600000Y-12700000D02*
X35100000Y-14200000D01*
D38*
X24000000Y-10000000D02*
X24000000Y-6550000D01*
X18800000Y-15200000D02*
X24000000Y-10000000D01*
X11500000Y-15200000D02*
X18800000Y-15200000D01*
D36*
X32600000Y-12400000D02*
X33500000Y-12400000D01*
X33500000Y-12400000D02*
X33600000Y-12500000D01*
D38*
X42030000Y-4000000D02*
X47970000Y-4000000D01*
D39*
G04 #@! TO.N,GND*
X46750000Y-17250000D02*
X46750000Y-18500000D01*
X45500000Y-19000000D02*
X46750000Y-19000000D01*
X48500000Y-18500000D02*
X47250000Y-18500000D01*
D38*
G04 #@! TO.N,/5V*
X31162500Y-4137500D02*
X30600000Y-4700000D01*
X41560000Y-7860000D02*
X42500000Y-8800000D01*
D40*
X30600000Y-5108516D02*
X30600000Y-4700000D01*
X34800000Y-6008516D02*
X34200000Y-5408516D01*
D38*
X39710000Y-4510000D02*
X39337500Y-4137500D01*
D40*
X30000000Y-5708516D02*
X30600000Y-5108516D01*
D38*
X42500000Y-8800000D02*
X43400000Y-7900000D01*
D41*
X47250000Y-20250000D02*
X47250000Y-21450000D01*
D38*
X44800000Y-12800000D02*
X42500000Y-10500000D01*
X40860000Y-6300000D02*
X41560000Y-6300000D01*
D41*
X47750000Y-20250000D02*
X47750000Y-21500000D01*
D38*
X41560000Y-7450000D02*
X41560000Y-7860000D01*
X34200000Y-4137500D02*
X31162500Y-4137500D01*
D40*
X30000000Y-6522500D02*
X30000000Y-5708516D01*
D38*
X39710000Y-5150000D02*
X40860000Y-6300000D01*
X48000000Y-15950000D02*
X49320000Y-15950000D01*
X41560000Y-6300000D02*
X41560000Y-7450000D01*
X42500000Y-10500000D02*
X42500000Y-8800000D01*
X43400000Y-7900000D02*
X43500000Y-7900000D01*
X44500000Y-21500000D02*
X43500000Y-20500000D01*
X41560000Y-7450000D02*
X41560000Y-8360000D01*
X39710000Y-4510000D02*
X39710000Y-5150000D01*
X50450000Y-21500000D02*
X44500000Y-21500000D01*
X39337500Y-4137500D02*
X34200000Y-4137500D01*
D40*
X34800000Y-6522500D02*
X34800000Y-6008516D01*
D42*
X34200000Y-5408516D02*
X34200000Y-4137500D01*
D43*
G04 #@! TO.N,Net-(J1-Pin_2)*
X49250000Y-19500000D02*
X59000000Y-19500000D01*
X59000000Y-19500000D02*
X61500000Y-17000000D01*
D41*
X49250000Y-19500000D02*
X48500000Y-19500000D01*
D43*
G04 #@! TO.N,Net-(J1-Pin_1)*
X56500000Y-17000000D02*
X55450000Y-18050000D01*
D41*
X48850000Y-19000000D02*
X48500000Y-19000000D01*
D43*
X49800000Y-18050000D02*
X49400000Y-18450000D01*
D40*
X49400000Y-18450000D02*
X48850000Y-19000000D01*
D43*
X55450000Y-18050000D02*
X49800000Y-18050000D01*
D39*
G04 #@! TO.N,/SD_MODE*
X44700000Y-19900000D02*
X45100000Y-19500000D01*
X45100000Y-19500000D02*
X45500000Y-19500000D01*
X58800000Y-10600000D02*
X59900000Y-10600000D01*
G04 #@! TO.N,/GAIN_SLOT*
X44890000Y-18500000D02*
X45500000Y-18500000D01*
X44800000Y-18590000D02*
X44890000Y-18500000D01*
G04 #@! TO.N,/ESP_LED*
X27530000Y-7972500D02*
X26107500Y-6550000D01*
X27530000Y-8930000D02*
X27530000Y-7972500D01*
X28400000Y-9800000D02*
X29400000Y-10800000D01*
X29400000Y-10800000D02*
X33650000Y-10800000D01*
X28400000Y-9800000D02*
X27530000Y-8930000D01*
X26107500Y-6550000D02*
X25827500Y-6550000D01*
G04 #@! TO.N,Net-(USBC1-CC1)*
X33500000Y-6522500D02*
X33500000Y-8300000D01*
X33500000Y-8300000D02*
X33900000Y-8700000D01*
G04 #@! TO.N,Net-(USBC1-CC2)*
X30500000Y-8200000D02*
X31000000Y-8700000D01*
X30500000Y-6522500D02*
X30500000Y-8200000D01*
G04 #@! TO.N,/ESP_PROG*
X24807500Y-2000000D02*
X24557500Y-2250000D01*
X26000000Y-2000000D02*
X24807500Y-2000000D01*
G04 #@! TO.N,/ESP_EN*
X10587500Y-19750000D02*
X10587500Y-18587500D01*
X36110000Y-15190000D02*
X37100000Y-14200000D01*
X29700000Y-11540344D02*
X33349656Y-15190000D01*
X29700000Y-11300000D02*
X29700000Y-11540344D01*
X10587500Y-18587500D02*
X10400000Y-18400000D01*
X33349656Y-15190000D02*
X36110000Y-15190000D01*
D41*
G04 #@! TO.N,/USB_N*
X32975000Y-7047500D02*
X32975000Y-7645647D01*
X23287500Y-18902500D02*
X23287500Y-19750000D01*
X32150000Y-5672500D02*
X32850000Y-5672500D01*
X32547488Y-8073159D02*
X32547488Y-8249936D01*
X23680000Y-18510000D02*
X23287500Y-18902500D01*
X32850000Y-5672500D02*
X33000000Y-5822500D01*
X33000000Y-6522500D02*
X33000000Y-7022500D01*
X32975000Y-7645647D02*
X32547488Y-8073159D01*
X33000000Y-7022500D02*
X32975000Y-7047500D01*
X33000000Y-5822500D02*
X33000000Y-6522500D01*
X32000000Y-6522500D02*
X32000000Y-5822500D01*
X32000000Y-5822500D02*
X32150000Y-5672500D01*
D39*
G04 #@! TO.N,/ESP_TXD*
X11857500Y-2250000D02*
X11857500Y-3442500D01*
X11857500Y-3442500D02*
X9500000Y-5800000D01*
G04 #@! TO.N,/ESP_RXD*
X13127500Y-2250000D02*
X13127500Y-4172500D01*
X13127500Y-4172500D02*
X11500000Y-5800000D01*
D41*
G04 #@! TO.N,/USB_P*
X32229289Y-7754960D02*
X32052512Y-7754960D01*
X31500000Y-6522500D02*
X31500000Y-7200000D01*
X32350000Y-7372500D02*
X32500000Y-7222500D01*
X32500000Y-7022500D02*
X32525000Y-7047500D01*
X31672500Y-7372500D02*
X32350000Y-7372500D01*
X32525000Y-7047500D02*
X32525000Y-7459249D01*
X32500000Y-6522500D02*
X32500000Y-7022500D01*
X24557500Y-18482862D02*
X24557500Y-19750000D01*
X31500000Y-7200000D02*
X31672500Y-7372500D01*
X32525000Y-7459249D02*
X32229289Y-7754960D01*
X32500000Y-7222500D02*
X32500000Y-6522500D01*
X23560000Y-17610000D02*
X23684638Y-17610000D01*
X23684638Y-17610000D02*
X24557500Y-18482862D01*
D39*
G04 #@! TO.N,/I2S_BCLK*
X25827500Y-11630000D02*
X28630000Y-11630000D01*
X33010000Y-16010000D02*
X45410000Y-16010000D01*
X46250000Y-16850000D02*
X46250000Y-17250000D01*
X45410000Y-16010000D02*
X46250000Y-16850000D01*
X28630000Y-11630000D02*
X33010000Y-16010000D01*
G04 #@! TO.N,/I2S_LRCLK*
X33179828Y-15600000D02*
X27949828Y-10370000D01*
X27949828Y-10370000D02*
X25827500Y-10370000D01*
X47250000Y-17250000D02*
X47250000Y-16665000D01*
X46185000Y-15600000D02*
X33179828Y-15600000D01*
X47250000Y-16665000D02*
X46185000Y-15600000D01*
G04 #@! TO.N,/I2S_DIN*
X25827500Y-12910000D02*
X29330172Y-12910000D01*
X44720000Y-16420000D02*
X45500000Y-17200000D01*
X32840172Y-16420000D02*
X44720000Y-16420000D01*
X29330172Y-12910000D02*
X32840172Y-16420000D01*
X45500000Y-17200000D02*
X45500000Y-18000000D01*
G04 #@! TO.N,/GPIO_21*
X14397500Y-3400000D02*
X14397500Y-2250000D01*
G04 #@! TO.N,/GPIO_19*
X15667500Y-3300000D02*
X15667500Y-2250000D01*
G04 #@! TO.N,/GPIO_16*
X20747500Y-7757500D02*
X20747500Y-2250000D01*
X21830000Y-8840000D02*
X20747500Y-7757500D01*
G04 #@! TO.N,/GPIO_17*
X19800000Y-2572500D02*
X19477500Y-2250000D01*
X19800000Y-3400000D02*
X19800000Y-2572500D01*
G04 #@! TO.N,/GPIO_5*
X18600000Y-3500000D02*
X18207500Y-3107500D01*
X18207500Y-3107500D02*
X18207500Y-2250000D01*
G04 #@! TO.N,/GPIO_18*
X16900000Y-2587500D02*
X16937500Y-2550000D01*
X16937500Y-2550000D02*
X16937500Y-2250000D01*
X16900000Y-3300000D02*
X16900000Y-2587500D01*
G04 #@! TO.N,/GPIO_4*
X22400000Y-8550000D02*
X22017500Y-8167500D01*
X22017500Y-8167500D02*
X22017500Y-2250000D01*
G04 #@! TO.N,/GPIO_35*
X15397500Y-20000000D02*
X15397500Y-16447500D01*
X15397500Y-16447500D02*
X15300000Y-16350000D01*
G04 #@! TO.N,/GPIO_25*
X19207500Y-18607500D02*
X19000000Y-18400000D01*
X19207500Y-20000000D02*
X19207500Y-18607500D01*
G04 #@! TO.N,/GPIO_32*
X16667500Y-18517500D02*
X16550000Y-18400000D01*
X16667500Y-20000000D02*
X16667500Y-18517500D01*
G04 #@! TO.N,/GPIO_26*
X20477500Y-20000000D02*
X20477500Y-16527500D01*
X20477500Y-16527500D02*
X20200000Y-16250000D01*
G04 #@! TO.N,/GPIO_34*
X14127500Y-20000000D02*
X14127500Y-18677500D01*
X14127500Y-18677500D02*
X13800000Y-18350000D01*
G04 #@! TO.N,/GPIO_33*
X17937500Y-16237500D02*
X17850000Y-16150000D01*
X17937500Y-20000000D02*
X17937500Y-16237500D01*
G04 #@! TO.N,unconnected-(U5-IO48-Pad25)*
X25827500Y-5280000D02*
X26127500Y-5280000D01*
G04 #@! TO.N,Net-(LED1--)*
X36050000Y-11000000D02*
X37300000Y-11000000D01*
G04 #@! TO.N,Net-(LED2-K)*
X36050000Y-12200000D02*
X37300000Y-12200000D01*
D36*
G04 #@! TO.N,/WLED_VDD*
X58430000Y-8300000D02*
X59650000Y-7080000D01*
X52800000Y-8300000D02*
X58430000Y-8300000D01*
X27400000Y-15530000D02*
X27480000Y-15450000D01*
X27400000Y-16500000D02*
X27400000Y-15530000D01*
X41900000Y-20770000D02*
X41950000Y-20720000D01*
X41900000Y-21600000D02*
X41900000Y-20770000D01*
D39*
G04 #@! TO.N,Net-(LED3-DO)*
X30650000Y-15450000D02*
X30800000Y-15600000D01*
X40850000Y-21400000D02*
X40850000Y-20720000D01*
X29320000Y-15450000D02*
X30650000Y-15450000D01*
X40650000Y-21600000D02*
X40850000Y-21400000D01*
G04 #@! TO.N,/WLED*
X25827500Y-14180000D02*
X27310000Y-14180000D01*
X27310000Y-14180000D02*
X27480000Y-14350000D01*
G04 #@! TO.N,Net-(LED4-DO)*
X63900000Y-19200000D02*
X63900000Y-10230000D01*
X63900000Y-10230000D02*
X60750000Y-7080000D01*
X41950000Y-18050000D02*
X42200000Y-17800000D01*
X50460000Y-20400000D02*
X51560000Y-21500000D01*
X49500000Y-20400000D02*
X50460000Y-20400000D01*
X41950000Y-18880000D02*
X41950000Y-18050000D01*
X61600000Y-21500000D02*
X63900000Y-19200000D01*
X51560000Y-21500000D02*
X61600000Y-21500000D01*
G04 #@! TD*
G04 #@! TA.AperFunction,Conductor*
G04 #@! TO.N,GND*
G36*
X27389106Y-519406D02*
G01*
X27425070Y-568906D01*
X27425070Y-630092D01*
X27400919Y-669503D01*
X27298214Y-772207D01*
X27298211Y-772211D01*
X27210609Y-903314D01*
X27210603Y-903325D01*
X27150263Y-1049001D01*
X27150263Y-1049003D01*
X27119500Y-1203655D01*
X27119500Y-1961344D01*
X27150263Y-2115996D01*
X27150263Y-2115998D01*
X27210603Y-2261674D01*
X27210609Y-2261685D01*
X27263312Y-2340559D01*
X27298211Y-2392789D01*
X27409711Y-2504289D01*
X27482105Y-2552661D01*
X27540814Y-2591890D01*
X27540825Y-2591896D01*
X27594638Y-2614185D01*
X27686503Y-2652237D01*
X27841158Y-2683000D01*
X27841159Y-2683000D01*
X27998841Y-2683000D01*
X27998842Y-2683000D01*
X28153497Y-2652237D01*
X28299179Y-2591894D01*
X28430289Y-2504289D01*
X28541789Y-2392789D01*
X28629394Y-2261679D01*
X28689737Y-2115997D01*
X28720500Y-1961342D01*
X28720500Y-1203658D01*
X28689737Y-1049003D01*
X28656913Y-969758D01*
X28629396Y-903325D01*
X28629390Y-903314D01*
X28594017Y-850376D01*
X28541789Y-772211D01*
X28439081Y-669503D01*
X28411304Y-614986D01*
X28420875Y-554554D01*
X28464140Y-511289D01*
X28509085Y-500499D01*
X35990915Y-500499D01*
X36049106Y-519406D01*
X36085070Y-568906D01*
X36085070Y-630092D01*
X36060919Y-669503D01*
X35958214Y-772207D01*
X35958211Y-772211D01*
X35870609Y-903314D01*
X35870603Y-903325D01*
X35810263Y-1049001D01*
X35810263Y-1049003D01*
X35779500Y-1203655D01*
X35779500Y-1961344D01*
X35810263Y-2115996D01*
X35810263Y-2115998D01*
X35870603Y-2261674D01*
X35870609Y-2261685D01*
X35923312Y-2340559D01*
X35958211Y-2392789D01*
X36069711Y-2504289D01*
X36142105Y-2552661D01*
X36200814Y-2591890D01*
X36200825Y-2591896D01*
X36254638Y-2614185D01*
X36346503Y-2652237D01*
X36501158Y-2683000D01*
X36501159Y-2683000D01*
X36658841Y-2683000D01*
X36658842Y-2683000D01*
X36813497Y-2652237D01*
X36959179Y-2591894D01*
X37090289Y-2504289D01*
X37201789Y-2392789D01*
X37289394Y-2261679D01*
X37349737Y-2115997D01*
X37380500Y-1961342D01*
X37380500Y-1950001D01*
X40530000Y-1950001D01*
X40530000Y-2274624D01*
X40544506Y-2347546D01*
X40544507Y-2347548D01*
X40599758Y-2430237D01*
X40599762Y-2430241D01*
X40682451Y-2485492D01*
X40682453Y-2485493D01*
X40755375Y-2499999D01*
X40755377Y-2500000D01*
X41779999Y-2500000D01*
X41780000Y-2499999D01*
X41780000Y-1950001D01*
X42280000Y-1950001D01*
X42280000Y-2499999D01*
X42280001Y-2500000D01*
X43304623Y-2500000D01*
X43304624Y-2499999D01*
X43377546Y-2485493D01*
X43377548Y-2485492D01*
X43460237Y-2430241D01*
X43460241Y-2430237D01*
X43515492Y-2347548D01*
X43515493Y-2347546D01*
X43529999Y-2274624D01*
X43530000Y-2274622D01*
X43530000Y-1950001D01*
X43529999Y-1950000D01*
X42280001Y-1950000D01*
X42280000Y-1950001D01*
X41780000Y-1950001D01*
X41779999Y-1950000D01*
X40530001Y-1950000D01*
X40530000Y-1950001D01*
X37380500Y-1950001D01*
X37380500Y-1203658D01*
X37364928Y-1125375D01*
X40530000Y-1125375D01*
X40530000Y-1449999D01*
X40530001Y-1450000D01*
X41779999Y-1450000D01*
X41780000Y-1449999D01*
X41780000Y-900001D01*
X42280000Y-900001D01*
X42280000Y-1449999D01*
X42280001Y-1450000D01*
X43529999Y-1450000D01*
X43530000Y-1449999D01*
X43530000Y-1125377D01*
X43529999Y-1125375D01*
X43515493Y-1052453D01*
X43515492Y-1052451D01*
X43460241Y-969762D01*
X43460237Y-969758D01*
X43377548Y-914507D01*
X43377546Y-914506D01*
X43304624Y-900000D01*
X42280001Y-900000D01*
X42280000Y-900001D01*
X41780000Y-900001D01*
X41779999Y-900000D01*
X40755375Y-900000D01*
X40682453Y-914506D01*
X40682451Y-914507D01*
X40599762Y-969758D01*
X40599758Y-969762D01*
X40544507Y-1052451D01*
X40544506Y-1052453D01*
X40530000Y-1125375D01*
X37364928Y-1125375D01*
X37349737Y-1049003D01*
X37316913Y-969758D01*
X37289396Y-903325D01*
X37289390Y-903314D01*
X37254017Y-850376D01*
X37201789Y-772211D01*
X37099081Y-669503D01*
X37071304Y-614986D01*
X37080875Y-554554D01*
X37124140Y-511289D01*
X37169085Y-500499D01*
X63060712Y-500499D01*
X63075292Y-501578D01*
X63218737Y-522939D01*
X63234848Y-526737D01*
X63378443Y-573564D01*
X63393694Y-579993D01*
X63527480Y-650093D01*
X63541449Y-658974D01*
X63661682Y-750384D01*
X63673976Y-761470D01*
X63777291Y-871630D01*
X63787567Y-884610D01*
X63871091Y-1010461D01*
X63879059Y-1024970D01*
X63940436Y-1162958D01*
X63945876Y-1178593D01*
X63983408Y-1324897D01*
X63986166Y-1341220D01*
X63999153Y-1496008D01*
X63999500Y-1504285D01*
X63999500Y-9693805D01*
X63980593Y-9751996D01*
X63931093Y-9787960D01*
X63869907Y-9787960D01*
X63830496Y-9763809D01*
X61329496Y-7262809D01*
X61301719Y-7208292D01*
X61300500Y-7192805D01*
X61300500Y-6610253D01*
X61300498Y-6610241D01*
X61296652Y-6590907D01*
X61288867Y-6551769D01*
X61244552Y-6485448D01*
X61244548Y-6485445D01*
X61178233Y-6441134D01*
X61178231Y-6441133D01*
X61178228Y-6441132D01*
X61178227Y-6441132D01*
X61119758Y-6429501D01*
X61119748Y-6429500D01*
X60380252Y-6429500D01*
X60380251Y-6429500D01*
X60380241Y-6429501D01*
X60321772Y-6441132D01*
X60321766Y-6441134D01*
X60255002Y-6485746D01*
X60196114Y-6502355D01*
X60144998Y-6485746D01*
X60078233Y-6441134D01*
X60078231Y-6441133D01*
X60078228Y-6441132D01*
X60078227Y-6441132D01*
X60019758Y-6429501D01*
X60019748Y-6429500D01*
X59280252Y-6429500D01*
X59280251Y-6429500D01*
X59280241Y-6429501D01*
X59221772Y-6441132D01*
X59221766Y-6441134D01*
X59155451Y-6485445D01*
X59155445Y-6485451D01*
X59111134Y-6551766D01*
X59111132Y-6551772D01*
X59099501Y-6610241D01*
X59099500Y-6610253D01*
X59099500Y-6881678D01*
X59080593Y-6939869D01*
X59070504Y-6951682D01*
X58251682Y-7770504D01*
X58197165Y-7798281D01*
X58181678Y-7799500D01*
X52728035Y-7799500D01*
X52665845Y-7817761D01*
X52663579Y-7818397D01*
X52606815Y-7833607D01*
X52600818Y-7836091D01*
X52600589Y-7835539D01*
X52590245Y-7839958D01*
X52589954Y-7840043D01*
X52589944Y-7840048D01*
X52541410Y-7871238D01*
X52537391Y-7873688D01*
X52492684Y-7899500D01*
X52492682Y-7899502D01*
X52491658Y-7900527D01*
X52475200Y-7913789D01*
X52468872Y-7917856D01*
X52468871Y-7917857D01*
X52435768Y-7956059D01*
X52430956Y-7961227D01*
X52399500Y-7992685D01*
X52399499Y-7992686D01*
X52395172Y-8000180D01*
X52384266Y-8015496D01*
X52374622Y-8026627D01*
X52374621Y-8026628D01*
X52356591Y-8066107D01*
X52352277Y-8074475D01*
X52333608Y-8106813D01*
X52333607Y-8106813D01*
X52329507Y-8122117D01*
X52323938Y-8137608D01*
X52316605Y-8153668D01*
X52314835Y-8157543D01*
X52309674Y-8193430D01*
X52307310Y-8204953D01*
X52299500Y-8234104D01*
X52299500Y-8257122D01*
X52298492Y-8271211D01*
X52294353Y-8299998D01*
X52294353Y-8300001D01*
X52298492Y-8328786D01*
X52299500Y-8342876D01*
X52299500Y-8365893D01*
X52307310Y-8395042D01*
X52309675Y-8406572D01*
X52314835Y-8442457D01*
X52323937Y-8462388D01*
X52329506Y-8477881D01*
X52332516Y-8489111D01*
X52333608Y-8493186D01*
X52352277Y-8525523D01*
X52356592Y-8533893D01*
X52374622Y-8573373D01*
X52384259Y-8584494D01*
X52395172Y-8599820D01*
X52399497Y-8607310D01*
X52399498Y-8607311D01*
X52399500Y-8607314D01*
X52422427Y-8630241D01*
X52430961Y-8638775D01*
X52435764Y-8643934D01*
X52468872Y-8682143D01*
X52475186Y-8686201D01*
X52491662Y-8699476D01*
X52492686Y-8700500D01*
X52533256Y-8723923D01*
X52537392Y-8726311D01*
X52541414Y-8728763D01*
X52574461Y-8750001D01*
X52589947Y-8759953D01*
X52590046Y-8759982D01*
X52590215Y-8760032D01*
X52600584Y-8764474D01*
X52600819Y-8763909D01*
X52606809Y-8766389D01*
X52606814Y-8766392D01*
X52663579Y-8781601D01*
X52665813Y-8782228D01*
X52676814Y-8785458D01*
X52728033Y-8800499D01*
X52728038Y-8800499D01*
X52728039Y-8800500D01*
X52728040Y-8800500D01*
X58495890Y-8800500D01*
X58495892Y-8800500D01*
X58623186Y-8766392D01*
X58623188Y-8766390D01*
X58623190Y-8766390D01*
X58737309Y-8700503D01*
X58737309Y-8700502D01*
X58737314Y-8700500D01*
X58930498Y-8507315D01*
X58985013Y-8479540D01*
X59045445Y-8489111D01*
X59088710Y-8532376D01*
X59099500Y-8577321D01*
X59099500Y-9389746D01*
X59099501Y-9389758D01*
X59111132Y-9448227D01*
X59111134Y-9448233D01*
X59145231Y-9499262D01*
X59155448Y-9514552D01*
X59155451Y-9514554D01*
X59208853Y-9550237D01*
X59221769Y-9558867D01*
X59266231Y-9567711D01*
X59280241Y-9570498D01*
X59280246Y-9570498D01*
X59280252Y-9570500D01*
X59280253Y-9570500D01*
X60019747Y-9570500D01*
X60019748Y-9570500D01*
X60078231Y-9558867D01*
X60100688Y-9543860D01*
X60159572Y-9527252D01*
X60210773Y-9546139D01*
X60211653Y-9544823D01*
X60302451Y-9605492D01*
X60302453Y-9605493D01*
X60375375Y-9619999D01*
X60375377Y-9620000D01*
X60499999Y-9620000D01*
X60500000Y-9619999D01*
X60500000Y-9170001D01*
X61000000Y-9170001D01*
X61000000Y-9619999D01*
X61000001Y-9620000D01*
X61124623Y-9620000D01*
X61124624Y-9619999D01*
X61197546Y-9605493D01*
X61197548Y-9605492D01*
X61280237Y-9550241D01*
X61280241Y-9550237D01*
X61335492Y-9467548D01*
X61335493Y-9467546D01*
X61349999Y-9394624D01*
X61350000Y-9394622D01*
X61350000Y-9170001D01*
X61349999Y-9170000D01*
X61000001Y-9170000D01*
X61000000Y-9170001D01*
X60500000Y-9170001D01*
X60500000Y-8220001D01*
X61000000Y-8220001D01*
X61000000Y-8669999D01*
X61000001Y-8670000D01*
X61349999Y-8670000D01*
X61350000Y-8669999D01*
X61350000Y-8445377D01*
X61349999Y-8445375D01*
X61335493Y-8372453D01*
X61335492Y-8372451D01*
X61280241Y-8289762D01*
X61280237Y-8289758D01*
X61197548Y-8234507D01*
X61197546Y-8234506D01*
X61124624Y-8220000D01*
X61000001Y-8220000D01*
X61000000Y-8220001D01*
X60500000Y-8220001D01*
X60499999Y-8220000D01*
X60375375Y-8220000D01*
X60302453Y-8234506D01*
X60302451Y-8234507D01*
X60211653Y-8295177D01*
X60209564Y-8292051D01*
X60171125Y-8311612D01*
X60110698Y-8302009D01*
X60100687Y-8296138D01*
X60078233Y-8281134D01*
X60078231Y-8281133D01*
X60078228Y-8281132D01*
X60078227Y-8281132D01*
X60019758Y-8269501D01*
X60019748Y-8269500D01*
X59407322Y-8269500D01*
X59349131Y-8250593D01*
X59313167Y-8201093D01*
X59313167Y-8139907D01*
X59337318Y-8100496D01*
X59678318Y-7759496D01*
X59732835Y-7731719D01*
X59748322Y-7730500D01*
X60019747Y-7730500D01*
X60019748Y-7730500D01*
X60078231Y-7718867D01*
X60144552Y-7674552D01*
X60144553Y-7674549D01*
X60144997Y-7674253D01*
X60203885Y-7657644D01*
X60255003Y-7674253D01*
X60255446Y-7674549D01*
X60255448Y-7674552D01*
X60321769Y-7718867D01*
X60359047Y-7726282D01*
X60380241Y-7730498D01*
X60380246Y-7730498D01*
X60380252Y-7730500D01*
X60962806Y-7730500D01*
X61020997Y-7749407D01*
X61032810Y-7759496D01*
X63590504Y-10317190D01*
X63618281Y-10371707D01*
X63619500Y-10387194D01*
X63619500Y-19042805D01*
X63600593Y-19100996D01*
X63590504Y-19112809D01*
X61512810Y-21190504D01*
X61458293Y-21218281D01*
X61442806Y-21219500D01*
X51717195Y-21219500D01*
X51659004Y-21200593D01*
X51647191Y-21190504D01*
X50684457Y-20227771D01*
X50684456Y-20227769D01*
X50632231Y-20175544D01*
X50568269Y-20138616D01*
X50568266Y-20138615D01*
X50551081Y-20134010D01*
X50496931Y-20119500D01*
X50496929Y-20119500D01*
X50496928Y-20119500D01*
X49862256Y-20119500D01*
X49804065Y-20100593D01*
X49792254Y-20090505D01*
X49771253Y-20069505D01*
X49743474Y-20014989D01*
X49753044Y-19954557D01*
X49796308Y-19911291D01*
X49841255Y-19900500D01*
X59052725Y-19900500D01*
X59052727Y-19900500D01*
X59154588Y-19873207D01*
X59154590Y-19873205D01*
X59154592Y-19873205D01*
X59245908Y-19820483D01*
X59245908Y-19820482D01*
X59245913Y-19820480D01*
X61017912Y-18048479D01*
X61072427Y-18020704D01*
X61132859Y-18030275D01*
X61140009Y-18034301D01*
X61212599Y-18079247D01*
X61420060Y-18159618D01*
X61638757Y-18200500D01*
X61861243Y-18200500D01*
X62079940Y-18159618D01*
X62287401Y-18079247D01*
X62476562Y-17962124D01*
X62640981Y-17812236D01*
X62775058Y-17634689D01*
X62874229Y-17435528D01*
X62935115Y-17221536D01*
X62955643Y-17000000D01*
X62935115Y-16778464D01*
X62874229Y-16564472D01*
X62775058Y-16365311D01*
X62640981Y-16187764D01*
X62476562Y-16037876D01*
X62287401Y-15920753D01*
X62079940Y-15840382D01*
X62079939Y-15840381D01*
X62079937Y-15840381D01*
X61861243Y-15799500D01*
X61638757Y-15799500D01*
X61420062Y-15840381D01*
X61386929Y-15853217D01*
X61212599Y-15920753D01*
X61036008Y-16030093D01*
X61023438Y-16037876D01*
X60859116Y-16187676D01*
X60859019Y-16187764D01*
X60837039Y-16216870D01*
X60724943Y-16365309D01*
X60724938Y-16365318D01*
X60635279Y-16545377D01*
X60625771Y-16564472D01*
X60589149Y-16693186D01*
X60564885Y-16778464D01*
X60544357Y-17000000D01*
X60562915Y-17200282D01*
X60564885Y-17221536D01*
X60576247Y-17261472D01*
X60581565Y-17280161D01*
X60579303Y-17341305D01*
X60556348Y-17377257D01*
X58863103Y-19070504D01*
X58808586Y-19098281D01*
X58793099Y-19099500D01*
X49485188Y-19099500D01*
X49426997Y-19080593D01*
X49391033Y-19031093D01*
X49391033Y-18969907D01*
X49415184Y-18930497D01*
X49429700Y-18915981D01*
X49491964Y-18853716D01*
X49536346Y-18828094D01*
X49554588Y-18823207D01*
X49618147Y-18786511D01*
X49645908Y-18770483D01*
X49645908Y-18770482D01*
X49645913Y-18770480D01*
X49861966Y-18554427D01*
X49936898Y-18479496D01*
X49991414Y-18451719D01*
X50006901Y-18450500D01*
X55502725Y-18450500D01*
X55502727Y-18450500D01*
X55604588Y-18423207D01*
X55604590Y-18423205D01*
X55604592Y-18423205D01*
X55695908Y-18370483D01*
X55695908Y-18370482D01*
X55695913Y-18370480D01*
X56017911Y-18048480D01*
X56072426Y-18020704D01*
X56132858Y-18030275D01*
X56140029Y-18034313D01*
X56212599Y-18079247D01*
X56420060Y-18159618D01*
X56638757Y-18200500D01*
X56861243Y-18200500D01*
X57079940Y-18159618D01*
X57287401Y-18079247D01*
X57476562Y-17962124D01*
X57640981Y-17812236D01*
X57775058Y-17634689D01*
X57874229Y-17435528D01*
X57935115Y-17221536D01*
X57955643Y-17000000D01*
X57935115Y-16778464D01*
X57874229Y-16564472D01*
X57775058Y-16365311D01*
X57640981Y-16187764D01*
X57476562Y-16037876D01*
X57287401Y-15920753D01*
X57079940Y-15840382D01*
X57079939Y-15840381D01*
X57079937Y-15840381D01*
X56861243Y-15799500D01*
X56638757Y-15799500D01*
X56420062Y-15840381D01*
X56386929Y-15853217D01*
X56212599Y-15920753D01*
X56036008Y-16030093D01*
X56023438Y-16037876D01*
X55859116Y-16187676D01*
X55859019Y-16187764D01*
X55837039Y-16216870D01*
X55724943Y-16365309D01*
X55724938Y-16365318D01*
X55635279Y-16545377D01*
X55625771Y-16564472D01*
X55564885Y-16778464D01*
X55544357Y-17000000D01*
X55564885Y-17221536D01*
X55564886Y-17221539D01*
X55581565Y-17280163D01*
X55579303Y-17341306D01*
X55556348Y-17377257D01*
X55313104Y-17620503D01*
X55258587Y-17648281D01*
X55243100Y-17649500D01*
X49747273Y-17649500D01*
X49704518Y-17660956D01*
X49645411Y-17676793D01*
X49580430Y-17714311D01*
X49580429Y-17714310D01*
X49554086Y-17729520D01*
X49169503Y-18114103D01*
X49114987Y-18141880D01*
X49054555Y-18132309D01*
X49011290Y-18089044D01*
X49000500Y-18044099D01*
X49000500Y-17855253D01*
X49000498Y-17855241D01*
X48995368Y-17829452D01*
X48988867Y-17796769D01*
X48944552Y-17730448D01*
X48944548Y-17730445D01*
X48878233Y-17686134D01*
X48878231Y-17686133D01*
X48878228Y-17686132D01*
X48878227Y-17686132D01*
X48819758Y-17674501D01*
X48819748Y-17674500D01*
X48180252Y-17674500D01*
X48175388Y-17674500D01*
X48175388Y-17672229D01*
X48124256Y-17660956D01*
X48083660Y-17615178D01*
X48077258Y-17574612D01*
X48075500Y-17574612D01*
X48075500Y-16930253D01*
X48075498Y-16930241D01*
X48069379Y-16899481D01*
X48063867Y-16871769D01*
X48041819Y-16838772D01*
X48018920Y-16804502D01*
X48002311Y-16745614D01*
X48023488Y-16688210D01*
X48074362Y-16654217D01*
X48101235Y-16650500D01*
X48651392Y-16650500D01*
X48709583Y-16669407D01*
X48733707Y-16694498D01*
X48741902Y-16706763D01*
X48750448Y-16719552D01*
X48750451Y-16719554D01*
X48803853Y-16755237D01*
X48816769Y-16763867D01*
X48861231Y-16772711D01*
X48875241Y-16775498D01*
X48875246Y-16775498D01*
X48875252Y-16775500D01*
X48875253Y-16775500D01*
X50324747Y-16775500D01*
X50324748Y-16775500D01*
X50383231Y-16763867D01*
X50449552Y-16719552D01*
X50488280Y-16661592D01*
X50536329Y-16623714D01*
X50597467Y-16621312D01*
X50648340Y-16655305D01*
X50653803Y-16664626D01*
X50654087Y-16664437D01*
X50714758Y-16755237D01*
X50714762Y-16755241D01*
X50797451Y-16810492D01*
X50797453Y-16810493D01*
X50870375Y-16824999D01*
X50870377Y-16825000D01*
X51349999Y-16825000D01*
X51350000Y-16824999D01*
X51350000Y-16150001D01*
X51850000Y-16150001D01*
X51850000Y-16824999D01*
X51850001Y-16825000D01*
X52329623Y-16825000D01*
X52329624Y-16824999D01*
X52402546Y-16810493D01*
X52402548Y-16810492D01*
X52485237Y-16755241D01*
X52485241Y-16755237D01*
X52540492Y-16672548D01*
X52540493Y-16672546D01*
X52554999Y-16599624D01*
X52555000Y-16599622D01*
X52555000Y-16150001D01*
X52554999Y-16150000D01*
X51850001Y-16150000D01*
X51850000Y-16150001D01*
X51350000Y-16150001D01*
X51350000Y-14975001D01*
X51850000Y-14975001D01*
X51850000Y-15649999D01*
X51850001Y-15650000D01*
X52554999Y-15650000D01*
X52555000Y-15649999D01*
X52555000Y-15200377D01*
X52554999Y-15200375D01*
X52540493Y-15127453D01*
X52540492Y-15127451D01*
X52485241Y-15044762D01*
X52485237Y-15044758D01*
X52402548Y-14989507D01*
X52402546Y-14989506D01*
X52329624Y-14975000D01*
X51850001Y-14975000D01*
X51850000Y-14975001D01*
X51350000Y-14975001D01*
X51349999Y-14975000D01*
X51102711Y-14975000D01*
X51044520Y-14956093D01*
X51008556Y-14906593D01*
X51008556Y-14845407D01*
X51044520Y-14795907D01*
X51090303Y-14777781D01*
X51092107Y-14777553D01*
X51228861Y-14760277D01*
X51539706Y-14680466D01*
X51821708Y-14568813D01*
X51838095Y-14562325D01*
X51838097Y-14562324D01*
X52119328Y-14407716D01*
X52378964Y-14219080D01*
X52612911Y-13999390D01*
X52817478Y-13752110D01*
X52977155Y-13500499D01*
X52989431Y-13481155D01*
X52989432Y-13481152D01*
X52989439Y-13481142D01*
X53126084Y-13190758D01*
X53225256Y-12885538D01*
X53285392Y-12570294D01*
X53305543Y-12250000D01*
X53285392Y-11929706D01*
X53225256Y-11614462D01*
X53126084Y-11309242D01*
X53116422Y-11288710D01*
X53041972Y-11130496D01*
X52989439Y-11018858D01*
X52989435Y-11018853D01*
X52989431Y-11018844D01*
X52817478Y-10747890D01*
X52695132Y-10599999D01*
X58369196Y-10599999D01*
X58369196Y-10600000D01*
X58390281Y-10733127D01*
X58390282Y-10733129D01*
X58449831Y-10850000D01*
X58451472Y-10853220D01*
X58546780Y-10948528D01*
X58666874Y-11009719D01*
X58800000Y-11030804D01*
X58933126Y-11009719D01*
X59053220Y-10948528D01*
X59072737Y-10929011D01*
X59092253Y-10909496D01*
X59146770Y-10881719D01*
X59162256Y-10880500D01*
X59537744Y-10880500D01*
X59595935Y-10899407D01*
X59607747Y-10909496D01*
X59643250Y-10944998D01*
X59646780Y-10948528D01*
X59766874Y-11009719D01*
X59900000Y-11030804D01*
X60033126Y-11009719D01*
X60153220Y-10948528D01*
X60248528Y-10853220D01*
X60309719Y-10733126D01*
X60330804Y-10600000D01*
X60309719Y-10466874D01*
X60248528Y-10346780D01*
X60153220Y-10251472D01*
X60153217Y-10251470D01*
X60033129Y-10190282D01*
X60033127Y-10190281D01*
X59900000Y-10169196D01*
X59766872Y-10190281D01*
X59766870Y-10190282D01*
X59646782Y-10251470D01*
X59646778Y-10251473D01*
X59607747Y-10290504D01*
X59553230Y-10318281D01*
X59537744Y-10319500D01*
X59162256Y-10319500D01*
X59104065Y-10300593D01*
X59092253Y-10290504D01*
X59053221Y-10251473D01*
X59053217Y-10251470D01*
X58933129Y-10190282D01*
X58933127Y-10190281D01*
X58800000Y-10169196D01*
X58666872Y-10190281D01*
X58666870Y-10190282D01*
X58546782Y-10251470D01*
X58451470Y-10346782D01*
X58390282Y-10466870D01*
X58390281Y-10466872D01*
X58369196Y-10599999D01*
X52695132Y-10599999D01*
X52612916Y-10500616D01*
X52612906Y-10500605D01*
X52378966Y-10280922D01*
X52378964Y-10280920D01*
X52119328Y-10092284D01*
X52119322Y-10092280D01*
X52119317Y-10092277D01*
X51838098Y-9937676D01*
X51838095Y-9937674D01*
X51539706Y-9819534D01*
X51228861Y-9739723D01*
X51228854Y-9739722D01*
X51228858Y-9739722D01*
X50910464Y-9699500D01*
X50589536Y-9699500D01*
X50271143Y-9739722D01*
X49960293Y-9819534D01*
X49661904Y-9937674D01*
X49661901Y-9937676D01*
X49380682Y-10092277D01*
X49121033Y-10280922D01*
X48887093Y-10500605D01*
X48887083Y-10500616D01*
X48682521Y-10747890D01*
X48510568Y-11018844D01*
X48510561Y-11018857D01*
X48373918Y-11309235D01*
X48351088Y-11379500D01*
X48277817Y-11605006D01*
X48274745Y-11614460D01*
X48274742Y-11614470D01*
X48214608Y-11929700D01*
X48194457Y-12250000D01*
X48214608Y-12570299D01*
X48274113Y-12882232D01*
X48274744Y-12885538D01*
X48366595Y-13168227D01*
X48373918Y-13190764D01*
X48510561Y-13481142D01*
X48510568Y-13481155D01*
X48682521Y-13752109D01*
X48871257Y-13980253D01*
X48887089Y-13999390D01*
X49121036Y-14219080D01*
X49380672Y-14407716D01*
X49380679Y-14407719D01*
X49380682Y-14407722D01*
X49661901Y-14562323D01*
X49661904Y-14562325D01*
X49811098Y-14621395D01*
X49960294Y-14680466D01*
X50271139Y-14760277D01*
X50589536Y-14800500D01*
X50756047Y-14800500D01*
X50814238Y-14819407D01*
X50850202Y-14868907D01*
X50850202Y-14930093D01*
X50814238Y-14979593D01*
X50802204Y-14986330D01*
X50714762Y-15044758D01*
X50714758Y-15044762D01*
X50654087Y-15135563D01*
X50651401Y-15133768D01*
X50622311Y-15167821D01*
X50562815Y-15182098D01*
X50506290Y-15158677D01*
X50488279Y-15138406D01*
X50449554Y-15080451D01*
X50449552Y-15080448D01*
X50449548Y-15080445D01*
X50383233Y-15036134D01*
X50383231Y-15036133D01*
X50383228Y-15036132D01*
X50383227Y-15036132D01*
X50324758Y-15024501D01*
X50324748Y-15024500D01*
X48875252Y-15024500D01*
X48875251Y-15024500D01*
X48875241Y-15024501D01*
X48816772Y-15036132D01*
X48816766Y-15036134D01*
X48750451Y-15080445D01*
X48750445Y-15080451D01*
X48706134Y-15146766D01*
X48706132Y-15146772D01*
X48701548Y-15169816D01*
X48671650Y-15223200D01*
X48616085Y-15248814D01*
X48604451Y-15249500D01*
X47931004Y-15249500D01*
X47795672Y-15276420D01*
X47795670Y-15276420D01*
X47668193Y-15329222D01*
X47668182Y-15329228D01*
X47553458Y-15405885D01*
X47455885Y-15503458D01*
X47379228Y-15618182D01*
X47379222Y-15618193D01*
X47326420Y-15745670D01*
X47326420Y-15745672D01*
X47299500Y-15881004D01*
X47299500Y-16008095D01*
X47280593Y-16066286D01*
X47231093Y-16102250D01*
X47169907Y-16102250D01*
X47130496Y-16078099D01*
X46925976Y-15873579D01*
X46387932Y-15335534D01*
X46312568Y-15292023D01*
X46228511Y-15269500D01*
X46228509Y-15269500D01*
X37780708Y-15269500D01*
X37722517Y-15250593D01*
X37686553Y-15201093D01*
X37686553Y-15139907D01*
X37722517Y-15090407D01*
X37742823Y-15079036D01*
X37743229Y-15078867D01*
X37743231Y-15078867D01*
X37809552Y-15034552D01*
X37853867Y-14968231D01*
X37865500Y-14909748D01*
X37865500Y-13490252D01*
X37863690Y-13481155D01*
X37853867Y-13431770D01*
X37852051Y-13427385D01*
X37847251Y-13366388D01*
X37879220Y-13314219D01*
X37935748Y-13290805D01*
X37943515Y-13290500D01*
X38034747Y-13290500D01*
X38034748Y-13290500D01*
X38093231Y-13278867D01*
X38159552Y-13234552D01*
X38203867Y-13168231D01*
X38215500Y-13109748D01*
X38215500Y-12650001D01*
X38635000Y-12650001D01*
X38635000Y-13114624D01*
X38649506Y-13187546D01*
X38649507Y-13187548D01*
X38704758Y-13270237D01*
X38704762Y-13270241D01*
X38787451Y-13325492D01*
X38787453Y-13325493D01*
X38860375Y-13339999D01*
X38860377Y-13340000D01*
X39199999Y-13340000D01*
X39200000Y-13339999D01*
X39200000Y-12650001D01*
X39700000Y-12650001D01*
X39700000Y-13339999D01*
X39700001Y-13340000D01*
X40039623Y-13340000D01*
X40039624Y-13339999D01*
X40112546Y-13325493D01*
X40112548Y-13325492D01*
X40195237Y-13270241D01*
X40195241Y-13270237D01*
X40250492Y-13187548D01*
X40250493Y-13187546D01*
X40264999Y-13114624D01*
X40265000Y-13114622D01*
X40265000Y-12650001D01*
X40264999Y-12650000D01*
X39700001Y-12650000D01*
X39700000Y-12650001D01*
X39200000Y-12650001D01*
X39199999Y-12650000D01*
X38635001Y-12650000D01*
X38635000Y-12650001D01*
X38215500Y-12650001D01*
X38215500Y-11690252D01*
X38214990Y-11687690D01*
X38209519Y-11660185D01*
X38203867Y-11631769D01*
X38185981Y-11605001D01*
X38169372Y-11546115D01*
X38185982Y-11494997D01*
X38190960Y-11487547D01*
X38203867Y-11468231D01*
X38215500Y-11409748D01*
X38215500Y-10950001D01*
X38635000Y-10950001D01*
X38635000Y-11414624D01*
X38649506Y-11487546D01*
X38649506Y-11487547D01*
X38654486Y-11495000D01*
X38671093Y-11553889D01*
X38654486Y-11605000D01*
X38649506Y-11612452D01*
X38649506Y-11612453D01*
X38635000Y-11685375D01*
X38635000Y-12149999D01*
X38635001Y-12150000D01*
X39199999Y-12150000D01*
X39200000Y-12149999D01*
X39200000Y-10950001D01*
X39700000Y-10950001D01*
X39700000Y-12149999D01*
X39700001Y-12150000D01*
X40264999Y-12150000D01*
X40265000Y-12149999D01*
X40265000Y-11685377D01*
X40264999Y-11685375D01*
X40250494Y-11612456D01*
X40245516Y-11605006D01*
X40228905Y-11546118D01*
X40245516Y-11494994D01*
X40250494Y-11487543D01*
X40264999Y-11414624D01*
X40265000Y-11414622D01*
X40265000Y-10950001D01*
X40264999Y-10950000D01*
X39700001Y-10950000D01*
X39700000Y-10950001D01*
X39200000Y-10950001D01*
X39199999Y-10950000D01*
X38635001Y-10950000D01*
X38635000Y-10950001D01*
X38215500Y-10950001D01*
X38215500Y-9990252D01*
X38214530Y-9985375D01*
X38635000Y-9985375D01*
X38635000Y-10449999D01*
X38635001Y-10450000D01*
X39199999Y-10450000D01*
X39200000Y-10449999D01*
X39200000Y-9760001D01*
X39700000Y-9760001D01*
X39700000Y-10449999D01*
X39700001Y-10450000D01*
X40264999Y-10450000D01*
X40265000Y-10449999D01*
X40265000Y-9985377D01*
X40264999Y-9985375D01*
X40250493Y-9912453D01*
X40250492Y-9912451D01*
X40195241Y-9829762D01*
X40195237Y-9829758D01*
X40112548Y-9774507D01*
X40112546Y-9774506D01*
X40039624Y-9760000D01*
X39700001Y-9760000D01*
X39700000Y-9760001D01*
X39200000Y-9760001D01*
X39199999Y-9760000D01*
X38860375Y-9760000D01*
X38787453Y-9774506D01*
X38787451Y-9774507D01*
X38704762Y-9829758D01*
X38704758Y-9829762D01*
X38649507Y-9912451D01*
X38649506Y-9912453D01*
X38635000Y-9985375D01*
X38214530Y-9985375D01*
X38203867Y-9931769D01*
X38159552Y-9865448D01*
X38159548Y-9865445D01*
X38093233Y-9821134D01*
X38093231Y-9821133D01*
X38093228Y-9821132D01*
X38093227Y-9821132D01*
X38034758Y-9809501D01*
X38034748Y-9809500D01*
X36865252Y-9809500D01*
X36865251Y-9809500D01*
X36865241Y-9809501D01*
X36806772Y-9821132D01*
X36806766Y-9821134D01*
X36740451Y-9865445D01*
X36740445Y-9865451D01*
X36696134Y-9931766D01*
X36696132Y-9931772D01*
X36684501Y-9990241D01*
X36684500Y-9990253D01*
X36684500Y-10620500D01*
X36665593Y-10678691D01*
X36616093Y-10714655D01*
X36585500Y-10719500D01*
X36549500Y-10719500D01*
X36491309Y-10700593D01*
X36455345Y-10651093D01*
X36450500Y-10620500D01*
X36450500Y-10080253D01*
X36450498Y-10080241D01*
X36442060Y-10037822D01*
X36438867Y-10021769D01*
X36394552Y-9955448D01*
X36373329Y-9941267D01*
X36328233Y-9911134D01*
X36328231Y-9911133D01*
X36328228Y-9911132D01*
X36328227Y-9911132D01*
X36269758Y-9899501D01*
X36269748Y-9899500D01*
X35230252Y-9899500D01*
X35230251Y-9899500D01*
X35230241Y-9899501D01*
X35171772Y-9911132D01*
X35171766Y-9911134D01*
X35105451Y-9955445D01*
X35105445Y-9955451D01*
X35061134Y-10021766D01*
X35061132Y-10021772D01*
X35049501Y-10080241D01*
X35049500Y-10080253D01*
X35049500Y-11519746D01*
X35049501Y-11519758D01*
X35061132Y-11578227D01*
X35061134Y-11578233D01*
X35105445Y-11644548D01*
X35105448Y-11644552D01*
X35105451Y-11644554D01*
X35112343Y-11651446D01*
X35109432Y-11654356D01*
X35135433Y-11687690D01*
X35137519Y-11748839D01*
X35124692Y-11776475D01*
X35111135Y-11796764D01*
X35111132Y-11796772D01*
X35099501Y-11855241D01*
X35099500Y-11855253D01*
X35099500Y-13144755D01*
X35104170Y-13168227D01*
X35108013Y-13187548D01*
X35108737Y-13191184D01*
X35101547Y-13251945D01*
X35060015Y-13296876D01*
X35011640Y-13309500D01*
X34958322Y-13309500D01*
X34900131Y-13290593D01*
X34888318Y-13280504D01*
X34329496Y-12721682D01*
X34301719Y-12667165D01*
X34300500Y-12651678D01*
X34300500Y-11855253D01*
X34300498Y-11855241D01*
X34292590Y-11815487D01*
X34288867Y-11796769D01*
X34275307Y-11776475D01*
X34258699Y-11717589D01*
X34279876Y-11660185D01*
X34288490Y-11652279D01*
X34287657Y-11651446D01*
X34294545Y-11644556D01*
X34294552Y-11644552D01*
X34338867Y-11578231D01*
X34350500Y-11519748D01*
X34350500Y-10080252D01*
X34338867Y-10021769D01*
X34294552Y-9955448D01*
X34273329Y-9941267D01*
X34228233Y-9911134D01*
X34228231Y-9911133D01*
X34228228Y-9911132D01*
X34228227Y-9911132D01*
X34169758Y-9899501D01*
X34169748Y-9899500D01*
X33130252Y-9899500D01*
X33130251Y-9899500D01*
X33130241Y-9899501D01*
X33071772Y-9911132D01*
X33071766Y-9911134D01*
X33005451Y-9955445D01*
X33005445Y-9955451D01*
X32961134Y-10021766D01*
X32961132Y-10021772D01*
X32949501Y-10080241D01*
X32949500Y-10080253D01*
X32949500Y-10420500D01*
X32930593Y-10478691D01*
X32881093Y-10514655D01*
X32850500Y-10519500D01*
X29557195Y-10519500D01*
X29499004Y-10500593D01*
X29487191Y-10490504D01*
X29165522Y-10168835D01*
X28763345Y-9766659D01*
X28735569Y-9712143D01*
X28745140Y-9651711D01*
X28750000Y-9645022D01*
X28750000Y-8950001D01*
X29250000Y-8950001D01*
X29250000Y-9639999D01*
X29250001Y-9640000D01*
X29589623Y-9640000D01*
X29589624Y-9639999D01*
X29662546Y-9625493D01*
X29662548Y-9625492D01*
X29745237Y-9570241D01*
X29745241Y-9570237D01*
X29800492Y-9487548D01*
X29800493Y-9487546D01*
X29814999Y-9414624D01*
X29815000Y-9414622D01*
X29815000Y-8950001D01*
X29814999Y-8950000D01*
X29250001Y-8950000D01*
X29250000Y-8950001D01*
X28750000Y-8950001D01*
X28749999Y-8950000D01*
X28185001Y-8950000D01*
X28184665Y-8950335D01*
X28166093Y-9007496D01*
X28116593Y-9043460D01*
X28055407Y-9043460D01*
X28015996Y-9019309D01*
X27839496Y-8842809D01*
X27811719Y-8788292D01*
X27810500Y-8772805D01*
X27810500Y-7985375D01*
X28185000Y-7985375D01*
X28185000Y-8449999D01*
X28185001Y-8450000D01*
X28749999Y-8450000D01*
X28750000Y-8449999D01*
X28750000Y-7760001D01*
X29250000Y-7760001D01*
X29250000Y-8449999D01*
X29250001Y-8450000D01*
X29814999Y-8450000D01*
X29815000Y-8449999D01*
X29815000Y-7985377D01*
X29814999Y-7985375D01*
X29800493Y-7912453D01*
X29800492Y-7912451D01*
X29745241Y-7829762D01*
X29745237Y-7829758D01*
X29662548Y-7774507D01*
X29662546Y-7774506D01*
X29589624Y-7760000D01*
X29250001Y-7760000D01*
X29250000Y-7760001D01*
X28750000Y-7760001D01*
X28749999Y-7760000D01*
X28410375Y-7760000D01*
X28337453Y-7774506D01*
X28337451Y-7774507D01*
X28254762Y-7829758D01*
X28254758Y-7829762D01*
X28199507Y-7912451D01*
X28199506Y-7912453D01*
X28185000Y-7985375D01*
X27810500Y-7985375D01*
X27810500Y-7935571D01*
X27808737Y-7928993D01*
X27808735Y-7928988D01*
X27791384Y-7864231D01*
X27754456Y-7800269D01*
X26806996Y-6852809D01*
X26779219Y-6798292D01*
X26778000Y-6782805D01*
X26778000Y-6080253D01*
X26777998Y-6080241D01*
X26772622Y-6053217D01*
X26766367Y-6021769D01*
X26731774Y-5969999D01*
X26715167Y-5911115D01*
X26731774Y-5860001D01*
X26766367Y-5808231D01*
X26778000Y-5749748D01*
X26778000Y-5283655D01*
X27119500Y-5283655D01*
X27119500Y-6241344D01*
X27150263Y-6395996D01*
X27150263Y-6395998D01*
X27210603Y-6541674D01*
X27210609Y-6541685D01*
X27243499Y-6590907D01*
X27298211Y-6672789D01*
X27409711Y-6784289D01*
X27467257Y-6822740D01*
X27540814Y-6871890D01*
X27540825Y-6871896D01*
X27580436Y-6888303D01*
X27686503Y-6932237D01*
X27841158Y-6963000D01*
X27841159Y-6963000D01*
X27998841Y-6963000D01*
X27998842Y-6963000D01*
X28153497Y-6932237D01*
X28299179Y-6871894D01*
X28299184Y-6871890D01*
X28299187Y-6871889D01*
X28339164Y-6845177D01*
X28345997Y-6840610D01*
X28404885Y-6824001D01*
X28462289Y-6845177D01*
X28496283Y-6896051D01*
X28500000Y-6922925D01*
X28500000Y-7197124D01*
X28514506Y-7270046D01*
X28514507Y-7270048D01*
X28569758Y-7352737D01*
X28569762Y-7352741D01*
X28652451Y-7407992D01*
X28652453Y-7407993D01*
X28725375Y-7422499D01*
X28725377Y-7422500D01*
X28749999Y-7422500D01*
X28750000Y-7422499D01*
X28750000Y-6621500D01*
X28768907Y-6563309D01*
X28818407Y-6527345D01*
X28849000Y-6522500D01*
X29250500Y-6522500D01*
X29308691Y-6541407D01*
X29344655Y-6590907D01*
X29349500Y-6621500D01*
X29349500Y-7192244D01*
X29349523Y-7192478D01*
X29350000Y-7202187D01*
X29350000Y-7422499D01*
X29350001Y-7422500D01*
X29374623Y-7422500D01*
X29374624Y-7422499D01*
X29447546Y-7407994D01*
X29474947Y-7389685D01*
X29529949Y-7373000D01*
X30120500Y-7373000D01*
X30178691Y-7391907D01*
X30214655Y-7441407D01*
X30219500Y-7472000D01*
X30219500Y-8236929D01*
X30219499Y-8236929D01*
X30231126Y-8280314D01*
X30234500Y-8305939D01*
X30234500Y-9409746D01*
X30234501Y-9409758D01*
X30246132Y-9468227D01*
X30246134Y-9468233D01*
X30290151Y-9534108D01*
X30290448Y-9534552D01*
X30290451Y-9534554D01*
X30343853Y-9570237D01*
X30356769Y-9578867D01*
X30401231Y-9587711D01*
X30415241Y-9590498D01*
X30415246Y-9590498D01*
X30415252Y-9590500D01*
X30415253Y-9590500D01*
X31584747Y-9590500D01*
X31584748Y-9590500D01*
X31643231Y-9578867D01*
X31709552Y-9534552D01*
X31753867Y-9468231D01*
X31765500Y-9409748D01*
X31765500Y-8247823D01*
X31784407Y-8189632D01*
X31833907Y-8153668D01*
X31895093Y-8153668D01*
X31909444Y-8159613D01*
X31919386Y-8164679D01*
X32036867Y-8183286D01*
X32091384Y-8211063D01*
X32119161Y-8265579D01*
X32137769Y-8383064D01*
X32137770Y-8383065D01*
X32193880Y-8493186D01*
X32198960Y-8503156D01*
X32294268Y-8598464D01*
X32414362Y-8659655D01*
X32547488Y-8680740D01*
X32680614Y-8659655D01*
X32800708Y-8598464D01*
X32896016Y-8503156D01*
X32947291Y-8402522D01*
X32990555Y-8359259D01*
X33050987Y-8349688D01*
X33105504Y-8377466D01*
X33133281Y-8431982D01*
X33134500Y-8447469D01*
X33134500Y-9409746D01*
X33134501Y-9409758D01*
X33146132Y-9468227D01*
X33146134Y-9468233D01*
X33190151Y-9534108D01*
X33190448Y-9534552D01*
X33190451Y-9534554D01*
X33243853Y-9570237D01*
X33256769Y-9578867D01*
X33301231Y-9587711D01*
X33315241Y-9590498D01*
X33315246Y-9590498D01*
X33315252Y-9590500D01*
X33315253Y-9590500D01*
X34484747Y-9590500D01*
X34484748Y-9590500D01*
X34543231Y-9578867D01*
X34609552Y-9534552D01*
X34653867Y-9468231D01*
X34665500Y-9409748D01*
X34665500Y-8950001D01*
X35085000Y-8950001D01*
X35085000Y-9414624D01*
X35099506Y-9487546D01*
X35099507Y-9487548D01*
X35154758Y-9570237D01*
X35154762Y-9570241D01*
X35237451Y-9625492D01*
X35237453Y-9625493D01*
X35310375Y-9639999D01*
X35310377Y-9640000D01*
X35649999Y-9640000D01*
X35650000Y-9639999D01*
X35650000Y-8950001D01*
X36150000Y-8950001D01*
X36150000Y-9639999D01*
X36150001Y-9640000D01*
X36489623Y-9640000D01*
X36489624Y-9639999D01*
X36562546Y-9625493D01*
X36562548Y-9625492D01*
X36645237Y-9570241D01*
X36645241Y-9570237D01*
X36700492Y-9487548D01*
X36700493Y-9487546D01*
X36714999Y-9414624D01*
X36715000Y-9414622D01*
X36715000Y-8950001D01*
X36714999Y-8950000D01*
X36150001Y-8950000D01*
X36150000Y-8950001D01*
X35650000Y-8950001D01*
X35649999Y-8950000D01*
X35085001Y-8950000D01*
X35085000Y-8950001D01*
X34665500Y-8950001D01*
X34665500Y-8750001D01*
X38300000Y-8750001D01*
X38300000Y-9204624D01*
X38314506Y-9277546D01*
X38314507Y-9277548D01*
X38369758Y-9360237D01*
X38369762Y-9360241D01*
X38452451Y-9415492D01*
X38452453Y-9415493D01*
X38525375Y-9429999D01*
X38525377Y-9430000D01*
X39049999Y-9430000D01*
X39050000Y-9429999D01*
X39050000Y-8750001D01*
X39550000Y-8750001D01*
X39550000Y-9429999D01*
X39550001Y-9430000D01*
X40074623Y-9430000D01*
X40074624Y-9429999D01*
X40147546Y-9415493D01*
X40147548Y-9415492D01*
X40230237Y-9360241D01*
X40230241Y-9360237D01*
X40285492Y-9277548D01*
X40285493Y-9277546D01*
X40299999Y-9204624D01*
X40300000Y-9204622D01*
X40300000Y-8750001D01*
X40299999Y-8750000D01*
X39550001Y-8750000D01*
X39550000Y-8750001D01*
X39050000Y-8750001D01*
X39049999Y-8750000D01*
X38300001Y-8750000D01*
X38300000Y-8750001D01*
X34665500Y-8750001D01*
X34665500Y-7990252D01*
X34664530Y-7985375D01*
X35085000Y-7985375D01*
X35085000Y-8449999D01*
X35085001Y-8450000D01*
X35649999Y-8450000D01*
X35650000Y-8449999D01*
X35650000Y-7760001D01*
X36150000Y-7760001D01*
X36150000Y-8449999D01*
X36150001Y-8450000D01*
X36714999Y-8450000D01*
X36715000Y-8449999D01*
X36715000Y-7985377D01*
X36714999Y-7985375D01*
X36700493Y-7912453D01*
X36700492Y-7912451D01*
X36645241Y-7829762D01*
X36645237Y-7829758D01*
X36593779Y-7795375D01*
X38300000Y-7795375D01*
X38300000Y-8249999D01*
X38300001Y-8250000D01*
X39049999Y-8250000D01*
X39050000Y-8249999D01*
X39050000Y-7570001D01*
X39550000Y-7570001D01*
X39550000Y-8249999D01*
X39550001Y-8250000D01*
X40299999Y-8250000D01*
X40300000Y-8249999D01*
X40300000Y-7795377D01*
X40299999Y-7795375D01*
X40285493Y-7722453D01*
X40285492Y-7722451D01*
X40230241Y-7639762D01*
X40230237Y-7639758D01*
X40147548Y-7584507D01*
X40147546Y-7584506D01*
X40074624Y-7570000D01*
X39550001Y-7570000D01*
X39550000Y-7570001D01*
X39050000Y-7570001D01*
X39049999Y-7570000D01*
X38525375Y-7570000D01*
X38452453Y-7584506D01*
X38452451Y-7584507D01*
X38369762Y-7639758D01*
X38369758Y-7639762D01*
X38314507Y-7722451D01*
X38314506Y-7722453D01*
X38300000Y-7795375D01*
X36593779Y-7795375D01*
X36562548Y-7774507D01*
X36562546Y-7774506D01*
X36489624Y-7760000D01*
X36150001Y-7760000D01*
X36150000Y-7760001D01*
X35650000Y-7760001D01*
X35649999Y-7760000D01*
X35310375Y-7760000D01*
X35237453Y-7774506D01*
X35237451Y-7774507D01*
X35154762Y-7829758D01*
X35154758Y-7829762D01*
X35099507Y-7912451D01*
X35099506Y-7912453D01*
X35085000Y-7985375D01*
X34664530Y-7985375D01*
X34653867Y-7931769D01*
X34609552Y-7865448D01*
X34607731Y-7864231D01*
X34543233Y-7821134D01*
X34543231Y-7821133D01*
X34543228Y-7821132D01*
X34543227Y-7821132D01*
X34484758Y-7809501D01*
X34484748Y-7809500D01*
X34484747Y-7809500D01*
X33879500Y-7809500D01*
X33821309Y-7790593D01*
X33785345Y-7741093D01*
X33780500Y-7710500D01*
X33780500Y-7472000D01*
X33799407Y-7413809D01*
X33848907Y-7377845D01*
X33879500Y-7373000D01*
X34169747Y-7373000D01*
X34169748Y-7373000D01*
X34219504Y-7363103D01*
X34230685Y-7360879D01*
X34269315Y-7360879D01*
X34330241Y-7372998D01*
X34330246Y-7372998D01*
X34330252Y-7373000D01*
X34330253Y-7373000D01*
X34970050Y-7373000D01*
X35025052Y-7389685D01*
X35052452Y-7407993D01*
X35125375Y-7422499D01*
X35125377Y-7422500D01*
X35149999Y-7422500D01*
X35150000Y-7422499D01*
X35150000Y-7202187D01*
X35150477Y-7192478D01*
X35150500Y-7192244D01*
X35150500Y-6621500D01*
X35169407Y-6563309D01*
X35218907Y-6527345D01*
X35249500Y-6522500D01*
X35651000Y-6522500D01*
X35709191Y-6541407D01*
X35745155Y-6590907D01*
X35750000Y-6621500D01*
X35750000Y-7422499D01*
X35750001Y-7422500D01*
X35774623Y-7422500D01*
X35774624Y-7422499D01*
X35847546Y-7407993D01*
X35847548Y-7407992D01*
X35930237Y-7352741D01*
X35930241Y-7352737D01*
X35985492Y-7270048D01*
X35985493Y-7270046D01*
X35999999Y-7197124D01*
X36000000Y-7197122D01*
X36000000Y-6982458D01*
X36018907Y-6924267D01*
X36068407Y-6888303D01*
X36129593Y-6888303D01*
X36154003Y-6900143D01*
X36177376Y-6915761D01*
X36330000Y-6978979D01*
X36330000Y-6478196D01*
X36334395Y-6482591D01*
X36425606Y-6535252D01*
X36527339Y-6562511D01*
X36632661Y-6562511D01*
X36734394Y-6535252D01*
X36825605Y-6482591D01*
X36830000Y-6478196D01*
X36830000Y-6978978D01*
X36982625Y-6915760D01*
X37121840Y-6822740D01*
X37240240Y-6704340D01*
X37333260Y-6565125D01*
X37397335Y-6410434D01*
X37429999Y-6246220D01*
X37430000Y-6246216D01*
X37430000Y-6012501D01*
X37429999Y-6012500D01*
X36979999Y-6012500D01*
X36979999Y-5512500D01*
X37429999Y-5512500D01*
X37430000Y-5512499D01*
X37430000Y-5278783D01*
X37429999Y-5278779D01*
X37397335Y-5114565D01*
X37339478Y-4974886D01*
X37334677Y-4913889D01*
X37366647Y-4861720D01*
X37423175Y-4838305D01*
X37430942Y-4838000D01*
X38910500Y-4838000D01*
X38968691Y-4856907D01*
X39004655Y-4906407D01*
X39009500Y-4937000D01*
X39009500Y-5218996D01*
X39036420Y-5354327D01*
X39036420Y-5354329D01*
X39089223Y-5481808D01*
X39150556Y-5573601D01*
X39165886Y-5596543D01*
X40413457Y-6844114D01*
X40528189Y-6920775D01*
X40580587Y-6942478D01*
X40625014Y-6978938D01*
X40635448Y-6994552D01*
X40701769Y-7038867D01*
X40746231Y-7047711D01*
X40760241Y-7050498D01*
X40760246Y-7050498D01*
X40760252Y-7050500D01*
X40760500Y-7050500D01*
X40760607Y-7050534D01*
X40765088Y-7050976D01*
X40764991Y-7051959D01*
X40818691Y-7069407D01*
X40854655Y-7118907D01*
X40859500Y-7149500D01*
X40859500Y-7586415D01*
X40840593Y-7644606D01*
X40815502Y-7668730D01*
X40805451Y-7675445D01*
X40805445Y-7675451D01*
X40761134Y-7741766D01*
X40761132Y-7741772D01*
X40749501Y-7800241D01*
X40749500Y-7800253D01*
X40749500Y-9199746D01*
X40749501Y-9199758D01*
X40761132Y-9258227D01*
X40761134Y-9258233D01*
X40784155Y-9292686D01*
X40805448Y-9324552D01*
X40805451Y-9324554D01*
X40858853Y-9360237D01*
X40871769Y-9368867D01*
X40916231Y-9377711D01*
X40930241Y-9380498D01*
X40930246Y-9380498D01*
X40930252Y-9380500D01*
X41700500Y-9380500D01*
X41758691Y-9399407D01*
X41794655Y-9448907D01*
X41799500Y-9479500D01*
X41799500Y-10568996D01*
X41826420Y-10704327D01*
X41826420Y-10704329D01*
X41879223Y-10831808D01*
X41954855Y-10945001D01*
X41955886Y-10946543D01*
X44353457Y-13344114D01*
X44468189Y-13420775D01*
X44595671Y-13473580D01*
X44731006Y-13500499D01*
X44731008Y-13500499D01*
X44868993Y-13500499D01*
X44868994Y-13500499D01*
X45004328Y-13473580D01*
X45131811Y-13420775D01*
X45246543Y-13344114D01*
X45344114Y-13246543D01*
X45420775Y-13131811D01*
X45473580Y-13004328D01*
X45500499Y-12868994D01*
X45500499Y-12731006D01*
X45473580Y-12595671D01*
X45444491Y-12525445D01*
X45420776Y-12468191D01*
X45375213Y-12400001D01*
X45344114Y-12353457D01*
X43229496Y-10238839D01*
X43201719Y-10184322D01*
X43200500Y-10168835D01*
X43200500Y-9131164D01*
X43219407Y-9072973D01*
X43229496Y-9061161D01*
X43712167Y-8578489D01*
X43744282Y-8557029D01*
X43831811Y-8520775D01*
X43946542Y-8444114D01*
X44044114Y-8346542D01*
X44103863Y-8257122D01*
X44118685Y-8234940D01*
X44166735Y-8197061D01*
X44227873Y-8194659D01*
X44269520Y-8222486D01*
X44271004Y-8221003D01*
X44278463Y-8228462D01*
X44278747Y-8228652D01*
X44278801Y-8228800D01*
X44300001Y-8250000D01*
X45049999Y-8250000D01*
X45050000Y-8249999D01*
X45050000Y-7570001D01*
X45550000Y-7570001D01*
X45550000Y-8249999D01*
X45550001Y-8250000D01*
X46299999Y-8250000D01*
X46300000Y-8249999D01*
X46300000Y-7795377D01*
X46299999Y-7795375D01*
X46285493Y-7722453D01*
X46285492Y-7722451D01*
X46230241Y-7639762D01*
X46230237Y-7639758D01*
X46147548Y-7584507D01*
X46147546Y-7584506D01*
X46074624Y-7570000D01*
X45550001Y-7570000D01*
X45550000Y-7570001D01*
X45050000Y-7570001D01*
X45049999Y-7570000D01*
X44525375Y-7570000D01*
X44452453Y-7584506D01*
X44452451Y-7584507D01*
X44369762Y-7639758D01*
X44369756Y-7639764D01*
X44337256Y-7688403D01*
X44289206Y-7726282D01*
X44228068Y-7728683D01*
X44177194Y-7694689D01*
X44163480Y-7671288D01*
X44130965Y-7592789D01*
X44120777Y-7568193D01*
X44120771Y-7568182D01*
X44044114Y-7453458D01*
X43946541Y-7355885D01*
X43831817Y-7279228D01*
X43831806Y-7279222D01*
X43704328Y-7226420D01*
X43568995Y-7199500D01*
X43568993Y-7199500D01*
X43444185Y-7199500D01*
X43385994Y-7180593D01*
X43350030Y-7131093D01*
X43350030Y-7069907D01*
X43385994Y-7020407D01*
X43389183Y-7018185D01*
X43424552Y-6994552D01*
X43468867Y-6928231D01*
X43480500Y-6869748D01*
X43480500Y-5730252D01*
X43468867Y-5671769D01*
X43424552Y-5605448D01*
X43390062Y-5582402D01*
X43358233Y-5561134D01*
X43358231Y-5561133D01*
X43358228Y-5561132D01*
X43358227Y-5561132D01*
X43299758Y-5549501D01*
X43299748Y-5549500D01*
X43299747Y-5549500D01*
X41141165Y-5549500D01*
X41082974Y-5530593D01*
X41071161Y-5520504D01*
X40439496Y-4888839D01*
X40411719Y-4834322D01*
X40410500Y-4818835D01*
X40410500Y-4684253D01*
X40429407Y-4626062D01*
X40478907Y-4590098D01*
X40540093Y-4590098D01*
X40589593Y-4626062D01*
X40591804Y-4629235D01*
X40635448Y-4694552D01*
X40701769Y-4738867D01*
X40746231Y-4747711D01*
X40760241Y-4750498D01*
X40760246Y-4750498D01*
X40760252Y-4750500D01*
X40760253Y-4750500D01*
X43299747Y-4750500D01*
X43299748Y-4750500D01*
X43358231Y-4738867D01*
X43390680Y-4717185D01*
X43445682Y-4700500D01*
X46500500Y-4700500D01*
X46558691Y-4719407D01*
X46594655Y-4768907D01*
X46599500Y-4799500D01*
X46599500Y-5819746D01*
X46599501Y-5819758D01*
X46611132Y-5878227D01*
X46611134Y-5878233D01*
X46647813Y-5933126D01*
X46655448Y-5944552D01*
X46721769Y-5988867D01*
X46766231Y-5997711D01*
X46780241Y-6000498D01*
X46780246Y-6000498D01*
X46780252Y-6000500D01*
X47370500Y-6000500D01*
X47428691Y-6019407D01*
X47464655Y-6068907D01*
X47469500Y-6099500D01*
X47469500Y-7520500D01*
X47450593Y-7578691D01*
X47401093Y-7614655D01*
X47370500Y-7619500D01*
X46930252Y-7619500D01*
X46930251Y-7619500D01*
X46930241Y-7619501D01*
X46871772Y-7631132D01*
X46871766Y-7631134D01*
X46805451Y-7675445D01*
X46805445Y-7675451D01*
X46761134Y-7741766D01*
X46761132Y-7741772D01*
X46749501Y-7800241D01*
X46749500Y-7800253D01*
X46749500Y-8701678D01*
X46730593Y-8759869D01*
X46720504Y-8771682D01*
X46469004Y-9023182D01*
X46414487Y-9050959D01*
X46354055Y-9041388D01*
X46310790Y-8998123D01*
X46300000Y-8953178D01*
X46300000Y-8750001D01*
X46299999Y-8750000D01*
X44300001Y-8750000D01*
X44300000Y-8750001D01*
X44300000Y-9000500D01*
X44281093Y-9058691D01*
X44231593Y-9094655D01*
X44201000Y-9099500D01*
X43878035Y-9099500D01*
X43815845Y-9117761D01*
X43813579Y-9118397D01*
X43756815Y-9133607D01*
X43750818Y-9136091D01*
X43750589Y-9135539D01*
X43740245Y-9139958D01*
X43739954Y-9140043D01*
X43739944Y-9140048D01*
X43691410Y-9171238D01*
X43687391Y-9173688D01*
X43642684Y-9199500D01*
X43642682Y-9199502D01*
X43641658Y-9200527D01*
X43625200Y-9213789D01*
X43618872Y-9217856D01*
X43618871Y-9217857D01*
X43585768Y-9256059D01*
X43580956Y-9261227D01*
X43549500Y-9292685D01*
X43549499Y-9292686D01*
X43545172Y-9300180D01*
X43534266Y-9315496D01*
X43524622Y-9326627D01*
X43524621Y-9326628D01*
X43506591Y-9366107D01*
X43502277Y-9374475D01*
X43483608Y-9406813D01*
X43483607Y-9406813D01*
X43479507Y-9422117D01*
X43473938Y-9437608D01*
X43469087Y-9448233D01*
X43464835Y-9457543D01*
X43459674Y-9493430D01*
X43457310Y-9504953D01*
X43449500Y-9534104D01*
X43449500Y-9557122D01*
X43448492Y-9571211D01*
X43444353Y-9600000D01*
X43448412Y-9628234D01*
X43448492Y-9628786D01*
X43449500Y-9642876D01*
X43449500Y-9665893D01*
X43457310Y-9695042D01*
X43459675Y-9706572D01*
X43464835Y-9742457D01*
X43473937Y-9762388D01*
X43479506Y-9777881D01*
X43482208Y-9787960D01*
X43483608Y-9793186D01*
X43502277Y-9825523D01*
X43506592Y-9833893D01*
X43524622Y-9873373D01*
X43534259Y-9884494D01*
X43545172Y-9899820D01*
X43549497Y-9907310D01*
X43549498Y-9907311D01*
X43549500Y-9907314D01*
X43567802Y-9925616D01*
X43580961Y-9938775D01*
X43585764Y-9943934D01*
X43618872Y-9982143D01*
X43625186Y-9986201D01*
X43641662Y-9999476D01*
X43642686Y-10000500D01*
X43677488Y-10020593D01*
X43687392Y-10026311D01*
X43691414Y-10028763D01*
X43739942Y-10059950D01*
X43739947Y-10059953D01*
X43740046Y-10059982D01*
X43740215Y-10060032D01*
X43750584Y-10064474D01*
X43750819Y-10063909D01*
X43756809Y-10066389D01*
X43756814Y-10066392D01*
X43813579Y-10081601D01*
X43815813Y-10082228D01*
X43826814Y-10085458D01*
X43878033Y-10100499D01*
X43878038Y-10100499D01*
X43878039Y-10100500D01*
X43878040Y-10100500D01*
X46665890Y-10100500D01*
X46665892Y-10100500D01*
X46793186Y-10066392D01*
X46793188Y-10066390D01*
X46793190Y-10066390D01*
X46907309Y-10000503D01*
X46907309Y-10000502D01*
X46907314Y-10000500D01*
X47498318Y-9409496D01*
X47552835Y-9381719D01*
X47568322Y-9380500D01*
X48469747Y-9380500D01*
X48469748Y-9380500D01*
X48528231Y-9368867D01*
X48594552Y-9324552D01*
X48638867Y-9258231D01*
X48650500Y-9199748D01*
X48650500Y-7800252D01*
X48650350Y-7799500D01*
X48642899Y-7762039D01*
X48638867Y-7741769D01*
X48594552Y-7675448D01*
X48593211Y-7674552D01*
X48520124Y-7625716D01*
X48521397Y-7623809D01*
X48485084Y-7592789D01*
X48470500Y-7541070D01*
X48470500Y-6099500D01*
X48489407Y-6041309D01*
X48538907Y-6005345D01*
X48569500Y-6000500D01*
X49159747Y-6000500D01*
X49159748Y-6000500D01*
X49218231Y-5988867D01*
X49284552Y-5944552D01*
X49328867Y-5878231D01*
X49340500Y-5819748D01*
X49340500Y-3805253D01*
X54124500Y-3805253D01*
X54124500Y-5194746D01*
X54124501Y-5194758D01*
X54136132Y-5253227D01*
X54136134Y-5253233D01*
X54156462Y-5283655D01*
X54180448Y-5319552D01*
X54246769Y-5363867D01*
X54291231Y-5372711D01*
X54305241Y-5375498D01*
X54305246Y-5375498D01*
X54305252Y-5375500D01*
X54305253Y-5375500D01*
X55694747Y-5375500D01*
X55694748Y-5375500D01*
X55753231Y-5363867D01*
X55819552Y-5319552D01*
X55863867Y-5253231D01*
X55875500Y-5194748D01*
X55875500Y-4250000D01*
X56108629Y-4250000D01*
X56684314Y-4250000D01*
X56679920Y-4254394D01*
X56627259Y-4345606D01*
X56600000Y-4447339D01*
X56600000Y-4552661D01*
X56627259Y-4654394D01*
X56679920Y-4745606D01*
X56684314Y-4750000D01*
X56108629Y-4750000D01*
X56150317Y-4878305D01*
X56150320Y-4878313D01*
X56247535Y-5046692D01*
X56247539Y-5046698D01*
X56377640Y-5191190D01*
X56377641Y-5191191D01*
X56534955Y-5305487D01*
X56534958Y-5305489D01*
X56712580Y-5384571D01*
X56749999Y-5392524D01*
X56750000Y-5392524D01*
X56750000Y-4815686D01*
X56754394Y-4820080D01*
X56845606Y-4872741D01*
X56947339Y-4900000D01*
X57052661Y-4900000D01*
X57154394Y-4872741D01*
X57245606Y-4820080D01*
X57250000Y-4815686D01*
X57250000Y-5392524D01*
X57287419Y-5384571D01*
X57465041Y-5305489D01*
X57465044Y-5305487D01*
X57622358Y-5191191D01*
X57622359Y-5191190D01*
X57752460Y-5046698D01*
X57752464Y-5046692D01*
X57849679Y-4878313D01*
X57849682Y-4878305D01*
X57891371Y-4750000D01*
X57315686Y-4750000D01*
X57320080Y-4745606D01*
X57372741Y-4654394D01*
X57400000Y-4552661D01*
X57400000Y-4500000D01*
X58119678Y-4500000D01*
X58136603Y-4661036D01*
X58138916Y-4683034D01*
X58195784Y-4858054D01*
X58195790Y-4858068D01*
X58258232Y-4966218D01*
X58287805Y-5017440D01*
X58383704Y-5123947D01*
X58388254Y-5129001D01*
X58410950Y-5154207D01*
X58559839Y-5262381D01*
X58559843Y-5262383D01*
X58559845Y-5262384D01*
X58596669Y-5278779D01*
X58727966Y-5337236D01*
X58907981Y-5375500D01*
X58907983Y-5375500D01*
X59092017Y-5375500D01*
X59092019Y-5375500D01*
X59272034Y-5337236D01*
X59440161Y-5262381D01*
X59589050Y-5154207D01*
X59712195Y-5017440D01*
X59799054Y-4866996D01*
X59804209Y-4858068D01*
X59804209Y-4858066D01*
X59804214Y-4858059D01*
X59861085Y-4683029D01*
X59880322Y-4500000D01*
X59861085Y-4316971D01*
X59804214Y-4141941D01*
X59804211Y-4141936D01*
X59804209Y-4141931D01*
X59754776Y-4056313D01*
X59712195Y-3982560D01*
X59602673Y-3860922D01*
X59589051Y-3845794D01*
X59539398Y-3809719D01*
X59440161Y-3737619D01*
X59440157Y-3737617D01*
X59440154Y-3737615D01*
X59272036Y-3662765D01*
X59272034Y-3662764D01*
X59272031Y-3662763D01*
X59272030Y-3662763D01*
X59225135Y-3652795D01*
X59092019Y-3624500D01*
X58907981Y-3624500D01*
X58810797Y-3645157D01*
X58727969Y-3662763D01*
X58727963Y-3662765D01*
X58559845Y-3737615D01*
X58559842Y-3737617D01*
X58410948Y-3845794D01*
X58287803Y-3982562D01*
X58287803Y-3982563D01*
X58195790Y-4141931D01*
X58195784Y-4141945D01*
X58138916Y-4316965D01*
X58138915Y-4316969D01*
X58138915Y-4316971D01*
X58119678Y-4500000D01*
X57400000Y-4500000D01*
X57400000Y-4447339D01*
X57372741Y-4345606D01*
X57320080Y-4254394D01*
X57315686Y-4250000D01*
X57891371Y-4250000D01*
X57849682Y-4121694D01*
X57849679Y-4121686D01*
X57752464Y-3953307D01*
X57752460Y-3953301D01*
X57622359Y-3808809D01*
X57622358Y-3808808D01*
X57465044Y-3694512D01*
X57465037Y-3694508D01*
X57287419Y-3615428D01*
X57287411Y-3615426D01*
X57250000Y-3607474D01*
X57250000Y-4184314D01*
X57245606Y-4179920D01*
X57154394Y-4127259D01*
X57052661Y-4100000D01*
X56947339Y-4100000D01*
X56845606Y-4127259D01*
X56754394Y-4179920D01*
X56750000Y-4184314D01*
X56750000Y-3607474D01*
X56712588Y-3615426D01*
X56712584Y-3615427D01*
X56534959Y-3694510D01*
X56534956Y-3694512D01*
X56377640Y-3808808D01*
X56377640Y-3808809D01*
X56247539Y-3953301D01*
X56247535Y-3953307D01*
X56150320Y-4121686D01*
X56150317Y-4121694D01*
X56108629Y-4250000D01*
X55875500Y-4250000D01*
X55875500Y-3805252D01*
X55863867Y-3746769D01*
X55819552Y-3680448D01*
X55793088Y-3662765D01*
X55753233Y-3636134D01*
X55753231Y-3636133D01*
X55753228Y-3636132D01*
X55753227Y-3636132D01*
X55694758Y-3624501D01*
X55694748Y-3624500D01*
X54305252Y-3624500D01*
X54305251Y-3624500D01*
X54305241Y-3624501D01*
X54246772Y-3636132D01*
X54246766Y-3636134D01*
X54180451Y-3680445D01*
X54180445Y-3680451D01*
X54136134Y-3746766D01*
X54136132Y-3746772D01*
X54124501Y-3805241D01*
X54124500Y-3805253D01*
X49340500Y-3805253D01*
X49340500Y-2500000D01*
X54119678Y-2500000D01*
X54135905Y-2654394D01*
X54138916Y-2683034D01*
X54195784Y-2858054D01*
X54195790Y-2858068D01*
X54268893Y-2984684D01*
X54287805Y-3017440D01*
X54342543Y-3078233D01*
X54402257Y-3144553D01*
X54410950Y-3154207D01*
X54559839Y-3262381D01*
X54559843Y-3262383D01*
X54559845Y-3262384D01*
X54601642Y-3280993D01*
X54727966Y-3337236D01*
X54907981Y-3375500D01*
X54907983Y-3375500D01*
X55092017Y-3375500D01*
X55092019Y-3375500D01*
X55272034Y-3337236D01*
X55440161Y-3262381D01*
X55589050Y-3154207D01*
X55712195Y-3017440D01*
X55804214Y-2858059D01*
X55861085Y-2683029D01*
X55880322Y-2500000D01*
X55861085Y-2316971D01*
X55839325Y-2250000D01*
X56108629Y-2250000D01*
X56684314Y-2250000D01*
X56679920Y-2254394D01*
X56627259Y-2345606D01*
X56600000Y-2447339D01*
X56600000Y-2552661D01*
X56627259Y-2654394D01*
X56679920Y-2745606D01*
X56684314Y-2750000D01*
X56108629Y-2750000D01*
X56150317Y-2878305D01*
X56150320Y-2878313D01*
X56247535Y-3046692D01*
X56247539Y-3046698D01*
X56377640Y-3191190D01*
X56377641Y-3191191D01*
X56534955Y-3305487D01*
X56534958Y-3305489D01*
X56712580Y-3384571D01*
X56749999Y-3392524D01*
X56750000Y-3392524D01*
X56750000Y-2815686D01*
X56754394Y-2820080D01*
X56845606Y-2872741D01*
X56947339Y-2900000D01*
X57052661Y-2900000D01*
X57154394Y-2872741D01*
X57245606Y-2820080D01*
X57250000Y-2815686D01*
X57250000Y-3392524D01*
X57287419Y-3384571D01*
X57465041Y-3305489D01*
X57465044Y-3305487D01*
X57622358Y-3191191D01*
X57622359Y-3191190D01*
X57752460Y-3046698D01*
X57752464Y-3046692D01*
X57849679Y-2878313D01*
X57849682Y-2878305D01*
X57891371Y-2750000D01*
X57315686Y-2750000D01*
X57320080Y-2745606D01*
X57372741Y-2654394D01*
X57400000Y-2552661D01*
X57400000Y-2500000D01*
X58119678Y-2500000D01*
X58135905Y-2654394D01*
X58138916Y-2683034D01*
X58195784Y-2858054D01*
X58195790Y-2858068D01*
X58268893Y-2984684D01*
X58287805Y-3017440D01*
X58342543Y-3078233D01*
X58402257Y-3144553D01*
X58410950Y-3154207D01*
X58559839Y-3262381D01*
X58559843Y-3262383D01*
X58559845Y-3262384D01*
X58601642Y-3280993D01*
X58727966Y-3337236D01*
X58907981Y-3375500D01*
X58907983Y-3375500D01*
X59092017Y-3375500D01*
X59092019Y-3375500D01*
X59272034Y-3337236D01*
X59440161Y-3262381D01*
X59589050Y-3154207D01*
X59712195Y-3017440D01*
X59804214Y-2858059D01*
X59861085Y-2683029D01*
X59880322Y-2500000D01*
X59861085Y-2316971D01*
X59804214Y-2141941D01*
X59804211Y-2141936D01*
X59804209Y-2141931D01*
X59728692Y-2011134D01*
X59712195Y-1982560D01*
X59589050Y-1845793D01*
X59440161Y-1737619D01*
X59440157Y-1737617D01*
X59440154Y-1737615D01*
X59272036Y-1662765D01*
X59272034Y-1662764D01*
X59272031Y-1662763D01*
X59272030Y-1662763D01*
X59217127Y-1651093D01*
X59092019Y-1624500D01*
X58907981Y-1624500D01*
X58810797Y-1645157D01*
X58727969Y-1662763D01*
X58727963Y-1662765D01*
X58559845Y-1737615D01*
X58559842Y-1737617D01*
X58410948Y-1845794D01*
X58287803Y-1982562D01*
X58287803Y-1982563D01*
X58195790Y-2141931D01*
X58195784Y-2141945D01*
X58138916Y-2316965D01*
X58138915Y-2316969D01*
X58138915Y-2316971D01*
X58119678Y-2500000D01*
X57400000Y-2500000D01*
X57400000Y-2447339D01*
X57372741Y-2345606D01*
X57320080Y-2254394D01*
X57315686Y-2250000D01*
X57891371Y-2250000D01*
X57849682Y-2121694D01*
X57849679Y-2121686D01*
X57752464Y-1953307D01*
X57752460Y-1953301D01*
X57622359Y-1808809D01*
X57622358Y-1808808D01*
X57465044Y-1694512D01*
X57465037Y-1694508D01*
X57287419Y-1615428D01*
X57287411Y-1615426D01*
X57250000Y-1607474D01*
X57250000Y-2184314D01*
X57245606Y-2179920D01*
X57154394Y-2127259D01*
X57052661Y-2100000D01*
X56947339Y-2100000D01*
X56845606Y-2127259D01*
X56754394Y-2179920D01*
X56750000Y-2184314D01*
X56750000Y-1607474D01*
X56712588Y-1615426D01*
X56712584Y-1615427D01*
X56534959Y-1694510D01*
X56534956Y-1694512D01*
X56377640Y-1808808D01*
X56377640Y-1808809D01*
X56247539Y-1953301D01*
X56247535Y-1953307D01*
X56150320Y-2121686D01*
X56150317Y-2121694D01*
X56108629Y-2250000D01*
X55839325Y-2250000D01*
X55804214Y-2141941D01*
X55804211Y-2141936D01*
X55804209Y-2141931D01*
X55728692Y-2011134D01*
X55712195Y-1982560D01*
X55589050Y-1845793D01*
X55440161Y-1737619D01*
X55440157Y-1737617D01*
X55440154Y-1737615D01*
X55272036Y-1662765D01*
X55272034Y-1662764D01*
X55272031Y-1662763D01*
X55272030Y-1662763D01*
X55217127Y-1651093D01*
X55092019Y-1624500D01*
X54907981Y-1624500D01*
X54810797Y-1645157D01*
X54727969Y-1662763D01*
X54727963Y-1662765D01*
X54559845Y-1737615D01*
X54559842Y-1737617D01*
X54410948Y-1845794D01*
X54287803Y-1982562D01*
X54287803Y-1982563D01*
X54195790Y-2141931D01*
X54195784Y-2141945D01*
X54138916Y-2316965D01*
X54138915Y-2316969D01*
X54138915Y-2316971D01*
X54119678Y-2500000D01*
X49340500Y-2500000D01*
X49340500Y-2180252D01*
X49328867Y-2121769D01*
X49284552Y-2055448D01*
X49284548Y-2055445D01*
X49218233Y-2011134D01*
X49218231Y-2011133D01*
X49218228Y-2011132D01*
X49218227Y-2011132D01*
X49159758Y-1999501D01*
X49159748Y-1999500D01*
X46780252Y-1999500D01*
X46780251Y-1999500D01*
X46780241Y-1999501D01*
X46721772Y-2011132D01*
X46721766Y-2011134D01*
X46655451Y-2055445D01*
X46655445Y-2055451D01*
X46611134Y-2121766D01*
X46611132Y-2121772D01*
X46599501Y-2180241D01*
X46599500Y-2180253D01*
X46599500Y-3200500D01*
X46580593Y-3258691D01*
X46531093Y-3294655D01*
X46500500Y-3299500D01*
X43445682Y-3299500D01*
X43390680Y-3282815D01*
X43358233Y-3261134D01*
X43358231Y-3261133D01*
X43358228Y-3261132D01*
X43358227Y-3261132D01*
X43299758Y-3249501D01*
X43299748Y-3249500D01*
X40760252Y-3249500D01*
X40760251Y-3249500D01*
X40760241Y-3249501D01*
X40701772Y-3261132D01*
X40701766Y-3261134D01*
X40635451Y-3305445D01*
X40635445Y-3305451D01*
X40591134Y-3371766D01*
X40591132Y-3371772D01*
X40579501Y-3430241D01*
X40579500Y-3430253D01*
X40579500Y-4285464D01*
X40560593Y-4343655D01*
X40511093Y-4379619D01*
X40449907Y-4379619D01*
X40400407Y-4343655D01*
X40385732Y-4310105D01*
X40384993Y-4310330D01*
X40383579Y-4305670D01*
X40375209Y-4285464D01*
X40330775Y-4178189D01*
X40254114Y-4063457D01*
X39784043Y-3593386D01*
X39723925Y-3553217D01*
X39669308Y-3516723D01*
X39541828Y-3463920D01*
X39406496Y-3437000D01*
X39406494Y-3437000D01*
X39406493Y-3437000D01*
X34268993Y-3437000D01*
X31093507Y-3437000D01*
X31093504Y-3437000D01*
X30962440Y-3463071D01*
X30958172Y-3463919D01*
X30830691Y-3516723D01*
X30715960Y-3593383D01*
X30055883Y-4253460D01*
X29979223Y-4368191D01*
X29926420Y-4495670D01*
X29926420Y-4495672D01*
X29899500Y-4631003D01*
X29899500Y-4692165D01*
X29880593Y-4750356D01*
X29831093Y-4786320D01*
X29769907Y-4786320D01*
X29745499Y-4774481D01*
X29694963Y-4740714D01*
X29646286Y-4708189D01*
X29627724Y-4700500D01*
X29532450Y-4661036D01*
X29411608Y-4637000D01*
X29411606Y-4637000D01*
X29288394Y-4637000D01*
X29288391Y-4637000D01*
X29167549Y-4661036D01*
X29053714Y-4708188D01*
X28951267Y-4776642D01*
X28951263Y-4776645D01*
X28864145Y-4863763D01*
X28864142Y-4863767D01*
X28795686Y-4966218D01*
X28794556Y-4968332D01*
X28793767Y-4969089D01*
X28792987Y-4970258D01*
X28792730Y-4970086D01*
X28750443Y-5010732D01*
X28689833Y-5019105D01*
X28635877Y-4990254D01*
X28624938Y-4976652D01*
X28583001Y-4913889D01*
X28541789Y-4852211D01*
X28430289Y-4740711D01*
X28370109Y-4700500D01*
X28299185Y-4653109D01*
X28299174Y-4653103D01*
X28153497Y-4592763D01*
X27998844Y-4562000D01*
X27998842Y-4562000D01*
X27841158Y-4562000D01*
X27841155Y-4562000D01*
X27686503Y-4592763D01*
X27686501Y-4592763D01*
X27540825Y-4653103D01*
X27540814Y-4653109D01*
X27409711Y-4740711D01*
X27409707Y-4740714D01*
X27298214Y-4852207D01*
X27298211Y-4852211D01*
X27210609Y-4983314D01*
X27210603Y-4983325D01*
X27150263Y-5129001D01*
X27150263Y-5129003D01*
X27119500Y-5283655D01*
X26778000Y-5283655D01*
X26778000Y-4810252D01*
X26766367Y-4751769D01*
X26722052Y-4685448D01*
X26722049Y-4685446D01*
X26716776Y-4677554D01*
X26700167Y-4618666D01*
X26716775Y-4567550D01*
X26736367Y-4538231D01*
X26748000Y-4479748D01*
X26748000Y-3540252D01*
X26747620Y-3538344D01*
X26738283Y-3491402D01*
X26736367Y-3481769D01*
X26692052Y-3415448D01*
X26668933Y-3400000D01*
X26625733Y-3371134D01*
X26625731Y-3371133D01*
X26625728Y-3371132D01*
X26625727Y-3371132D01*
X26567258Y-3359501D01*
X26567248Y-3359500D01*
X25156719Y-3359500D01*
X25098528Y-3340593D01*
X25062564Y-3291093D01*
X25062564Y-3229907D01*
X25098528Y-3180407D01*
X25101717Y-3178185D01*
X25152052Y-3144552D01*
X25196367Y-3078231D01*
X25208000Y-3019748D01*
X25208000Y-2379500D01*
X25226907Y-2321309D01*
X25276407Y-2285345D01*
X25307000Y-2280500D01*
X25637744Y-2280500D01*
X25695935Y-2299407D01*
X25707747Y-2309496D01*
X25743858Y-2345606D01*
X25746780Y-2348528D01*
X25866874Y-2409719D01*
X26000000Y-2430804D01*
X26133126Y-2409719D01*
X26253220Y-2348528D01*
X26348528Y-2253220D01*
X26409719Y-2133126D01*
X26430804Y-2000000D01*
X26409719Y-1866874D01*
X26348528Y-1746780D01*
X26253220Y-1651472D01*
X26253217Y-1651470D01*
X26133129Y-1590282D01*
X26133127Y-1590281D01*
X26000000Y-1569196D01*
X25866872Y-1590281D01*
X25866870Y-1590282D01*
X25746782Y-1651470D01*
X25746778Y-1651473D01*
X25707747Y-1690504D01*
X25653230Y-1718281D01*
X25637744Y-1719500D01*
X25307000Y-1719500D01*
X25248809Y-1700593D01*
X25212845Y-1651093D01*
X25208000Y-1620500D01*
X25208000Y-1480253D01*
X25207998Y-1480241D01*
X25198821Y-1434108D01*
X25196367Y-1421769D01*
X25152052Y-1355448D01*
X25130759Y-1341220D01*
X25085733Y-1311134D01*
X25085731Y-1311133D01*
X25085728Y-1311132D01*
X25085727Y-1311132D01*
X25027258Y-1299501D01*
X25027248Y-1299500D01*
X24087752Y-1299500D01*
X24087751Y-1299500D01*
X24087741Y-1299501D01*
X24029272Y-1311132D01*
X24029266Y-1311134D01*
X23977502Y-1345723D01*
X23918614Y-1362332D01*
X23867498Y-1345723D01*
X23815733Y-1311134D01*
X23815731Y-1311133D01*
X23815728Y-1311132D01*
X23815727Y-1311132D01*
X23757258Y-1299501D01*
X23757248Y-1299500D01*
X22817752Y-1299500D01*
X22817751Y-1299500D01*
X22817741Y-1299501D01*
X22759272Y-1311132D01*
X22759266Y-1311134D01*
X22707502Y-1345723D01*
X22648614Y-1362332D01*
X22597498Y-1345723D01*
X22545733Y-1311134D01*
X22545731Y-1311133D01*
X22545728Y-1311132D01*
X22545727Y-1311132D01*
X22487258Y-1299501D01*
X22487248Y-1299500D01*
X21547752Y-1299500D01*
X21547751Y-1299500D01*
X21547741Y-1299501D01*
X21489272Y-1311132D01*
X21489266Y-1311134D01*
X21437502Y-1345723D01*
X21378614Y-1362332D01*
X21327498Y-1345723D01*
X21275733Y-1311134D01*
X21275731Y-1311133D01*
X21275728Y-1311132D01*
X21275727Y-1311132D01*
X21217258Y-1299501D01*
X21217248Y-1299500D01*
X20277752Y-1299500D01*
X20277751Y-1299500D01*
X20277741Y-1299501D01*
X20219272Y-1311132D01*
X20219266Y-1311134D01*
X20167502Y-1345723D01*
X20108614Y-1362332D01*
X20057498Y-1345723D01*
X20005733Y-1311134D01*
X20005731Y-1311133D01*
X20005728Y-1311132D01*
X20005727Y-1311132D01*
X19947258Y-1299501D01*
X19947248Y-1299500D01*
X19007752Y-1299500D01*
X19007751Y-1299500D01*
X19007741Y-1299501D01*
X18949272Y-1311132D01*
X18949266Y-1311134D01*
X18897502Y-1345723D01*
X18838614Y-1362332D01*
X18787498Y-1345723D01*
X18735733Y-1311134D01*
X18735731Y-1311133D01*
X18735728Y-1311132D01*
X18735727Y-1311132D01*
X18677258Y-1299501D01*
X18677248Y-1299500D01*
X17737752Y-1299500D01*
X17737751Y-1299500D01*
X17737741Y-1299501D01*
X17679272Y-1311132D01*
X17679266Y-1311134D01*
X17627502Y-1345723D01*
X17568614Y-1362332D01*
X17517498Y-1345723D01*
X17465733Y-1311134D01*
X17465731Y-1311133D01*
X17465728Y-1311132D01*
X17465727Y-1311132D01*
X17407258Y-1299501D01*
X17407248Y-1299500D01*
X16467752Y-1299500D01*
X16467751Y-1299500D01*
X16467741Y-1299501D01*
X16409272Y-1311132D01*
X16409266Y-1311134D01*
X16357502Y-1345723D01*
X16298614Y-1362332D01*
X16247498Y-1345723D01*
X16195733Y-1311134D01*
X16195731Y-1311133D01*
X16195728Y-1311132D01*
X16195727Y-1311132D01*
X16137258Y-1299501D01*
X16137248Y-1299500D01*
X15197752Y-1299500D01*
X15197751Y-1299500D01*
X15197741Y-1299501D01*
X15139272Y-1311132D01*
X15139266Y-1311134D01*
X15087502Y-1345723D01*
X15028614Y-1362332D01*
X14977498Y-1345723D01*
X14925733Y-1311134D01*
X14925731Y-1311133D01*
X14925728Y-1311132D01*
X14925727Y-1311132D01*
X14867258Y-1299501D01*
X14867248Y-1299500D01*
X13927752Y-1299500D01*
X13927751Y-1299500D01*
X13927741Y-1299501D01*
X13869272Y-1311132D01*
X13869266Y-1311134D01*
X13817502Y-1345723D01*
X13758614Y-1362332D01*
X13707498Y-1345723D01*
X13655733Y-1311134D01*
X13655731Y-1311133D01*
X13655728Y-1311132D01*
X13655727Y-1311132D01*
X13597258Y-1299501D01*
X13597248Y-1299500D01*
X12657752Y-1299500D01*
X12657751Y-1299500D01*
X12657741Y-1299501D01*
X12599272Y-1311132D01*
X12599266Y-1311134D01*
X12547502Y-1345723D01*
X12488614Y-1362332D01*
X12437498Y-1345723D01*
X12385733Y-1311134D01*
X12385731Y-1311133D01*
X12385728Y-1311132D01*
X12385727Y-1311132D01*
X12327258Y-1299501D01*
X12327248Y-1299500D01*
X11387752Y-1299500D01*
X11387751Y-1299500D01*
X11387741Y-1299501D01*
X11329272Y-1311132D01*
X11329266Y-1311134D01*
X11277502Y-1345723D01*
X11218614Y-1362332D01*
X11167498Y-1345723D01*
X11115733Y-1311134D01*
X11115731Y-1311133D01*
X11115728Y-1311132D01*
X11115727Y-1311132D01*
X11057258Y-1299501D01*
X11057248Y-1299500D01*
X10117752Y-1299500D01*
X10117751Y-1299500D01*
X10117741Y-1299501D01*
X10059272Y-1311132D01*
X10059266Y-1311134D01*
X10007502Y-1345723D01*
X9948614Y-1362332D01*
X9897498Y-1345723D01*
X9845733Y-1311134D01*
X9845731Y-1311133D01*
X9845728Y-1311132D01*
X9845727Y-1311132D01*
X9787258Y-1299501D01*
X9787248Y-1299500D01*
X8847752Y-1299500D01*
X8847751Y-1299500D01*
X8847741Y-1299501D01*
X8789272Y-1311132D01*
X8789267Y-1311134D01*
X8782048Y-1315958D01*
X8723159Y-1332565D01*
X8672046Y-1315956D01*
X8595047Y-1264506D01*
X8522124Y-1250000D01*
X8297501Y-1250000D01*
X8297500Y-1250001D01*
X8297500Y-3249999D01*
X8297501Y-3250000D01*
X8522123Y-3250000D01*
X8522124Y-3249999D01*
X8595045Y-3235493D01*
X8672045Y-3184043D01*
X8730933Y-3167434D01*
X8782050Y-3184043D01*
X8789269Y-3188867D01*
X8833731Y-3197711D01*
X8847741Y-3200498D01*
X8847746Y-3200498D01*
X8847752Y-3200500D01*
X8847753Y-3200500D01*
X9787247Y-3200500D01*
X9787248Y-3200500D01*
X9845731Y-3188867D01*
X9897500Y-3154274D01*
X9956385Y-3137667D01*
X10007498Y-3154274D01*
X10059269Y-3188867D01*
X10103731Y-3197711D01*
X10117741Y-3200498D01*
X10117746Y-3200498D01*
X10117752Y-3200500D01*
X10117753Y-3200500D01*
X11057247Y-3200500D01*
X11057248Y-3200500D01*
X11115731Y-3188867D01*
X11167500Y-3154274D01*
X11226385Y-3137667D01*
X11277498Y-3154274D01*
X11329269Y-3188867D01*
X11373731Y-3197711D01*
X11387741Y-3200498D01*
X11387746Y-3200498D01*
X11387752Y-3200500D01*
X11463805Y-3200500D01*
X11521996Y-3219407D01*
X11557960Y-3268907D01*
X11557960Y-3330093D01*
X11533809Y-3369504D01*
X9563113Y-5340200D01*
X9508596Y-5367977D01*
X9506804Y-5368117D01*
X9366872Y-5390281D01*
X9366870Y-5390282D01*
X9246782Y-5451470D01*
X9151470Y-5546782D01*
X9090282Y-5666870D01*
X9090281Y-5666872D01*
X9069196Y-5799999D01*
X9069196Y-5800000D01*
X9090281Y-5933127D01*
X9090282Y-5933129D01*
X9135448Y-6021772D01*
X9151472Y-6053220D01*
X9246780Y-6148528D01*
X9366874Y-6209719D01*
X9500000Y-6230804D01*
X9633126Y-6209719D01*
X9753220Y-6148528D01*
X9848528Y-6053220D01*
X9909719Y-5933126D01*
X9930804Y-5800000D01*
X9930804Y-5799999D01*
X9932023Y-5792305D01*
X9935370Y-5792835D01*
X9949711Y-5748698D01*
X9959800Y-5736885D01*
X10459351Y-5237334D01*
X12081955Y-3614732D01*
X12082174Y-3614354D01*
X12118884Y-3550769D01*
X12122214Y-3538342D01*
X12138000Y-3479429D01*
X12138000Y-3405572D01*
X12138000Y-3299500D01*
X12156907Y-3241309D01*
X12206407Y-3205345D01*
X12237000Y-3200500D01*
X12327247Y-3200500D01*
X12327248Y-3200500D01*
X12385731Y-3188867D01*
X12437500Y-3154274D01*
X12496385Y-3137667D01*
X12547498Y-3154274D01*
X12599269Y-3188867D01*
X12643731Y-3197711D01*
X12657741Y-3200498D01*
X12657746Y-3200498D01*
X12657752Y-3200500D01*
X12748000Y-3200500D01*
X12806191Y-3219407D01*
X12842155Y-3268907D01*
X12847000Y-3299500D01*
X12847000Y-4015304D01*
X12828093Y-4073495D01*
X12818004Y-4085308D01*
X11563112Y-5340200D01*
X11508595Y-5367977D01*
X11506805Y-5368117D01*
X11366872Y-5390281D01*
X11366870Y-5390282D01*
X11246782Y-5451470D01*
X11151470Y-5546782D01*
X11090282Y-5666870D01*
X11090281Y-5666872D01*
X11069196Y-5799999D01*
X11069196Y-5800000D01*
X11090281Y-5933127D01*
X11090282Y-5933129D01*
X11135448Y-6021772D01*
X11151472Y-6053220D01*
X11246780Y-6148528D01*
X11366874Y-6209719D01*
X11500000Y-6230804D01*
X11633126Y-6209719D01*
X11753220Y-6148528D01*
X11848528Y-6053220D01*
X11909719Y-5933126D01*
X11930804Y-5800000D01*
X11930804Y-5799999D01*
X11932023Y-5792304D01*
X11935370Y-5792834D01*
X11949711Y-5748699D01*
X11959800Y-5736886D01*
X12616638Y-5080048D01*
X13351956Y-4344731D01*
X13374506Y-4305672D01*
X13388884Y-4280769D01*
X13408000Y-4209428D01*
X13408000Y-3299500D01*
X13426907Y-3241309D01*
X13476407Y-3205345D01*
X13507000Y-3200500D01*
X13597247Y-3200500D01*
X13597248Y-3200500D01*
X13655731Y-3188867D01*
X13707500Y-3154274D01*
X13766385Y-3137667D01*
X13817498Y-3154274D01*
X13869269Y-3188867D01*
X13902783Y-3195533D01*
X13956165Y-3225428D01*
X13981781Y-3280993D01*
X13981248Y-3308116D01*
X13966696Y-3399998D01*
X13966696Y-3400000D01*
X13987781Y-3533127D01*
X13987782Y-3533129D01*
X14048970Y-3653217D01*
X14048972Y-3653220D01*
X14144280Y-3748528D01*
X14264374Y-3809719D01*
X14397500Y-3830804D01*
X14530626Y-3809719D01*
X14650720Y-3748528D01*
X14746028Y-3653220D01*
X14807219Y-3533126D01*
X14828304Y-3400000D01*
X14813751Y-3308116D01*
X14823322Y-3247685D01*
X14866587Y-3204420D01*
X14892212Y-3195534D01*
X14925731Y-3188867D01*
X14977500Y-3154274D01*
X15036385Y-3137667D01*
X15087498Y-3154274D01*
X15139269Y-3188867D01*
X15157427Y-3192479D01*
X15210810Y-3222375D01*
X15236426Y-3277940D01*
X15236148Y-3292209D01*
X15236696Y-3292209D01*
X15236696Y-3300001D01*
X15257781Y-3433127D01*
X15257782Y-3433129D01*
X15312364Y-3540252D01*
X15318972Y-3553220D01*
X15414280Y-3648528D01*
X15534374Y-3709719D01*
X15667500Y-3730804D01*
X15800626Y-3709719D01*
X15920720Y-3648528D01*
X16016028Y-3553220D01*
X16077219Y-3433126D01*
X16098304Y-3300000D01*
X16098304Y-3292209D01*
X16101142Y-3292209D01*
X16108678Y-3244630D01*
X16151943Y-3201366D01*
X16177567Y-3192480D01*
X16195731Y-3188867D01*
X16247500Y-3154274D01*
X16306385Y-3137667D01*
X16357498Y-3154274D01*
X16409269Y-3188867D01*
X16409270Y-3188867D01*
X16409917Y-3189135D01*
X16410800Y-3189889D01*
X16417377Y-3194284D01*
X16416857Y-3195062D01*
X16456444Y-3228870D01*
X16470729Y-3288365D01*
X16469816Y-3296081D01*
X16469196Y-3299996D01*
X16469196Y-3300000D01*
X16490281Y-3433127D01*
X16490282Y-3433129D01*
X16544864Y-3540252D01*
X16551472Y-3553220D01*
X16646780Y-3648528D01*
X16766874Y-3709719D01*
X16900000Y-3730804D01*
X17033126Y-3709719D01*
X17153220Y-3648528D01*
X17248528Y-3553220D01*
X17309719Y-3433126D01*
X17330804Y-3300000D01*
X17330804Y-3296953D01*
X17331745Y-3294054D01*
X17332023Y-3292304D01*
X17332300Y-3292347D01*
X17349711Y-3238762D01*
X17399211Y-3202798D01*
X17410483Y-3199856D01*
X17465731Y-3188867D01*
X17517500Y-3154274D01*
X17576385Y-3137667D01*
X17627498Y-3154274D01*
X17679269Y-3188867D01*
X17723731Y-3197711D01*
X17737741Y-3200498D01*
X17737746Y-3200498D01*
X17737752Y-3200500D01*
X17880143Y-3200500D01*
X17938334Y-3219407D01*
X17965878Y-3249999D01*
X17983044Y-3279731D01*
X18035269Y-3331956D01*
X18035271Y-3331957D01*
X18140201Y-3436888D01*
X18167977Y-3491402D01*
X18168118Y-3493197D01*
X18190281Y-3633127D01*
X18190282Y-3633129D01*
X18251470Y-3753217D01*
X18251472Y-3753220D01*
X18346780Y-3848528D01*
X18466874Y-3909719D01*
X18600000Y-3930804D01*
X18733126Y-3909719D01*
X18853220Y-3848528D01*
X18948528Y-3753220D01*
X19009719Y-3633126D01*
X19030804Y-3500000D01*
X19009719Y-3366874D01*
X19005962Y-3359500D01*
X18998291Y-3344444D01*
X18988720Y-3284012D01*
X19016498Y-3229496D01*
X19071015Y-3201719D01*
X19086501Y-3200500D01*
X19284880Y-3200500D01*
X19343071Y-3219407D01*
X19379035Y-3268907D01*
X19382661Y-3314987D01*
X19369196Y-3399999D01*
X19369196Y-3400000D01*
X19390281Y-3533127D01*
X19390282Y-3533129D01*
X19451470Y-3653217D01*
X19451472Y-3653220D01*
X19546780Y-3748528D01*
X19666874Y-3809719D01*
X19800000Y-3830804D01*
X19933126Y-3809719D01*
X20053220Y-3748528D01*
X20148528Y-3653220D01*
X20209719Y-3533126D01*
X20230804Y-3400000D01*
X20217339Y-3314985D01*
X20226910Y-3254555D01*
X20270175Y-3211291D01*
X20315120Y-3200500D01*
X20368000Y-3200500D01*
X20426191Y-3219407D01*
X20462155Y-3268907D01*
X20467000Y-3299500D01*
X20467000Y-7794431D01*
X20473618Y-7819130D01*
X20486114Y-7865765D01*
X20486115Y-7865767D01*
X20486116Y-7865769D01*
X20523044Y-7929731D01*
X20575269Y-7981956D01*
X20575271Y-7981957D01*
X21370200Y-8776887D01*
X21397977Y-8831403D01*
X21398118Y-8833196D01*
X21420281Y-8973127D01*
X21420282Y-8973129D01*
X21479911Y-9090157D01*
X21481472Y-9093220D01*
X21576780Y-9188528D01*
X21696874Y-9249719D01*
X21830000Y-9270804D01*
X21963126Y-9249719D01*
X22083220Y-9188528D01*
X22178528Y-9093220D01*
X22215414Y-9020826D01*
X22258676Y-8977564D01*
X22319108Y-8967992D01*
X22400000Y-8980804D01*
X22533126Y-8959719D01*
X22653220Y-8898528D01*
X22748528Y-8803220D01*
X22809719Y-8683126D01*
X22830804Y-8550000D01*
X22809719Y-8416874D01*
X22748528Y-8296780D01*
X22653220Y-8201472D01*
X22653217Y-8201470D01*
X22533129Y-8140282D01*
X22533127Y-8140281D01*
X22392305Y-8117977D01*
X22392835Y-8114629D01*
X22348700Y-8100289D01*
X22336887Y-8090200D01*
X22326996Y-8080309D01*
X22299219Y-8025792D01*
X22298000Y-8010305D01*
X22298000Y-3299500D01*
X22316907Y-3241309D01*
X22366407Y-3205345D01*
X22397000Y-3200500D01*
X22487247Y-3200500D01*
X22487248Y-3200500D01*
X22545731Y-3188867D01*
X22597500Y-3154274D01*
X22656385Y-3137667D01*
X22707498Y-3154274D01*
X22759269Y-3188867D01*
X22803731Y-3197711D01*
X22817741Y-3200498D01*
X22817746Y-3200498D01*
X22817752Y-3200500D01*
X22817753Y-3200500D01*
X23757247Y-3200500D01*
X23757248Y-3200500D01*
X23815731Y-3188867D01*
X23867500Y-3154274D01*
X23926385Y-3137667D01*
X23977498Y-3154274D01*
X24029269Y-3188867D01*
X24073731Y-3197711D01*
X24087741Y-3200498D01*
X24087746Y-3200498D01*
X24087752Y-3200500D01*
X24087753Y-3200500D01*
X24898281Y-3200500D01*
X24956472Y-3219407D01*
X24992436Y-3268907D01*
X24992436Y-3330093D01*
X24956472Y-3379593D01*
X24953283Y-3381815D01*
X24902950Y-3415446D01*
X24902945Y-3415451D01*
X24858634Y-3481766D01*
X24858632Y-3481772D01*
X24847001Y-3540241D01*
X24847000Y-3540253D01*
X24847000Y-4479746D01*
X24847001Y-4479758D01*
X24858632Y-4538227D01*
X24858634Y-4538233D01*
X24908223Y-4612446D01*
X24924832Y-4671334D01*
X24908224Y-4722449D01*
X24888634Y-4751767D01*
X24888632Y-4751772D01*
X24877001Y-4810241D01*
X24877000Y-4810253D01*
X24877000Y-5749746D01*
X24877001Y-5749758D01*
X24888632Y-5808227D01*
X24888634Y-5808233D01*
X24923223Y-5859998D01*
X24939832Y-5918886D01*
X24923223Y-5970002D01*
X24888634Y-6021766D01*
X24888632Y-6021772D01*
X24877001Y-6080241D01*
X24877000Y-6080253D01*
X24877000Y-6363168D01*
X24858093Y-6421359D01*
X24808593Y-6457323D01*
X24747407Y-6457323D01*
X24697907Y-6421359D01*
X24680902Y-6382482D01*
X24677060Y-6363168D01*
X24673580Y-6345672D01*
X24630366Y-6241344D01*
X24620777Y-6218193D01*
X24620771Y-6218182D01*
X24544114Y-6103458D01*
X24446541Y-6005885D01*
X24331817Y-5929228D01*
X24331806Y-5929222D01*
X24204328Y-5876420D01*
X24068995Y-5849500D01*
X24068993Y-5849500D01*
X23931007Y-5849500D01*
X23931004Y-5849500D01*
X23795672Y-5876420D01*
X23795670Y-5876420D01*
X23668193Y-5929222D01*
X23668182Y-5929228D01*
X23553458Y-6005885D01*
X23455885Y-6103458D01*
X23379228Y-6218182D01*
X23379222Y-6218193D01*
X23326420Y-6345670D01*
X23326420Y-6345672D01*
X23299500Y-6481004D01*
X23299500Y-9668835D01*
X23280593Y-9727026D01*
X23270504Y-9738839D01*
X18538839Y-14470504D01*
X18484322Y-14498281D01*
X18468835Y-14499500D01*
X17963293Y-14499500D01*
X17905102Y-14480593D01*
X17869138Y-14431093D01*
X17866195Y-14381187D01*
X17867499Y-14374629D01*
X17867500Y-14374622D01*
X17867500Y-14150001D01*
X17867499Y-14150000D01*
X13667501Y-14150000D01*
X13667500Y-14150001D01*
X13667500Y-14374629D01*
X13668805Y-14381187D01*
X13661613Y-14441948D01*
X13620080Y-14486877D01*
X13571707Y-14499500D01*
X11431003Y-14499500D01*
X11295672Y-14526420D01*
X11295670Y-14526420D01*
X11168191Y-14579223D01*
X11053460Y-14655883D01*
X8773383Y-16935960D01*
X8696723Y-17050691D01*
X8643920Y-17178170D01*
X8643920Y-17178172D01*
X8617000Y-17313503D01*
X8617000Y-17451496D01*
X8622048Y-17476872D01*
X8642362Y-17578998D01*
X8643920Y-17586827D01*
X8643920Y-17586829D01*
X8696722Y-17714306D01*
X8696724Y-17714309D01*
X8696725Y-17714311D01*
X8700314Y-17719683D01*
X8717000Y-17774685D01*
X8717000Y-18668131D01*
X8698093Y-18726322D01*
X8648593Y-18762286D01*
X8598686Y-18765229D01*
X8522126Y-18750000D01*
X8297501Y-18750000D01*
X8297500Y-18750001D01*
X8297500Y-20749999D01*
X8297501Y-20750000D01*
X8522123Y-20750000D01*
X8522124Y-20749999D01*
X8595045Y-20735493D01*
X8672045Y-20684043D01*
X8730933Y-20667434D01*
X8782050Y-20684043D01*
X8789269Y-20688867D01*
X8833731Y-20697711D01*
X8847741Y-20700498D01*
X8847746Y-20700498D01*
X8847752Y-20700500D01*
X8847753Y-20700500D01*
X9787247Y-20700500D01*
X9787248Y-20700500D01*
X9845731Y-20688867D01*
X9897500Y-20654274D01*
X9956385Y-20637667D01*
X10007498Y-20654274D01*
X10059269Y-20688867D01*
X10103731Y-20697711D01*
X10117741Y-20700498D01*
X10117746Y-20700498D01*
X10117752Y-20700500D01*
X10117753Y-20700500D01*
X11057247Y-20700500D01*
X11057248Y-20700500D01*
X11115731Y-20688867D01*
X11167500Y-20654274D01*
X11226385Y-20637667D01*
X11277498Y-20654274D01*
X11329269Y-20688867D01*
X11373731Y-20697711D01*
X11387741Y-20700498D01*
X11387746Y-20700498D01*
X11387752Y-20700500D01*
X11387753Y-20700500D01*
X12327247Y-20700500D01*
X12327248Y-20700500D01*
X12385731Y-20688867D01*
X12437500Y-20654274D01*
X12496385Y-20637667D01*
X12547498Y-20654274D01*
X12599269Y-20688867D01*
X12643731Y-20697711D01*
X12657741Y-20700498D01*
X12657746Y-20700498D01*
X12657752Y-20700500D01*
X12657753Y-20700500D01*
X13597247Y-20700500D01*
X13597248Y-20700500D01*
X13655731Y-20688867D01*
X13707500Y-20654274D01*
X13766385Y-20637667D01*
X13817498Y-20654274D01*
X13869269Y-20688867D01*
X13913731Y-20697711D01*
X13927741Y-20700498D01*
X13927746Y-20700498D01*
X13927752Y-20700500D01*
X13927753Y-20700500D01*
X14867247Y-20700500D01*
X14867248Y-20700500D01*
X14925731Y-20688867D01*
X14977500Y-20654274D01*
X15036385Y-20637667D01*
X15087498Y-20654274D01*
X15139269Y-20688867D01*
X15183731Y-20697711D01*
X15197741Y-20700498D01*
X15197746Y-20700498D01*
X15197752Y-20700500D01*
X15197753Y-20700500D01*
X16137247Y-20700500D01*
X16137248Y-20700500D01*
X16195731Y-20688867D01*
X16247500Y-20654274D01*
X16306385Y-20637667D01*
X16357498Y-20654274D01*
X16409269Y-20688867D01*
X16453731Y-20697711D01*
X16467741Y-20700498D01*
X16467746Y-20700498D01*
X16467752Y-20700500D01*
X16467753Y-20700500D01*
X17407247Y-20700500D01*
X17407248Y-20700500D01*
X17465731Y-20688867D01*
X17517500Y-20654274D01*
X17576385Y-20637667D01*
X17627498Y-20654274D01*
X17679269Y-20688867D01*
X17723731Y-20697711D01*
X17737741Y-20700498D01*
X17737746Y-20700498D01*
X17737752Y-20700500D01*
X17737753Y-20700500D01*
X18677247Y-20700500D01*
X18677248Y-20700500D01*
X18735731Y-20688867D01*
X18787500Y-20654274D01*
X18846385Y-20637667D01*
X18897498Y-20654274D01*
X18949269Y-20688867D01*
X18993731Y-20697711D01*
X19007741Y-20700498D01*
X19007746Y-20700498D01*
X19007752Y-20700500D01*
X19007753Y-20700500D01*
X19947247Y-20700500D01*
X19947248Y-20700500D01*
X20005731Y-20688867D01*
X20057500Y-20654274D01*
X20116385Y-20637667D01*
X20167498Y-20654274D01*
X20219269Y-20688867D01*
X20263731Y-20697711D01*
X20277741Y-20700498D01*
X20277746Y-20700498D01*
X20277752Y-20700500D01*
X20277753Y-20700500D01*
X21217247Y-20700500D01*
X21217248Y-20700500D01*
X21275731Y-20688867D01*
X21327500Y-20654274D01*
X21386385Y-20637667D01*
X21437498Y-20654274D01*
X21489269Y-20688867D01*
X21533731Y-20697711D01*
X21547741Y-20700498D01*
X21547746Y-20700498D01*
X21547752Y-20700500D01*
X21547753Y-20700500D01*
X22487247Y-20700500D01*
X22487248Y-20700500D01*
X22545731Y-20688867D01*
X22597500Y-20654274D01*
X22656385Y-20637667D01*
X22707498Y-20654274D01*
X22759269Y-20688867D01*
X22803731Y-20697711D01*
X22817741Y-20700498D01*
X22817746Y-20700498D01*
X22817752Y-20700500D01*
X22817753Y-20700500D01*
X23757247Y-20700500D01*
X23757248Y-20700500D01*
X23815731Y-20688867D01*
X23867500Y-20654274D01*
X23926385Y-20637667D01*
X23977498Y-20654274D01*
X24029269Y-20688867D01*
X24073731Y-20697711D01*
X24087741Y-20700498D01*
X24087746Y-20700498D01*
X24087752Y-20700500D01*
X24087753Y-20700500D01*
X25027247Y-20700500D01*
X25027248Y-20700500D01*
X25085731Y-20688867D01*
X25152052Y-20644552D01*
X25196367Y-20578231D01*
X25208000Y-20519748D01*
X25208000Y-18980252D01*
X25196367Y-18921769D01*
X25152052Y-18855448D01*
X25101716Y-18821814D01*
X25063838Y-18773765D01*
X25061436Y-18712627D01*
X25095429Y-18661753D01*
X25152833Y-18640576D01*
X25156719Y-18640500D01*
X26597247Y-18640500D01*
X26597248Y-18640500D01*
X26655731Y-18628867D01*
X26722052Y-18584552D01*
X26766367Y-18518231D01*
X26778000Y-18459748D01*
X26778000Y-17520252D01*
X26766367Y-17461769D01*
X26731774Y-17409999D01*
X26715167Y-17351115D01*
X26731774Y-17300001D01*
X26766367Y-17248231D01*
X26778000Y-17189748D01*
X26778000Y-16797925D01*
X26796907Y-16739734D01*
X26846407Y-16703770D01*
X26907593Y-16703770D01*
X26957093Y-16739734D01*
X26967054Y-16756799D01*
X26974623Y-16773373D01*
X26984259Y-16784494D01*
X26995172Y-16799820D01*
X26999497Y-16807310D01*
X26999498Y-16807311D01*
X26999500Y-16807314D01*
X27017185Y-16824999D01*
X27030961Y-16838775D01*
X27035764Y-16843934D01*
X27068872Y-16882143D01*
X27075186Y-16886201D01*
X27091662Y-16899476D01*
X27092686Y-16900500D01*
X27133256Y-16923923D01*
X27137392Y-16926311D01*
X27141414Y-16928763D01*
X27152613Y-16935960D01*
X27189947Y-16959953D01*
X27190046Y-16959982D01*
X27190215Y-16960032D01*
X27200584Y-16964474D01*
X27200819Y-16963909D01*
X27206809Y-16966389D01*
X27206814Y-16966392D01*
X27263579Y-16981601D01*
X27265813Y-16982228D01*
X27276814Y-16985458D01*
X27328033Y-17000499D01*
X27328038Y-17000499D01*
X27328039Y-17000500D01*
X27328040Y-17000500D01*
X27471958Y-17000500D01*
X27471961Y-17000500D01*
X27534190Y-16982227D01*
X27536393Y-16981608D01*
X27593186Y-16966392D01*
X27593192Y-16966388D01*
X27599188Y-16963906D01*
X27599424Y-16964476D01*
X27609792Y-16960029D01*
X27610053Y-16959953D01*
X27658605Y-16928749D01*
X27662580Y-16926326D01*
X27707314Y-16900500D01*
X27708326Y-16899487D01*
X27724808Y-16886203D01*
X27731128Y-16882143D01*
X27764236Y-16843932D01*
X27769025Y-16838787D01*
X27800500Y-16807314D01*
X27804818Y-16799833D01*
X27815744Y-16784489D01*
X27825377Y-16773373D01*
X27843412Y-16733880D01*
X27847713Y-16725537D01*
X27866392Y-16693186D01*
X27870491Y-16677885D01*
X27876064Y-16662383D01*
X27877281Y-16659719D01*
X27885165Y-16642457D01*
X27890326Y-16606557D01*
X27892683Y-16595061D01*
X27900500Y-16565892D01*
X27900500Y-16542876D01*
X27901508Y-16528786D01*
X27905647Y-16500001D01*
X27905647Y-16499998D01*
X27901508Y-16471211D01*
X27900500Y-16457122D01*
X27900500Y-16091543D01*
X27919407Y-16033352D01*
X27968907Y-15997388D01*
X27980173Y-15994447D01*
X28008231Y-15988867D01*
X28074552Y-15944552D01*
X28118867Y-15878231D01*
X28130500Y-15819748D01*
X28130500Y-15080252D01*
X28118867Y-15021769D01*
X28074552Y-14955448D01*
X28074549Y-14955446D01*
X28074253Y-14955003D01*
X28057644Y-14896115D01*
X28074253Y-14844997D01*
X28074549Y-14844553D01*
X28074552Y-14844552D01*
X28118867Y-14778231D01*
X28130500Y-14719748D01*
X28130500Y-13980252D01*
X28129530Y-13975375D01*
X28620000Y-13975375D01*
X28620000Y-14099999D01*
X28620001Y-14100000D01*
X29069999Y-14100000D01*
X29070000Y-14099999D01*
X29070000Y-13750001D01*
X29069999Y-13750000D01*
X28845375Y-13750000D01*
X28772453Y-13764506D01*
X28772451Y-13764507D01*
X28689762Y-13819758D01*
X28689758Y-13819762D01*
X28634507Y-13902451D01*
X28634506Y-13902453D01*
X28620000Y-13975375D01*
X28129530Y-13975375D01*
X28118867Y-13921769D01*
X28074552Y-13855448D01*
X28027998Y-13824341D01*
X28008233Y-13811134D01*
X28008231Y-13811133D01*
X28008228Y-13811132D01*
X28008227Y-13811132D01*
X27949758Y-13799501D01*
X27949748Y-13799500D01*
X27010252Y-13799500D01*
X27010251Y-13799500D01*
X27010241Y-13799501D01*
X26951772Y-13811132D01*
X26951766Y-13811134D01*
X26932002Y-13824341D01*
X26873114Y-13840950D01*
X26815710Y-13819773D01*
X26781717Y-13768899D01*
X26778000Y-13742026D01*
X26778000Y-13710253D01*
X26777998Y-13710241D01*
X26775211Y-13696231D01*
X26766367Y-13651769D01*
X26761845Y-13645002D01*
X26745235Y-13586116D01*
X26761843Y-13535000D01*
X26813466Y-13457740D01*
X26828000Y-13384674D01*
X26828000Y-13339500D01*
X26846907Y-13281309D01*
X26896407Y-13245345D01*
X26927000Y-13240500D01*
X29152266Y-13240500D01*
X29210457Y-13259407D01*
X29222270Y-13269496D01*
X29566383Y-13613609D01*
X29594160Y-13668126D01*
X29584589Y-13728558D01*
X29570000Y-13748638D01*
X29570000Y-14099999D01*
X29570001Y-14100000D01*
X30011766Y-14100000D01*
X30069957Y-14118907D01*
X30081770Y-14128996D01*
X30967112Y-15014338D01*
X30994889Y-15068855D01*
X30985318Y-15129287D01*
X30942053Y-15172552D01*
X30881621Y-15182123D01*
X30800002Y-15169196D01*
X30799998Y-15169196D01*
X30749005Y-15177272D01*
X30707898Y-15175118D01*
X30686931Y-15169500D01*
X30686929Y-15169500D01*
X30686928Y-15169500D01*
X30069019Y-15169500D01*
X30010828Y-15150593D01*
X29974864Y-15101093D01*
X29971501Y-15085012D01*
X29971450Y-15085023D01*
X29961410Y-15034554D01*
X29958867Y-15021769D01*
X29943860Y-14999310D01*
X29927252Y-14940425D01*
X29946139Y-14889226D01*
X29944823Y-14888347D01*
X30005492Y-14797548D01*
X30005493Y-14797546D01*
X30019999Y-14724624D01*
X30020000Y-14724622D01*
X30020000Y-14600001D01*
X30019999Y-14600000D01*
X28620001Y-14600000D01*
X28620000Y-14600001D01*
X28620000Y-14724624D01*
X28634506Y-14797546D01*
X28634507Y-14797548D01*
X28695177Y-14888347D01*
X28692046Y-14890438D01*
X28711604Y-14928823D01*
X28702033Y-14989255D01*
X28696139Y-14999311D01*
X28681134Y-15021767D01*
X28681132Y-15021772D01*
X28669501Y-15080241D01*
X28669500Y-15080253D01*
X28669500Y-15819746D01*
X28669501Y-15819758D01*
X28681132Y-15878227D01*
X28681134Y-15878233D01*
X28725445Y-15944548D01*
X28725448Y-15944552D01*
X28791769Y-15988867D01*
X28834607Y-15997388D01*
X28850241Y-16000498D01*
X28850246Y-16000498D01*
X28850252Y-16000500D01*
X28866796Y-16000500D01*
X28924987Y-16019407D01*
X28960951Y-16068907D01*
X28960951Y-16130093D01*
X28924987Y-16179593D01*
X28914489Y-16186254D01*
X28630682Y-16342277D01*
X28630673Y-16342283D01*
X28630672Y-16342284D01*
X28546805Y-16403217D01*
X28371033Y-16530922D01*
X28137093Y-16750605D01*
X28137083Y-16750616D01*
X27932521Y-16997890D01*
X27760568Y-17268844D01*
X27760561Y-17268857D01*
X27623918Y-17559235D01*
X27588945Y-17666872D01*
X27527737Y-17855253D01*
X27524745Y-17864460D01*
X27524742Y-17864470D01*
X27464608Y-18179700D01*
X27444457Y-18500000D01*
X27464608Y-18820299D01*
X27524742Y-19135529D01*
X27524744Y-19135538D01*
X27598007Y-19361017D01*
X27623918Y-19440764D01*
X27760561Y-19731142D01*
X27760568Y-19731155D01*
X27932521Y-20002109D01*
X28137083Y-20249383D01*
X28137093Y-20249394D01*
X28196577Y-20305253D01*
X28371036Y-20469080D01*
X28630672Y-20657716D01*
X28630679Y-20657719D01*
X28630682Y-20657722D01*
X28911901Y-20812323D01*
X28911904Y-20812325D01*
X29061098Y-20871395D01*
X29210294Y-20930466D01*
X29521139Y-21010277D01*
X29839536Y-21050500D01*
X30160464Y-21050500D01*
X30478861Y-21010277D01*
X30789706Y-20930466D01*
X31036688Y-20832678D01*
X31088095Y-20812325D01*
X31088097Y-20812324D01*
X31369328Y-20657716D01*
X31628964Y-20469080D01*
X31862911Y-20249390D01*
X32067478Y-20002110D01*
X32239439Y-19731142D01*
X32376084Y-19440758D01*
X32475256Y-19135538D01*
X32476312Y-19130001D01*
X40250000Y-19130001D01*
X40250000Y-19354624D01*
X40264506Y-19427546D01*
X40264507Y-19427548D01*
X40319758Y-19510237D01*
X40319762Y-19510241D01*
X40402451Y-19565492D01*
X40402453Y-19565493D01*
X40475375Y-19579999D01*
X40475377Y-19580000D01*
X40599999Y-19580000D01*
X40600000Y-19579999D01*
X40600000Y-19130001D01*
X40599999Y-19130000D01*
X40250001Y-19130000D01*
X40250000Y-19130001D01*
X32476312Y-19130001D01*
X32535392Y-18820294D01*
X32555543Y-18500000D01*
X32549590Y-18405375D01*
X40250000Y-18405375D01*
X40250000Y-18629999D01*
X40250001Y-18630000D01*
X40599999Y-18630000D01*
X40600000Y-18629999D01*
X40600000Y-18180001D01*
X40599999Y-18180000D01*
X40475375Y-18180000D01*
X40402453Y-18194506D01*
X40402451Y-18194507D01*
X40319762Y-18249758D01*
X40319758Y-18249762D01*
X40264507Y-18332451D01*
X40264506Y-18332453D01*
X40250000Y-18405375D01*
X32549590Y-18405375D01*
X32535392Y-18179706D01*
X32529444Y-18148528D01*
X32522333Y-18111249D01*
X32475256Y-17864462D01*
X32376084Y-17559242D01*
X32373185Y-17553082D01*
X32296577Y-17390282D01*
X32239439Y-17268858D01*
X32239435Y-17268853D01*
X32239431Y-17268844D01*
X32067478Y-16997890D01*
X31862916Y-16750616D01*
X31862906Y-16750605D01*
X31669670Y-16569145D01*
X31628964Y-16530920D01*
X31369328Y-16342284D01*
X31369322Y-16342280D01*
X31369317Y-16342277D01*
X31088098Y-16187676D01*
X31088095Y-16187674D01*
X31008215Y-16156048D01*
X30961071Y-16117047D01*
X30945854Y-16057784D01*
X30968378Y-16000895D01*
X30999711Y-15975791D01*
X31053220Y-15948528D01*
X31148528Y-15853220D01*
X31209719Y-15733126D01*
X31230804Y-15600000D01*
X31217876Y-15518376D01*
X31227447Y-15457945D01*
X31270712Y-15414680D01*
X31331144Y-15405109D01*
X31385660Y-15432886D01*
X32637240Y-16684466D01*
X32712604Y-16727977D01*
X32712606Y-16727977D01*
X32712607Y-16727978D01*
X32736223Y-16734306D01*
X32796658Y-16750500D01*
X32796660Y-16750501D01*
X32796661Y-16750501D01*
X32889746Y-16750501D01*
X32889762Y-16750500D01*
X44542094Y-16750500D01*
X44600285Y-16769407D01*
X44612098Y-16779496D01*
X45140504Y-17307902D01*
X45168281Y-17362419D01*
X45169500Y-17377906D01*
X45169500Y-17545032D01*
X45150593Y-17603223D01*
X45108387Y-17636495D01*
X45102263Y-17639031D01*
X45019400Y-17694397D01*
X45019397Y-17694400D01*
X44964035Y-17777257D01*
X44964033Y-17777263D01*
X44949501Y-17850315D01*
X44949500Y-17850327D01*
X44949500Y-18066960D01*
X44930593Y-18125151D01*
X44881093Y-18161115D01*
X44835014Y-18164741D01*
X44800002Y-18159196D01*
X44800000Y-18159196D01*
X44666872Y-18180281D01*
X44666870Y-18180282D01*
X44568945Y-18230178D01*
X44508513Y-18239750D01*
X44453997Y-18211973D01*
X44426219Y-18157456D01*
X44425000Y-18141969D01*
X44425000Y-17770377D01*
X44424999Y-17770375D01*
X44410493Y-17697453D01*
X44410492Y-17697451D01*
X44355241Y-17614762D01*
X44355237Y-17614758D01*
X44272548Y-17559507D01*
X44272546Y-17559506D01*
X44199624Y-17545000D01*
X43750001Y-17545000D01*
X43750000Y-17545001D01*
X43750000Y-18401000D01*
X43731093Y-18459191D01*
X43681593Y-18495155D01*
X43651000Y-18500000D01*
X43349000Y-18500000D01*
X43290809Y-18481093D01*
X43254845Y-18431593D01*
X43250000Y-18401000D01*
X43250000Y-17545001D01*
X43249999Y-17545000D01*
X42800375Y-17545000D01*
X42727453Y-17559506D01*
X42727452Y-17559506D01*
X42691441Y-17583568D01*
X42632552Y-17600176D01*
X42575149Y-17578998D01*
X42553591Y-17552729D01*
X42553106Y-17553082D01*
X42548529Y-17546782D01*
X42548528Y-17546780D01*
X42453220Y-17451472D01*
X42453217Y-17451470D01*
X42333129Y-17390282D01*
X42333127Y-17390281D01*
X42200000Y-17369196D01*
X42066872Y-17390281D01*
X42066870Y-17390282D01*
X41946782Y-17451470D01*
X41851470Y-17546782D01*
X41790282Y-17666870D01*
X41790281Y-17666872D01*
X41767977Y-17807695D01*
X41764629Y-17807164D01*
X41750289Y-17851300D01*
X41740201Y-17863111D01*
X41725546Y-17877766D01*
X41688616Y-17941730D01*
X41688616Y-17941731D01*
X41669500Y-18013072D01*
X41669500Y-18013074D01*
X41669500Y-18130981D01*
X41650593Y-18189172D01*
X41601093Y-18225136D01*
X41585012Y-18228498D01*
X41585023Y-18228550D01*
X41521772Y-18241132D01*
X41521767Y-18241134D01*
X41499311Y-18256139D01*
X41440423Y-18272747D01*
X41389227Y-18253859D01*
X41388347Y-18255177D01*
X41297548Y-18194507D01*
X41297546Y-18194506D01*
X41224624Y-18180000D01*
X41100001Y-18180000D01*
X41100000Y-18180001D01*
X41100000Y-19579999D01*
X41100001Y-19580000D01*
X41224623Y-19580000D01*
X41224624Y-19579999D01*
X41297546Y-19565493D01*
X41297548Y-19565492D01*
X41388347Y-19504823D01*
X41390441Y-19507958D01*
X41428772Y-19488403D01*
X41489209Y-19497943D01*
X41499299Y-19503852D01*
X41521769Y-19518867D01*
X41566231Y-19527711D01*
X41580241Y-19530498D01*
X41580246Y-19530498D01*
X41580252Y-19530500D01*
X41580253Y-19530500D01*
X42319747Y-19530500D01*
X42319748Y-19530500D01*
X42378231Y-19518867D01*
X42444552Y-19474552D01*
X42488867Y-19408231D01*
X42488867Y-19408227D01*
X42493497Y-19401299D01*
X42541547Y-19363419D01*
X42602685Y-19361017D01*
X42636123Y-19380614D01*
X42636653Y-19379823D01*
X42735563Y-19445913D01*
X42733766Y-19448600D01*
X42767806Y-19477662D01*
X42782100Y-19537154D01*
X42758696Y-19593687D01*
X42738407Y-19611719D01*
X42680452Y-19650444D01*
X42680445Y-19650451D01*
X42636134Y-19716766D01*
X42636132Y-19716772D01*
X42624501Y-19775241D01*
X42624500Y-19775253D01*
X42624500Y-20068400D01*
X42605593Y-20126591D01*
X42556093Y-20162555D01*
X42494907Y-20162555D01*
X42452236Y-20131552D01*
X42451446Y-20132343D01*
X42446456Y-20127353D01*
X42445407Y-20126591D01*
X42444747Y-20125644D01*
X42444554Y-20125451D01*
X42444552Y-20125448D01*
X42444548Y-20125445D01*
X42378233Y-20081134D01*
X42378231Y-20081133D01*
X42378228Y-20081132D01*
X42378227Y-20081132D01*
X42319758Y-20069501D01*
X42319748Y-20069500D01*
X41580252Y-20069500D01*
X41580251Y-20069500D01*
X41580241Y-20069501D01*
X41521772Y-20081132D01*
X41521766Y-20081134D01*
X41455002Y-20125746D01*
X41396114Y-20142355D01*
X41344998Y-20125746D01*
X41278233Y-20081134D01*
X41278231Y-20081133D01*
X41278228Y-20081132D01*
X41278227Y-20081132D01*
X41219758Y-20069501D01*
X41219748Y-20069500D01*
X40480252Y-20069500D01*
X40480251Y-20069500D01*
X40480241Y-20069501D01*
X40421772Y-20081132D01*
X40421766Y-20081134D01*
X40355451Y-20125445D01*
X40355445Y-20125451D01*
X40311134Y-20191766D01*
X40311132Y-20191772D01*
X40299501Y-20250241D01*
X40299500Y-20250253D01*
X40299500Y-21189746D01*
X40299501Y-21189758D01*
X40311133Y-21248232D01*
X40312407Y-21251308D01*
X40312840Y-21256813D01*
X40313035Y-21257793D01*
X40312919Y-21257816D01*
X40317206Y-21312305D01*
X40304607Y-21339633D01*
X40305009Y-21339838D01*
X40240281Y-21466874D01*
X40219196Y-21599999D01*
X40219196Y-21600000D01*
X40240281Y-21733127D01*
X40255188Y-21762383D01*
X40301472Y-21853220D01*
X40301473Y-21853221D01*
X40302662Y-21855554D01*
X40312234Y-21915986D01*
X40284457Y-21970503D01*
X40229941Y-21998281D01*
X40214453Y-21999500D01*
X7399000Y-21999500D01*
X7340809Y-21980593D01*
X7304845Y-21931093D01*
X7300000Y-21900500D01*
X7300000Y-20787105D01*
X7318907Y-20728914D01*
X7368407Y-20692950D01*
X7429593Y-20692950D01*
X7454002Y-20704790D01*
X7499952Y-20735493D01*
X7572875Y-20749999D01*
X7572877Y-20750000D01*
X7797499Y-20750000D01*
X7797500Y-20749999D01*
X7797500Y-18750001D01*
X7797499Y-18750000D01*
X7572875Y-18750000D01*
X7499953Y-18764506D01*
X7499952Y-18764506D01*
X7454001Y-18795210D01*
X7395113Y-18811818D01*
X7337709Y-18790640D01*
X7303717Y-18739766D01*
X7300000Y-18712894D01*
X7300000Y-12750001D01*
X13667500Y-12750001D01*
X13667500Y-12974624D01*
X13682006Y-13047546D01*
X13682007Y-13047548D01*
X13742677Y-13138347D01*
X13741628Y-13139047D01*
X13764794Y-13184513D01*
X13755223Y-13244945D01*
X13738013Y-13268632D01*
X13682007Y-13352451D01*
X13682006Y-13352453D01*
X13667500Y-13425375D01*
X13667500Y-13649999D01*
X13667501Y-13650000D01*
X14117499Y-13650000D01*
X14117500Y-13649999D01*
X14117500Y-12750001D01*
X14617500Y-12750001D01*
X14617500Y-13649999D01*
X14617501Y-13650000D01*
X15517499Y-13650000D01*
X15517500Y-13649999D01*
X15517500Y-12750001D01*
X16017500Y-12750001D01*
X16017500Y-13649999D01*
X16017501Y-13650000D01*
X16917499Y-13650000D01*
X16917500Y-13649999D01*
X16917500Y-12750001D01*
X17417500Y-12750001D01*
X17417500Y-13649999D01*
X17417501Y-13650000D01*
X17867499Y-13650000D01*
X17867500Y-13649999D01*
X17867500Y-13425377D01*
X17867499Y-13425375D01*
X17852993Y-13352453D01*
X17852992Y-13352451D01*
X17792323Y-13261653D01*
X17793371Y-13260952D01*
X17770206Y-13215487D01*
X17779777Y-13155055D01*
X17796986Y-13131367D01*
X17852992Y-13047548D01*
X17852993Y-13047546D01*
X17867499Y-12974624D01*
X17867500Y-12974622D01*
X17867500Y-12750001D01*
X17867499Y-12750000D01*
X17417501Y-12750000D01*
X17417500Y-12750001D01*
X16917500Y-12750001D01*
X16917499Y-12750000D01*
X16017501Y-12750000D01*
X16017500Y-12750001D01*
X15517500Y-12750001D01*
X15517499Y-12750000D01*
X14617501Y-12750000D01*
X14617500Y-12750001D01*
X14117500Y-12750001D01*
X14117499Y-12750000D01*
X13667501Y-12750000D01*
X13667500Y-12750001D01*
X7300000Y-12750001D01*
X7300000Y-11350001D01*
X13667500Y-11350001D01*
X13667500Y-11574624D01*
X13682006Y-11647546D01*
X13682007Y-11647548D01*
X13742677Y-11738347D01*
X13741628Y-11739047D01*
X13764794Y-11784513D01*
X13755223Y-11844945D01*
X13738013Y-11868632D01*
X13682007Y-11952451D01*
X13682006Y-11952453D01*
X13667500Y-12025375D01*
X13667500Y-12249999D01*
X13667501Y-12250000D01*
X14117499Y-12250000D01*
X14117500Y-12249999D01*
X14117500Y-11350001D01*
X14617500Y-11350001D01*
X14617500Y-12249999D01*
X14617501Y-12250000D01*
X15517499Y-12250000D01*
X15517500Y-12249999D01*
X15517500Y-11350001D01*
X16017500Y-11350001D01*
X16017500Y-12249999D01*
X16017501Y-12250000D01*
X16917499Y-12250000D01*
X16917500Y-12249999D01*
X16917500Y-11350001D01*
X17417500Y-11350001D01*
X17417500Y-12249999D01*
X17417501Y-12250000D01*
X17867499Y-12250000D01*
X17867500Y-12249999D01*
X17867500Y-12025377D01*
X17867499Y-12025375D01*
X17852993Y-11952453D01*
X17852992Y-11952451D01*
X17792323Y-11861653D01*
X17793371Y-11860952D01*
X17770206Y-11815487D01*
X17779777Y-11755055D01*
X17796986Y-11731367D01*
X17852992Y-11647548D01*
X17852993Y-11647546D01*
X17867499Y-11574624D01*
X17867500Y-11574622D01*
X17867500Y-11350001D01*
X17867499Y-11350000D01*
X17417501Y-11350000D01*
X17417500Y-11350001D01*
X16917500Y-11350001D01*
X16917499Y-11350000D01*
X16017501Y-11350000D01*
X16017500Y-11350001D01*
X15517500Y-11350001D01*
X15517499Y-11350000D01*
X14617501Y-11350000D01*
X14617500Y-11350001D01*
X14117500Y-11350001D01*
X14117499Y-11350000D01*
X13667501Y-11350000D01*
X13667500Y-11350001D01*
X7300000Y-11350001D01*
X7300000Y-10625375D01*
X13667500Y-10625375D01*
X13667500Y-10849999D01*
X13667501Y-10850000D01*
X14117499Y-10850000D01*
X14117500Y-10849999D01*
X14117500Y-10400001D01*
X14617500Y-10400001D01*
X14617500Y-10849999D01*
X14617501Y-10850000D01*
X15517499Y-10850000D01*
X15517500Y-10849999D01*
X15517500Y-10400001D01*
X16017500Y-10400001D01*
X16017500Y-10849999D01*
X16017501Y-10850000D01*
X16917499Y-10850000D01*
X16917500Y-10849999D01*
X16917500Y-10400001D01*
X17417500Y-10400001D01*
X17417500Y-10849999D01*
X17417501Y-10850000D01*
X17867499Y-10850000D01*
X17867500Y-10849999D01*
X17867500Y-10625377D01*
X17867499Y-10625375D01*
X17852993Y-10552453D01*
X17852992Y-10552451D01*
X17797741Y-10469762D01*
X17797737Y-10469758D01*
X17715048Y-10414507D01*
X17715046Y-10414506D01*
X17642124Y-10400000D01*
X17417501Y-10400000D01*
X17417500Y-10400001D01*
X16917500Y-10400001D01*
X16917499Y-10400000D01*
X16692875Y-10400000D01*
X16619953Y-10414506D01*
X16619951Y-10414507D01*
X16529153Y-10475177D01*
X16528452Y-10474128D01*
X16482987Y-10497294D01*
X16422555Y-10487723D01*
X16398867Y-10470513D01*
X16315048Y-10414507D01*
X16315046Y-10414506D01*
X16242124Y-10400000D01*
X16017501Y-10400000D01*
X16017500Y-10400001D01*
X15517500Y-10400001D01*
X15517499Y-10400000D01*
X15292875Y-10400000D01*
X15219953Y-10414506D01*
X15219951Y-10414507D01*
X15129153Y-10475177D01*
X15128452Y-10474128D01*
X15082987Y-10497294D01*
X15022555Y-10487723D01*
X14998867Y-10470513D01*
X14915048Y-10414507D01*
X14915046Y-10414506D01*
X14842124Y-10400000D01*
X14617501Y-10400000D01*
X14617500Y-10400001D01*
X14117500Y-10400001D01*
X14117499Y-10400000D01*
X13892875Y-10400000D01*
X13819953Y-10414506D01*
X13819951Y-10414507D01*
X13737262Y-10469758D01*
X13737258Y-10469762D01*
X13682007Y-10552451D01*
X13682006Y-10552453D01*
X13667500Y-10625375D01*
X7300000Y-10625375D01*
X7300000Y-3287105D01*
X7318907Y-3228914D01*
X7368407Y-3192950D01*
X7429593Y-3192950D01*
X7454002Y-3204790D01*
X7499952Y-3235493D01*
X7572875Y-3249999D01*
X7572877Y-3250000D01*
X7797499Y-3250000D01*
X7797500Y-3249999D01*
X7797500Y-1250001D01*
X7797499Y-1250000D01*
X7572875Y-1250000D01*
X7499953Y-1264506D01*
X7499952Y-1264506D01*
X7454001Y-1295210D01*
X7395113Y-1311818D01*
X7337709Y-1290640D01*
X7303717Y-1239766D01*
X7300000Y-1212894D01*
X7300000Y-599499D01*
X7318907Y-541308D01*
X7368407Y-505344D01*
X7399000Y-500499D01*
X27330915Y-500499D01*
X27389106Y-519406D01*
G37*
G04 #@! TD.AperFunction*
G04 #@! TA.AperFunction,Conductor*
G36*
X14966936Y-15919407D02*
G01*
X15002900Y-15968907D01*
X15002900Y-16030093D01*
X14978750Y-16069501D01*
X14963252Y-16085000D01*
X14951470Y-16096782D01*
X14890282Y-16216870D01*
X14890281Y-16216872D01*
X14869196Y-16349999D01*
X14869196Y-16350000D01*
X14890281Y-16483127D01*
X14890282Y-16483129D01*
X14951470Y-16603217D01*
X14951472Y-16603220D01*
X15046780Y-16698528D01*
X15062943Y-16706763D01*
X15106209Y-16750027D01*
X15117000Y-16794974D01*
X15117000Y-18753719D01*
X15098093Y-18811910D01*
X15048593Y-18847874D01*
X14987407Y-18847874D01*
X14962998Y-18836034D01*
X14925733Y-18811134D01*
X14925731Y-18811133D01*
X14925728Y-18811132D01*
X14925727Y-18811132D01*
X14867258Y-18799501D01*
X14867248Y-18799500D01*
X14867247Y-18799500D01*
X14507000Y-18799500D01*
X14448809Y-18780593D01*
X14412845Y-18731093D01*
X14408000Y-18700500D01*
X14408000Y-18640569D01*
X14407403Y-18638343D01*
X14407398Y-18638324D01*
X14394449Y-18590000D01*
X14388884Y-18569231D01*
X14351956Y-18505269D01*
X14305878Y-18459191D01*
X14259800Y-18413112D01*
X14232023Y-18358596D01*
X14231882Y-18356806D01*
X14228025Y-18332453D01*
X14209719Y-18216874D01*
X14148528Y-18096780D01*
X14053220Y-18001472D01*
X14053217Y-18001470D01*
X13933129Y-17940282D01*
X13933127Y-17940281D01*
X13800000Y-17919196D01*
X13666872Y-17940281D01*
X13666870Y-17940282D01*
X13546782Y-18001470D01*
X13451470Y-18096782D01*
X13390282Y-18216870D01*
X13390281Y-18216872D01*
X13369196Y-18349999D01*
X13369196Y-18350000D01*
X13390281Y-18483126D01*
X13390281Y-18483127D01*
X13441958Y-18584548D01*
X13451472Y-18603220D01*
X13478750Y-18630498D01*
X13506526Y-18685013D01*
X13496955Y-18745445D01*
X13453690Y-18788710D01*
X13408745Y-18799500D01*
X12657752Y-18799500D01*
X12657751Y-18799500D01*
X12657741Y-18799501D01*
X12599272Y-18811132D01*
X12599266Y-18811134D01*
X12547502Y-18845723D01*
X12488614Y-18862332D01*
X12437498Y-18845723D01*
X12385733Y-18811134D01*
X12385731Y-18811133D01*
X12385728Y-18811132D01*
X12385727Y-18811132D01*
X12327258Y-18799501D01*
X12327248Y-18799500D01*
X11387752Y-18799500D01*
X11387751Y-18799500D01*
X11387741Y-18799501D01*
X11329272Y-18811132D01*
X11329266Y-18811134D01*
X11277502Y-18845723D01*
X11218614Y-18862332D01*
X11167498Y-18845723D01*
X11115733Y-18811134D01*
X11115731Y-18811133D01*
X11115728Y-18811132D01*
X11115727Y-18811132D01*
X11057258Y-18799501D01*
X11057248Y-18799500D01*
X11057247Y-18799500D01*
X10967000Y-18799500D01*
X10908809Y-18780593D01*
X10872845Y-18731093D01*
X10868000Y-18700500D01*
X10868000Y-18550572D01*
X10867730Y-18549566D01*
X10867720Y-18549529D01*
X10859334Y-18518231D01*
X10848884Y-18479231D01*
X10848882Y-18479228D01*
X10848882Y-18479226D01*
X10842378Y-18467961D01*
X10829656Y-18408113D01*
X10830333Y-18402971D01*
X10830804Y-18400000D01*
X10809719Y-18266874D01*
X10748528Y-18146780D01*
X10653220Y-18051472D01*
X10653217Y-18051470D01*
X10533129Y-17990282D01*
X10533127Y-17990281D01*
X10400000Y-17969196D01*
X10266872Y-17990281D01*
X10266870Y-17990282D01*
X10146782Y-18051470D01*
X10146780Y-18051471D01*
X10146780Y-18051472D01*
X10087001Y-18111250D01*
X10032487Y-18139026D01*
X9972055Y-18129455D01*
X9928790Y-18086190D01*
X9918000Y-18041245D01*
X9918000Y-17813665D01*
X9936907Y-17755474D01*
X9946996Y-17743661D01*
X11761161Y-15929496D01*
X11815678Y-15901719D01*
X11831165Y-15900500D01*
X14908745Y-15900500D01*
X14966936Y-15919407D01*
G37*
G04 #@! TD.AperFunction*
G04 #@! TA.AperFunction,Conductor*
G36*
X24792295Y-10256365D02*
G01*
X24824264Y-10308534D01*
X24827000Y-10331646D01*
X24827000Y-10844672D01*
X24827001Y-10844684D01*
X24841533Y-10917736D01*
X24841535Y-10917742D01*
X24859748Y-10945001D01*
X24876355Y-11003890D01*
X24859748Y-11054999D01*
X24841535Y-11082257D01*
X24841533Y-11082263D01*
X24827001Y-11155315D01*
X24827000Y-11155327D01*
X24827000Y-12104672D01*
X24827001Y-12104684D01*
X24841533Y-12177736D01*
X24841535Y-12177742D01*
X24866429Y-12214999D01*
X24883037Y-12273888D01*
X24866429Y-12325001D01*
X24841535Y-12362257D01*
X24841533Y-12362263D01*
X24827001Y-12435315D01*
X24827000Y-12435327D01*
X24827000Y-13384672D01*
X24827001Y-13384684D01*
X24841533Y-13457736D01*
X24841536Y-13457745D01*
X24893155Y-13535000D01*
X24909763Y-13593888D01*
X24893156Y-13645000D01*
X24888634Y-13651767D01*
X24888632Y-13651772D01*
X24877001Y-13710241D01*
X24877000Y-13710253D01*
X24877000Y-14649746D01*
X24877001Y-14649758D01*
X24888632Y-14708227D01*
X24888634Y-14708233D01*
X24923223Y-14759998D01*
X24939832Y-14818886D01*
X24923223Y-14870002D01*
X24888634Y-14921766D01*
X24888632Y-14921772D01*
X24877001Y-14980241D01*
X24877000Y-14980253D01*
X24877000Y-15919746D01*
X24877001Y-15919758D01*
X24888632Y-15978227D01*
X24888634Y-15978233D01*
X24923223Y-16029998D01*
X24939832Y-16088886D01*
X24923223Y-16140002D01*
X24888634Y-16191766D01*
X24888632Y-16191772D01*
X24877001Y-16250241D01*
X24877000Y-16250253D01*
X24877000Y-17189746D01*
X24877001Y-17189758D01*
X24888632Y-17248227D01*
X24888634Y-17248233D01*
X24923223Y-17299998D01*
X24939832Y-17358886D01*
X24923223Y-17410002D01*
X24888634Y-17461766D01*
X24888632Y-17461772D01*
X24877001Y-17520241D01*
X24877000Y-17520253D01*
X24877000Y-18138383D01*
X24858093Y-18196574D01*
X24808593Y-18232538D01*
X24747407Y-18232538D01*
X24707996Y-18208387D01*
X23973778Y-17474169D01*
X23955572Y-17449110D01*
X23935646Y-17410003D01*
X23908528Y-17356780D01*
X23813220Y-17261472D01*
X23813217Y-17261470D01*
X23693129Y-17200282D01*
X23693127Y-17200281D01*
X23560000Y-17179196D01*
X23426872Y-17200281D01*
X23426870Y-17200282D01*
X23306782Y-17261470D01*
X23211470Y-17356782D01*
X23150282Y-17476870D01*
X23150281Y-17476872D01*
X23129196Y-17609999D01*
X23129196Y-17610000D01*
X23150281Y-17743127D01*
X23150282Y-17743129D01*
X23211416Y-17863111D01*
X23211472Y-17863220D01*
X23306780Y-17958528D01*
X23399308Y-18005673D01*
X23442572Y-18048937D01*
X23452143Y-18109369D01*
X23424366Y-18163885D01*
X23331473Y-18256778D01*
X23331470Y-18256782D01*
X23270282Y-18376870D01*
X23270281Y-18376872D01*
X23253129Y-18485160D01*
X23225352Y-18539675D01*
X23102989Y-18662039D01*
X23047041Y-18717987D01*
X23028558Y-18750001D01*
X22983088Y-18790941D01*
X22942822Y-18799500D01*
X22817752Y-18799500D01*
X22817751Y-18799500D01*
X22817741Y-18799501D01*
X22759272Y-18811132D01*
X22759266Y-18811134D01*
X22707502Y-18845723D01*
X22648614Y-18862332D01*
X22597498Y-18845723D01*
X22545733Y-18811134D01*
X22545731Y-18811133D01*
X22545728Y-18811132D01*
X22545727Y-18811132D01*
X22487258Y-18799501D01*
X22487248Y-18799500D01*
X21547752Y-18799500D01*
X21547751Y-18799500D01*
X21547741Y-18799501D01*
X21489272Y-18811132D01*
X21489266Y-18811134D01*
X21437502Y-18845723D01*
X21378614Y-18862332D01*
X21327498Y-18845723D01*
X21275733Y-18811134D01*
X21275731Y-18811133D01*
X21275728Y-18811132D01*
X21275727Y-18811132D01*
X21217258Y-18799501D01*
X21217248Y-18799500D01*
X21217247Y-18799500D01*
X20857000Y-18799500D01*
X20798809Y-18780593D01*
X20762845Y-18731093D01*
X20758000Y-18700500D01*
X20758000Y-16490569D01*
X20757403Y-16488343D01*
X20757397Y-16488323D01*
X20752812Y-16471211D01*
X20738884Y-16419231D01*
X20721050Y-16388342D01*
X20701956Y-16355269D01*
X20687187Y-16340500D01*
X20659800Y-16313112D01*
X20632023Y-16258595D01*
X20631882Y-16256807D01*
X20625557Y-16216872D01*
X20609719Y-16116874D01*
X20548528Y-15996780D01*
X20453220Y-15901472D01*
X20453217Y-15901470D01*
X20333129Y-15840282D01*
X20333127Y-15840281D01*
X20200000Y-15819196D01*
X20066872Y-15840281D01*
X20066870Y-15840282D01*
X19946782Y-15901470D01*
X19851470Y-15996782D01*
X19790282Y-16116870D01*
X19790281Y-16116872D01*
X19769196Y-16249999D01*
X19769196Y-16250000D01*
X19790281Y-16383127D01*
X19790282Y-16383129D01*
X19850681Y-16501668D01*
X19851472Y-16503220D01*
X19946780Y-16598528D01*
X19946782Y-16598529D01*
X20066867Y-16659716D01*
X20066871Y-16659717D01*
X20066874Y-16659719D01*
X20113486Y-16667101D01*
X20168003Y-16694878D01*
X20195781Y-16749394D01*
X20197000Y-16764882D01*
X20197000Y-18753719D01*
X20178093Y-18811910D01*
X20128593Y-18847874D01*
X20067407Y-18847874D01*
X20042998Y-18836034D01*
X20005733Y-18811134D01*
X20005731Y-18811133D01*
X20005728Y-18811132D01*
X20005727Y-18811132D01*
X19947258Y-18799501D01*
X19947248Y-18799500D01*
X19947247Y-18799500D01*
X19587000Y-18799500D01*
X19528809Y-18780593D01*
X19492845Y-18731093D01*
X19488000Y-18700500D01*
X19488000Y-18570571D01*
X19483674Y-18554429D01*
X19483673Y-18554427D01*
X19468884Y-18499231D01*
X19459586Y-18483126D01*
X19444066Y-18456245D01*
X19430804Y-18406747D01*
X19430804Y-18399999D01*
X19426129Y-18370483D01*
X19409719Y-18266874D01*
X19348528Y-18146780D01*
X19253220Y-18051472D01*
X19253217Y-18051470D01*
X19133129Y-17990282D01*
X19133127Y-17990281D01*
X19000000Y-17969196D01*
X18866872Y-17990281D01*
X18866870Y-17990282D01*
X18746782Y-18051470D01*
X18651470Y-18146782D01*
X18590282Y-18266870D01*
X18590281Y-18266872D01*
X18569196Y-18399999D01*
X18569196Y-18400000D01*
X18590281Y-18533127D01*
X18615187Y-18582008D01*
X18651472Y-18653220D01*
X18651473Y-18653221D01*
X18652662Y-18655554D01*
X18662234Y-18715986D01*
X18634457Y-18770503D01*
X18579941Y-18798281D01*
X18564453Y-18799500D01*
X18317000Y-18799500D01*
X18258809Y-18780593D01*
X18222845Y-18731093D01*
X18218000Y-18700500D01*
X18218000Y-16388772D01*
X18228790Y-16343827D01*
X18230485Y-16340500D01*
X18259719Y-16283126D01*
X18280804Y-16150000D01*
X18279220Y-16140002D01*
X18260120Y-16019407D01*
X18259719Y-16016874D01*
X18259718Y-16016873D01*
X18259420Y-16014987D01*
X18268991Y-15954555D01*
X18312256Y-15911290D01*
X18357201Y-15900500D01*
X18868993Y-15900500D01*
X18868994Y-15900500D01*
X19004328Y-15873580D01*
X19131811Y-15820775D01*
X19246543Y-15744114D01*
X24544114Y-10446543D01*
X24620775Y-10331811D01*
X24636536Y-10293761D01*
X24676272Y-10247235D01*
X24735767Y-10232951D01*
X24792295Y-10256365D01*
G37*
G04 #@! TD.AperFunction*
G04 #@! TA.AperFunction,Conductor*
G36*
X32908691Y-11099407D02*
G01*
X32944655Y-11148907D01*
X32949500Y-11179500D01*
X32949500Y-11519746D01*
X32949501Y-11519758D01*
X32961132Y-11578227D01*
X32961134Y-11578233D01*
X32974691Y-11598522D01*
X32991300Y-11657411D01*
X32970122Y-11714814D01*
X32961635Y-11722846D01*
X32962343Y-11723554D01*
X32955445Y-11730451D01*
X32911134Y-11796766D01*
X32911132Y-11796772D01*
X32906548Y-11819816D01*
X32876650Y-11873200D01*
X32821085Y-11898814D01*
X32809451Y-11899500D01*
X32528035Y-11899500D01*
X32465845Y-11917761D01*
X32463579Y-11918397D01*
X32406815Y-11933607D01*
X32400818Y-11936091D01*
X32400589Y-11935539D01*
X32390245Y-11939958D01*
X32389954Y-11940043D01*
X32389944Y-11940048D01*
X32341410Y-11971238D01*
X32337391Y-11973688D01*
X32292684Y-11999500D01*
X32292682Y-11999502D01*
X32291658Y-12000527D01*
X32275200Y-12013789D01*
X32268872Y-12017856D01*
X32268871Y-12017857D01*
X32235768Y-12056059D01*
X32230956Y-12061227D01*
X32199500Y-12092685D01*
X32199499Y-12092686D01*
X32195172Y-12100180D01*
X32184266Y-12115496D01*
X32174622Y-12126627D01*
X32174621Y-12126628D01*
X32156591Y-12166107D01*
X32152277Y-12174475D01*
X32133608Y-12206813D01*
X32133607Y-12206813D01*
X32129507Y-12222117D01*
X32123938Y-12237608D01*
X32118280Y-12249999D01*
X32114835Y-12257543D01*
X32109674Y-12293430D01*
X32107310Y-12304953D01*
X32099500Y-12334104D01*
X32099500Y-12357122D01*
X32098492Y-12371211D01*
X32094353Y-12399998D01*
X32094353Y-12400001D01*
X32098492Y-12428786D01*
X32099500Y-12442876D01*
X32099500Y-12465893D01*
X32107310Y-12495042D01*
X32109675Y-12506572D01*
X32114835Y-12542457D01*
X32123937Y-12562388D01*
X32129506Y-12577881D01*
X32129941Y-12579500D01*
X32133608Y-12593186D01*
X32152277Y-12625523D01*
X32156592Y-12633893D01*
X32174622Y-12673373D01*
X32184259Y-12684494D01*
X32195172Y-12699820D01*
X32199497Y-12707310D01*
X32199498Y-12707311D01*
X32199500Y-12707314D01*
X32223189Y-12731003D01*
X32230961Y-12738775D01*
X32235764Y-12743934D01*
X32268872Y-12782143D01*
X32275186Y-12786201D01*
X32291662Y-12799476D01*
X32292686Y-12800500D01*
X32333256Y-12823923D01*
X32337392Y-12826311D01*
X32341414Y-12828763D01*
X32389947Y-12859953D01*
X32390046Y-12859982D01*
X32390215Y-12860032D01*
X32400584Y-12864474D01*
X32400819Y-12863909D01*
X32406809Y-12866389D01*
X32406814Y-12866392D01*
X32463579Y-12881601D01*
X32465813Y-12882228D01*
X32476814Y-12885458D01*
X32528033Y-12900499D01*
X32528038Y-12900499D01*
X32528039Y-12900500D01*
X32534108Y-12900500D01*
X32800500Y-12900500D01*
X32858691Y-12919407D01*
X32894655Y-12968907D01*
X32899500Y-12999500D01*
X32899500Y-13144746D01*
X32899501Y-13144758D01*
X32911132Y-13203227D01*
X32911134Y-13203233D01*
X32955445Y-13269548D01*
X32955448Y-13269552D01*
X33021769Y-13313867D01*
X33058298Y-13321133D01*
X33080241Y-13325498D01*
X33080246Y-13325498D01*
X33080252Y-13325500D01*
X33476678Y-13325500D01*
X33534869Y-13344407D01*
X33546682Y-13354496D01*
X34305504Y-14113318D01*
X34333281Y-14167835D01*
X34334500Y-14183322D01*
X34334500Y-14810500D01*
X34315593Y-14868691D01*
X34266093Y-14904655D01*
X34235500Y-14909500D01*
X33506850Y-14909500D01*
X33448659Y-14890593D01*
X33436846Y-14880504D01*
X30119989Y-11563647D01*
X30092212Y-11509130D01*
X30101782Y-11448702D01*
X30109719Y-11433126D01*
X30130804Y-11300000D01*
X30127716Y-11280500D01*
X30114172Y-11194987D01*
X30123743Y-11134555D01*
X30167008Y-11091290D01*
X30211953Y-11080500D01*
X32850500Y-11080500D01*
X32908691Y-11099407D01*
G37*
G04 #@! TD.AperFunction*
G04 #@! TD*
M02*
