M48
; DRILL file {KiCad 8.0.8-8.0.8-0~ubuntu22.04.1} date 2025-01-23T17:55:28+0100
; FORMAT={-:-/ absolute / metric / decimal}
; #@! TF.CreationDate,2025-01-23T17:55:28+01:00
; #@! TF.GenerationSoftware,Kicad,Pcbnew,8.0.8-8.0.8-0~ubuntu22.04.1
; #@! TF.FileFunction,MixedPlating,1,2
FMAT,2
METRIC
; #@! TA.AperFunction,Plated,PTH,ViaDrill
T1C0.200
; #@! TA.AperFunction,Plated,PTH,ViaDrill
T2C0.300
; #@! TA.AperFunction,Plated,PTH,ComponentDrill
T3C0.750
; #@! TA.AperFunction,Plated,PTH,ComponentDrill
T4C0.800
; #@! TA.AperFunction,Plated,PTH,ComponentDrill
T5C1.200
; #@! TA.AperFunction,Plated,PTH,ComponentDrill
T6C2.700
%
G90
G05
T1
X9.5Y-5.8
X10.6Y-18.4
X11.5Y-5.8
X13.8Y-18.35
X14.397Y-3.4
X15.3Y-16.35
X15.667Y-3.3
X16.55Y-18.4
X16.9Y-3.3
X17.85Y-16.15
X18.6Y-3.5
X18.6Y-9.1
X19.0Y-18.4
X20.2Y-16.25
X20.5Y-9.1
X22.332Y-9.083
X23.8Y-18.0
X24.008Y-18.64
X27.052Y-9.815
X30.8Y-15.6
X32.053Y-7.755
X32.547Y-8.25
X36.2Y-15.0
X38.2Y-14.3
X40.9Y-21.6
X42.2Y-17.8
X44.7Y-19.9
X44.9Y-18.5
X49.5Y-20.4
X58.8Y-10.6
X59.9Y-10.6
T2
X8.7Y-13.6
X9.6Y-4.75
X9.9Y-10.5
X11.3Y-17.7
X12.9Y-5.7
X20.5Y-13.5
X22.3Y-11.6
X23.0Y-13.5
X23.6Y-16.5
X24.0Y-6.55
X26.2Y-20.6
X27.4Y-16.5
X27.9Y-7.4
X31.2Y-1.2
X31.5Y-12.1
X32.6Y-12.4
X32.7Y-1.0
X32.9Y-2.0
X32.9Y-20.9
X33.6Y-17.9
X33.9Y-1.2
X34.8Y-2.1
X35.2Y-0.9
X38.6Y-6.4
X38.8Y-1.5
X39.7Y-2.1
X39.9Y-1.0
X40.1Y-17.3
X41.4Y-17.3
X41.5Y-11.9
X41.9Y-21.6
X42.5Y-10.5
X43.5Y-7.9
X43.95Y-9.6
X44.0Y-6.4
X44.2Y-2.0
X44.2Y-5.4
X44.5Y-1.1
X44.8Y-4.0
X44.8Y-12.8
X44.8Y-14.6
X44.9Y-6.6
X45.4Y-1.5
X45.7Y-5.4
X46.3Y-1.0
X46.4Y-6.4
X46.4Y-11.5
X46.75Y-19.0
X47.25Y-18.5
X47.6Y-10.4
X47.7Y-13.4
X48.0Y-15.95
X48.6Y-14.5
X49.4Y-6.5
X49.9Y-3.6
X50.45Y-21.5
X51.15Y-17.15
X51.65Y-20.4
X51.8Y-18.75
X52.8Y-8.3
X53.3Y-5.2
X53.4Y-18.8
X53.65Y-20.35
X54.4Y-12.6
X54.55Y-17.2
X55.6Y-4.2
X56.05Y-20.3
X56.7Y-18.65
X58.25Y-20.4
X58.45Y-18.45
X59.7Y-17.55
X61.1Y-19.1
T3
X29.35Y-5.263
X35.15Y-5.263
T5
X56.75Y-17.0
X61.75Y-17.0
T6
X30.0Y-18.5
X50.75Y-12.25
T4
X27.92Y-1.882G85X27.92Y-1.283
G05
X27.92Y-6.162G85X27.92Y-5.363
G05
X36.58Y-1.882G85X36.58Y-1.283
G05
X36.58Y-6.163G85X36.58Y-5.362
G05
M30
