G04 #@! TF.GenerationSoftware,KiCad,Pcbnew,8.0.8-8.0.8-0~ubuntu22.04.1*
G04 #@! TF.CreationDate,2025-01-23T17:55:28+01:00*
G04 #@! TF.ProjectId,kicad_makespace_tutorial,6b696361-645f-46d6-916b-657370616365,v1*
G04 #@! TF.SameCoordinates,Original*
G04 #@! TF.FileFunction,Legend,Top*
G04 #@! TF.FilePolarity,Positive*
%FSLAX46Y46*%
G04 Gerber Fmt 4.6, Leading zero omitted, Abs format (unit mm)*
G04 Created by KiCad (PCBNEW 8.0.8-8.0.8-0~ubuntu22.04.1) date 2025-01-23 17:55:28*
%MOMM*%
%LPD*%
G01*
G04 APERTURE LIST*
%ADD10C,0.150000*%
%ADD11C,0.250000*%
G04 APERTURE END LIST*
D10*
X58104819Y-11419047D02*
X58104819Y-11895237D01*
X58104819Y-11895237D02*
X57104819Y-11895237D01*
X57581009Y-11085713D02*
X57581009Y-10752380D01*
X58104819Y-10609523D02*
X58104819Y-11085713D01*
X58104819Y-11085713D02*
X57104819Y-11085713D01*
X57104819Y-11085713D02*
X57104819Y-10609523D01*
X58104819Y-10180951D02*
X57104819Y-10180951D01*
X57104819Y-10180951D02*
X57104819Y-9942856D01*
X57104819Y-9942856D02*
X57152438Y-9799999D01*
X57152438Y-9799999D02*
X57247676Y-9704761D01*
X57247676Y-9704761D02*
X57342914Y-9657142D01*
X57342914Y-9657142D02*
X57533390Y-9609523D01*
X57533390Y-9609523D02*
X57676247Y-9609523D01*
X57676247Y-9609523D02*
X57866723Y-9657142D01*
X57866723Y-9657142D02*
X57961961Y-9704761D01*
X57961961Y-9704761D02*
X58057200Y-9799999D01*
X58057200Y-9799999D02*
X58104819Y-9942856D01*
X58104819Y-9942856D02*
X58104819Y-10180951D01*
X57104819Y-8704761D02*
X57104819Y-9180951D01*
X57104819Y-9180951D02*
X57581009Y-9228570D01*
X57581009Y-9228570D02*
X57533390Y-9180951D01*
X57533390Y-9180951D02*
X57485771Y-9085713D01*
X57485771Y-9085713D02*
X57485771Y-8847618D01*
X57485771Y-8847618D02*
X57533390Y-8752380D01*
X57533390Y-8752380D02*
X57581009Y-8704761D01*
X57581009Y-8704761D02*
X57676247Y-8657142D01*
X57676247Y-8657142D02*
X57914342Y-8657142D01*
X57914342Y-8657142D02*
X58009580Y-8704761D01*
X58009580Y-8704761D02*
X58057200Y-8752380D01*
X58057200Y-8752380D02*
X58104819Y-8847618D01*
X58104819Y-8847618D02*
X58104819Y-9085713D01*
X58104819Y-9085713D02*
X58057200Y-9180951D01*
X58057200Y-9180951D02*
X58009580Y-9228570D01*
X27380952Y-19904819D02*
X26904762Y-19904819D01*
X26904762Y-19904819D02*
X26904762Y-18904819D01*
X27714286Y-19381009D02*
X28047619Y-19381009D01*
X28190476Y-19904819D02*
X27714286Y-19904819D01*
X27714286Y-19904819D02*
X27714286Y-18904819D01*
X27714286Y-18904819D02*
X28190476Y-18904819D01*
X28619048Y-19904819D02*
X28619048Y-18904819D01*
X28619048Y-18904819D02*
X28857143Y-18904819D01*
X28857143Y-18904819D02*
X29000000Y-18952438D01*
X29000000Y-18952438D02*
X29095238Y-19047676D01*
X29095238Y-19047676D02*
X29142857Y-19142914D01*
X29142857Y-19142914D02*
X29190476Y-19333390D01*
X29190476Y-19333390D02*
X29190476Y-19476247D01*
X29190476Y-19476247D02*
X29142857Y-19666723D01*
X29142857Y-19666723D02*
X29095238Y-19761961D01*
X29095238Y-19761961D02*
X29000000Y-19857200D01*
X29000000Y-19857200D02*
X28857143Y-19904819D01*
X28857143Y-19904819D02*
X28619048Y-19904819D01*
X29523810Y-18904819D02*
X30142857Y-18904819D01*
X30142857Y-18904819D02*
X29809524Y-19285771D01*
X29809524Y-19285771D02*
X29952381Y-19285771D01*
X29952381Y-19285771D02*
X30047619Y-19333390D01*
X30047619Y-19333390D02*
X30095238Y-19381009D01*
X30095238Y-19381009D02*
X30142857Y-19476247D01*
X30142857Y-19476247D02*
X30142857Y-19714342D01*
X30142857Y-19714342D02*
X30095238Y-19809580D01*
X30095238Y-19809580D02*
X30047619Y-19857200D01*
X30047619Y-19857200D02*
X29952381Y-19904819D01*
X29952381Y-19904819D02*
X29666667Y-19904819D01*
X29666667Y-19904819D02*
X29571429Y-19857200D01*
X29571429Y-19857200D02*
X29523810Y-19809580D01*
X46404819Y-20919047D02*
X46404819Y-21395237D01*
X46404819Y-21395237D02*
X45404819Y-21395237D01*
X45881009Y-20585713D02*
X45881009Y-20252380D01*
X46404819Y-20109523D02*
X46404819Y-20585713D01*
X46404819Y-20585713D02*
X45404819Y-20585713D01*
X45404819Y-20585713D02*
X45404819Y-20109523D01*
X46404819Y-19680951D02*
X45404819Y-19680951D01*
X45404819Y-19680951D02*
X45404819Y-19442856D01*
X45404819Y-19442856D02*
X45452438Y-19299999D01*
X45452438Y-19299999D02*
X45547676Y-19204761D01*
X45547676Y-19204761D02*
X45642914Y-19157142D01*
X45642914Y-19157142D02*
X45833390Y-19109523D01*
X45833390Y-19109523D02*
X45976247Y-19109523D01*
X45976247Y-19109523D02*
X46166723Y-19157142D01*
X46166723Y-19157142D02*
X46261961Y-19204761D01*
X46261961Y-19204761D02*
X46357200Y-19299999D01*
X46357200Y-19299999D02*
X46404819Y-19442856D01*
X46404819Y-19442856D02*
X46404819Y-19680951D01*
X45738152Y-18252380D02*
X46404819Y-18252380D01*
X45357200Y-18490475D02*
X46071485Y-18728570D01*
X46071485Y-18728570D02*
X46071485Y-18109523D01*
D11*
G04 #@! TO.C,LED5*
X61050000Y-11600000D02*
X61060000Y-11600000D01*
D10*
X61100000Y-9300000D02*
X61100000Y-11300000D01*
X61450000Y-10400000D02*
X62850000Y-10400000D01*
X61450000Y-10550000D02*
X61450000Y-10400000D01*
X61450000Y-10550000D02*
X62900000Y-10550000D01*
X62850000Y-10400000D02*
X62900000Y-10400000D01*
X62900000Y-10400000D02*
X62900000Y-10550000D01*
X63300000Y-11300000D02*
X63300000Y-9300000D01*
G04 #@! TO.C,LED3*
X27500000Y-16000000D02*
X29500000Y-16000000D01*
X28600000Y-14200000D02*
X28750000Y-14200000D01*
X28600000Y-14250000D02*
X28600000Y-14200000D01*
X28600000Y-15650000D02*
X28600000Y-14250000D01*
X28750000Y-15650000D02*
X28600000Y-15650000D01*
X28750000Y-15650000D02*
X28750000Y-14200000D01*
X29500000Y-13800000D02*
X27500000Y-13800000D01*
D11*
X29800000Y-16050000D02*
X29800000Y-16040000D01*
D10*
G04 #@! TO.C,LED4*
X40300000Y-18800000D02*
X40300000Y-20800000D01*
X40700000Y-19700000D02*
X40700000Y-19550000D01*
X40750000Y-19700000D02*
X40700000Y-19700000D01*
X42150000Y-19550000D02*
X40700000Y-19550000D01*
X42150000Y-19550000D02*
X42150000Y-19700000D01*
X42150000Y-19700000D02*
X40750000Y-19700000D01*
X42500000Y-20800000D02*
X42500000Y-18800000D01*
D11*
X42550000Y-18500000D02*
X42540000Y-18500000D01*
G04 #@! TD*
M02*
