G04 #@! TF.GenerationSoftware,KiCad,Pcbnew,8.0.8-8.0.8-0~ubuntu22.04.1*
G04 #@! TF.CreationDate,2025-01-23T17:55:28+01:00*
G04 #@! TF.ProjectId,kicad_makespace_tutorial,6b696361-645f-46d6-916b-657370616365,v1*
G04 #@! TF.SameCoordinates,Original*
G04 #@! TF.FileFunction,Legend,Bot*
G04 #@! TF.FilePolarity,Positive*
%FSLAX46Y46*%
G04 Gerber Fmt 4.6, Leading zero omitted, Abs format (unit mm)*
G04 Created by KiCad (PCBNEW 8.0.8-8.0.8-0~ubuntu22.04.1) date 2025-01-23 17:55:28*
%MOMM*%
%LPD*%
G01*
G04 APERTURE LIST*
%ADD10C,0.150000*%
%ADD11C,0.120000*%
G04 APERTURE END LIST*
D10*
X37604819Y-11166666D02*
X38319104Y-11166666D01*
X38319104Y-11166666D02*
X38461961Y-11119047D01*
X38461961Y-11119047D02*
X38557200Y-11023809D01*
X38557200Y-11023809D02*
X38604819Y-10880952D01*
X38604819Y-10880952D02*
X38604819Y-10785714D01*
X38604819Y-11642857D02*
X37604819Y-11642857D01*
X37604819Y-11642857D02*
X37604819Y-12023809D01*
X37604819Y-12023809D02*
X37652438Y-12119047D01*
X37652438Y-12119047D02*
X37700057Y-12166666D01*
X37700057Y-12166666D02*
X37795295Y-12214285D01*
X37795295Y-12214285D02*
X37938152Y-12214285D01*
X37938152Y-12214285D02*
X38033390Y-12166666D01*
X38033390Y-12166666D02*
X38081009Y-12119047D01*
X38081009Y-12119047D02*
X38128628Y-12023809D01*
X38128628Y-12023809D02*
X38128628Y-11642857D01*
X37604819Y-13119047D02*
X37604819Y-12642857D01*
X37604819Y-12642857D02*
X38081009Y-12595238D01*
X38081009Y-12595238D02*
X38033390Y-12642857D01*
X38033390Y-12642857D02*
X37985771Y-12738095D01*
X37985771Y-12738095D02*
X37985771Y-12976190D01*
X37985771Y-12976190D02*
X38033390Y-13071428D01*
X38033390Y-13071428D02*
X38081009Y-13119047D01*
X38081009Y-13119047D02*
X38176247Y-13166666D01*
X38176247Y-13166666D02*
X38414342Y-13166666D01*
X38414342Y-13166666D02*
X38509580Y-13119047D01*
X38509580Y-13119047D02*
X38557200Y-13071428D01*
X38557200Y-13071428D02*
X38604819Y-12976190D01*
X38604819Y-12976190D02*
X38604819Y-12738095D01*
X38604819Y-12738095D02*
X38557200Y-12642857D01*
X38557200Y-12642857D02*
X38509580Y-12595238D01*
X40154819Y-11166666D02*
X40869104Y-11166666D01*
X40869104Y-11166666D02*
X41011961Y-11119047D01*
X41011961Y-11119047D02*
X41107200Y-11023809D01*
X41107200Y-11023809D02*
X41154819Y-10880952D01*
X41154819Y-10880952D02*
X41154819Y-10785714D01*
X41154819Y-11642857D02*
X40154819Y-11642857D01*
X40154819Y-11642857D02*
X40154819Y-12023809D01*
X40154819Y-12023809D02*
X40202438Y-12119047D01*
X40202438Y-12119047D02*
X40250057Y-12166666D01*
X40250057Y-12166666D02*
X40345295Y-12214285D01*
X40345295Y-12214285D02*
X40488152Y-12214285D01*
X40488152Y-12214285D02*
X40583390Y-12166666D01*
X40583390Y-12166666D02*
X40631009Y-12119047D01*
X40631009Y-12119047D02*
X40678628Y-12023809D01*
X40678628Y-12023809D02*
X40678628Y-11642857D01*
X40488152Y-13071428D02*
X41154819Y-13071428D01*
X40107200Y-12833333D02*
X40821485Y-12595238D01*
X40821485Y-12595238D02*
X40821485Y-13214285D01*
D11*
G04 #@! TO.C,JP5*
X35350000Y-10600000D02*
X37350000Y-10600000D01*
X35350000Y-13400000D02*
X35350000Y-10600000D01*
X37350000Y-10600000D02*
X37350000Y-13400000D01*
X37350000Y-13400000D02*
X35350000Y-13400000D01*
G04 #@! TO.C,JP4*
X37900000Y-10600000D02*
X39900000Y-10600000D01*
X37900000Y-13400000D02*
X37900000Y-10600000D01*
X39900000Y-10600000D02*
X39900000Y-13400000D01*
X39900000Y-13400000D02*
X37900000Y-13400000D01*
G04 #@! TD*
M02*
