G04 #@! TF.GenerationSoftware,KiCad,Pcbnew,9.0.0-9.0.0-2~ubuntu22.04.1*
G04 #@! TF.CreationDate,2025-03-24T08:10:21+01:00*
G04 #@! TF.ProjectId,kicad_makespace_tutorial,6b696361-645f-46d6-916b-657370616365,v1*
G04 #@! TF.SameCoordinates,Original*
G04 #@! TF.FileFunction,Copper,L1,Top*
G04 #@! TF.FilePolarity,Positive*
%FSLAX46Y46*%
G04 Gerber Fmt 4.6, Leading zero omitted, Abs format (unit mm)*
G04 Created by KiCad (PCBNEW 9.0.0-9.0.0-2~ubuntu22.04.1) date 2025-03-24 08:10:21*
%MOMM*%
%LPD*%
G01*
G04 APERTURE LIST*
G04 Aperture macros list*
%AMRoundRect*
0 Rectangle with rounded corners*
0 $1 Rounding radius*
0 $2 $3 $4 $5 $6 $7 $8 $9 X,Y pos of 4 corners*
0 Add a 4 corners polygon primitive as box body*
4,1,4,$2,$3,$4,$5,$6,$7,$8,$9,$2,$3,0*
0 Add four circle primitives for the rounded corners*
1,1,$1+$1,$2,$3*
1,1,$1+$1,$4,$5*
1,1,$1+$1,$6,$7*
1,1,$1+$1,$8,$9*
0 Add four rect primitives between the rounded corners*
20,1,$1+$1,$2,$3,$4,$5,0*
20,1,$1+$1,$4,$5,$6,$7,0*
20,1,$1+$1,$6,$7,$8,$9,0*
20,1,$1+$1,$8,$9,$2,$3,0*%
G04 Aperture macros list end*
G04 #@! TA.AperFunction,SMDPad,CuDef*
%ADD10R,0.700000X0.900000*%
G04 #@! TD*
G04 #@! TA.AperFunction,SMDPad,CuDef*
%ADD11R,0.900000X0.700000*%
G04 #@! TD*
G04 #@! TA.AperFunction,SMDPad,CuDef*
%ADD12R,1.130000X1.380000*%
G04 #@! TD*
G04 #@! TA.AperFunction,ComponentPad*
%ADD13C,2.000000*%
G04 #@! TD*
G04 #@! TA.AperFunction,SMDPad,CuDef*
%ADD14R,0.900000X1.500000*%
G04 #@! TD*
G04 #@! TA.AperFunction,SMDPad,CuDef*
%ADD15R,1.500000X0.900000*%
G04 #@! TD*
G04 #@! TA.AperFunction,SMDPad,CuDef*
%ADD16R,0.900000X0.900000*%
G04 #@! TD*
G04 #@! TA.AperFunction,ComponentPad*
%ADD17C,4.700000*%
G04 #@! TD*
G04 #@! TA.AperFunction,SMDPad,CuDef*
%ADD18R,1.500000X1.360000*%
G04 #@! TD*
G04 #@! TA.AperFunction,SMDPad,CuDef*
%ADD19R,1.000000X1.250000*%
G04 #@! TD*
G04 #@! TA.AperFunction,SMDPad,CuDef*
%ADD20RoundRect,0.250000X-0.350000X-0.450000X0.350000X-0.450000X0.350000X0.450000X-0.350000X0.450000X0*%
G04 #@! TD*
G04 #@! TA.AperFunction,SMDPad,CuDef*
%ADD21R,2.500000X1.100000*%
G04 #@! TD*
G04 #@! TA.AperFunction,SMDPad,CuDef*
%ADD22R,2.340000X3.600000*%
G04 #@! TD*
G04 #@! TA.AperFunction,ComponentPad*
%ADD23C,0.750000*%
G04 #@! TD*
G04 #@! TA.AperFunction,ComponentPad*
%ADD24O,1.200000X2.000000*%
G04 #@! TD*
G04 #@! TA.AperFunction,ComponentPad*
%ADD25O,1.200000X1.800000*%
G04 #@! TD*
G04 #@! TA.AperFunction,SMDPad,CuDef*
%ADD26R,0.300000X1.300000*%
G04 #@! TD*
G04 #@! TA.AperFunction,ComponentPad*
%ADD27R,1.700000X1.700000*%
G04 #@! TD*
G04 #@! TA.AperFunction,ComponentPad*
%ADD28O,1.700000X1.700000*%
G04 #@! TD*
G04 #@! TA.AperFunction,SMDPad,CuDef*
%ADD29R,1.410000X1.350000*%
G04 #@! TD*
G04 #@! TA.AperFunction,SMDPad,CuDef*
%ADD30R,1.350000X1.410000*%
G04 #@! TD*
G04 #@! TA.AperFunction,SMDPad,CuDef*
%ADD31R,0.600000X0.250000*%
G04 #@! TD*
G04 #@! TA.AperFunction,SMDPad,CuDef*
%ADD32R,0.250000X0.600000*%
G04 #@! TD*
G04 #@! TA.AperFunction,SMDPad,CuDef*
%ADD33R,1.500000X1.500000*%
G04 #@! TD*
G04 #@! TA.AperFunction,SMDPad,CuDef*
%ADD34R,1.000000X1.400000*%
G04 #@! TD*
G04 #@! TA.AperFunction,ViaPad*
%ADD35C,0.600000*%
G04 #@! TD*
G04 #@! TA.AperFunction,ViaPad*
%ADD36C,0.450000*%
G04 #@! TD*
G04 #@! TA.AperFunction,Conductor*
%ADD37C,0.600000*%
G04 #@! TD*
G04 #@! TA.AperFunction,Conductor*
%ADD38C,0.800000*%
G04 #@! TD*
G04 #@! TA.AperFunction,Conductor*
%ADD39C,1.000000*%
G04 #@! TD*
G04 #@! TA.AperFunction,Conductor*
%ADD40C,0.160000*%
G04 #@! TD*
G04 #@! TA.AperFunction,Conductor*
%ADD41C,0.300000*%
G04 #@! TD*
G04 #@! TA.AperFunction,Conductor*
%ADD42C,0.200000*%
G04 #@! TD*
G04 #@! TA.AperFunction,Conductor*
%ADD43C,0.500000*%
G04 #@! TD*
G04 #@! TA.AperFunction,Conductor*
%ADD44C,0.400000*%
G04 #@! TD*
G04 APERTURE END LIST*
D10*
G04 #@! TO.P,LED5,1,DO*
G04 #@! TO.N,unconnected-(LED5-DO-Pad1)*
X59650000Y-8920000D03*
G04 #@! TO.P,LED5,2,GND*
G04 #@! TO.N,GND*
X60750000Y-8920000D03*
G04 #@! TO.P,LED5,3,DI*
G04 #@! TO.N,Net-(LED4-DO)*
X60750000Y-7080000D03*
G04 #@! TO.P,LED5,4,VDD*
G04 #@! TO.N,/WLED_VDD*
X59650000Y-7080000D03*
G04 #@! TD*
D11*
G04 #@! TO.P,LED3,1,DO*
G04 #@! TO.N,Net-(LED3-DO)*
X29320000Y-15450000D03*
G04 #@! TO.P,LED3,2,GND*
G04 #@! TO.N,GND*
X29320000Y-14350000D03*
G04 #@! TO.P,LED3,3,DI*
G04 #@! TO.N,/WLED*
X27480000Y-14350000D03*
G04 #@! TO.P,LED3,4,VDD*
G04 #@! TO.N,/WLED_VDD*
X27480000Y-15450000D03*
G04 #@! TD*
D12*
G04 #@! TO.P,R1,1,1*
G04 #@! TO.N,/ESP_EN*
X37100000Y-14200000D03*
G04 #@! TO.P,R1,2,2*
G04 #@! TO.N,/3V3*
X35100000Y-14200000D03*
G04 #@! TD*
D10*
G04 #@! TO.P,LED4,1,DO*
G04 #@! TO.N,Net-(LED4-DO)*
X41950000Y-18880000D03*
G04 #@! TO.P,LED4,2,GND*
G04 #@! TO.N,GND*
X40850000Y-18880000D03*
G04 #@! TO.P,LED4,3,DI*
G04 #@! TO.N,Net-(LED3-DO)*
X40850000Y-20720000D03*
G04 #@! TO.P,LED4,4,VDD*
G04 #@! TO.N,/WLED_VDD*
X41950000Y-20720000D03*
G04 #@! TD*
D13*
G04 #@! TO.P,J1,1,Pin_1*
G04 #@! TO.N,Net-(J1-Pin_1)*
X56750000Y-17000000D03*
G04 #@! TO.P,J1,2,Pin_2*
G04 #@! TO.N,Net-(J1-Pin_2)*
X61750000Y-17000000D03*
G04 #@! TD*
D14*
G04 #@! TO.P,U5,1,GND*
G04 #@! TO.N,GND*
X8047500Y-19750000D03*
G04 #@! TO.P,U5,2,3V3*
G04 #@! TO.N,/3V3*
X9317500Y-19750000D03*
G04 #@! TO.P,U5,3,EN*
G04 #@! TO.N,/ESP_EN*
X10587500Y-19750000D03*
G04 #@! TO.P,U5,4,IO4*
G04 #@! TO.N,unconnected-(U5-IO4-Pad4)*
X11857500Y-19750000D03*
G04 #@! TO.P,U5,5,IO5*
G04 #@! TO.N,unconnected-(U5-IO5-Pad5)*
X13127500Y-19750000D03*
G04 #@! TO.P,U5,6,IO6*
G04 #@! TO.N,/GPIO_34*
X14397500Y-19750000D03*
G04 #@! TO.P,U5,7,IO7*
G04 #@! TO.N,/GPIO_16*
X15667500Y-19750000D03*
G04 #@! TO.P,U5,8,IO15*
G04 #@! TO.N,/GPIO_32*
X16937500Y-19750000D03*
G04 #@! TO.P,U5,9,IO16*
G04 #@! TO.N,/GPIO_33*
X18207500Y-19750000D03*
G04 #@! TO.P,U5,10,IO17*
G04 #@! TO.N,/GPIO_25*
X19477500Y-19750000D03*
G04 #@! TO.P,U5,11,IO18*
G04 #@! TO.N,/GPIO_26*
X20747500Y-19750000D03*
G04 #@! TO.P,U5,12,IO8*
G04 #@! TO.N,unconnected-(U5-IO8-Pad12)*
X22017500Y-19750000D03*
G04 #@! TO.P,U5,13,IO19*
G04 #@! TO.N,/USB_N*
X23287500Y-19750000D03*
G04 #@! TO.P,U5,14,IO20*
G04 #@! TO.N,/USB_P*
X24557500Y-19750000D03*
D15*
G04 #@! TO.P,U5,15,IO3*
G04 #@! TO.N,unconnected-(U5-IO3-Pad15)*
X25827500Y-17990000D03*
G04 #@! TO.P,U5,16,IO46*
G04 #@! TO.N,unconnected-(U5-IO46-Pad16)*
X25827500Y-16720000D03*
G04 #@! TO.P,U5,17,IO9*
G04 #@! TO.N,unconnected-(U5-IO9-Pad17)*
X25827500Y-15450000D03*
G04 #@! TO.P,U5,18,IO10*
G04 #@! TO.N,/WLED*
X25827500Y-14180000D03*
G04 #@! TO.P,U5,19,IO11*
G04 #@! TO.N,/I2S_DIN*
X25827500Y-12910000D03*
G04 #@! TO.P,U5,20,IO12*
G04 #@! TO.N,/I2S_BCLK*
X25827500Y-11630000D03*
G04 #@! TO.P,U5,21,IO13*
G04 #@! TO.N,/I2S_LRCLK*
X25827500Y-10370000D03*
G04 #@! TO.P,U5,22,IO14*
G04 #@! TO.N,unconnected-(U5-IO14-Pad22)*
X25827500Y-9100000D03*
G04 #@! TO.P,U5,23,IO21*
G04 #@! TO.N,unconnected-(U5-IO21-Pad23)*
X25827500Y-7830000D03*
G04 #@! TO.P,U5,24,IO47*
G04 #@! TO.N,/ESP_LED*
X25827500Y-6550000D03*
G04 #@! TO.P,U5,25,IO48*
G04 #@! TO.N,unconnected-(U5-IO48-Pad25)*
X25827500Y-5280000D03*
G04 #@! TO.P,U5,26,IO45*
G04 #@! TO.N,unconnected-(U5-IO45-Pad26)*
X25797500Y-4010000D03*
D14*
G04 #@! TO.P,U5,27,IO0*
G04 #@! TO.N,/ESP_PROG*
X24557500Y-2250000D03*
G04 #@! TO.P,U5,28,IO35*
G04 #@! TO.N,unconnected-(U5-IO35-Pad28)*
X23287500Y-2250000D03*
G04 #@! TO.P,U5,29,IO36*
G04 #@! TO.N,unconnected-(U5-IO36-Pad29)*
X22017500Y-2250000D03*
G04 #@! TO.P,U5,30,IO37*
G04 #@! TO.N,unconnected-(U5-IO37-Pad30)*
X20747500Y-2250000D03*
G04 #@! TO.P,U5,31,IO38*
G04 #@! TO.N,/GPIO_17*
X19477500Y-2250000D03*
G04 #@! TO.P,U5,32,IO39*
G04 #@! TO.N,/GPIO_5*
X18207500Y-2250000D03*
G04 #@! TO.P,U5,33,IO40*
G04 #@! TO.N,/GPIO_18*
X16937500Y-2250000D03*
G04 #@! TO.P,U5,34,IO41*
G04 #@! TO.N,/GPIO_19*
X15667500Y-2250000D03*
G04 #@! TO.P,U5,35,IO42*
G04 #@! TO.N,/GPIO_21*
X14397500Y-2250000D03*
G04 #@! TO.P,U5,36,RXD0*
G04 #@! TO.N,/ESP_RXD*
X13127500Y-2250000D03*
G04 #@! TO.P,U5,37,TXD0*
G04 #@! TO.N,/ESP_TXD*
X11857500Y-2250000D03*
G04 #@! TO.P,U5,38,IO2*
G04 #@! TO.N,unconnected-(U5-IO2-Pad38)*
X10587500Y-2250000D03*
G04 #@! TO.P,U5,39,IO1*
G04 #@! TO.N,unconnected-(U5-IO1-Pad39)*
X9317500Y-2250000D03*
G04 #@! TO.P,U5,40,GND*
G04 #@! TO.N,GND*
X8047500Y-2250000D03*
D16*
G04 #@! TO.P,U5,41,EPAD*
X14367500Y-13900000D03*
X15767500Y-13900000D03*
X17167500Y-13900000D03*
X14367500Y-12500000D03*
X15767500Y-12500000D03*
X17167500Y-12500000D03*
X14367500Y-11100000D03*
X15767500Y-11100000D03*
X17167500Y-11100000D03*
G04 #@! TD*
D17*
G04 #@! TO.P,H1,1*
G04 #@! TO.N,N/C*
X50750000Y-12250000D03*
G04 #@! TD*
D12*
G04 #@! TO.P,U3,1,1*
G04 #@! TO.N,GND*
X35900000Y-8700000D03*
G04 #@! TO.P,U3,2,2*
G04 #@! TO.N,Net-(USBC1-CC1)*
X33900000Y-8700000D03*
G04 #@! TD*
D18*
G04 #@! TO.P,C1,1,1*
G04 #@! TO.N,/3V3*
X47700000Y-8500000D03*
G04 #@! TO.P,C1,2,2*
G04 #@! TO.N,GND*
X45300000Y-8500000D03*
G04 #@! TD*
D19*
G04 #@! TO.P,LED2,1,K*
G04 #@! TO.N,Net-(LED2-K)*
X35800000Y-12500000D03*
G04 #@! TO.P,LED2,2,A*
G04 #@! TO.N,/3V3*
X33600000Y-12500000D03*
G04 #@! TD*
D12*
G04 #@! TO.P,U2,1,1*
G04 #@! TO.N,GND*
X29000000Y-8700000D03*
G04 #@! TO.P,U2,2,2*
G04 #@! TO.N,Net-(USBC1-CC2)*
X31000000Y-8700000D03*
G04 #@! TD*
D20*
G04 #@! TO.P,R4,1*
G04 #@! TO.N,/5V*
X55200000Y-10200000D03*
G04 #@! TO.P,R4,2*
G04 #@! TO.N,/SD_MODE*
X57200000Y-10200000D03*
G04 #@! TD*
D21*
G04 #@! TO.P,U1,1,GND*
G04 #@! TO.N,GND*
X42030000Y-1700000D03*
G04 #@! TO.P,U1,2,VOUT*
G04 #@! TO.N,/3V3*
X42030000Y-4000000D03*
G04 #@! TO.P,U1,3,VIN*
G04 #@! TO.N,/5V*
X42030000Y-6300000D03*
D22*
G04 #@! TO.P,U1,4,VOUT*
G04 #@! TO.N,/3V3*
X47970000Y-4000000D03*
G04 #@! TD*
D23*
G04 #@! TO.P,USBC1,*
G04 #@! TO.N,*
X35150000Y-5262500D03*
X29350000Y-5262500D03*
D24*
G04 #@! TO.P,USBC1,0,SH*
G04 #@! TO.N,GND*
X36580000Y-5762500D03*
G04 #@! TO.P,USBC1,1*
G04 #@! TO.N,N/C*
X27920000Y-5762500D03*
D25*
G04 #@! TO.P,USBC1,2*
X27920000Y-1582500D03*
G04 #@! TO.P,USBC1,3*
X36580000Y-1582500D03*
D26*
G04 #@! TO.P,USBC1,A1,GND*
G04 #@! TO.N,GND*
X35600000Y-6522500D03*
G04 #@! TO.P,USBC1,A4,VBUS*
G04 #@! TO.N,/5V*
X34800000Y-6522500D03*
G04 #@! TO.P,USBC1,A5,CC1*
G04 #@! TO.N,Net-(USBC1-CC1)*
X33500000Y-6522500D03*
G04 #@! TO.P,USBC1,A6,DP1*
G04 #@! TO.N,/USB_P*
X32500000Y-6522500D03*
G04 #@! TO.P,USBC1,A7,DN1*
G04 #@! TO.N,/USB_N*
X32000000Y-6522500D03*
G04 #@! TO.P,USBC1,A8,SBU1*
G04 #@! TO.N,unconnected-(USBC1-SBU1-PadA8)*
X31000000Y-6522500D03*
G04 #@! TO.P,USBC1,A9,VBUS*
G04 #@! TO.N,/5V*
X29700000Y-6522500D03*
G04 #@! TO.P,USBC1,A12,GND*
G04 #@! TO.N,GND*
X28900000Y-6522500D03*
G04 #@! TO.P,USBC1,B1,GND*
X29200000Y-6522500D03*
G04 #@! TO.P,USBC1,B4,VBUS*
G04 #@! TO.N,/5V*
X30000000Y-6522500D03*
G04 #@! TO.P,USBC1,B5,CC2*
G04 #@! TO.N,Net-(USBC1-CC2)*
X30500000Y-6522500D03*
G04 #@! TO.P,USBC1,B6,DP2*
G04 #@! TO.N,/USB_P*
X31500000Y-6522500D03*
G04 #@! TO.P,USBC1,B7,DN2*
G04 #@! TO.N,/USB_N*
X33000000Y-6522500D03*
G04 #@! TO.P,USBC1,B8,SBU2*
G04 #@! TO.N,unconnected-(USBC1-SBU2-PadB8)*
X34000000Y-6522500D03*
G04 #@! TO.P,USBC1,B9,VBUS*
G04 #@! TO.N,/5V*
X34500000Y-6522500D03*
G04 #@! TO.P,USBC1,B12,GND*
G04 #@! TO.N,GND*
X35300000Y-6522500D03*
G04 #@! TD*
D12*
G04 #@! TO.P,R3,1,1*
G04 #@! TO.N,GND*
X39450000Y-12400000D03*
G04 #@! TO.P,R3,2,2*
G04 #@! TO.N,Net-(LED2-K)*
X37450000Y-12400000D03*
G04 #@! TD*
D17*
G04 #@! TO.P,H3,1*
G04 #@! TO.N,N/C*
X30000000Y-18500000D03*
G04 #@! TD*
D27*
G04 #@! TO.P,J3,1,Pin_1*
G04 #@! TO.N,/GPIO_19*
X55000000Y-5000000D03*
D28*
G04 #@! TO.P,J3,2,Pin_2*
G04 #@! TO.N,/GPIO_17*
X55000000Y-2460000D03*
G04 #@! TO.P,J3,3,Pin_3*
G04 #@! TO.N,GND*
X57540000Y-5000000D03*
G04 #@! TO.P,J3,4,Pin_4*
X57540000Y-2460000D03*
G04 #@! TO.P,J3,5,Pin_5*
G04 #@! TO.N,/GPIO_34*
X60080000Y-5000000D03*
G04 #@! TO.P,J3,6,Pin_6*
G04 #@! TO.N,/GPIO_16*
X60080000Y-2460000D03*
G04 #@! TD*
D29*
G04 #@! TO.P,C3,1,1*
G04 #@! TO.N,/5V*
X49600000Y-15900000D03*
G04 #@! TO.P,C3,2,2*
G04 #@! TO.N,GND*
X51600000Y-15900000D03*
G04 #@! TD*
D30*
G04 #@! TO.P,C6,1,1*
G04 #@! TO.N,GND*
X43500000Y-18500000D03*
G04 #@! TO.P,C6,2,2*
G04 #@! TO.N,/5V*
X43500000Y-20500000D03*
G04 #@! TD*
D31*
G04 #@! TO.P,U4,1,DIN*
G04 #@! TO.N,/I2S_DIN*
X45500000Y-18000000D03*
G04 #@! TO.P,U4,2,GAIN_SLOT*
G04 #@! TO.N,/GAIN_SLOT*
X45500000Y-18500000D03*
G04 #@! TO.P,U4,3,GND*
G04 #@! TO.N,GND*
X45500000Y-19000000D03*
G04 #@! TO.P,U4,4,~{SD_MODE}*
G04 #@! TO.N,/SD_MODE*
X45500000Y-19500000D03*
D32*
G04 #@! TO.P,U4,5,N.C.*
G04 #@! TO.N,unconnected-(U4-N.C.-Pad5)*
X46250000Y-20250000D03*
G04 #@! TO.P,U4,6,N.C.*
G04 #@! TO.N,unconnected-(U4-N.C.-Pad6)*
X46750000Y-20250000D03*
G04 #@! TO.P,U4,7,VDD*
G04 #@! TO.N,/5V*
X47250000Y-20250000D03*
G04 #@! TO.P,U4,8,VDD*
X47750000Y-20250000D03*
D31*
G04 #@! TO.P,U4,9,OUTP*
G04 #@! TO.N,Net-(J1-Pin_2)*
X48500000Y-19500000D03*
G04 #@! TO.P,U4,10,OUTN*
G04 #@! TO.N,Net-(J1-Pin_1)*
X48500000Y-19000000D03*
G04 #@! TO.P,U4,11,GND*
G04 #@! TO.N,GND*
X48500000Y-18500000D03*
G04 #@! TO.P,U4,12,N.C.*
G04 #@! TO.N,unconnected-(U4-N.C.-Pad12)*
X48500000Y-18000000D03*
D32*
G04 #@! TO.P,U4,13,N.C.*
G04 #@! TO.N,unconnected-(U4-N.C.-Pad13)*
X47750000Y-17250000D03*
G04 #@! TO.P,U4,14,LRCLK*
G04 #@! TO.N,/I2S_LRCLK*
X47250000Y-17250000D03*
G04 #@! TO.P,U4,15,GND*
G04 #@! TO.N,GND*
X46750000Y-17250000D03*
G04 #@! TO.P,U4,16,BCLK*
G04 #@! TO.N,/I2S_BCLK*
X46250000Y-17250000D03*
D33*
G04 #@! TO.P,U4,17,EP*
G04 #@! TO.N,GND*
X47000000Y-18750000D03*
G04 #@! TD*
D12*
G04 #@! TO.P,R8,1,1*
G04 #@! TO.N,GND*
X39450000Y-10700000D03*
G04 #@! TO.P,R8,2,2*
G04 #@! TO.N,Net-(LED1--)*
X37450000Y-10700000D03*
G04 #@! TD*
D18*
G04 #@! TO.P,C2,1,1*
G04 #@! TO.N,/5V*
X41700000Y-8500000D03*
G04 #@! TO.P,C2,2,2*
G04 #@! TO.N,GND*
X39300000Y-8500000D03*
G04 #@! TD*
D34*
G04 #@! TO.P,LED1,1,+*
G04 #@! TO.N,/ESP_LED*
X33650000Y-10800000D03*
G04 #@! TO.P,LED1,2,-*
G04 #@! TO.N,Net-(LED1--)*
X35750000Y-10800000D03*
G04 #@! TD*
D35*
G04 #@! TO.N,/3V3*
X43950000Y-9600000D03*
X24000000Y-6550000D03*
X32600000Y-12400000D03*
X44800000Y-4000000D03*
X20500000Y-13500000D03*
G04 #@! TO.N,GND*
X26200000Y-20600000D03*
X8700000Y-13600000D03*
X59700000Y-17550000D03*
X9600000Y-4750000D03*
X11900000Y-17600000D03*
X48600000Y-14500000D03*
X51800000Y-18750000D03*
X46750000Y-19000000D03*
X41500000Y-11900000D03*
X47600000Y-10400000D03*
X53400000Y-18800000D03*
X44000000Y-6400000D03*
X46400000Y-6400000D03*
X56050000Y-20300000D03*
X32500000Y-1800000D03*
X12900000Y-5700000D03*
X51650000Y-20400000D03*
X56700000Y-18650000D03*
X58250000Y-20400000D03*
X58450000Y-18450000D03*
X9900000Y-10500000D03*
X38900000Y-1800000D03*
X33600000Y-17900000D03*
X54400000Y-12600000D03*
X47700000Y-13400000D03*
X32900000Y-20900000D03*
X21300000Y-9800000D03*
X51800000Y-6900000D03*
X23600000Y-16500000D03*
X51150000Y-17150000D03*
X27900000Y-7400000D03*
X53650000Y-20350000D03*
X44800000Y-14600000D03*
X45000000Y-1700000D03*
X23000000Y-13500000D03*
X49900000Y-3600000D03*
X54550000Y-17200000D03*
X38600000Y-6400000D03*
X41400000Y-17300000D03*
X61100000Y-19100000D03*
X47250000Y-18500000D03*
X40100000Y-17300000D03*
X31500000Y-12100000D03*
X46400000Y-11500000D03*
X49100000Y-6700000D03*
G04 #@! TO.N,/5V*
X44800000Y-12800000D03*
D36*
X50500000Y-7500000D03*
D35*
X50450000Y-21500000D03*
X48000000Y-15950000D03*
X42500000Y-10500000D03*
X43500000Y-7900000D03*
D36*
G04 #@! TO.N,/SD_MODE*
X58800000Y-10600000D03*
X44700000Y-19900000D03*
X59900000Y-10600000D03*
X56200000Y-11100000D03*
G04 #@! TO.N,/GAIN_SLOT*
X44800000Y-18590000D03*
G04 #@! TO.N,/ESP_PROG*
X26000000Y-2000000D03*
G04 #@! TO.N,/ESP_EN*
X10400000Y-18400000D03*
X29700000Y-11300000D03*
G04 #@! TO.N,/USB_N*
X32547488Y-8249936D03*
X23680000Y-18510000D03*
G04 #@! TO.N,/ESP_TXD*
X9500000Y-5800000D03*
G04 #@! TO.N,/ESP_RXD*
X11500000Y-5800000D03*
G04 #@! TO.N,/USB_P*
X23560000Y-17610000D03*
X32052512Y-7754960D03*
G04 #@! TO.N,/GPIO_21*
X14397500Y-3400000D03*
G04 #@! TO.N,/GPIO_19*
X15667500Y-3300000D03*
G04 #@! TO.N,/GPIO_16*
X51400000Y-5400000D03*
X15300000Y-16350000D03*
X49900000Y-5900000D03*
G04 #@! TO.N,/GPIO_17*
X19800000Y-3400000D03*
G04 #@! TO.N,/GPIO_5*
X18600000Y-3500000D03*
G04 #@! TO.N,/GPIO_18*
X16900000Y-3300000D03*
G04 #@! TO.N,/GPIO_25*
X19000000Y-18400000D03*
G04 #@! TO.N,/GPIO_32*
X16550000Y-18400000D03*
G04 #@! TO.N,/GPIO_26*
X20200000Y-16250000D03*
G04 #@! TO.N,/GPIO_33*
X17850000Y-16150000D03*
D35*
G04 #@! TO.N,/WLED_VDD*
X27400000Y-16500000D03*
X41900000Y-21600000D03*
X52800000Y-8300000D03*
D36*
G04 #@! TO.N,Net-(LED3-DO)*
X30800000Y-15600000D03*
X40650000Y-21600000D03*
G04 #@! TO.N,Net-(LED4-DO)*
X49500000Y-20400000D03*
X42200000Y-17800000D03*
G04 #@! TO.N,/GPIO_34*
X14400000Y-18600000D03*
G04 #@! TD*
D37*
G04 #@! TO.N,/3V3*
X33600000Y-12500000D02*
X33600000Y-12700000D01*
D38*
X9317500Y-19750000D02*
X9317500Y-17382500D01*
D37*
X46600000Y-9600000D02*
X47700000Y-8500000D01*
X47970000Y-4000000D02*
X47970000Y-8230000D01*
X43950000Y-9600000D02*
X46600000Y-9600000D01*
D39*
X9317500Y-17382500D02*
X11500000Y-15200000D01*
D37*
X33600000Y-12700000D02*
X35100000Y-14200000D01*
D39*
X24000000Y-10000000D02*
X24000000Y-6550000D01*
X18800000Y-15200000D02*
X24000000Y-10000000D01*
X11500000Y-15200000D02*
X18800000Y-15200000D01*
D37*
X32600000Y-12400000D02*
X33500000Y-12400000D01*
X33500000Y-12400000D02*
X33600000Y-12500000D01*
D39*
X42030000Y-4000000D02*
X47970000Y-4000000D01*
D40*
G04 #@! TO.N,GND*
X46750000Y-17250000D02*
X46750000Y-18500000D01*
X45500000Y-19000000D02*
X46750000Y-19000000D01*
X48500000Y-18500000D02*
X47250000Y-18500000D01*
D39*
G04 #@! TO.N,/5V*
X31162500Y-4137500D02*
X30600000Y-4700000D01*
X41560000Y-7860000D02*
X42500000Y-8800000D01*
D41*
X30600000Y-5108516D02*
X30600000Y-4700000D01*
X34800000Y-6008516D02*
X34200000Y-5408516D01*
D39*
X39710000Y-4510000D02*
X39337500Y-4137500D01*
D41*
X30000000Y-5708516D02*
X30600000Y-5108516D01*
D39*
X42500000Y-8800000D02*
X43400000Y-7900000D01*
D42*
X47250000Y-20250000D02*
X47250000Y-21450000D01*
D39*
X44800000Y-12800000D02*
X42500000Y-10500000D01*
X40860000Y-6300000D02*
X41560000Y-6300000D01*
D42*
X47750000Y-20250000D02*
X47750000Y-21500000D01*
D39*
X41560000Y-7450000D02*
X41560000Y-7860000D01*
X34200000Y-4137500D02*
X31162500Y-4137500D01*
D41*
X30000000Y-6522500D02*
X30000000Y-5708516D01*
D39*
X39710000Y-5150000D02*
X40860000Y-6300000D01*
X48000000Y-15950000D02*
X49320000Y-15950000D01*
X41560000Y-6300000D02*
X41560000Y-7450000D01*
X42500000Y-10500000D02*
X42500000Y-8800000D01*
X43400000Y-7900000D02*
X43500000Y-7900000D01*
D41*
X53200000Y-10200000D02*
X50500000Y-7500000D01*
D39*
X44500000Y-21500000D02*
X43500000Y-20500000D01*
X41560000Y-7450000D02*
X41560000Y-8360000D01*
X39710000Y-4510000D02*
X39710000Y-5150000D01*
X50450000Y-21500000D02*
X44500000Y-21500000D01*
X39337500Y-4137500D02*
X34200000Y-4137500D01*
D41*
X55200000Y-10200000D02*
X53200000Y-10200000D01*
X34800000Y-6522500D02*
X34800000Y-6008516D01*
D43*
X34200000Y-5408516D02*
X34200000Y-4137500D01*
D44*
G04 #@! TO.N,Net-(J1-Pin_2)*
X49250000Y-19500000D02*
X59000000Y-19500000D01*
X59000000Y-19500000D02*
X61500000Y-17000000D01*
D42*
X49250000Y-19500000D02*
X48500000Y-19500000D01*
D44*
G04 #@! TO.N,Net-(J1-Pin_1)*
X56500000Y-17000000D02*
X55450000Y-18050000D01*
D42*
X48850000Y-19000000D02*
X48500000Y-19000000D01*
D44*
X49800000Y-18050000D02*
X49400000Y-18450000D01*
D41*
X49400000Y-18450000D02*
X48850000Y-19000000D01*
D44*
X55450000Y-18050000D02*
X49800000Y-18050000D01*
D40*
G04 #@! TO.N,/SD_MODE*
X44700000Y-19900000D02*
X45100000Y-19500000D01*
X57100000Y-10200000D02*
X56200000Y-11100000D01*
X45100000Y-19500000D02*
X45500000Y-19500000D01*
X57200000Y-10200000D02*
X57100000Y-10200000D01*
X58800000Y-10600000D02*
X59900000Y-10600000D01*
G04 #@! TO.N,/GAIN_SLOT*
X44890000Y-18500000D02*
X45500000Y-18500000D01*
X44800000Y-18590000D02*
X44890000Y-18500000D01*
G04 #@! TO.N,/ESP_LED*
X27530000Y-7972500D02*
X26107500Y-6550000D01*
X27530000Y-8930000D02*
X27530000Y-7972500D01*
X28400000Y-9800000D02*
X29400000Y-10800000D01*
X29400000Y-10800000D02*
X33650000Y-10800000D01*
X28400000Y-9800000D02*
X27530000Y-8930000D01*
X26107500Y-6550000D02*
X25827500Y-6550000D01*
G04 #@! TO.N,Net-(USBC1-CC1)*
X33500000Y-6522500D02*
X33500000Y-8300000D01*
X33500000Y-8300000D02*
X33900000Y-8700000D01*
G04 #@! TO.N,Net-(USBC1-CC2)*
X30500000Y-8200000D02*
X31000000Y-8700000D01*
X30500000Y-6522500D02*
X30500000Y-8200000D01*
G04 #@! TO.N,/ESP_PROG*
X24807500Y-2000000D02*
X24557500Y-2250000D01*
X26000000Y-2000000D02*
X24807500Y-2000000D01*
G04 #@! TO.N,/ESP_EN*
X10587500Y-19750000D02*
X10587500Y-18587500D01*
X36110000Y-15190000D02*
X37100000Y-14200000D01*
X29700000Y-11540344D02*
X33349656Y-15190000D01*
X29700000Y-11300000D02*
X29700000Y-11540344D01*
X10587500Y-18587500D02*
X10400000Y-18400000D01*
X33349656Y-15190000D02*
X36110000Y-15190000D01*
D42*
G04 #@! TO.N,/USB_N*
X32975000Y-7047500D02*
X32975000Y-7645647D01*
X23287500Y-18902500D02*
X23287500Y-19750000D01*
X32150000Y-5672500D02*
X32850000Y-5672500D01*
X32547488Y-8073159D02*
X32547488Y-8249936D01*
X23680000Y-18510000D02*
X23287500Y-18902500D01*
X32850000Y-5672500D02*
X33000000Y-5822500D01*
X33000000Y-6522500D02*
X33000000Y-7022500D01*
X32975000Y-7645647D02*
X32547488Y-8073159D01*
X33000000Y-7022500D02*
X32975000Y-7047500D01*
X33000000Y-5822500D02*
X33000000Y-6522500D01*
X32000000Y-6522500D02*
X32000000Y-5822500D01*
X32000000Y-5822500D02*
X32150000Y-5672500D01*
D40*
G04 #@! TO.N,/ESP_TXD*
X11857500Y-2250000D02*
X11857500Y-3442500D01*
X11857500Y-3442500D02*
X9500000Y-5800000D01*
G04 #@! TO.N,/ESP_RXD*
X13127500Y-2250000D02*
X13127500Y-4172500D01*
X13127500Y-4172500D02*
X11500000Y-5800000D01*
D42*
G04 #@! TO.N,/USB_P*
X32229289Y-7754960D02*
X32052512Y-7754960D01*
X31500000Y-6522500D02*
X31500000Y-7200000D01*
X32350000Y-7372500D02*
X32500000Y-7222500D01*
X32500000Y-7022500D02*
X32525000Y-7047500D01*
X31672500Y-7372500D02*
X32350000Y-7372500D01*
X32525000Y-7047500D02*
X32525000Y-7459249D01*
X32500000Y-6522500D02*
X32500000Y-7022500D01*
X24557500Y-18482862D02*
X24557500Y-19750000D01*
X31500000Y-7200000D02*
X31672500Y-7372500D01*
X32525000Y-7459249D02*
X32229289Y-7754960D01*
X32500000Y-7222500D02*
X32500000Y-6522500D01*
X23560000Y-17610000D02*
X23684638Y-17610000D01*
X23684638Y-17610000D02*
X24557500Y-18482862D01*
D40*
G04 #@! TO.N,/I2S_BCLK*
X25827500Y-11630000D02*
X28630000Y-11630000D01*
X33010000Y-16010000D02*
X45410000Y-16010000D01*
X46250000Y-16850000D02*
X46250000Y-17250000D01*
X45410000Y-16010000D02*
X46250000Y-16850000D01*
X28630000Y-11630000D02*
X33010000Y-16010000D01*
G04 #@! TO.N,/I2S_LRCLK*
X33179828Y-15600000D02*
X27949828Y-10370000D01*
X27949828Y-10370000D02*
X25827500Y-10370000D01*
X47250000Y-17250000D02*
X47250000Y-16665000D01*
X46185000Y-15600000D02*
X33179828Y-15600000D01*
X47250000Y-16665000D02*
X46185000Y-15600000D01*
G04 #@! TO.N,/I2S_DIN*
X25827500Y-12910000D02*
X29330172Y-12910000D01*
X44720000Y-16420000D02*
X45500000Y-17200000D01*
X32840172Y-16420000D02*
X44720000Y-16420000D01*
X29330172Y-12910000D02*
X32840172Y-16420000D01*
X45500000Y-17200000D02*
X45500000Y-18000000D01*
G04 #@! TO.N,/GPIO_21*
X14397500Y-3400000D02*
X14397500Y-2250000D01*
G04 #@! TO.N,/GPIO_19*
X15667500Y-3300000D02*
X15667500Y-2250000D01*
G04 #@! TO.N,/GPIO_16*
X50400000Y-5400000D02*
X49900000Y-5900000D01*
X15397500Y-20000000D02*
X15397500Y-16447500D01*
X51400000Y-5400000D02*
X50400000Y-5400000D01*
X15397500Y-16447500D02*
X15300000Y-16350000D01*
G04 #@! TO.N,/GPIO_17*
X19800000Y-2572500D02*
X19477500Y-2250000D01*
X19800000Y-3400000D02*
X19800000Y-2572500D01*
G04 #@! TO.N,/GPIO_5*
X18600000Y-3500000D02*
X18207500Y-3107500D01*
X18207500Y-3107500D02*
X18207500Y-2250000D01*
G04 #@! TO.N,/GPIO_18*
X16900000Y-2587500D02*
X16937500Y-2550000D01*
X16937500Y-2550000D02*
X16937500Y-2250000D01*
X16900000Y-3300000D02*
X16900000Y-2587500D01*
G04 #@! TO.N,/GPIO_25*
X19207500Y-18607500D02*
X19000000Y-18400000D01*
X19207500Y-20000000D02*
X19207500Y-18607500D01*
G04 #@! TO.N,/GPIO_32*
X16667500Y-18517500D02*
X16550000Y-18400000D01*
X16667500Y-20000000D02*
X16667500Y-18517500D01*
G04 #@! TO.N,/GPIO_26*
X20477500Y-20000000D02*
X20477500Y-16527500D01*
X20477500Y-16527500D02*
X20200000Y-16250000D01*
G04 #@! TO.N,/GPIO_33*
X17937500Y-16237500D02*
X17850000Y-16150000D01*
X17937500Y-20000000D02*
X17937500Y-16237500D01*
G04 #@! TO.N,unconnected-(U5-IO48-Pad25)*
X25827500Y-5280000D02*
X26127500Y-5280000D01*
G04 #@! TO.N,Net-(LED1--)*
X36050000Y-11000000D02*
X37300000Y-11000000D01*
G04 #@! TO.N,Net-(LED2-K)*
X36050000Y-12200000D02*
X37300000Y-12200000D01*
D37*
G04 #@! TO.N,/WLED_VDD*
X58430000Y-8300000D02*
X59650000Y-7080000D01*
X52800000Y-8300000D02*
X58430000Y-8300000D01*
X27400000Y-15530000D02*
X27480000Y-15450000D01*
X27400000Y-16500000D02*
X27400000Y-15530000D01*
X41900000Y-20770000D02*
X41950000Y-20720000D01*
X41900000Y-21600000D02*
X41900000Y-20770000D01*
D40*
G04 #@! TO.N,Net-(LED3-DO)*
X30650000Y-15450000D02*
X30800000Y-15600000D01*
X40850000Y-21400000D02*
X40850000Y-20720000D01*
X29320000Y-15450000D02*
X30650000Y-15450000D01*
X40650000Y-21600000D02*
X40850000Y-21400000D01*
G04 #@! TO.N,/WLED*
X25827500Y-14180000D02*
X27310000Y-14180000D01*
X27310000Y-14180000D02*
X27480000Y-14350000D01*
G04 #@! TO.N,Net-(LED4-DO)*
X63900000Y-19200000D02*
X63900000Y-10230000D01*
X63900000Y-10230000D02*
X60750000Y-7080000D01*
X41950000Y-18050000D02*
X42200000Y-17800000D01*
X50460000Y-20400000D02*
X51560000Y-21500000D01*
X49500000Y-20400000D02*
X50460000Y-20400000D01*
X41950000Y-18880000D02*
X41950000Y-18050000D01*
X61600000Y-21500000D02*
X63900000Y-19200000D01*
X51560000Y-21500000D02*
X61600000Y-21500000D01*
G04 #@! TO.N,/GPIO_34*
X14300000Y-18500000D02*
X14300000Y-19652500D01*
X14400000Y-18600000D02*
X14400000Y-19747500D01*
X14400000Y-19747500D02*
X14397500Y-19750000D01*
X14300000Y-19652500D02*
X14397500Y-19750000D01*
G04 #@! TD*
G04 #@! TA.AperFunction,Conductor*
G04 #@! TO.N,GND*
G36*
X27389106Y-519406D02*
G01*
X27425070Y-568906D01*
X27425070Y-630092D01*
X27400919Y-669503D01*
X27298214Y-772207D01*
X27298211Y-772211D01*
X27210609Y-903314D01*
X27210603Y-903325D01*
X27150263Y-1049001D01*
X27150263Y-1049003D01*
X27119500Y-1203655D01*
X27119500Y-1961344D01*
X27150263Y-2115996D01*
X27150263Y-2115998D01*
X27210603Y-2261674D01*
X27210609Y-2261685D01*
X27263263Y-2340485D01*
X27298211Y-2392789D01*
X27409711Y-2504289D01*
X27487876Y-2556517D01*
X27540814Y-2591890D01*
X27540825Y-2591896D01*
X27594638Y-2614185D01*
X27686503Y-2652237D01*
X27841158Y-2683000D01*
X27841159Y-2683000D01*
X27998841Y-2683000D01*
X27998842Y-2683000D01*
X28153497Y-2652237D01*
X28299179Y-2591894D01*
X28430289Y-2504289D01*
X28541789Y-2392789D01*
X28629394Y-2261679D01*
X28689737Y-2115997D01*
X28720500Y-1961342D01*
X28720500Y-1203658D01*
X28689737Y-1049003D01*
X28656913Y-969758D01*
X28629396Y-903325D01*
X28629390Y-903314D01*
X28594017Y-850376D01*
X28541789Y-772211D01*
X28439081Y-669503D01*
X28411304Y-614986D01*
X28420875Y-554554D01*
X28464140Y-511289D01*
X28509085Y-500499D01*
X35990915Y-500499D01*
X36049106Y-519406D01*
X36085070Y-568906D01*
X36085070Y-630092D01*
X36060919Y-669503D01*
X35958214Y-772207D01*
X35958211Y-772211D01*
X35870609Y-903314D01*
X35870603Y-903325D01*
X35810263Y-1049001D01*
X35810263Y-1049003D01*
X35779500Y-1203655D01*
X35779500Y-1961344D01*
X35810263Y-2115996D01*
X35810263Y-2115998D01*
X35870603Y-2261674D01*
X35870609Y-2261685D01*
X35923263Y-2340485D01*
X35958211Y-2392789D01*
X36069711Y-2504289D01*
X36147876Y-2556517D01*
X36200814Y-2591890D01*
X36200825Y-2591896D01*
X36254638Y-2614185D01*
X36346503Y-2652237D01*
X36501158Y-2683000D01*
X36501159Y-2683000D01*
X36658841Y-2683000D01*
X36658842Y-2683000D01*
X36813497Y-2652237D01*
X36959179Y-2591894D01*
X37090289Y-2504289D01*
X37201789Y-2392789D01*
X37289394Y-2261679D01*
X37349737Y-2115997D01*
X37380500Y-1961342D01*
X37380500Y-1950001D01*
X40530000Y-1950001D01*
X40530000Y-2274624D01*
X40544506Y-2347546D01*
X40544507Y-2347548D01*
X40599758Y-2430237D01*
X40599762Y-2430241D01*
X40682451Y-2485492D01*
X40682453Y-2485493D01*
X40755375Y-2499999D01*
X40755377Y-2500000D01*
X41779999Y-2500000D01*
X41780000Y-2499999D01*
X41780000Y-1950001D01*
X42280000Y-1950001D01*
X42280000Y-2499999D01*
X42280001Y-2500000D01*
X43304623Y-2500000D01*
X43304624Y-2499999D01*
X43377546Y-2485493D01*
X43377548Y-2485492D01*
X43460237Y-2430241D01*
X43460241Y-2430237D01*
X43515492Y-2347548D01*
X43515493Y-2347546D01*
X43529999Y-2274624D01*
X43530000Y-2274622D01*
X43530000Y-1950001D01*
X43529999Y-1950000D01*
X42280001Y-1950000D01*
X42280000Y-1950001D01*
X41780000Y-1950001D01*
X41779999Y-1950000D01*
X40530001Y-1950000D01*
X40530000Y-1950001D01*
X37380500Y-1950001D01*
X37380500Y-1203658D01*
X37364928Y-1125375D01*
X40530000Y-1125375D01*
X40530000Y-1449999D01*
X40530001Y-1450000D01*
X41779999Y-1450000D01*
X41780000Y-1449999D01*
X41780000Y-900001D01*
X42280000Y-900001D01*
X42280000Y-1449999D01*
X42280001Y-1450000D01*
X43529999Y-1450000D01*
X43530000Y-1449999D01*
X43530000Y-1125377D01*
X43529999Y-1125375D01*
X43515493Y-1052453D01*
X43515492Y-1052451D01*
X43460241Y-969762D01*
X43460237Y-969758D01*
X43377548Y-914507D01*
X43377546Y-914506D01*
X43304624Y-900000D01*
X42280001Y-900000D01*
X42280000Y-900001D01*
X41780000Y-900001D01*
X41779999Y-900000D01*
X40755375Y-900000D01*
X40682453Y-914506D01*
X40682451Y-914507D01*
X40599762Y-969758D01*
X40599758Y-969762D01*
X40544507Y-1052451D01*
X40544506Y-1052453D01*
X40530000Y-1125375D01*
X37364928Y-1125375D01*
X37349737Y-1049003D01*
X37316913Y-969758D01*
X37289396Y-903325D01*
X37289390Y-903314D01*
X37254017Y-850376D01*
X37201789Y-772211D01*
X37099081Y-669503D01*
X37071304Y-614986D01*
X37080875Y-554554D01*
X37124140Y-511289D01*
X37169085Y-500499D01*
X63060712Y-500499D01*
X63075292Y-501578D01*
X63218737Y-522939D01*
X63234848Y-526737D01*
X63378443Y-573564D01*
X63393694Y-579993D01*
X63527480Y-650093D01*
X63541449Y-658974D01*
X63661682Y-750384D01*
X63673976Y-761470D01*
X63777291Y-871630D01*
X63787567Y-884610D01*
X63871091Y-1010461D01*
X63879059Y-1024970D01*
X63940436Y-1162958D01*
X63945876Y-1178593D01*
X63983408Y-1324897D01*
X63986166Y-1341220D01*
X63999153Y-1496008D01*
X63999500Y-1504285D01*
X63999500Y-9693805D01*
X63980593Y-9751996D01*
X63931093Y-9787960D01*
X63869907Y-9787960D01*
X63830496Y-9763809D01*
X61329496Y-7262809D01*
X61301719Y-7208292D01*
X61300500Y-7192805D01*
X61300500Y-6610253D01*
X61300498Y-6610241D01*
X61296652Y-6590907D01*
X61288867Y-6551769D01*
X61244552Y-6485448D01*
X61244548Y-6485445D01*
X61178233Y-6441134D01*
X61178231Y-6441133D01*
X61178228Y-6441132D01*
X61178227Y-6441132D01*
X61119758Y-6429501D01*
X61119748Y-6429500D01*
X60380252Y-6429500D01*
X60380251Y-6429500D01*
X60380241Y-6429501D01*
X60321772Y-6441132D01*
X60321766Y-6441134D01*
X60255002Y-6485746D01*
X60196114Y-6502355D01*
X60144998Y-6485746D01*
X60078233Y-6441134D01*
X60078231Y-6441133D01*
X60078228Y-6441132D01*
X60078227Y-6441132D01*
X60019758Y-6429501D01*
X60019748Y-6429500D01*
X59280252Y-6429500D01*
X59280251Y-6429500D01*
X59280241Y-6429501D01*
X59221772Y-6441132D01*
X59221766Y-6441134D01*
X59155451Y-6485445D01*
X59155445Y-6485451D01*
X59111134Y-6551766D01*
X59111132Y-6551772D01*
X59099501Y-6610241D01*
X59099500Y-6610253D01*
X59099500Y-6881678D01*
X59080593Y-6939869D01*
X59070504Y-6951682D01*
X58251682Y-7770504D01*
X58197165Y-7798281D01*
X58181678Y-7799500D01*
X52865892Y-7799500D01*
X52734108Y-7799500D01*
X52663960Y-7818296D01*
X52606809Y-7833609D01*
X52492690Y-7899496D01*
X52399496Y-7992690D01*
X52333609Y-8106809D01*
X52333608Y-8106814D01*
X52299500Y-8234108D01*
X52299500Y-8365892D01*
X52322104Y-8450252D01*
X52333609Y-8493190D01*
X52399496Y-8607309D01*
X52399498Y-8607311D01*
X52399500Y-8607314D01*
X52492686Y-8700500D01*
X52492688Y-8700501D01*
X52492690Y-8700503D01*
X52606810Y-8766390D01*
X52606808Y-8766390D01*
X52606812Y-8766391D01*
X52606814Y-8766392D01*
X52734108Y-8800500D01*
X52734110Y-8800500D01*
X58495890Y-8800500D01*
X58495892Y-8800500D01*
X58623186Y-8766392D01*
X58623188Y-8766390D01*
X58623190Y-8766390D01*
X58737309Y-8700503D01*
X58737309Y-8700502D01*
X58737314Y-8700500D01*
X58930498Y-8507315D01*
X58985013Y-8479540D01*
X59045445Y-8489111D01*
X59088710Y-8532376D01*
X59099500Y-8577321D01*
X59099500Y-9389746D01*
X59099501Y-9389758D01*
X59111132Y-9448227D01*
X59111134Y-9448233D01*
X59137403Y-9487546D01*
X59155448Y-9514552D01*
X59155451Y-9514554D01*
X59208853Y-9550237D01*
X59221769Y-9558867D01*
X59266231Y-9567711D01*
X59280241Y-9570498D01*
X59280246Y-9570498D01*
X59280252Y-9570500D01*
X59280253Y-9570500D01*
X60019747Y-9570500D01*
X60019748Y-9570500D01*
X60078231Y-9558867D01*
X60100688Y-9543860D01*
X60159572Y-9527252D01*
X60210773Y-9546139D01*
X60211653Y-9544823D01*
X60302451Y-9605492D01*
X60302453Y-9605493D01*
X60375375Y-9619999D01*
X60375377Y-9620000D01*
X60499999Y-9620000D01*
X60500000Y-9619999D01*
X60500000Y-9170001D01*
X61000000Y-9170001D01*
X61000000Y-9619999D01*
X61000001Y-9620000D01*
X61124623Y-9620000D01*
X61124624Y-9619999D01*
X61197546Y-9605493D01*
X61197548Y-9605492D01*
X61280237Y-9550241D01*
X61280241Y-9550237D01*
X61335492Y-9467548D01*
X61335493Y-9467546D01*
X61349999Y-9394624D01*
X61350000Y-9394622D01*
X61350000Y-9170001D01*
X61349999Y-9170000D01*
X61000001Y-9170000D01*
X61000000Y-9170001D01*
X60500000Y-9170001D01*
X60500000Y-8220001D01*
X61000000Y-8220001D01*
X61000000Y-8669999D01*
X61000001Y-8670000D01*
X61349999Y-8670000D01*
X61350000Y-8669999D01*
X61350000Y-8445377D01*
X61349999Y-8445375D01*
X61335493Y-8372453D01*
X61335492Y-8372451D01*
X61280241Y-8289762D01*
X61280237Y-8289758D01*
X61197548Y-8234507D01*
X61197546Y-8234506D01*
X61124624Y-8220000D01*
X61000001Y-8220000D01*
X61000000Y-8220001D01*
X60500000Y-8220001D01*
X60499999Y-8220000D01*
X60375375Y-8220000D01*
X60302453Y-8234506D01*
X60302451Y-8234507D01*
X60211653Y-8295177D01*
X60209564Y-8292051D01*
X60171125Y-8311612D01*
X60110698Y-8302009D01*
X60100687Y-8296138D01*
X60078233Y-8281134D01*
X60078231Y-8281133D01*
X60078228Y-8281132D01*
X60078227Y-8281132D01*
X60019758Y-8269501D01*
X60019748Y-8269500D01*
X59407322Y-8269500D01*
X59349131Y-8250593D01*
X59313167Y-8201093D01*
X59313167Y-8139907D01*
X59337318Y-8100496D01*
X59678318Y-7759496D01*
X59732835Y-7731719D01*
X59748322Y-7730500D01*
X60019747Y-7730500D01*
X60019748Y-7730500D01*
X60078231Y-7718867D01*
X60144552Y-7674552D01*
X60144553Y-7674549D01*
X60144997Y-7674253D01*
X60203885Y-7657644D01*
X60255003Y-7674253D01*
X60255446Y-7674549D01*
X60255448Y-7674552D01*
X60321769Y-7718867D01*
X60359047Y-7726282D01*
X60380241Y-7730498D01*
X60380246Y-7730498D01*
X60380252Y-7730500D01*
X60962806Y-7730500D01*
X61020997Y-7749407D01*
X61032810Y-7759496D01*
X63590504Y-10317190D01*
X63618281Y-10371707D01*
X63619500Y-10387194D01*
X63619500Y-19042805D01*
X63600593Y-19100996D01*
X63590504Y-19112809D01*
X61512810Y-21190504D01*
X61458293Y-21218281D01*
X61442806Y-21219500D01*
X51717195Y-21219500D01*
X51659004Y-21200593D01*
X51647191Y-21190504D01*
X50684457Y-20227771D01*
X50684456Y-20227769D01*
X50632231Y-20175544D01*
X50568269Y-20138616D01*
X50568266Y-20138615D01*
X50551081Y-20134010D01*
X50496931Y-20119500D01*
X50496929Y-20119500D01*
X50496928Y-20119500D01*
X49862256Y-20119500D01*
X49854660Y-20117032D01*
X49846771Y-20118282D01*
X49826113Y-20107756D01*
X49804065Y-20100593D01*
X49792254Y-20090505D01*
X49771253Y-20069505D01*
X49743474Y-20014989D01*
X49753044Y-19954557D01*
X49796308Y-19911291D01*
X49841255Y-19900500D01*
X59052725Y-19900500D01*
X59052727Y-19900500D01*
X59154588Y-19873207D01*
X59154590Y-19873205D01*
X59154592Y-19873205D01*
X59245908Y-19820483D01*
X59245908Y-19820482D01*
X59245913Y-19820480D01*
X61016171Y-18050220D01*
X61070686Y-18022445D01*
X61131115Y-18032015D01*
X61289168Y-18112547D01*
X61468882Y-18170940D01*
X61468883Y-18170940D01*
X61468886Y-18170941D01*
X61655516Y-18200500D01*
X61655519Y-18200500D01*
X61844484Y-18200500D01*
X62031113Y-18170941D01*
X62031114Y-18170940D01*
X62031118Y-18170940D01*
X62210832Y-18112547D01*
X62379199Y-18026760D01*
X62532073Y-17915690D01*
X62665690Y-17782073D01*
X62776760Y-17629199D01*
X62862547Y-17460832D01*
X62920940Y-17281118D01*
X62923599Y-17264331D01*
X62950500Y-17094484D01*
X62950500Y-16905515D01*
X62920941Y-16718886D01*
X62920940Y-16718882D01*
X62862547Y-16539168D01*
X62776760Y-16370801D01*
X62665690Y-16217927D01*
X62532073Y-16084310D01*
X62379199Y-15973240D01*
X62379198Y-15973239D01*
X62379196Y-15973238D01*
X62210832Y-15887453D01*
X62031113Y-15829058D01*
X61844484Y-15799500D01*
X61844481Y-15799500D01*
X61655519Y-15799500D01*
X61655516Y-15799500D01*
X61468886Y-15829058D01*
X61289167Y-15887453D01*
X61120803Y-15973238D01*
X60967928Y-16084309D01*
X60834309Y-16217928D01*
X60723238Y-16370803D01*
X60637453Y-16539167D01*
X60579058Y-16718886D01*
X60549500Y-16905515D01*
X60549500Y-17094484D01*
X60579059Y-17281121D01*
X60579967Y-17284899D01*
X60578315Y-17285295D01*
X60578325Y-17340007D01*
X60554169Y-17379436D01*
X58863103Y-19070504D01*
X58808586Y-19098281D01*
X58793099Y-19099500D01*
X49485188Y-19099500D01*
X49463139Y-19092336D01*
X49440244Y-19088710D01*
X49434595Y-19083061D01*
X49426997Y-19080593D01*
X49413368Y-19061835D01*
X49396979Y-19045446D01*
X49395729Y-19037557D01*
X49391033Y-19031093D01*
X49391033Y-19007906D01*
X49387407Y-18985014D01*
X49391033Y-18977897D01*
X49391033Y-18969907D01*
X49415184Y-18930497D01*
X49429700Y-18915981D01*
X49491964Y-18853716D01*
X49536346Y-18828094D01*
X49554588Y-18823207D01*
X49628397Y-18780593D01*
X49645908Y-18770483D01*
X49645908Y-18770482D01*
X49645913Y-18770480D01*
X49857743Y-18558650D01*
X49936898Y-18479496D01*
X49991414Y-18451719D01*
X50006901Y-18450500D01*
X55502725Y-18450500D01*
X55502727Y-18450500D01*
X55604588Y-18423207D01*
X55604590Y-18423205D01*
X55604592Y-18423205D01*
X55695908Y-18370483D01*
X55695908Y-18370482D01*
X55695913Y-18370480D01*
X56016170Y-18050221D01*
X56070685Y-18022445D01*
X56131116Y-18032015D01*
X56289168Y-18112547D01*
X56468882Y-18170940D01*
X56468883Y-18170940D01*
X56468886Y-18170941D01*
X56655516Y-18200500D01*
X56655519Y-18200500D01*
X56844484Y-18200500D01*
X57031113Y-18170941D01*
X57031114Y-18170940D01*
X57031118Y-18170940D01*
X57210832Y-18112547D01*
X57379199Y-18026760D01*
X57532073Y-17915690D01*
X57665690Y-17782073D01*
X57776760Y-17629199D01*
X57862547Y-17460832D01*
X57920940Y-17281118D01*
X57923599Y-17264331D01*
X57950500Y-17094484D01*
X57950500Y-16905515D01*
X57920941Y-16718886D01*
X57920940Y-16718882D01*
X57862547Y-16539168D01*
X57776760Y-16370801D01*
X57665690Y-16217927D01*
X57532073Y-16084310D01*
X57379199Y-15973240D01*
X57379198Y-15973239D01*
X57379196Y-15973238D01*
X57210832Y-15887453D01*
X57031113Y-15829058D01*
X56844484Y-15799500D01*
X56844481Y-15799500D01*
X56655519Y-15799500D01*
X56655516Y-15799500D01*
X56468886Y-15829058D01*
X56289167Y-15887453D01*
X56120803Y-15973238D01*
X55967928Y-16084309D01*
X55834309Y-16217928D01*
X55723238Y-16370803D01*
X55637453Y-16539167D01*
X55579058Y-16718886D01*
X55549500Y-16905515D01*
X55549500Y-17094484D01*
X55579059Y-17281121D01*
X55579967Y-17284899D01*
X55578319Y-17285294D01*
X55578319Y-17340028D01*
X55554169Y-17379436D01*
X55313104Y-17620503D01*
X55258587Y-17648281D01*
X55243100Y-17649500D01*
X49747273Y-17649500D01*
X49704518Y-17660956D01*
X49645411Y-17676793D01*
X49580430Y-17714311D01*
X49580429Y-17714310D01*
X49554086Y-17729520D01*
X49169503Y-18114103D01*
X49114987Y-18141880D01*
X49054555Y-18132309D01*
X49011290Y-18089044D01*
X49000500Y-18044099D01*
X49000500Y-17855253D01*
X49000498Y-17855241D01*
X48995241Y-17828813D01*
X48988867Y-17796769D01*
X48944552Y-17730448D01*
X48944548Y-17730445D01*
X48878233Y-17686134D01*
X48878231Y-17686133D01*
X48878228Y-17686132D01*
X48878227Y-17686132D01*
X48819758Y-17674501D01*
X48819748Y-17674500D01*
X48180252Y-17674500D01*
X48175388Y-17674500D01*
X48175388Y-17672229D01*
X48124256Y-17660956D01*
X48083660Y-17615178D01*
X48077258Y-17574612D01*
X48075500Y-17574612D01*
X48075500Y-16930253D01*
X48075498Y-16930241D01*
X48070580Y-16905519D01*
X48063867Y-16871769D01*
X48050831Y-16852260D01*
X48018920Y-16804502D01*
X48002311Y-16745614D01*
X48023488Y-16688210D01*
X48074362Y-16654217D01*
X48101235Y-16650500D01*
X48651392Y-16650500D01*
X48709583Y-16669407D01*
X48733707Y-16694498D01*
X48750448Y-16719552D01*
X48750451Y-16719554D01*
X48803853Y-16755237D01*
X48816769Y-16763867D01*
X48861231Y-16772711D01*
X48875241Y-16775498D01*
X48875246Y-16775498D01*
X48875252Y-16775500D01*
X48875253Y-16775500D01*
X50324747Y-16775500D01*
X50324748Y-16775500D01*
X50383231Y-16763867D01*
X50449552Y-16719552D01*
X50488280Y-16661592D01*
X50536329Y-16623714D01*
X50597467Y-16621312D01*
X50648340Y-16655305D01*
X50653803Y-16664626D01*
X50654087Y-16664437D01*
X50714758Y-16755237D01*
X50714762Y-16755241D01*
X50797451Y-16810492D01*
X50797453Y-16810493D01*
X50870375Y-16824999D01*
X50870377Y-16825000D01*
X51349999Y-16825000D01*
X51350000Y-16824999D01*
X51350000Y-16150001D01*
X51850000Y-16150001D01*
X51850000Y-16824999D01*
X51850001Y-16825000D01*
X52329623Y-16825000D01*
X52329624Y-16824999D01*
X52402546Y-16810493D01*
X52402548Y-16810492D01*
X52485237Y-16755241D01*
X52485241Y-16755237D01*
X52540492Y-16672548D01*
X52540493Y-16672546D01*
X52554999Y-16599624D01*
X52555000Y-16599622D01*
X52555000Y-16150001D01*
X52554999Y-16150000D01*
X51850001Y-16150000D01*
X51850000Y-16150001D01*
X51350000Y-16150001D01*
X51350000Y-14975001D01*
X51850000Y-14975001D01*
X51850000Y-15649999D01*
X51850001Y-15650000D01*
X52554999Y-15650000D01*
X52555000Y-15649999D01*
X52555000Y-15200377D01*
X52554999Y-15200375D01*
X52540493Y-15127453D01*
X52540492Y-15127451D01*
X52485241Y-15044762D01*
X52485237Y-15044758D01*
X52402548Y-14989507D01*
X52402546Y-14989506D01*
X52329624Y-14975000D01*
X51850001Y-14975000D01*
X51850000Y-14975001D01*
X51350000Y-14975001D01*
X51349999Y-14975000D01*
X51107366Y-14975000D01*
X51049175Y-14956093D01*
X51013211Y-14906593D01*
X51013211Y-14845407D01*
X51049175Y-14795907D01*
X51096282Y-14777622D01*
X51123528Y-14774552D01*
X51177898Y-14768426D01*
X51457182Y-14704682D01*
X51727572Y-14610068D01*
X51985669Y-14485775D01*
X52228227Y-14333366D01*
X52452195Y-14154757D01*
X52654757Y-13952195D01*
X52833366Y-13728227D01*
X52985775Y-13485669D01*
X53110068Y-13227572D01*
X53173062Y-13047546D01*
X53204681Y-12957185D01*
X53204682Y-12957182D01*
X53268426Y-12677898D01*
X53300500Y-12393233D01*
X53300500Y-12106767D01*
X53268426Y-11822102D01*
X53204682Y-11542818D01*
X53198622Y-11525500D01*
X53110069Y-11272430D01*
X52985776Y-11014332D01*
X52909570Y-10893052D01*
X52833366Y-10771773D01*
X52654757Y-10547805D01*
X52452195Y-10345243D01*
X52228227Y-10166634D01*
X52130987Y-10105534D01*
X51985667Y-10014223D01*
X51727568Y-9889930D01*
X51727569Y-9889930D01*
X51457185Y-9795318D01*
X51177896Y-9731573D01*
X50893234Y-9699500D01*
X50893233Y-9699500D01*
X50606767Y-9699500D01*
X50606765Y-9699500D01*
X50322103Y-9731573D01*
X50042814Y-9795318D01*
X49772430Y-9889930D01*
X49514332Y-10014223D01*
X49271772Y-10166634D01*
X49047806Y-10345242D01*
X48845242Y-10547806D01*
X48666634Y-10771772D01*
X48514223Y-11014332D01*
X48389930Y-11272430D01*
X48295318Y-11542814D01*
X48231573Y-11822103D01*
X48199500Y-12106765D01*
X48199500Y-12393234D01*
X48231573Y-12677896D01*
X48295318Y-12957185D01*
X48389930Y-13227569D01*
X48514223Y-13485667D01*
X48594615Y-13613609D01*
X48666634Y-13728227D01*
X48845243Y-13952195D01*
X49047805Y-14154757D01*
X49271773Y-14333366D01*
X49337432Y-14374622D01*
X49514332Y-14485776D01*
X49598731Y-14526420D01*
X49772428Y-14610068D01*
X49772431Y-14610069D01*
X49772430Y-14610069D01*
X50042814Y-14704681D01*
X50042817Y-14704681D01*
X50042818Y-14704682D01*
X50322102Y-14768426D01*
X50606767Y-14800500D01*
X50606768Y-14800500D01*
X50756047Y-14800500D01*
X50814238Y-14819407D01*
X50850202Y-14868907D01*
X50850202Y-14930093D01*
X50814238Y-14979593D01*
X50802204Y-14986330D01*
X50714762Y-15044758D01*
X50714758Y-15044762D01*
X50654087Y-15135563D01*
X50651401Y-15133768D01*
X50622311Y-15167821D01*
X50562815Y-15182098D01*
X50506290Y-15158677D01*
X50488279Y-15138406D01*
X50449554Y-15080451D01*
X50449552Y-15080448D01*
X50449548Y-15080445D01*
X50383233Y-15036134D01*
X50383231Y-15036133D01*
X50383228Y-15036132D01*
X50383227Y-15036132D01*
X50324758Y-15024501D01*
X50324748Y-15024500D01*
X48875252Y-15024500D01*
X48875251Y-15024500D01*
X48875241Y-15024501D01*
X48816772Y-15036132D01*
X48816766Y-15036134D01*
X48750451Y-15080445D01*
X48750445Y-15080451D01*
X48706134Y-15146766D01*
X48706132Y-15146772D01*
X48701548Y-15169816D01*
X48671650Y-15223200D01*
X48616085Y-15248814D01*
X48604451Y-15249500D01*
X47931004Y-15249500D01*
X47795672Y-15276420D01*
X47795670Y-15276420D01*
X47668193Y-15329222D01*
X47668182Y-15329228D01*
X47553458Y-15405885D01*
X47455885Y-15503458D01*
X47379228Y-15618182D01*
X47379222Y-15618193D01*
X47326420Y-15745670D01*
X47326420Y-15745672D01*
X47299500Y-15881004D01*
X47299500Y-16008095D01*
X47280593Y-16066286D01*
X47231093Y-16102250D01*
X47169907Y-16102250D01*
X47130496Y-16078099D01*
X46925976Y-15873579D01*
X46387932Y-15335534D01*
X46312568Y-15292023D01*
X46228511Y-15269500D01*
X46228509Y-15269500D01*
X37780708Y-15269500D01*
X37722517Y-15250593D01*
X37686553Y-15201093D01*
X37686553Y-15139907D01*
X37722517Y-15090407D01*
X37742823Y-15079036D01*
X37743229Y-15078867D01*
X37743231Y-15078867D01*
X37809552Y-15034552D01*
X37853867Y-14968231D01*
X37865500Y-14909748D01*
X37865500Y-13490252D01*
X37864588Y-13485669D01*
X37853867Y-13431770D01*
X37852051Y-13427385D01*
X37847251Y-13366388D01*
X37879220Y-13314219D01*
X37935748Y-13290805D01*
X37943515Y-13290500D01*
X38034747Y-13290500D01*
X38034748Y-13290500D01*
X38093231Y-13278867D01*
X38159552Y-13234552D01*
X38203867Y-13168231D01*
X38215500Y-13109748D01*
X38215500Y-12650001D01*
X38635000Y-12650001D01*
X38635000Y-13114624D01*
X38649506Y-13187546D01*
X38649507Y-13187548D01*
X38704758Y-13270237D01*
X38704762Y-13270241D01*
X38787451Y-13325492D01*
X38787453Y-13325493D01*
X38860375Y-13339999D01*
X38860377Y-13340000D01*
X39199999Y-13340000D01*
X39200000Y-13339999D01*
X39200000Y-12650001D01*
X39700000Y-12650001D01*
X39700000Y-13339999D01*
X39700001Y-13340000D01*
X40039623Y-13340000D01*
X40039624Y-13339999D01*
X40112546Y-13325493D01*
X40112548Y-13325492D01*
X40195237Y-13270241D01*
X40195241Y-13270237D01*
X40250492Y-13187548D01*
X40250493Y-13187546D01*
X40264999Y-13114624D01*
X40265000Y-13114622D01*
X40265000Y-12650001D01*
X40264999Y-12650000D01*
X39700001Y-12650000D01*
X39700000Y-12650001D01*
X39200000Y-12650001D01*
X39199999Y-12650000D01*
X38635001Y-12650000D01*
X38635000Y-12650001D01*
X38215500Y-12650001D01*
X38215500Y-11690252D01*
X38214990Y-11687690D01*
X38209087Y-11658013D01*
X38203867Y-11631769D01*
X38185981Y-11605001D01*
X38169372Y-11546115D01*
X38185982Y-11494997D01*
X38190960Y-11487547D01*
X38203867Y-11468231D01*
X38215500Y-11409748D01*
X38215500Y-10950001D01*
X38635000Y-10950001D01*
X38635000Y-11414624D01*
X38649506Y-11487546D01*
X38649506Y-11487547D01*
X38654486Y-11495000D01*
X38671093Y-11553889D01*
X38654486Y-11605000D01*
X38649506Y-11612452D01*
X38649506Y-11612453D01*
X38635000Y-11685375D01*
X38635000Y-12149999D01*
X38635001Y-12150000D01*
X39199999Y-12150000D01*
X39200000Y-12149999D01*
X39200000Y-10950001D01*
X39700000Y-10950001D01*
X39700000Y-12149999D01*
X39700001Y-12150000D01*
X40264999Y-12150000D01*
X40265000Y-12149999D01*
X40265000Y-11685377D01*
X40264999Y-11685375D01*
X40250494Y-11612456D01*
X40245516Y-11605006D01*
X40228905Y-11546118D01*
X40245516Y-11494994D01*
X40250494Y-11487543D01*
X40264999Y-11414624D01*
X40265000Y-11414622D01*
X40265000Y-10950001D01*
X40264999Y-10950000D01*
X39700001Y-10950000D01*
X39700000Y-10950001D01*
X39200000Y-10950001D01*
X39199999Y-10950000D01*
X38635001Y-10950000D01*
X38635000Y-10950001D01*
X38215500Y-10950001D01*
X38215500Y-9990252D01*
X38215500Y-9990251D01*
X38215499Y-9990243D01*
X38214531Y-9985375D01*
X38635000Y-9985375D01*
X38635000Y-10449999D01*
X38635001Y-10450000D01*
X39199999Y-10450000D01*
X39200000Y-10449999D01*
X39200000Y-9760001D01*
X39700000Y-9760001D01*
X39700000Y-10449999D01*
X39700001Y-10450000D01*
X40264999Y-10450000D01*
X40265000Y-10449999D01*
X40265000Y-9985377D01*
X40264999Y-9985375D01*
X40250493Y-9912453D01*
X40250492Y-9912451D01*
X40195241Y-9829762D01*
X40195237Y-9829758D01*
X40112548Y-9774507D01*
X40112546Y-9774506D01*
X40039624Y-9760000D01*
X39700001Y-9760000D01*
X39700000Y-9760001D01*
X39200000Y-9760001D01*
X39199999Y-9760000D01*
X38860375Y-9760000D01*
X38787453Y-9774506D01*
X38787451Y-9774507D01*
X38704762Y-9829758D01*
X38704758Y-9829762D01*
X38649507Y-9912451D01*
X38649506Y-9912453D01*
X38635000Y-9985375D01*
X38214531Y-9985375D01*
X38208576Y-9955445D01*
X38203867Y-9931769D01*
X38159552Y-9865448D01*
X38107389Y-9830593D01*
X38093233Y-9821134D01*
X38093231Y-9821133D01*
X38093228Y-9821132D01*
X38093227Y-9821132D01*
X38034758Y-9809501D01*
X38034748Y-9809500D01*
X36865252Y-9809500D01*
X36865251Y-9809500D01*
X36865241Y-9809501D01*
X36806772Y-9821132D01*
X36806766Y-9821134D01*
X36740451Y-9865445D01*
X36740445Y-9865451D01*
X36696134Y-9931766D01*
X36696132Y-9931772D01*
X36684501Y-9990241D01*
X36684500Y-9990253D01*
X36684500Y-10620500D01*
X36679655Y-10635411D01*
X36679655Y-10651093D01*
X36670438Y-10663778D01*
X36665593Y-10678691D01*
X36652907Y-10687907D01*
X36643691Y-10700593D01*
X36628778Y-10705438D01*
X36616093Y-10714655D01*
X36585500Y-10719500D01*
X36549500Y-10719500D01*
X36491309Y-10700593D01*
X36455345Y-10651093D01*
X36450500Y-10620500D01*
X36450500Y-10080253D01*
X36450498Y-10080241D01*
X36442060Y-10037822D01*
X36438867Y-10021769D01*
X36394552Y-9955448D01*
X36394548Y-9955445D01*
X36328233Y-9911134D01*
X36328231Y-9911133D01*
X36328228Y-9911132D01*
X36328227Y-9911132D01*
X36269758Y-9899501D01*
X36269748Y-9899500D01*
X35230252Y-9899500D01*
X35230251Y-9899500D01*
X35230241Y-9899501D01*
X35171772Y-9911132D01*
X35171766Y-9911134D01*
X35105451Y-9955445D01*
X35105445Y-9955451D01*
X35061134Y-10021766D01*
X35061132Y-10021772D01*
X35049501Y-10080241D01*
X35049500Y-10080253D01*
X35049500Y-11519746D01*
X35049501Y-11519758D01*
X35061132Y-11578227D01*
X35061134Y-11578233D01*
X35105445Y-11644548D01*
X35105448Y-11644552D01*
X35105451Y-11644554D01*
X35112343Y-11651446D01*
X35109432Y-11654356D01*
X35135433Y-11687690D01*
X35137519Y-11748839D01*
X35124692Y-11776475D01*
X35111135Y-11796764D01*
X35111132Y-11796772D01*
X35099501Y-11855241D01*
X35099500Y-11855253D01*
X35099500Y-13144755D01*
X35104170Y-13168227D01*
X35108013Y-13187548D01*
X35108737Y-13191184D01*
X35105795Y-13216046D01*
X35105795Y-13241093D01*
X35102254Y-13245966D01*
X35101547Y-13251945D01*
X35084553Y-13270329D01*
X35069831Y-13290593D01*
X35064102Y-13292454D01*
X35060015Y-13296876D01*
X35011640Y-13309500D01*
X34958322Y-13309500D01*
X34900131Y-13290593D01*
X34888318Y-13280504D01*
X34329496Y-12721682D01*
X34301719Y-12667165D01*
X34300500Y-12651678D01*
X34300500Y-11855253D01*
X34300498Y-11855241D01*
X34292590Y-11815487D01*
X34288867Y-11796769D01*
X34275307Y-11776475D01*
X34258699Y-11717589D01*
X34279876Y-11660185D01*
X34288490Y-11652279D01*
X34287657Y-11651446D01*
X34294545Y-11644556D01*
X34294552Y-11644552D01*
X34338867Y-11578231D01*
X34350500Y-11519748D01*
X34350500Y-10080252D01*
X34338867Y-10021769D01*
X34294552Y-9955448D01*
X34294548Y-9955445D01*
X34228233Y-9911134D01*
X34228231Y-9911133D01*
X34228228Y-9911132D01*
X34228227Y-9911132D01*
X34169758Y-9899501D01*
X34169748Y-9899500D01*
X33130252Y-9899500D01*
X33130251Y-9899500D01*
X33130241Y-9899501D01*
X33071772Y-9911132D01*
X33071766Y-9911134D01*
X33005451Y-9955445D01*
X33005445Y-9955451D01*
X32961134Y-10021766D01*
X32961132Y-10021772D01*
X32949501Y-10080241D01*
X32949500Y-10080253D01*
X32949500Y-10420500D01*
X32930593Y-10478691D01*
X32881093Y-10514655D01*
X32850500Y-10519500D01*
X29557195Y-10519500D01*
X29499004Y-10500593D01*
X29487191Y-10490504D01*
X29163321Y-10166634D01*
X28763345Y-9766659D01*
X28735569Y-9712143D01*
X28745140Y-9651711D01*
X28750000Y-9645022D01*
X28750000Y-8950001D01*
X29250000Y-8950001D01*
X29250000Y-9639999D01*
X29250001Y-9640000D01*
X29589623Y-9640000D01*
X29589624Y-9639999D01*
X29662546Y-9625493D01*
X29662548Y-9625492D01*
X29745237Y-9570241D01*
X29745241Y-9570237D01*
X29800492Y-9487548D01*
X29800493Y-9487546D01*
X29814999Y-9414624D01*
X29815000Y-9414622D01*
X29815000Y-8950001D01*
X29814999Y-8950000D01*
X29250001Y-8950000D01*
X29250000Y-8950001D01*
X28750000Y-8950001D01*
X28749999Y-8950000D01*
X28185001Y-8950000D01*
X28184665Y-8950335D01*
X28166093Y-9007496D01*
X28116593Y-9043460D01*
X28055407Y-9043460D01*
X28015996Y-9019309D01*
X27839496Y-8842809D01*
X27811719Y-8788292D01*
X27810500Y-8772805D01*
X27810500Y-7985375D01*
X28185000Y-7985375D01*
X28185000Y-8449999D01*
X28185001Y-8450000D01*
X28749999Y-8450000D01*
X28750000Y-8449999D01*
X28750000Y-7760001D01*
X29250000Y-7760001D01*
X29250000Y-8449999D01*
X29250001Y-8450000D01*
X29814999Y-8450000D01*
X29815000Y-8449999D01*
X29815000Y-7985377D01*
X29814999Y-7985375D01*
X29800493Y-7912453D01*
X29800492Y-7912451D01*
X29745241Y-7829762D01*
X29745237Y-7829758D01*
X29662548Y-7774507D01*
X29662546Y-7774506D01*
X29589624Y-7760000D01*
X29250001Y-7760000D01*
X29250000Y-7760001D01*
X28750000Y-7760001D01*
X28749999Y-7760000D01*
X28410375Y-7760000D01*
X28337453Y-7774506D01*
X28337451Y-7774507D01*
X28254762Y-7829758D01*
X28254758Y-7829762D01*
X28199507Y-7912451D01*
X28199506Y-7912453D01*
X28185000Y-7985375D01*
X27810500Y-7985375D01*
X27810500Y-7983802D01*
X27810500Y-7935572D01*
X27808737Y-7928994D01*
X27791384Y-7864231D01*
X27754456Y-7800269D01*
X26806996Y-6852809D01*
X26779219Y-6798292D01*
X26778000Y-6782805D01*
X26778000Y-6080253D01*
X26777998Y-6080241D01*
X26772082Y-6050499D01*
X26766367Y-6021769D01*
X26731774Y-5969999D01*
X26715167Y-5911115D01*
X26731774Y-5860001D01*
X26766367Y-5808231D01*
X26778000Y-5749748D01*
X26778000Y-5283655D01*
X27119500Y-5283655D01*
X27119500Y-6241344D01*
X27150263Y-6395996D01*
X27150263Y-6395998D01*
X27210603Y-6541674D01*
X27210609Y-6541685D01*
X27243499Y-6590907D01*
X27298211Y-6672789D01*
X27409711Y-6784289D01*
X27467257Y-6822740D01*
X27540814Y-6871890D01*
X27540825Y-6871896D01*
X27580436Y-6888303D01*
X27686503Y-6932237D01*
X27841158Y-6963000D01*
X27841159Y-6963000D01*
X27998841Y-6963000D01*
X27998842Y-6963000D01*
X28153497Y-6932237D01*
X28299179Y-6871894D01*
X28299184Y-6871890D01*
X28299187Y-6871889D01*
X28339164Y-6845177D01*
X28345997Y-6840610D01*
X28404885Y-6824001D01*
X28462289Y-6845177D01*
X28496283Y-6896051D01*
X28500000Y-6922925D01*
X28500000Y-7197124D01*
X28514506Y-7270046D01*
X28514507Y-7270048D01*
X28569758Y-7352737D01*
X28569762Y-7352741D01*
X28652451Y-7407992D01*
X28652453Y-7407993D01*
X28725375Y-7422499D01*
X28725377Y-7422500D01*
X28749999Y-7422500D01*
X28750000Y-7422499D01*
X28750000Y-6621500D01*
X28768907Y-6563309D01*
X28818407Y-6527345D01*
X28849000Y-6522500D01*
X29250500Y-6522500D01*
X29308691Y-6541407D01*
X29344655Y-6590907D01*
X29349500Y-6621500D01*
X29349500Y-7192244D01*
X29349523Y-7192478D01*
X29350000Y-7202187D01*
X29350000Y-7422499D01*
X29350001Y-7422500D01*
X29374623Y-7422500D01*
X29374624Y-7422499D01*
X29447546Y-7407994D01*
X29474947Y-7389685D01*
X29529949Y-7373000D01*
X30120500Y-7373000D01*
X30178691Y-7391907D01*
X30214655Y-7441407D01*
X30219500Y-7472000D01*
X30219500Y-8236929D01*
X30224579Y-8255882D01*
X30224580Y-8255885D01*
X30231127Y-8280319D01*
X30231126Y-8280323D01*
X30234500Y-8305942D01*
X30234500Y-9409746D01*
X30234501Y-9409758D01*
X30246132Y-9468227D01*
X30246134Y-9468233D01*
X30285570Y-9527252D01*
X30290448Y-9534552D01*
X30290451Y-9534554D01*
X30343853Y-9570237D01*
X30356769Y-9578867D01*
X30401231Y-9587711D01*
X30415241Y-9590498D01*
X30415246Y-9590498D01*
X30415252Y-9590500D01*
X30415253Y-9590500D01*
X31584747Y-9590500D01*
X31584748Y-9590500D01*
X31643231Y-9578867D01*
X31709552Y-9534552D01*
X31753867Y-9468231D01*
X31765500Y-9409748D01*
X31765500Y-8247584D01*
X31773269Y-8223671D01*
X31778226Y-8199027D01*
X31782578Y-8195020D01*
X31784407Y-8189393D01*
X31804749Y-8174612D01*
X31823244Y-8157590D01*
X31828827Y-8157119D01*
X31833907Y-8153429D01*
X31884021Y-8150528D01*
X31888063Y-8151341D01*
X31888275Y-8151463D01*
X31996494Y-8180460D01*
X32032843Y-8180460D01*
X32042509Y-8182404D01*
X32060997Y-8192809D01*
X32081179Y-8199367D01*
X32087081Y-8207490D01*
X32095829Y-8212414D01*
X32104669Y-8231699D01*
X32117143Y-8248867D01*
X32119572Y-8264208D01*
X32121326Y-8268033D01*
X32120683Y-8271225D01*
X32121988Y-8279460D01*
X32121988Y-8305954D01*
X32144982Y-8391769D01*
X32150986Y-8414177D01*
X32207001Y-8511196D01*
X32207003Y-8511199D01*
X32286225Y-8590421D01*
X32286227Y-8590422D01*
X32383247Y-8646437D01*
X32383245Y-8646437D01*
X32383249Y-8646438D01*
X32383251Y-8646439D01*
X32491470Y-8675436D01*
X32491472Y-8675436D01*
X32603504Y-8675436D01*
X32603506Y-8675436D01*
X32711725Y-8646439D01*
X32711727Y-8646437D01*
X32711729Y-8646437D01*
X32779491Y-8607314D01*
X32808751Y-8590421D01*
X32887973Y-8511199D01*
X32943991Y-8414173D01*
X32943992Y-8414167D01*
X32944034Y-8414069D01*
X32944089Y-8414004D01*
X32947236Y-8408554D01*
X32948245Y-8409137D01*
X32983768Y-8367541D01*
X33043262Y-8353255D01*
X33099792Y-8376667D01*
X33131763Y-8428834D01*
X33134500Y-8451950D01*
X33134500Y-9409746D01*
X33134501Y-9409758D01*
X33146132Y-9468227D01*
X33146134Y-9468233D01*
X33185570Y-9527252D01*
X33190448Y-9534552D01*
X33190451Y-9534554D01*
X33243853Y-9570237D01*
X33256769Y-9578867D01*
X33301231Y-9587711D01*
X33315241Y-9590498D01*
X33315246Y-9590498D01*
X33315252Y-9590500D01*
X33315253Y-9590500D01*
X34484747Y-9590500D01*
X34484748Y-9590500D01*
X34543231Y-9578867D01*
X34609552Y-9534552D01*
X34653867Y-9468231D01*
X34665500Y-9409748D01*
X34665500Y-8950001D01*
X35085000Y-8950001D01*
X35085000Y-9414624D01*
X35099506Y-9487546D01*
X35099507Y-9487548D01*
X35154758Y-9570237D01*
X35154762Y-9570241D01*
X35237451Y-9625492D01*
X35237453Y-9625493D01*
X35310375Y-9639999D01*
X35310377Y-9640000D01*
X35649999Y-9640000D01*
X35650000Y-9639999D01*
X35650000Y-8950001D01*
X36150000Y-8950001D01*
X36150000Y-9639999D01*
X36150001Y-9640000D01*
X36489623Y-9640000D01*
X36489624Y-9639999D01*
X36562546Y-9625493D01*
X36562548Y-9625492D01*
X36645237Y-9570241D01*
X36645241Y-9570237D01*
X36700492Y-9487548D01*
X36700493Y-9487546D01*
X36714999Y-9414624D01*
X36715000Y-9414622D01*
X36715000Y-8950001D01*
X36714999Y-8950000D01*
X36150001Y-8950000D01*
X36150000Y-8950001D01*
X35650000Y-8950001D01*
X35649999Y-8950000D01*
X35085001Y-8950000D01*
X35085000Y-8950001D01*
X34665500Y-8950001D01*
X34665500Y-8750001D01*
X38300000Y-8750001D01*
X38300000Y-9204624D01*
X38314506Y-9277546D01*
X38314507Y-9277548D01*
X38369758Y-9360237D01*
X38369762Y-9360241D01*
X38452451Y-9415492D01*
X38452453Y-9415493D01*
X38525375Y-9429999D01*
X38525377Y-9430000D01*
X39049999Y-9430000D01*
X39050000Y-9429999D01*
X39050000Y-8750001D01*
X39550000Y-8750001D01*
X39550000Y-9429999D01*
X39550001Y-9430000D01*
X40074623Y-9430000D01*
X40074624Y-9429999D01*
X40147546Y-9415493D01*
X40147548Y-9415492D01*
X40230237Y-9360241D01*
X40230241Y-9360237D01*
X40285492Y-9277548D01*
X40285493Y-9277546D01*
X40299999Y-9204624D01*
X40300000Y-9204622D01*
X40300000Y-8750001D01*
X40299999Y-8750000D01*
X39550001Y-8750000D01*
X39550000Y-8750001D01*
X39050000Y-8750001D01*
X39049999Y-8750000D01*
X38300001Y-8750000D01*
X38300000Y-8750001D01*
X34665500Y-8750001D01*
X34665500Y-7990252D01*
X34665500Y-7990251D01*
X34665499Y-7990243D01*
X34664531Y-7985375D01*
X35085000Y-7985375D01*
X35085000Y-8449999D01*
X35085001Y-8450000D01*
X35649999Y-8450000D01*
X35650000Y-8449999D01*
X35650000Y-7760001D01*
X36150000Y-7760001D01*
X36150000Y-8449999D01*
X36150001Y-8450000D01*
X36714999Y-8450000D01*
X36715000Y-8449999D01*
X36715000Y-7985377D01*
X36714999Y-7985375D01*
X36700493Y-7912453D01*
X36700493Y-7912452D01*
X36655766Y-7845513D01*
X36645240Y-7829761D01*
X36645237Y-7829758D01*
X36593779Y-7795375D01*
X38300000Y-7795375D01*
X38300000Y-8249999D01*
X38300001Y-8250000D01*
X39049999Y-8250000D01*
X39050000Y-8249999D01*
X39050000Y-7570001D01*
X39550000Y-7570001D01*
X39550000Y-8249999D01*
X39550001Y-8250000D01*
X40299999Y-8250000D01*
X40300000Y-8249999D01*
X40300000Y-7795377D01*
X40299999Y-7795375D01*
X40285493Y-7722453D01*
X40285492Y-7722451D01*
X40230241Y-7639762D01*
X40230237Y-7639758D01*
X40147548Y-7584507D01*
X40147546Y-7584506D01*
X40074624Y-7570000D01*
X39550001Y-7570000D01*
X39550000Y-7570001D01*
X39050000Y-7570001D01*
X39049999Y-7570000D01*
X38525375Y-7570000D01*
X38452453Y-7584506D01*
X38452451Y-7584507D01*
X38369762Y-7639758D01*
X38369758Y-7639762D01*
X38314507Y-7722451D01*
X38314506Y-7722453D01*
X38300000Y-7795375D01*
X36593779Y-7795375D01*
X36562548Y-7774507D01*
X36562546Y-7774506D01*
X36489624Y-7760000D01*
X36150001Y-7760000D01*
X36150000Y-7760001D01*
X35650000Y-7760001D01*
X35649999Y-7760000D01*
X35310375Y-7760000D01*
X35237453Y-7774506D01*
X35237451Y-7774507D01*
X35154762Y-7829758D01*
X35154758Y-7829762D01*
X35099507Y-7912451D01*
X35099506Y-7912453D01*
X35085000Y-7985375D01*
X34664531Y-7985375D01*
X34654623Y-7935572D01*
X34653867Y-7931769D01*
X34609552Y-7865448D01*
X34607731Y-7864231D01*
X34543233Y-7821134D01*
X34543231Y-7821133D01*
X34543228Y-7821132D01*
X34543227Y-7821132D01*
X34484758Y-7809501D01*
X34484748Y-7809500D01*
X34484747Y-7809500D01*
X33879500Y-7809500D01*
X33821309Y-7790593D01*
X33785345Y-7741093D01*
X33780500Y-7710500D01*
X33780500Y-7472000D01*
X33799407Y-7413809D01*
X33848907Y-7377845D01*
X33879500Y-7373000D01*
X34169747Y-7373000D01*
X34169748Y-7373000D01*
X34219504Y-7363103D01*
X34230685Y-7360879D01*
X34269315Y-7360879D01*
X34330241Y-7372998D01*
X34330246Y-7372998D01*
X34330252Y-7373000D01*
X34330253Y-7373000D01*
X34970050Y-7373000D01*
X35025052Y-7389685D01*
X35052452Y-7407993D01*
X35125375Y-7422499D01*
X35125377Y-7422500D01*
X35149999Y-7422500D01*
X35150000Y-7422499D01*
X35150000Y-7202187D01*
X35150477Y-7192478D01*
X35150500Y-7192244D01*
X35150500Y-6621500D01*
X35169407Y-6563309D01*
X35218907Y-6527345D01*
X35249500Y-6522500D01*
X35651000Y-6522500D01*
X35709191Y-6541407D01*
X35745155Y-6590907D01*
X35750000Y-6621500D01*
X35750000Y-7422499D01*
X35750001Y-7422500D01*
X35774623Y-7422500D01*
X35774624Y-7422499D01*
X35847546Y-7407993D01*
X35847548Y-7407992D01*
X35930237Y-7352741D01*
X35930241Y-7352737D01*
X35985492Y-7270048D01*
X35985493Y-7270046D01*
X35999999Y-7197124D01*
X36000000Y-7197122D01*
X36000000Y-6982458D01*
X36018907Y-6924267D01*
X36068407Y-6888303D01*
X36129593Y-6888303D01*
X36154003Y-6900143D01*
X36177376Y-6915761D01*
X36330000Y-6978979D01*
X36330000Y-6478196D01*
X36334395Y-6482591D01*
X36425606Y-6535252D01*
X36527339Y-6562511D01*
X36632661Y-6562511D01*
X36734394Y-6535252D01*
X36825605Y-6482591D01*
X36830000Y-6478196D01*
X36830000Y-6978978D01*
X36982625Y-6915760D01*
X37121840Y-6822740D01*
X37240240Y-6704340D01*
X37333260Y-6565125D01*
X37397335Y-6410434D01*
X37429999Y-6246220D01*
X37430000Y-6246216D01*
X37430000Y-6012501D01*
X37429999Y-6012500D01*
X36979999Y-6012500D01*
X36979999Y-5512500D01*
X37429999Y-5512500D01*
X37430000Y-5512499D01*
X37430000Y-5278783D01*
X37429999Y-5278779D01*
X37397335Y-5114565D01*
X37339478Y-4974886D01*
X37334677Y-4913889D01*
X37366647Y-4861720D01*
X37423175Y-4838305D01*
X37430942Y-4838000D01*
X38910500Y-4838000D01*
X38968691Y-4856907D01*
X39004655Y-4906407D01*
X39009500Y-4937000D01*
X39009500Y-5218996D01*
X39036420Y-5354327D01*
X39036420Y-5354329D01*
X39089223Y-5481808D01*
X39150556Y-5573601D01*
X39165886Y-5596543D01*
X40413457Y-6844114D01*
X40528189Y-6920775D01*
X40580587Y-6942478D01*
X40625014Y-6978938D01*
X40635448Y-6994552D01*
X40701769Y-7038867D01*
X40746231Y-7047711D01*
X40760241Y-7050498D01*
X40760246Y-7050498D01*
X40760252Y-7050500D01*
X40760500Y-7050500D01*
X40760607Y-7050534D01*
X40765088Y-7050976D01*
X40764991Y-7051959D01*
X40818691Y-7069407D01*
X40854655Y-7118907D01*
X40859500Y-7149500D01*
X40859500Y-7586415D01*
X40840593Y-7644606D01*
X40815502Y-7668730D01*
X40805451Y-7675445D01*
X40805445Y-7675451D01*
X40761134Y-7741766D01*
X40761132Y-7741772D01*
X40749501Y-7800241D01*
X40749500Y-7800253D01*
X40749500Y-9199746D01*
X40749501Y-9199758D01*
X40761132Y-9258227D01*
X40761134Y-9258233D01*
X40790616Y-9302355D01*
X40805448Y-9324552D01*
X40805451Y-9324554D01*
X40858853Y-9360237D01*
X40871769Y-9368867D01*
X40916231Y-9377711D01*
X40930241Y-9380498D01*
X40930246Y-9380498D01*
X40930252Y-9380500D01*
X41700500Y-9380500D01*
X41758691Y-9399407D01*
X41794655Y-9448907D01*
X41799500Y-9479500D01*
X41799500Y-10568996D01*
X41826420Y-10704327D01*
X41826420Y-10704329D01*
X41879223Y-10831808D01*
X41954853Y-10944998D01*
X41955886Y-10946543D01*
X44353457Y-13344114D01*
X44468189Y-13420775D01*
X44595671Y-13473580D01*
X44731006Y-13500499D01*
X44731008Y-13500499D01*
X44868993Y-13500499D01*
X44868994Y-13500499D01*
X45004328Y-13473580D01*
X45131811Y-13420775D01*
X45246543Y-13344114D01*
X45344114Y-13246543D01*
X45420775Y-13131811D01*
X45473580Y-13004328D01*
X45500499Y-12868994D01*
X45500499Y-12731006D01*
X45473580Y-12595671D01*
X45444491Y-12525445D01*
X45420776Y-12468191D01*
X45344116Y-12353460D01*
X45344114Y-12353457D01*
X43229496Y-10238839D01*
X43201719Y-10184322D01*
X43200500Y-10168835D01*
X43200500Y-9131164D01*
X43219407Y-9072973D01*
X43229496Y-9061161D01*
X43712167Y-8578489D01*
X43744282Y-8557029D01*
X43831811Y-8520775D01*
X43946542Y-8444114D01*
X44044114Y-8346542D01*
X44104689Y-8255886D01*
X44118685Y-8234940D01*
X44166735Y-8197061D01*
X44227873Y-8194659D01*
X44269520Y-8222486D01*
X44271004Y-8221003D01*
X44278463Y-8228462D01*
X44278747Y-8228652D01*
X44278801Y-8228800D01*
X44300001Y-8250000D01*
X45049999Y-8250000D01*
X45050000Y-8249999D01*
X45050000Y-7570001D01*
X45550000Y-7570001D01*
X45550000Y-8249999D01*
X45550001Y-8250000D01*
X46299999Y-8250000D01*
X46300000Y-8249999D01*
X46300000Y-7795377D01*
X46299999Y-7795375D01*
X46285493Y-7722453D01*
X46285492Y-7722451D01*
X46230241Y-7639762D01*
X46230237Y-7639758D01*
X46147548Y-7584507D01*
X46147546Y-7584506D01*
X46074624Y-7570000D01*
X45550001Y-7570000D01*
X45550000Y-7570001D01*
X45050000Y-7570001D01*
X45049999Y-7570000D01*
X44525375Y-7570000D01*
X44452453Y-7584506D01*
X44452451Y-7584507D01*
X44369762Y-7639758D01*
X44369756Y-7639764D01*
X44337256Y-7688403D01*
X44289206Y-7726282D01*
X44228068Y-7728683D01*
X44177194Y-7694689D01*
X44163480Y-7671288D01*
X44130965Y-7592789D01*
X44120777Y-7568193D01*
X44120771Y-7568182D01*
X44044114Y-7453458D01*
X43946541Y-7355885D01*
X43831817Y-7279228D01*
X43831806Y-7279222D01*
X43704328Y-7226420D01*
X43568995Y-7199500D01*
X43568993Y-7199500D01*
X43444185Y-7199500D01*
X43385994Y-7180593D01*
X43350030Y-7131093D01*
X43350030Y-7069907D01*
X43385994Y-7020407D01*
X43389183Y-7018185D01*
X43424552Y-6994552D01*
X43468867Y-6928231D01*
X43480500Y-6869748D01*
X43480500Y-5730252D01*
X43468867Y-5671769D01*
X43424552Y-5605448D01*
X43390062Y-5582402D01*
X43358233Y-5561134D01*
X43358231Y-5561133D01*
X43358228Y-5561132D01*
X43358227Y-5561132D01*
X43299758Y-5549501D01*
X43299748Y-5549500D01*
X43299747Y-5549500D01*
X41141165Y-5549500D01*
X41082974Y-5530593D01*
X41071161Y-5520504D01*
X40439496Y-4888839D01*
X40411719Y-4834322D01*
X40410500Y-4818835D01*
X40410500Y-4684253D01*
X40429407Y-4626062D01*
X40478907Y-4590098D01*
X40540093Y-4590098D01*
X40589593Y-4626062D01*
X40591804Y-4629235D01*
X40635448Y-4694552D01*
X40701769Y-4738867D01*
X40746231Y-4747711D01*
X40760241Y-4750498D01*
X40760246Y-4750498D01*
X40760252Y-4750500D01*
X40760253Y-4750500D01*
X43299747Y-4750500D01*
X43299748Y-4750500D01*
X43358231Y-4738867D01*
X43390680Y-4717185D01*
X43445682Y-4700500D01*
X46500500Y-4700500D01*
X46558691Y-4719407D01*
X46594655Y-4768907D01*
X46599500Y-4799500D01*
X46599500Y-5819746D01*
X46599501Y-5819758D01*
X46611132Y-5878227D01*
X46611134Y-5878233D01*
X46655445Y-5944548D01*
X46655448Y-5944552D01*
X46721769Y-5988867D01*
X46766231Y-5997711D01*
X46780241Y-6000498D01*
X46780246Y-6000498D01*
X46780252Y-6000500D01*
X47370500Y-6000500D01*
X47428691Y-6019407D01*
X47464655Y-6068907D01*
X47469500Y-6099500D01*
X47469500Y-7520500D01*
X47450593Y-7578691D01*
X47401093Y-7614655D01*
X47370500Y-7619500D01*
X46930252Y-7619500D01*
X46930251Y-7619500D01*
X46930241Y-7619501D01*
X46871772Y-7631132D01*
X46871766Y-7631134D01*
X46805451Y-7675445D01*
X46805445Y-7675451D01*
X46761134Y-7741766D01*
X46761132Y-7741772D01*
X46749501Y-7800241D01*
X46749500Y-7800253D01*
X46749500Y-8701678D01*
X46730593Y-8759869D01*
X46720504Y-8771682D01*
X46469004Y-9023182D01*
X46414487Y-9050959D01*
X46354055Y-9041388D01*
X46310790Y-8998123D01*
X46300000Y-8953178D01*
X46300000Y-8750001D01*
X46299999Y-8750000D01*
X44300001Y-8750000D01*
X44300000Y-8750001D01*
X44300000Y-9000500D01*
X44281093Y-9058691D01*
X44231593Y-9094655D01*
X44201000Y-9099500D01*
X44015892Y-9099500D01*
X43884108Y-9099500D01*
X43806200Y-9120375D01*
X43756809Y-9133609D01*
X43642690Y-9199496D01*
X43549496Y-9292690D01*
X43483609Y-9406809D01*
X43467151Y-9468233D01*
X43449500Y-9534108D01*
X43449500Y-9665892D01*
X43478603Y-9774506D01*
X43483609Y-9793190D01*
X43549496Y-9907309D01*
X43549498Y-9907311D01*
X43549500Y-9907314D01*
X43642686Y-10000500D01*
X43642688Y-10000501D01*
X43642690Y-10000503D01*
X43756810Y-10066390D01*
X43756808Y-10066390D01*
X43756812Y-10066391D01*
X43756814Y-10066392D01*
X43884108Y-10100500D01*
X43884110Y-10100500D01*
X46665890Y-10100500D01*
X46665892Y-10100500D01*
X46793186Y-10066392D01*
X46793188Y-10066390D01*
X46793190Y-10066390D01*
X46907309Y-10000503D01*
X46907309Y-10000502D01*
X46907314Y-10000500D01*
X47498318Y-9409496D01*
X47552835Y-9381719D01*
X47568322Y-9380500D01*
X48469747Y-9380500D01*
X48469748Y-9380500D01*
X48528231Y-9368867D01*
X48594552Y-9324552D01*
X48638867Y-9258231D01*
X48650500Y-9199748D01*
X48650500Y-7800252D01*
X48650350Y-7799500D01*
X48642899Y-7762039D01*
X48638867Y-7741769D01*
X48594552Y-7675448D01*
X48593211Y-7674552D01*
X48520124Y-7625716D01*
X48521397Y-7623809D01*
X48511170Y-7615073D01*
X48489407Y-7599261D01*
X48488157Y-7595414D01*
X48485084Y-7592789D01*
X48470500Y-7541070D01*
X48470500Y-7443982D01*
X50074500Y-7443982D01*
X50074500Y-7556018D01*
X50094627Y-7631132D01*
X50103498Y-7664241D01*
X50152670Y-7749407D01*
X50159515Y-7761263D01*
X50238737Y-7840485D01*
X50335763Y-7896503D01*
X50399009Y-7913449D01*
X50443389Y-7939071D01*
X52984788Y-10480470D01*
X52997351Y-10487723D01*
X53036799Y-10510499D01*
X53036804Y-10510501D01*
X53064708Y-10526612D01*
X53064709Y-10526612D01*
X53064712Y-10526614D01*
X53153856Y-10550500D01*
X53153857Y-10550500D01*
X53246144Y-10550500D01*
X54300500Y-10550500D01*
X54358691Y-10569407D01*
X54394655Y-10618907D01*
X54399500Y-10649500D01*
X54399500Y-10704274D01*
X54402353Y-10734694D01*
X54402355Y-10734703D01*
X54447207Y-10862883D01*
X54527845Y-10972144D01*
X54527847Y-10972146D01*
X54527850Y-10972150D01*
X54527853Y-10972152D01*
X54527855Y-10972154D01*
X54637116Y-11052792D01*
X54637117Y-11052792D01*
X54637118Y-11052793D01*
X54765301Y-11097646D01*
X54795725Y-11100499D01*
X54795727Y-11100500D01*
X54795734Y-11100500D01*
X55604273Y-11100500D01*
X55604273Y-11100499D01*
X55634699Y-11097646D01*
X55647505Y-11093164D01*
X55708672Y-11091789D01*
X55758968Y-11126631D01*
X55775831Y-11160985D01*
X55803498Y-11264241D01*
X55859513Y-11361260D01*
X55859515Y-11361263D01*
X55938737Y-11440485D01*
X55938739Y-11440486D01*
X56035759Y-11496501D01*
X56035757Y-11496501D01*
X56035761Y-11496502D01*
X56035763Y-11496503D01*
X56143982Y-11525500D01*
X56143984Y-11525500D01*
X56256016Y-11525500D01*
X56256018Y-11525500D01*
X56364237Y-11496503D01*
X56364239Y-11496501D01*
X56364241Y-11496501D01*
X56413200Y-11468234D01*
X56461263Y-11440485D01*
X56540485Y-11361263D01*
X56596503Y-11264237D01*
X56624169Y-11160983D01*
X56657492Y-11109671D01*
X56714613Y-11087744D01*
X56752494Y-11093164D01*
X56765301Y-11097646D01*
X56795725Y-11100499D01*
X56795727Y-11100500D01*
X56795734Y-11100500D01*
X57604273Y-11100500D01*
X57604273Y-11100499D01*
X57634699Y-11097646D01*
X57762882Y-11052793D01*
X57872150Y-10972150D01*
X57952793Y-10862882D01*
X57997646Y-10734699D01*
X58000499Y-10704273D01*
X58000500Y-10704273D01*
X58000500Y-10543982D01*
X58374500Y-10543982D01*
X58374500Y-10656018D01*
X58397354Y-10741309D01*
X58403498Y-10764241D01*
X58453012Y-10850000D01*
X58459515Y-10861263D01*
X58538737Y-10940485D01*
X58555219Y-10950001D01*
X58635759Y-10996501D01*
X58635757Y-10996501D01*
X58635761Y-10996502D01*
X58635763Y-10996503D01*
X58743982Y-11025500D01*
X58743984Y-11025500D01*
X58856016Y-11025500D01*
X58856018Y-11025500D01*
X58964237Y-10996503D01*
X58964239Y-10996501D01*
X58964241Y-10996501D01*
X59006279Y-10972230D01*
X59061263Y-10940485D01*
X59092253Y-10909495D01*
X59146770Y-10881719D01*
X59162256Y-10880500D01*
X59537744Y-10880500D01*
X59595935Y-10899407D01*
X59607747Y-10909495D01*
X59638737Y-10940485D01*
X59655219Y-10950001D01*
X59735759Y-10996501D01*
X59735757Y-10996501D01*
X59735761Y-10996502D01*
X59735763Y-10996503D01*
X59843982Y-11025500D01*
X59843984Y-11025500D01*
X59956016Y-11025500D01*
X59956018Y-11025500D01*
X60064237Y-10996503D01*
X60064239Y-10996501D01*
X60064241Y-10996501D01*
X60106279Y-10972230D01*
X60161263Y-10940485D01*
X60240485Y-10861263D01*
X60296503Y-10764237D01*
X60325500Y-10656018D01*
X60325500Y-10543982D01*
X60296503Y-10435763D01*
X60296501Y-10435760D01*
X60296501Y-10435758D01*
X60240486Y-10338739D01*
X60240485Y-10338737D01*
X60161263Y-10259515D01*
X60161260Y-10259513D01*
X60064240Y-10203498D01*
X60064242Y-10203498D01*
X59992674Y-10184322D01*
X59956018Y-10174500D01*
X59843982Y-10174500D01*
X59807326Y-10184322D01*
X59735758Y-10203498D01*
X59638739Y-10259513D01*
X59607747Y-10290505D01*
X59553230Y-10318281D01*
X59537744Y-10319500D01*
X59162256Y-10319500D01*
X59104065Y-10300593D01*
X59092253Y-10290505D01*
X59061263Y-10259515D01*
X59061260Y-10259513D01*
X58964240Y-10203498D01*
X58964242Y-10203498D01*
X58892674Y-10184322D01*
X58856018Y-10174500D01*
X58743982Y-10174500D01*
X58707326Y-10184322D01*
X58635758Y-10203498D01*
X58538739Y-10259513D01*
X58459513Y-10338739D01*
X58403498Y-10435758D01*
X58391518Y-10480470D01*
X58374500Y-10543982D01*
X58000500Y-10543982D01*
X58000500Y-9695727D01*
X58000499Y-9695725D01*
X57997646Y-9665305D01*
X57997646Y-9665301D01*
X57952793Y-9537118D01*
X57950899Y-9534552D01*
X57872154Y-9427855D01*
X57872152Y-9427853D01*
X57872150Y-9427850D01*
X57872146Y-9427847D01*
X57872144Y-9427845D01*
X57762883Y-9347207D01*
X57634703Y-9302355D01*
X57634694Y-9302353D01*
X57604274Y-9299500D01*
X57604266Y-9299500D01*
X56795734Y-9299500D01*
X56795725Y-9299500D01*
X56765305Y-9302353D01*
X56765296Y-9302355D01*
X56637116Y-9347207D01*
X56527855Y-9427845D01*
X56527845Y-9427855D01*
X56447207Y-9537116D01*
X56402355Y-9665296D01*
X56402353Y-9665305D01*
X56399500Y-9695725D01*
X56399500Y-10462806D01*
X56397031Y-10470403D01*
X56398281Y-10478293D01*
X56387757Y-10498947D01*
X56380593Y-10520997D01*
X56370504Y-10532809D01*
X56257811Y-10645503D01*
X56203294Y-10673281D01*
X56187807Y-10674500D01*
X56143977Y-10674500D01*
X56125120Y-10679553D01*
X56064019Y-10676349D01*
X56016470Y-10637843D01*
X56000500Y-10583926D01*
X56000500Y-9695727D01*
X56000499Y-9695725D01*
X55997646Y-9665305D01*
X55997646Y-9665301D01*
X55952793Y-9537118D01*
X55950899Y-9534552D01*
X55872154Y-9427855D01*
X55872152Y-9427853D01*
X55872150Y-9427850D01*
X55872146Y-9427847D01*
X55872144Y-9427845D01*
X55762883Y-9347207D01*
X55634703Y-9302355D01*
X55634694Y-9302353D01*
X55604274Y-9299500D01*
X55604266Y-9299500D01*
X54795734Y-9299500D01*
X54795725Y-9299500D01*
X54765305Y-9302353D01*
X54765296Y-9302355D01*
X54637116Y-9347207D01*
X54527855Y-9427845D01*
X54527845Y-9427855D01*
X54447207Y-9537116D01*
X54402355Y-9665296D01*
X54402353Y-9665305D01*
X54399500Y-9695725D01*
X54399500Y-9750500D01*
X54380593Y-9808691D01*
X54331093Y-9844655D01*
X54300500Y-9849500D01*
X53386190Y-9849500D01*
X53327999Y-9830593D01*
X53316186Y-9820504D01*
X50939071Y-7443389D01*
X50913449Y-7399009D01*
X50896503Y-7335763D01*
X50840485Y-7238737D01*
X50761263Y-7159515D01*
X50743917Y-7149500D01*
X50664240Y-7103498D01*
X50664242Y-7103498D01*
X50618750Y-7091309D01*
X50556018Y-7074500D01*
X50443982Y-7074500D01*
X50381250Y-7091309D01*
X50335758Y-7103498D01*
X50238739Y-7159513D01*
X50159513Y-7238739D01*
X50103498Y-7335758D01*
X50103497Y-7335763D01*
X50074500Y-7443982D01*
X48470500Y-7443982D01*
X48470500Y-6099500D01*
X48489407Y-6041309D01*
X48538907Y-6005345D01*
X48569500Y-6000500D01*
X49159747Y-6000500D01*
X49159748Y-6000500D01*
X49218231Y-5988867D01*
X49284552Y-5944552D01*
X49296548Y-5926598D01*
X49344595Y-5888721D01*
X49405733Y-5886317D01*
X49456607Y-5920309D01*
X49474489Y-5955977D01*
X49474500Y-5956018D01*
X49503497Y-6064237D01*
X49503498Y-6064239D01*
X49503499Y-6064242D01*
X49547519Y-6140486D01*
X49559515Y-6161263D01*
X49638737Y-6240485D01*
X49648670Y-6246220D01*
X49735759Y-6296501D01*
X49735757Y-6296501D01*
X49735761Y-6296502D01*
X49735763Y-6296503D01*
X49843982Y-6325500D01*
X49843984Y-6325500D01*
X49956016Y-6325500D01*
X49956018Y-6325500D01*
X50064237Y-6296503D01*
X50064239Y-6296501D01*
X50064241Y-6296501D01*
X50093064Y-6279859D01*
X50161263Y-6240485D01*
X50240485Y-6161263D01*
X50296503Y-6064237D01*
X50325500Y-5956018D01*
X50325500Y-5912193D01*
X50327968Y-5904595D01*
X50326719Y-5896706D01*
X50337242Y-5876052D01*
X50344407Y-5854002D01*
X50354497Y-5842189D01*
X50487191Y-5709496D01*
X50541707Y-5681719D01*
X50557194Y-5680500D01*
X51037744Y-5680500D01*
X51095935Y-5699407D01*
X51107747Y-5709495D01*
X51138737Y-5740485D01*
X51154778Y-5749746D01*
X51235759Y-5796501D01*
X51235757Y-5796501D01*
X51235761Y-5796502D01*
X51235763Y-5796503D01*
X51343982Y-5825500D01*
X51343984Y-5825500D01*
X51456016Y-5825500D01*
X51456018Y-5825500D01*
X51564237Y-5796503D01*
X51564239Y-5796501D01*
X51564241Y-5796501D01*
X51614740Y-5767345D01*
X51661263Y-5740485D01*
X51740485Y-5661263D01*
X51779859Y-5593064D01*
X51796501Y-5564241D01*
X51796501Y-5564239D01*
X51796503Y-5564237D01*
X51825500Y-5456018D01*
X51825500Y-5343982D01*
X51796503Y-5235763D01*
X51796501Y-5235760D01*
X51796501Y-5235758D01*
X51740486Y-5138739D01*
X51740485Y-5138737D01*
X51661263Y-5059515D01*
X51631635Y-5042409D01*
X51564240Y-5003498D01*
X51564242Y-5003498D01*
X51514813Y-4990254D01*
X51456018Y-4974500D01*
X51343982Y-4974500D01*
X51285187Y-4990254D01*
X51235758Y-5003498D01*
X51138739Y-5059513D01*
X51107747Y-5090505D01*
X51053230Y-5118281D01*
X51037744Y-5119500D01*
X50436929Y-5119500D01*
X50363072Y-5119500D01*
X50327607Y-5129003D01*
X50291730Y-5138616D01*
X50227766Y-5175546D01*
X49957811Y-5445503D01*
X49903294Y-5473281D01*
X49887807Y-5474500D01*
X49843982Y-5474500D01*
X49777748Y-5492247D01*
X49735758Y-5503498D01*
X49638739Y-5559513D01*
X49559514Y-5638738D01*
X49525236Y-5698109D01*
X49479766Y-5739049D01*
X49418916Y-5745444D01*
X49365928Y-5714851D01*
X49341042Y-5658955D01*
X49340500Y-5648608D01*
X49340500Y-4130253D01*
X53949500Y-4130253D01*
X53949500Y-5869746D01*
X53949501Y-5869758D01*
X53961132Y-5928227D01*
X53961134Y-5928233D01*
X54001648Y-5988865D01*
X54005448Y-5994552D01*
X54071769Y-6038867D01*
X54116231Y-6047711D01*
X54130241Y-6050498D01*
X54130246Y-6050498D01*
X54130252Y-6050500D01*
X54130253Y-6050500D01*
X55869747Y-6050500D01*
X55869748Y-6050500D01*
X55928231Y-6038867D01*
X55994552Y-5994552D01*
X56038867Y-5928231D01*
X56050500Y-5869748D01*
X56050500Y-4750000D01*
X56465886Y-4750000D01*
X57106988Y-4750000D01*
X57074075Y-4807007D01*
X57040000Y-4934174D01*
X57040000Y-5065826D01*
X57074075Y-5192993D01*
X57106988Y-5250000D01*
X56465886Y-5250000D01*
X56467086Y-5257586D01*
X56520588Y-5422248D01*
X56599195Y-5576524D01*
X56599197Y-5576528D01*
X56700962Y-5716596D01*
X56823403Y-5839037D01*
X56963471Y-5940802D01*
X56963475Y-5940804D01*
X57117751Y-6019411D01*
X57282413Y-6072913D01*
X57290000Y-6074114D01*
X57290000Y-5433012D01*
X57347007Y-5465925D01*
X57474174Y-5500000D01*
X57605826Y-5500000D01*
X57732993Y-5465925D01*
X57790000Y-5433012D01*
X57790000Y-6074114D01*
X57797586Y-6072913D01*
X57962248Y-6019411D01*
X58116524Y-5940804D01*
X58116528Y-5940802D01*
X58256596Y-5839037D01*
X58379037Y-5716596D01*
X58480802Y-5576528D01*
X58480804Y-5576524D01*
X58559411Y-5422248D01*
X58612913Y-5257586D01*
X58614114Y-5250000D01*
X57973012Y-5250000D01*
X58005925Y-5192993D01*
X58040000Y-5065826D01*
X58040000Y-4934174D01*
X58029914Y-4896532D01*
X59029500Y-4896532D01*
X59029500Y-5103467D01*
X59069869Y-5306418D01*
X59149058Y-5497597D01*
X59264020Y-5669651D01*
X59264023Y-5669655D01*
X59410345Y-5815977D01*
X59582402Y-5930941D01*
X59773580Y-6010130D01*
X59976535Y-6050500D01*
X59976536Y-6050500D01*
X60183464Y-6050500D01*
X60183465Y-6050500D01*
X60386420Y-6010130D01*
X60577598Y-5930941D01*
X60749655Y-5815977D01*
X60895977Y-5669655D01*
X61010941Y-5497598D01*
X61090130Y-5306420D01*
X61130500Y-5103465D01*
X61130500Y-4896535D01*
X61090130Y-4693580D01*
X61010941Y-4502402D01*
X60895977Y-4330345D01*
X60749655Y-4184023D01*
X60669182Y-4130253D01*
X60577597Y-4069058D01*
X60386418Y-3989869D01*
X60183467Y-3949500D01*
X60183465Y-3949500D01*
X59976535Y-3949500D01*
X59976532Y-3949500D01*
X59773581Y-3989869D01*
X59582402Y-4069058D01*
X59410348Y-4184020D01*
X59264020Y-4330348D01*
X59149058Y-4502402D01*
X59069869Y-4693581D01*
X59029500Y-4896532D01*
X58029914Y-4896532D01*
X58005925Y-4807007D01*
X57973012Y-4750000D01*
X58614114Y-4750000D01*
X58612913Y-4742413D01*
X58559411Y-4577751D01*
X58480804Y-4423475D01*
X58480802Y-4423471D01*
X58379037Y-4283403D01*
X58256596Y-4160962D01*
X58116528Y-4059197D01*
X58116524Y-4059195D01*
X57962248Y-3980588D01*
X57797586Y-3927086D01*
X57790000Y-3925884D01*
X57790000Y-4566988D01*
X57732993Y-4534075D01*
X57605826Y-4500000D01*
X57474174Y-4500000D01*
X57347007Y-4534075D01*
X57290000Y-4566988D01*
X57290000Y-3925884D01*
X57282413Y-3927086D01*
X57117751Y-3980588D01*
X56963475Y-4059195D01*
X56963471Y-4059197D01*
X56823403Y-4160962D01*
X56700962Y-4283403D01*
X56599197Y-4423471D01*
X56599195Y-4423475D01*
X56520588Y-4577751D01*
X56467086Y-4742413D01*
X56465886Y-4750000D01*
X56050500Y-4750000D01*
X56050500Y-4130252D01*
X56038867Y-4071769D01*
X55994552Y-4005448D01*
X55994548Y-4005445D01*
X55928233Y-3961134D01*
X55928231Y-3961133D01*
X55928228Y-3961132D01*
X55928227Y-3961132D01*
X55869758Y-3949501D01*
X55869748Y-3949500D01*
X54130252Y-3949500D01*
X54130251Y-3949500D01*
X54130241Y-3949501D01*
X54071772Y-3961132D01*
X54071766Y-3961134D01*
X54005451Y-4005445D01*
X54005445Y-4005451D01*
X53961134Y-4071766D01*
X53961132Y-4071772D01*
X53949501Y-4130241D01*
X53949500Y-4130253D01*
X49340500Y-4130253D01*
X49340500Y-2356532D01*
X53949500Y-2356532D01*
X53949500Y-2563467D01*
X53989869Y-2766418D01*
X54069058Y-2957597D01*
X54164237Y-3100043D01*
X54184023Y-3129655D01*
X54330345Y-3275977D01*
X54502402Y-3390941D01*
X54693580Y-3470130D01*
X54896535Y-3510500D01*
X54896536Y-3510500D01*
X55103464Y-3510500D01*
X55103465Y-3510500D01*
X55306420Y-3470130D01*
X55497598Y-3390941D01*
X55669655Y-3275977D01*
X55815977Y-3129655D01*
X55930941Y-2957598D01*
X56010130Y-2766420D01*
X56026723Y-2683000D01*
X56031081Y-2661093D01*
X56050499Y-2563468D01*
X56050500Y-2563467D01*
X56050500Y-2563465D01*
X56050500Y-2356535D01*
X56021353Y-2210000D01*
X56465886Y-2210000D01*
X57106988Y-2210000D01*
X57074075Y-2267007D01*
X57040000Y-2394174D01*
X57040000Y-2525826D01*
X57074075Y-2652993D01*
X57106988Y-2710000D01*
X56465886Y-2710000D01*
X56467086Y-2717586D01*
X56520588Y-2882248D01*
X56599195Y-3036524D01*
X56599197Y-3036528D01*
X56700962Y-3176596D01*
X56823403Y-3299037D01*
X56963471Y-3400802D01*
X56963475Y-3400804D01*
X57117751Y-3479411D01*
X57282413Y-3532913D01*
X57290000Y-3534114D01*
X57290000Y-2893012D01*
X57347007Y-2925925D01*
X57474174Y-2960000D01*
X57605826Y-2960000D01*
X57732993Y-2925925D01*
X57790000Y-2893012D01*
X57790000Y-3534114D01*
X57797586Y-3532913D01*
X57962248Y-3479411D01*
X58116524Y-3400804D01*
X58116528Y-3400802D01*
X58256596Y-3299037D01*
X58379037Y-3176596D01*
X58480802Y-3036528D01*
X58480804Y-3036524D01*
X58559411Y-2882248D01*
X58612913Y-2717586D01*
X58614114Y-2710000D01*
X57973012Y-2710000D01*
X58005925Y-2652993D01*
X58040000Y-2525826D01*
X58040000Y-2394174D01*
X58029914Y-2356532D01*
X59029500Y-2356532D01*
X59029500Y-2563467D01*
X59069869Y-2766418D01*
X59149058Y-2957597D01*
X59244237Y-3100043D01*
X59264023Y-3129655D01*
X59410345Y-3275977D01*
X59582402Y-3390941D01*
X59773580Y-3470130D01*
X59976535Y-3510500D01*
X59976536Y-3510500D01*
X60183464Y-3510500D01*
X60183465Y-3510500D01*
X60386420Y-3470130D01*
X60577598Y-3390941D01*
X60749655Y-3275977D01*
X60895977Y-3129655D01*
X61010941Y-2957598D01*
X61090130Y-2766420D01*
X61130500Y-2563465D01*
X61130500Y-2356535D01*
X61090130Y-2153580D01*
X61010941Y-1962402D01*
X60895977Y-1790345D01*
X60749655Y-1644023D01*
X60715142Y-1620962D01*
X60577597Y-1529058D01*
X60386418Y-1449869D01*
X60183467Y-1409500D01*
X60183465Y-1409500D01*
X59976535Y-1409500D01*
X59976532Y-1409500D01*
X59773581Y-1449869D01*
X59582402Y-1529058D01*
X59410348Y-1644020D01*
X59264020Y-1790348D01*
X59149058Y-1962402D01*
X59069869Y-2153581D01*
X59029500Y-2356532D01*
X58029914Y-2356532D01*
X58005925Y-2267007D01*
X57973012Y-2210000D01*
X58614114Y-2210000D01*
X58612913Y-2202413D01*
X58559411Y-2037751D01*
X58480804Y-1883475D01*
X58480802Y-1883471D01*
X58379037Y-1743403D01*
X58256596Y-1620962D01*
X58116528Y-1519197D01*
X58116524Y-1519195D01*
X57962248Y-1440588D01*
X57797586Y-1387086D01*
X57790000Y-1385884D01*
X57790000Y-2026988D01*
X57732993Y-1994075D01*
X57605826Y-1960000D01*
X57474174Y-1960000D01*
X57347007Y-1994075D01*
X57290000Y-2026988D01*
X57290000Y-1385884D01*
X57282413Y-1387086D01*
X57117751Y-1440588D01*
X56963475Y-1519195D01*
X56963471Y-1519197D01*
X56823403Y-1620962D01*
X56700962Y-1743403D01*
X56599197Y-1883471D01*
X56599195Y-1883475D01*
X56520588Y-2037751D01*
X56467086Y-2202413D01*
X56465886Y-2210000D01*
X56021353Y-2210000D01*
X56010130Y-2153580D01*
X55930941Y-1962402D01*
X55815977Y-1790345D01*
X55669655Y-1644023D01*
X55635142Y-1620962D01*
X55497597Y-1529058D01*
X55306418Y-1449869D01*
X55103467Y-1409500D01*
X55103465Y-1409500D01*
X54896535Y-1409500D01*
X54896532Y-1409500D01*
X54693581Y-1449869D01*
X54502402Y-1529058D01*
X54330348Y-1644020D01*
X54184020Y-1790348D01*
X54069058Y-1962402D01*
X53989869Y-2153581D01*
X53949500Y-2356532D01*
X49340500Y-2356532D01*
X49340500Y-2180253D01*
X49340498Y-2180241D01*
X49335195Y-2153581D01*
X49328867Y-2121769D01*
X49284552Y-2055448D01*
X49258067Y-2037751D01*
X49218233Y-2011134D01*
X49218231Y-2011133D01*
X49218228Y-2011132D01*
X49218227Y-2011132D01*
X49159758Y-1999501D01*
X49159748Y-1999500D01*
X46780252Y-1999500D01*
X46780251Y-1999500D01*
X46780241Y-1999501D01*
X46721772Y-2011132D01*
X46721766Y-2011134D01*
X46655451Y-2055445D01*
X46655445Y-2055451D01*
X46611134Y-2121766D01*
X46611132Y-2121772D01*
X46599501Y-2180241D01*
X46599500Y-2180253D01*
X46599500Y-3200500D01*
X46580593Y-3258691D01*
X46531093Y-3294655D01*
X46500500Y-3299500D01*
X43445682Y-3299500D01*
X43390680Y-3282815D01*
X43358233Y-3261134D01*
X43358231Y-3261133D01*
X43358228Y-3261132D01*
X43358227Y-3261132D01*
X43299758Y-3249501D01*
X43299748Y-3249500D01*
X40760252Y-3249500D01*
X40760251Y-3249500D01*
X40760241Y-3249501D01*
X40701772Y-3261132D01*
X40701766Y-3261134D01*
X40635451Y-3305445D01*
X40635445Y-3305451D01*
X40591134Y-3371766D01*
X40591132Y-3371772D01*
X40579501Y-3430241D01*
X40579500Y-3430253D01*
X40579500Y-4285464D01*
X40560593Y-4343655D01*
X40511093Y-4379619D01*
X40449907Y-4379619D01*
X40400407Y-4343655D01*
X40385732Y-4310105D01*
X40384993Y-4310330D01*
X40383579Y-4305670D01*
X40375209Y-4285464D01*
X40330775Y-4178189D01*
X40254114Y-4063457D01*
X39784043Y-3593386D01*
X39735967Y-3561263D01*
X39669308Y-3516723D01*
X39541828Y-3463920D01*
X39406496Y-3437000D01*
X39406494Y-3437000D01*
X39406493Y-3437000D01*
X34268993Y-3437000D01*
X31093507Y-3437000D01*
X31093504Y-3437000D01*
X30962440Y-3463071D01*
X30958172Y-3463919D01*
X30830691Y-3516723D01*
X30715960Y-3593383D01*
X30055883Y-4253460D01*
X29979223Y-4368191D01*
X29926420Y-4495670D01*
X29926420Y-4495672D01*
X29899500Y-4631003D01*
X29899500Y-4692165D01*
X29880593Y-4750356D01*
X29831093Y-4786320D01*
X29769907Y-4786320D01*
X29745499Y-4774481D01*
X29694963Y-4740714D01*
X29646286Y-4708189D01*
X29627724Y-4700500D01*
X29532450Y-4661036D01*
X29411608Y-4637000D01*
X29411606Y-4637000D01*
X29288394Y-4637000D01*
X29288391Y-4637000D01*
X29167549Y-4661036D01*
X29053714Y-4708188D01*
X28951267Y-4776642D01*
X28951263Y-4776645D01*
X28864145Y-4863763D01*
X28864142Y-4863767D01*
X28795686Y-4966218D01*
X28794556Y-4968332D01*
X28793767Y-4969089D01*
X28792987Y-4970258D01*
X28792730Y-4970086D01*
X28750443Y-5010732D01*
X28689833Y-5019105D01*
X28635877Y-4990254D01*
X28624938Y-4976652D01*
X28583001Y-4913889D01*
X28541789Y-4852211D01*
X28430289Y-4740711D01*
X28370109Y-4700500D01*
X28299185Y-4653109D01*
X28299174Y-4653103D01*
X28153497Y-4592763D01*
X27998844Y-4562000D01*
X27998842Y-4562000D01*
X27841158Y-4562000D01*
X27841155Y-4562000D01*
X27686503Y-4592763D01*
X27686501Y-4592763D01*
X27540825Y-4653103D01*
X27540814Y-4653109D01*
X27409711Y-4740711D01*
X27409707Y-4740714D01*
X27298214Y-4852207D01*
X27298211Y-4852211D01*
X27210609Y-4983314D01*
X27210603Y-4983325D01*
X27150263Y-5129001D01*
X27150263Y-5129003D01*
X27119500Y-5283655D01*
X26778000Y-5283655D01*
X26778000Y-4810252D01*
X26766367Y-4751769D01*
X26722052Y-4685448D01*
X26722049Y-4685446D01*
X26716776Y-4677554D01*
X26700167Y-4618666D01*
X26716775Y-4567550D01*
X26736367Y-4538231D01*
X26748000Y-4479748D01*
X26748000Y-3540252D01*
X26748000Y-3540248D01*
X26747998Y-3540241D01*
X26739338Y-3496707D01*
X26736367Y-3481769D01*
X26692052Y-3415448D01*
X26677272Y-3405572D01*
X26625733Y-3371134D01*
X26625731Y-3371133D01*
X26625728Y-3371132D01*
X26625727Y-3371132D01*
X26567258Y-3359501D01*
X26567248Y-3359500D01*
X25156719Y-3359500D01*
X25098528Y-3340593D01*
X25062564Y-3291093D01*
X25062564Y-3229907D01*
X25098528Y-3180407D01*
X25101717Y-3178185D01*
X25152052Y-3144552D01*
X25196367Y-3078231D01*
X25208000Y-3019748D01*
X25208000Y-2379500D01*
X25226907Y-2321309D01*
X25276407Y-2285345D01*
X25307000Y-2280500D01*
X25637744Y-2280500D01*
X25695935Y-2299407D01*
X25707747Y-2309495D01*
X25738737Y-2340485D01*
X25766531Y-2356532D01*
X25835759Y-2396501D01*
X25835757Y-2396501D01*
X25835761Y-2396502D01*
X25835763Y-2396503D01*
X25943982Y-2425500D01*
X25943984Y-2425500D01*
X26056016Y-2425500D01*
X26056018Y-2425500D01*
X26164237Y-2396503D01*
X26164239Y-2396501D01*
X26164241Y-2396501D01*
X26193687Y-2379500D01*
X26261263Y-2340485D01*
X26340485Y-2261263D01*
X26396503Y-2164237D01*
X26425500Y-2056018D01*
X26425500Y-1943982D01*
X26396503Y-1835763D01*
X26396501Y-1835760D01*
X26396501Y-1835758D01*
X26340486Y-1738739D01*
X26340485Y-1738737D01*
X26261263Y-1659515D01*
X26246676Y-1651093D01*
X26164240Y-1603498D01*
X26164242Y-1603498D01*
X26122251Y-1592247D01*
X26056018Y-1574500D01*
X25943982Y-1574500D01*
X25877748Y-1592247D01*
X25835758Y-1603498D01*
X25738739Y-1659513D01*
X25707747Y-1690505D01*
X25653230Y-1718281D01*
X25637744Y-1719500D01*
X25307000Y-1719500D01*
X25248809Y-1700593D01*
X25212845Y-1651093D01*
X25208000Y-1620500D01*
X25208000Y-1480253D01*
X25207998Y-1480241D01*
X25201982Y-1449999D01*
X25196367Y-1421769D01*
X25152052Y-1355448D01*
X25130759Y-1341220D01*
X25085733Y-1311134D01*
X25085731Y-1311133D01*
X25085728Y-1311132D01*
X25085727Y-1311132D01*
X25027258Y-1299501D01*
X25027248Y-1299500D01*
X24087752Y-1299500D01*
X24087751Y-1299500D01*
X24087741Y-1299501D01*
X24029272Y-1311132D01*
X24029266Y-1311134D01*
X23977502Y-1345723D01*
X23918614Y-1362332D01*
X23867498Y-1345723D01*
X23815733Y-1311134D01*
X23815731Y-1311133D01*
X23815728Y-1311132D01*
X23815727Y-1311132D01*
X23757258Y-1299501D01*
X23757248Y-1299500D01*
X22817752Y-1299500D01*
X22817751Y-1299500D01*
X22817741Y-1299501D01*
X22759272Y-1311132D01*
X22759266Y-1311134D01*
X22707502Y-1345723D01*
X22648614Y-1362332D01*
X22597498Y-1345723D01*
X22545733Y-1311134D01*
X22545731Y-1311133D01*
X22545728Y-1311132D01*
X22545727Y-1311132D01*
X22487258Y-1299501D01*
X22487248Y-1299500D01*
X21547752Y-1299500D01*
X21547751Y-1299500D01*
X21547741Y-1299501D01*
X21489272Y-1311132D01*
X21489266Y-1311134D01*
X21437502Y-1345723D01*
X21378614Y-1362332D01*
X21327498Y-1345723D01*
X21275733Y-1311134D01*
X21275731Y-1311133D01*
X21275728Y-1311132D01*
X21275727Y-1311132D01*
X21217258Y-1299501D01*
X21217248Y-1299500D01*
X20277752Y-1299500D01*
X20277751Y-1299500D01*
X20277741Y-1299501D01*
X20219272Y-1311132D01*
X20219266Y-1311134D01*
X20167502Y-1345723D01*
X20108614Y-1362332D01*
X20057498Y-1345723D01*
X20005733Y-1311134D01*
X20005731Y-1311133D01*
X20005728Y-1311132D01*
X20005727Y-1311132D01*
X19947258Y-1299501D01*
X19947248Y-1299500D01*
X19007752Y-1299500D01*
X19007751Y-1299500D01*
X19007741Y-1299501D01*
X18949272Y-1311132D01*
X18949266Y-1311134D01*
X18897502Y-1345723D01*
X18838614Y-1362332D01*
X18787498Y-1345723D01*
X18735733Y-1311134D01*
X18735731Y-1311133D01*
X18735728Y-1311132D01*
X18735727Y-1311132D01*
X18677258Y-1299501D01*
X18677248Y-1299500D01*
X17737752Y-1299500D01*
X17737751Y-1299500D01*
X17737741Y-1299501D01*
X17679272Y-1311132D01*
X17679266Y-1311134D01*
X17627502Y-1345723D01*
X17568614Y-1362332D01*
X17517498Y-1345723D01*
X17465733Y-1311134D01*
X17465731Y-1311133D01*
X17465728Y-1311132D01*
X17465727Y-1311132D01*
X17407258Y-1299501D01*
X17407248Y-1299500D01*
X16467752Y-1299500D01*
X16467751Y-1299500D01*
X16467741Y-1299501D01*
X16409272Y-1311132D01*
X16409266Y-1311134D01*
X16357502Y-1345723D01*
X16298614Y-1362332D01*
X16247498Y-1345723D01*
X16195733Y-1311134D01*
X16195731Y-1311133D01*
X16195728Y-1311132D01*
X16195727Y-1311132D01*
X16137258Y-1299501D01*
X16137248Y-1299500D01*
X15197752Y-1299500D01*
X15197751Y-1299500D01*
X15197741Y-1299501D01*
X15139272Y-1311132D01*
X15139266Y-1311134D01*
X15087502Y-1345723D01*
X15028614Y-1362332D01*
X14977498Y-1345723D01*
X14925733Y-1311134D01*
X14925731Y-1311133D01*
X14925728Y-1311132D01*
X14925727Y-1311132D01*
X14867258Y-1299501D01*
X14867248Y-1299500D01*
X13927752Y-1299500D01*
X13927751Y-1299500D01*
X13927741Y-1299501D01*
X13869272Y-1311132D01*
X13869266Y-1311134D01*
X13817502Y-1345723D01*
X13758614Y-1362332D01*
X13707498Y-1345723D01*
X13655733Y-1311134D01*
X13655731Y-1311133D01*
X13655728Y-1311132D01*
X13655727Y-1311132D01*
X13597258Y-1299501D01*
X13597248Y-1299500D01*
X12657752Y-1299500D01*
X12657751Y-1299500D01*
X12657741Y-1299501D01*
X12599272Y-1311132D01*
X12599266Y-1311134D01*
X12547502Y-1345723D01*
X12488614Y-1362332D01*
X12437498Y-1345723D01*
X12385733Y-1311134D01*
X12385731Y-1311133D01*
X12385728Y-1311132D01*
X12385727Y-1311132D01*
X12327258Y-1299501D01*
X12327248Y-1299500D01*
X11387752Y-1299500D01*
X11387751Y-1299500D01*
X11387741Y-1299501D01*
X11329272Y-1311132D01*
X11329266Y-1311134D01*
X11277502Y-1345723D01*
X11218614Y-1362332D01*
X11167498Y-1345723D01*
X11115733Y-1311134D01*
X11115731Y-1311133D01*
X11115728Y-1311132D01*
X11115727Y-1311132D01*
X11057258Y-1299501D01*
X11057248Y-1299500D01*
X10117752Y-1299500D01*
X10117751Y-1299500D01*
X10117741Y-1299501D01*
X10059272Y-1311132D01*
X10059266Y-1311134D01*
X10007502Y-1345723D01*
X9948614Y-1362332D01*
X9897498Y-1345723D01*
X9845733Y-1311134D01*
X9845731Y-1311133D01*
X9845728Y-1311132D01*
X9845727Y-1311132D01*
X9787258Y-1299501D01*
X9787248Y-1299500D01*
X8847752Y-1299500D01*
X8847751Y-1299500D01*
X8847741Y-1299501D01*
X8789272Y-1311132D01*
X8789267Y-1311134D01*
X8782048Y-1315958D01*
X8723159Y-1332565D01*
X8672046Y-1315956D01*
X8595047Y-1264506D01*
X8522124Y-1250000D01*
X8297501Y-1250000D01*
X8297500Y-1250001D01*
X8297500Y-3249999D01*
X8297501Y-3250000D01*
X8522123Y-3250000D01*
X8522124Y-3249999D01*
X8595045Y-3235493D01*
X8672045Y-3184043D01*
X8730933Y-3167434D01*
X8782050Y-3184043D01*
X8789269Y-3188867D01*
X8833731Y-3197711D01*
X8847741Y-3200498D01*
X8847746Y-3200498D01*
X8847752Y-3200500D01*
X8847753Y-3200500D01*
X9787247Y-3200500D01*
X9787248Y-3200500D01*
X9845731Y-3188867D01*
X9897500Y-3154274D01*
X9956385Y-3137667D01*
X10007498Y-3154274D01*
X10059269Y-3188867D01*
X10103731Y-3197711D01*
X10117741Y-3200498D01*
X10117746Y-3200498D01*
X10117752Y-3200500D01*
X10117753Y-3200500D01*
X11057247Y-3200500D01*
X11057248Y-3200500D01*
X11115731Y-3188867D01*
X11167500Y-3154274D01*
X11226385Y-3137667D01*
X11277498Y-3154274D01*
X11329269Y-3188867D01*
X11373731Y-3197711D01*
X11387741Y-3200498D01*
X11387746Y-3200498D01*
X11387752Y-3200500D01*
X11463805Y-3200500D01*
X11521996Y-3219407D01*
X11557960Y-3268907D01*
X11557960Y-3330093D01*
X11533809Y-3369504D01*
X9557810Y-5345504D01*
X9503293Y-5373281D01*
X9487806Y-5374500D01*
X9443982Y-5374500D01*
X9377748Y-5392247D01*
X9335758Y-5403498D01*
X9238739Y-5459513D01*
X9159513Y-5538739D01*
X9103498Y-5635758D01*
X9097283Y-5658955D01*
X9074500Y-5743982D01*
X9074500Y-5856018D01*
X9097218Y-5940802D01*
X9103498Y-5964241D01*
X9153300Y-6050499D01*
X9159515Y-6061263D01*
X9238737Y-6140485D01*
X9238739Y-6140486D01*
X9335759Y-6196501D01*
X9335757Y-6196501D01*
X9335761Y-6196502D01*
X9335763Y-6196503D01*
X9443982Y-6225500D01*
X9443984Y-6225500D01*
X9556016Y-6225500D01*
X9556018Y-6225500D01*
X9664237Y-6196503D01*
X9664239Y-6196501D01*
X9664241Y-6196501D01*
X9725274Y-6161263D01*
X9761263Y-6140485D01*
X9840485Y-6061263D01*
X9896503Y-5964237D01*
X9925500Y-5856018D01*
X9925500Y-5812194D01*
X9944407Y-5754003D01*
X9954496Y-5742190D01*
X11003693Y-4692993D01*
X12081955Y-3614732D01*
X12085687Y-3608269D01*
X12118884Y-3550769D01*
X12121702Y-3540252D01*
X12138000Y-3479429D01*
X12138000Y-3405572D01*
X12138000Y-3299500D01*
X12156907Y-3241309D01*
X12206407Y-3205345D01*
X12237000Y-3200500D01*
X12327247Y-3200500D01*
X12327248Y-3200500D01*
X12385731Y-3188867D01*
X12437500Y-3154274D01*
X12496385Y-3137667D01*
X12547498Y-3154274D01*
X12599269Y-3188867D01*
X12643731Y-3197711D01*
X12657741Y-3200498D01*
X12657746Y-3200498D01*
X12657752Y-3200500D01*
X12748000Y-3200500D01*
X12806191Y-3219407D01*
X12842155Y-3268907D01*
X12847000Y-3299500D01*
X12847000Y-4015305D01*
X12828093Y-4073496D01*
X12818004Y-4085309D01*
X11557810Y-5345504D01*
X11503293Y-5373281D01*
X11487806Y-5374500D01*
X11443982Y-5374500D01*
X11377748Y-5392247D01*
X11335758Y-5403498D01*
X11238739Y-5459513D01*
X11159513Y-5538739D01*
X11103498Y-5635758D01*
X11097283Y-5658955D01*
X11074500Y-5743982D01*
X11074500Y-5856018D01*
X11097218Y-5940802D01*
X11103498Y-5964241D01*
X11153300Y-6050499D01*
X11159515Y-6061263D01*
X11238737Y-6140485D01*
X11238739Y-6140486D01*
X11335759Y-6196501D01*
X11335757Y-6196501D01*
X11335761Y-6196502D01*
X11335763Y-6196503D01*
X11443982Y-6225500D01*
X11443984Y-6225500D01*
X11556016Y-6225500D01*
X11556018Y-6225500D01*
X11664237Y-6196503D01*
X11664239Y-6196501D01*
X11664241Y-6196501D01*
X11725274Y-6161263D01*
X11761263Y-6140485D01*
X11840485Y-6061263D01*
X11896503Y-5964237D01*
X11925500Y-5856018D01*
X11925500Y-5812194D01*
X11944407Y-5754003D01*
X11954496Y-5742190D01*
X12637173Y-5059513D01*
X13351956Y-4344731D01*
X13374506Y-4305672D01*
X13388884Y-4280769D01*
X13408000Y-4209428D01*
X13408000Y-3299500D01*
X13426907Y-3241309D01*
X13476407Y-3205345D01*
X13507000Y-3200500D01*
X13597247Y-3200500D01*
X13597248Y-3200500D01*
X13655731Y-3188867D01*
X13707500Y-3154274D01*
X13766385Y-3137667D01*
X13804145Y-3146776D01*
X13811108Y-3150005D01*
X13869269Y-3188867D01*
X13914192Y-3197802D01*
X13924922Y-3202778D01*
X13939098Y-3215941D01*
X13955976Y-3225393D01*
X13960987Y-3236265D01*
X13969760Y-3244410D01*
X13973491Y-3263389D01*
X13981591Y-3280958D01*
X13980344Y-3298239D01*
X13981565Y-3304446D01*
X13979589Y-3308705D01*
X13978904Y-3318215D01*
X13975430Y-3331181D01*
X13972000Y-3343982D01*
X13972000Y-3456018D01*
X13994570Y-3540252D01*
X14000998Y-3564241D01*
X14045019Y-3640486D01*
X14057015Y-3661263D01*
X14136237Y-3740485D01*
X14136239Y-3740486D01*
X14233259Y-3796501D01*
X14233257Y-3796501D01*
X14233261Y-3796502D01*
X14233263Y-3796503D01*
X14341482Y-3825500D01*
X14341484Y-3825500D01*
X14453516Y-3825500D01*
X14453518Y-3825500D01*
X14561737Y-3796503D01*
X14561739Y-3796501D01*
X14561741Y-3796501D01*
X14622774Y-3761263D01*
X14658763Y-3740485D01*
X14737985Y-3661263D01*
X14794003Y-3564237D01*
X14823000Y-3456018D01*
X14823000Y-3343982D01*
X14816096Y-3318215D01*
X14819297Y-3257116D01*
X14857801Y-3209565D01*
X14870077Y-3202778D01*
X14880806Y-3197803D01*
X14925731Y-3188867D01*
X14983891Y-3150004D01*
X14990855Y-3146776D01*
X15013972Y-3143988D01*
X15036385Y-3137667D01*
X15044507Y-3140306D01*
X15051600Y-3139451D01*
X15065205Y-3147031D01*
X15087498Y-3154274D01*
X15139269Y-3188867D01*
X15162316Y-3193451D01*
X15215698Y-3223346D01*
X15241314Y-3278911D01*
X15242000Y-3290548D01*
X15242000Y-3356018D01*
X15257924Y-3415446D01*
X15270998Y-3464241D01*
X15327013Y-3561260D01*
X15327015Y-3561263D01*
X15406237Y-3640485D01*
X15406239Y-3640486D01*
X15503259Y-3696501D01*
X15503257Y-3696501D01*
X15503261Y-3696502D01*
X15503263Y-3696503D01*
X15611482Y-3725500D01*
X15611484Y-3725500D01*
X15723516Y-3725500D01*
X15723518Y-3725500D01*
X15831737Y-3696503D01*
X15831739Y-3696501D01*
X15831741Y-3696501D01*
X15892774Y-3661263D01*
X15928763Y-3640485D01*
X16007985Y-3561263D01*
X16064003Y-3464237D01*
X16093000Y-3356018D01*
X16093000Y-3290548D01*
X16111907Y-3232357D01*
X16148561Y-3201587D01*
X16160093Y-3195955D01*
X16195731Y-3188867D01*
X16253060Y-3150560D01*
X16259061Y-3147630D01*
X16283057Y-3144246D01*
X16306385Y-3137667D01*
X16313446Y-3139961D01*
X16319647Y-3139087D01*
X16333656Y-3146528D01*
X16357498Y-3154274D01*
X16409269Y-3188867D01*
X16409275Y-3188868D01*
X16413380Y-3190569D01*
X16459908Y-3230302D01*
X16474500Y-3282035D01*
X16474500Y-3356018D01*
X16490424Y-3415446D01*
X16503498Y-3464241D01*
X16559513Y-3561260D01*
X16559515Y-3561263D01*
X16638737Y-3640485D01*
X16638739Y-3640486D01*
X16735759Y-3696501D01*
X16735757Y-3696501D01*
X16735761Y-3696502D01*
X16735763Y-3696503D01*
X16843982Y-3725500D01*
X16843984Y-3725500D01*
X16956016Y-3725500D01*
X16956018Y-3725500D01*
X17064237Y-3696503D01*
X17064239Y-3696501D01*
X17064241Y-3696501D01*
X17125274Y-3661263D01*
X17161263Y-3640485D01*
X17240485Y-3561263D01*
X17296503Y-3464237D01*
X17325500Y-3356018D01*
X17325500Y-3298008D01*
X17344407Y-3239817D01*
X17386555Y-3206569D01*
X17401180Y-3200500D01*
X17407248Y-3200500D01*
X17465731Y-3188867D01*
X17525580Y-3148876D01*
X17534555Y-3145152D01*
X17555834Y-3143463D01*
X17576385Y-3137667D01*
X17586687Y-3141014D01*
X17595548Y-3140311D01*
X17608030Y-3147949D01*
X17627498Y-3154274D01*
X17679269Y-3188867D01*
X17723731Y-3197711D01*
X17737741Y-3200498D01*
X17737746Y-3200498D01*
X17737752Y-3200500D01*
X17880143Y-3200500D01*
X17938334Y-3219407D01*
X17965878Y-3249999D01*
X17983044Y-3279731D01*
X18035269Y-3331956D01*
X18035271Y-3331957D01*
X18145504Y-3442190D01*
X18173281Y-3496707D01*
X18174500Y-3512194D01*
X18174500Y-3556018D01*
X18188501Y-3608269D01*
X18203498Y-3664241D01*
X18247519Y-3740486D01*
X18259515Y-3761263D01*
X18338737Y-3840485D01*
X18338739Y-3840486D01*
X18435759Y-3896501D01*
X18435757Y-3896501D01*
X18435761Y-3896502D01*
X18435763Y-3896503D01*
X18543982Y-3925500D01*
X18543984Y-3925500D01*
X18656016Y-3925500D01*
X18656018Y-3925500D01*
X18764237Y-3896503D01*
X18764239Y-3896501D01*
X18764241Y-3896501D01*
X18793064Y-3879859D01*
X18861263Y-3840485D01*
X18940485Y-3761263D01*
X18996503Y-3664237D01*
X19025500Y-3556018D01*
X19025500Y-3443982D01*
X18996503Y-3335763D01*
X18996500Y-3335759D01*
X18995274Y-3331181D01*
X18994484Y-3330093D01*
X18994484Y-3303197D01*
X18992374Y-3276390D01*
X18994484Y-3272946D01*
X18994484Y-3268907D01*
X19010296Y-3247143D01*
X19024343Y-3224221D01*
X19028073Y-3222675D01*
X19030448Y-3219407D01*
X19056027Y-3211095D01*
X19080870Y-3200805D01*
X19088639Y-3200500D01*
X19283927Y-3200500D01*
X19342118Y-3219407D01*
X19378082Y-3268907D01*
X19379553Y-3325124D01*
X19374500Y-3343979D01*
X19374500Y-3343982D01*
X19374500Y-3456018D01*
X19397070Y-3540252D01*
X19403498Y-3564241D01*
X19447519Y-3640486D01*
X19459515Y-3661263D01*
X19538737Y-3740485D01*
X19538739Y-3740486D01*
X19635759Y-3796501D01*
X19635757Y-3796501D01*
X19635761Y-3796502D01*
X19635763Y-3796503D01*
X19743982Y-3825500D01*
X19743984Y-3825500D01*
X19856016Y-3825500D01*
X19856018Y-3825500D01*
X19964237Y-3796503D01*
X19964239Y-3796501D01*
X19964241Y-3796501D01*
X20025274Y-3761263D01*
X20061263Y-3740485D01*
X20140485Y-3661263D01*
X20196503Y-3564237D01*
X20225500Y-3456018D01*
X20225500Y-3343982D01*
X20220447Y-3325123D01*
X20223648Y-3264022D01*
X20262153Y-3216472D01*
X20316073Y-3200500D01*
X21217247Y-3200500D01*
X21217248Y-3200500D01*
X21275731Y-3188867D01*
X21327500Y-3154274D01*
X21386385Y-3137667D01*
X21437498Y-3154274D01*
X21489269Y-3188867D01*
X21533731Y-3197711D01*
X21547741Y-3200498D01*
X21547746Y-3200498D01*
X21547752Y-3200500D01*
X21547753Y-3200500D01*
X22487247Y-3200500D01*
X22487248Y-3200500D01*
X22545731Y-3188867D01*
X22597500Y-3154274D01*
X22656385Y-3137667D01*
X22707498Y-3154274D01*
X22759269Y-3188867D01*
X22803731Y-3197711D01*
X22817741Y-3200498D01*
X22817746Y-3200498D01*
X22817752Y-3200500D01*
X22817753Y-3200500D01*
X23757247Y-3200500D01*
X23757248Y-3200500D01*
X23815731Y-3188867D01*
X23867500Y-3154274D01*
X23926385Y-3137667D01*
X23977498Y-3154274D01*
X24029269Y-3188867D01*
X24073731Y-3197711D01*
X24087741Y-3200498D01*
X24087746Y-3200498D01*
X24087752Y-3200500D01*
X24087753Y-3200500D01*
X24898281Y-3200500D01*
X24956472Y-3219407D01*
X24992436Y-3268907D01*
X24992436Y-3330093D01*
X24956472Y-3379593D01*
X24953283Y-3381815D01*
X24902950Y-3415446D01*
X24902945Y-3415451D01*
X24858634Y-3481766D01*
X24858632Y-3481772D01*
X24847001Y-3540241D01*
X24847000Y-3540248D01*
X24847000Y-4479746D01*
X24847001Y-4479758D01*
X24858632Y-4538227D01*
X24858634Y-4538233D01*
X24908223Y-4612446D01*
X24924832Y-4671334D01*
X24908224Y-4722449D01*
X24888634Y-4751767D01*
X24888632Y-4751772D01*
X24877001Y-4810241D01*
X24877000Y-4810253D01*
X24877000Y-5749746D01*
X24877001Y-5749758D01*
X24888632Y-5808227D01*
X24888634Y-5808233D01*
X24923223Y-5859998D01*
X24939832Y-5918886D01*
X24923223Y-5970002D01*
X24888634Y-6021766D01*
X24888632Y-6021772D01*
X24877001Y-6080241D01*
X24877000Y-6080253D01*
X24877000Y-6363168D01*
X24858093Y-6421359D01*
X24808593Y-6457323D01*
X24747407Y-6457323D01*
X24697907Y-6421359D01*
X24680902Y-6382482D01*
X24677060Y-6363168D01*
X24673580Y-6345672D01*
X24630366Y-6241344D01*
X24620777Y-6218193D01*
X24620771Y-6218182D01*
X24568855Y-6140486D01*
X24544114Y-6103458D01*
X24446542Y-6005886D01*
X24446541Y-6005885D01*
X24331817Y-5929228D01*
X24331806Y-5929222D01*
X24204328Y-5876420D01*
X24068995Y-5849500D01*
X24068993Y-5849500D01*
X23931007Y-5849500D01*
X23931004Y-5849500D01*
X23795672Y-5876420D01*
X23795670Y-5876420D01*
X23668193Y-5929222D01*
X23668182Y-5929228D01*
X23553458Y-6005885D01*
X23455889Y-6103454D01*
X23455889Y-6103455D01*
X23455886Y-6103458D01*
X23431145Y-6140485D01*
X23379228Y-6218182D01*
X23379222Y-6218193D01*
X23326420Y-6345670D01*
X23326420Y-6345672D01*
X23299500Y-6481004D01*
X23299500Y-9668835D01*
X23280593Y-9727026D01*
X23270504Y-9738839D01*
X18538839Y-14470504D01*
X18484322Y-14498281D01*
X18468835Y-14499500D01*
X17963293Y-14499500D01*
X17905102Y-14480593D01*
X17869138Y-14431093D01*
X17866195Y-14381187D01*
X17867499Y-14374629D01*
X17867500Y-14374622D01*
X17867500Y-14150001D01*
X17867499Y-14150000D01*
X13667501Y-14150000D01*
X13667500Y-14150001D01*
X13667500Y-14374629D01*
X13668805Y-14381187D01*
X13661613Y-14441948D01*
X13620080Y-14486877D01*
X13571707Y-14499500D01*
X11431003Y-14499500D01*
X11295672Y-14526420D01*
X11295670Y-14526420D01*
X11168191Y-14579223D01*
X11053460Y-14655883D01*
X8773383Y-16935960D01*
X8696723Y-17050691D01*
X8643920Y-17178170D01*
X8643920Y-17178172D01*
X8617000Y-17313503D01*
X8617000Y-17451496D01*
X8619043Y-17461766D01*
X8642677Y-17580581D01*
X8643920Y-17586827D01*
X8643920Y-17586829D01*
X8696722Y-17714306D01*
X8696724Y-17714309D01*
X8696725Y-17714311D01*
X8700314Y-17719683D01*
X8717000Y-17774685D01*
X8717000Y-18668131D01*
X8698093Y-18726322D01*
X8648593Y-18762286D01*
X8598686Y-18765229D01*
X8522126Y-18750000D01*
X8297501Y-18750000D01*
X8297500Y-18750001D01*
X8297500Y-20749999D01*
X8297501Y-20750000D01*
X8522123Y-20750000D01*
X8522124Y-20749999D01*
X8595045Y-20735493D01*
X8672045Y-20684043D01*
X8730933Y-20667434D01*
X8782050Y-20684043D01*
X8789269Y-20688867D01*
X8833731Y-20697711D01*
X8847741Y-20700498D01*
X8847746Y-20700498D01*
X8847752Y-20700500D01*
X8847753Y-20700500D01*
X9787247Y-20700500D01*
X9787248Y-20700500D01*
X9845731Y-20688867D01*
X9897500Y-20654274D01*
X9956385Y-20637667D01*
X10007498Y-20654274D01*
X10059269Y-20688867D01*
X10103731Y-20697711D01*
X10117741Y-20700498D01*
X10117746Y-20700498D01*
X10117752Y-20700500D01*
X10117753Y-20700500D01*
X11057247Y-20700500D01*
X11057248Y-20700500D01*
X11115731Y-20688867D01*
X11167500Y-20654274D01*
X11226385Y-20637667D01*
X11277498Y-20654274D01*
X11329269Y-20688867D01*
X11373731Y-20697711D01*
X11387741Y-20700498D01*
X11387746Y-20700498D01*
X11387752Y-20700500D01*
X11387753Y-20700500D01*
X12327247Y-20700500D01*
X12327248Y-20700500D01*
X12385731Y-20688867D01*
X12437500Y-20654274D01*
X12496385Y-20637667D01*
X12547498Y-20654274D01*
X12599269Y-20688867D01*
X12643731Y-20697711D01*
X12657741Y-20700498D01*
X12657746Y-20700498D01*
X12657752Y-20700500D01*
X12657753Y-20700500D01*
X13597247Y-20700500D01*
X13597248Y-20700500D01*
X13655731Y-20688867D01*
X13707500Y-20654274D01*
X13766385Y-20637667D01*
X13817498Y-20654274D01*
X13869269Y-20688867D01*
X13913731Y-20697711D01*
X13927741Y-20700498D01*
X13927746Y-20700498D01*
X13927752Y-20700500D01*
X13927753Y-20700500D01*
X14867247Y-20700500D01*
X14867248Y-20700500D01*
X14925731Y-20688867D01*
X14977500Y-20654274D01*
X15036385Y-20637667D01*
X15087498Y-20654274D01*
X15139269Y-20688867D01*
X15183731Y-20697711D01*
X15197741Y-20700498D01*
X15197746Y-20700498D01*
X15197752Y-20700500D01*
X15197753Y-20700500D01*
X16137247Y-20700500D01*
X16137248Y-20700500D01*
X16195731Y-20688867D01*
X16247500Y-20654274D01*
X16306385Y-20637667D01*
X16357498Y-20654274D01*
X16409269Y-20688867D01*
X16453731Y-20697711D01*
X16467741Y-20700498D01*
X16467746Y-20700498D01*
X16467752Y-20700500D01*
X16467753Y-20700500D01*
X17407247Y-20700500D01*
X17407248Y-20700500D01*
X17465731Y-20688867D01*
X17517500Y-20654274D01*
X17576385Y-20637667D01*
X17627498Y-20654274D01*
X17679269Y-20688867D01*
X17723731Y-20697711D01*
X17737741Y-20700498D01*
X17737746Y-20700498D01*
X17737752Y-20700500D01*
X17737753Y-20700500D01*
X18677247Y-20700500D01*
X18677248Y-20700500D01*
X18735731Y-20688867D01*
X18787500Y-20654274D01*
X18846385Y-20637667D01*
X18897498Y-20654274D01*
X18949269Y-20688867D01*
X18993731Y-20697711D01*
X19007741Y-20700498D01*
X19007746Y-20700498D01*
X19007752Y-20700500D01*
X19007753Y-20700500D01*
X19947247Y-20700500D01*
X19947248Y-20700500D01*
X20005731Y-20688867D01*
X20057500Y-20654274D01*
X20116385Y-20637667D01*
X20167498Y-20654274D01*
X20219269Y-20688867D01*
X20263731Y-20697711D01*
X20277741Y-20700498D01*
X20277746Y-20700498D01*
X20277752Y-20700500D01*
X20277753Y-20700500D01*
X21217247Y-20700500D01*
X21217248Y-20700500D01*
X21275731Y-20688867D01*
X21327500Y-20654274D01*
X21386385Y-20637667D01*
X21437498Y-20654274D01*
X21489269Y-20688867D01*
X21533731Y-20697711D01*
X21547741Y-20700498D01*
X21547746Y-20700498D01*
X21547752Y-20700500D01*
X21547753Y-20700500D01*
X22487247Y-20700500D01*
X22487248Y-20700500D01*
X22545731Y-20688867D01*
X22597500Y-20654274D01*
X22656385Y-20637667D01*
X22707498Y-20654274D01*
X22759269Y-20688867D01*
X22803731Y-20697711D01*
X22817741Y-20700498D01*
X22817746Y-20700498D01*
X22817752Y-20700500D01*
X22817753Y-20700500D01*
X23757247Y-20700500D01*
X23757248Y-20700500D01*
X23815731Y-20688867D01*
X23867500Y-20654274D01*
X23926385Y-20637667D01*
X23977498Y-20654274D01*
X24029269Y-20688867D01*
X24073731Y-20697711D01*
X24087741Y-20700498D01*
X24087746Y-20700498D01*
X24087752Y-20700500D01*
X24087753Y-20700500D01*
X25027247Y-20700500D01*
X25027248Y-20700500D01*
X25085731Y-20688867D01*
X25152052Y-20644552D01*
X25196367Y-20578231D01*
X25208000Y-20519748D01*
X25208000Y-18980252D01*
X25196367Y-18921769D01*
X25152052Y-18855448D01*
X25101716Y-18821814D01*
X25063838Y-18773765D01*
X25061436Y-18712627D01*
X25095429Y-18661753D01*
X25152833Y-18640576D01*
X25156719Y-18640500D01*
X26597247Y-18640500D01*
X26597248Y-18640500D01*
X26655731Y-18628867D01*
X26722052Y-18584552D01*
X26766367Y-18518231D01*
X26778000Y-18459748D01*
X26778000Y-17520252D01*
X26766367Y-17461769D01*
X26731774Y-17409999D01*
X26715167Y-17351115D01*
X26731774Y-17300001D01*
X26766367Y-17248231D01*
X26778000Y-17189748D01*
X26778000Y-16793138D01*
X26796907Y-16734947D01*
X26846407Y-16698983D01*
X26907593Y-16698983D01*
X26957093Y-16734947D01*
X26962732Y-16743631D01*
X26999500Y-16807314D01*
X27092686Y-16900500D01*
X27092688Y-16900501D01*
X27092690Y-16900503D01*
X27206810Y-16966390D01*
X27206808Y-16966390D01*
X27206812Y-16966391D01*
X27206814Y-16966392D01*
X27334108Y-17000500D01*
X27334110Y-17000500D01*
X27465890Y-17000500D01*
X27465892Y-17000500D01*
X27593186Y-16966392D01*
X27593188Y-16966390D01*
X27593190Y-16966390D01*
X27707309Y-16900503D01*
X27707309Y-16900502D01*
X27707314Y-16900500D01*
X27800500Y-16807314D01*
X27803628Y-16801897D01*
X27866390Y-16693190D01*
X27866390Y-16693188D01*
X27866392Y-16693186D01*
X27900500Y-16565892D01*
X27900500Y-16434108D01*
X27900500Y-16091543D01*
X27919407Y-16033352D01*
X27968907Y-15997388D01*
X27980173Y-15994447D01*
X28008231Y-15988867D01*
X28074552Y-15944552D01*
X28118867Y-15878231D01*
X28130500Y-15819748D01*
X28130500Y-15080252D01*
X28118867Y-15021769D01*
X28074552Y-14955448D01*
X28074549Y-14955446D01*
X28074253Y-14955003D01*
X28057644Y-14896115D01*
X28074253Y-14844997D01*
X28074549Y-14844553D01*
X28074552Y-14844552D01*
X28118867Y-14778231D01*
X28130500Y-14719748D01*
X28130500Y-13980252D01*
X28130500Y-13980251D01*
X28130499Y-13980243D01*
X28129530Y-13975375D01*
X28620000Y-13975375D01*
X28620000Y-14099999D01*
X28620001Y-14100000D01*
X29069999Y-14100000D01*
X29070000Y-14099999D01*
X29070000Y-13750001D01*
X29069999Y-13750000D01*
X28845375Y-13750000D01*
X28772453Y-13764506D01*
X28772451Y-13764507D01*
X28689762Y-13819758D01*
X28689758Y-13819762D01*
X28634507Y-13902451D01*
X28634506Y-13902453D01*
X28620000Y-13975375D01*
X28129530Y-13975375D01*
X28123871Y-13946929D01*
X28118867Y-13921769D01*
X28074552Y-13855448D01*
X28027998Y-13824341D01*
X28008233Y-13811134D01*
X28008231Y-13811133D01*
X28008228Y-13811132D01*
X28008227Y-13811132D01*
X27949758Y-13799501D01*
X27949748Y-13799500D01*
X27010252Y-13799500D01*
X27010251Y-13799500D01*
X27010241Y-13799501D01*
X26951772Y-13811132D01*
X26951766Y-13811134D01*
X26932002Y-13824341D01*
X26873114Y-13840950D01*
X26815710Y-13819773D01*
X26781717Y-13768899D01*
X26780232Y-13762930D01*
X26778000Y-13752597D01*
X26778000Y-13710252D01*
X26766367Y-13651769D01*
X26751370Y-13629325D01*
X26747391Y-13610903D01*
X26748673Y-13598304D01*
X26745235Y-13586116D01*
X26752046Y-13565151D01*
X26753585Y-13550032D01*
X26758883Y-13544107D01*
X26761843Y-13535000D01*
X26813466Y-13457740D01*
X26828000Y-13384674D01*
X26828000Y-13339500D01*
X26846907Y-13281309D01*
X26896407Y-13245345D01*
X26927000Y-13240500D01*
X29152266Y-13240500D01*
X29210457Y-13259407D01*
X29222270Y-13269496D01*
X29566383Y-13613609D01*
X29594160Y-13668126D01*
X29584589Y-13728558D01*
X29570000Y-13748638D01*
X29570000Y-14099999D01*
X29570001Y-14100000D01*
X30011766Y-14100000D01*
X30069957Y-14118907D01*
X30081770Y-14128996D01*
X30965303Y-15012529D01*
X30993080Y-15067046D01*
X30983509Y-15127478D01*
X30940244Y-15170743D01*
X30892183Y-15181484D01*
X30880737Y-15181123D01*
X30856018Y-15174500D01*
X30743982Y-15174500D01*
X30736243Y-15176573D01*
X30721723Y-15176116D01*
X30715449Y-15173856D01*
X30699220Y-15172793D01*
X30688108Y-15169816D01*
X30686929Y-15169500D01*
X30686928Y-15169500D01*
X30069019Y-15169500D01*
X30010828Y-15150593D01*
X29975275Y-15102327D01*
X29970500Y-15088262D01*
X29970500Y-15080252D01*
X29958867Y-15021769D01*
X29936621Y-14988476D01*
X29932432Y-14976137D01*
X29932192Y-14957943D01*
X29927252Y-14940425D01*
X29931800Y-14928095D01*
X29931628Y-14914957D01*
X29942130Y-14900095D01*
X29946139Y-14889226D01*
X29944823Y-14888347D01*
X30005492Y-14797548D01*
X30005493Y-14797546D01*
X30019999Y-14724624D01*
X30020000Y-14724622D01*
X30020000Y-14600001D01*
X30019999Y-14600000D01*
X28620001Y-14600000D01*
X28620000Y-14600001D01*
X28620000Y-14724624D01*
X28634506Y-14797546D01*
X28634507Y-14797548D01*
X28695177Y-14888347D01*
X28692046Y-14890438D01*
X28711604Y-14928823D01*
X28702033Y-14989255D01*
X28696139Y-14999311D01*
X28681134Y-15021767D01*
X28681132Y-15021772D01*
X28669501Y-15080241D01*
X28669500Y-15080253D01*
X28669500Y-15819746D01*
X28669501Y-15819758D01*
X28681132Y-15878227D01*
X28681134Y-15878233D01*
X28725445Y-15944548D01*
X28725448Y-15944552D01*
X28791769Y-15988867D01*
X28830158Y-15996503D01*
X28850241Y-16000498D01*
X28850246Y-16000498D01*
X28850252Y-16000500D01*
X28878214Y-16000500D01*
X28936405Y-16019407D01*
X28972369Y-16068907D01*
X28972369Y-16130093D01*
X28936405Y-16179593D01*
X28921168Y-16188696D01*
X28764332Y-16264223D01*
X28521772Y-16416634D01*
X28297806Y-16595242D01*
X28095242Y-16797806D01*
X27916634Y-17021772D01*
X27764223Y-17264332D01*
X27639930Y-17522430D01*
X27545318Y-17792814D01*
X27481573Y-18072103D01*
X27449500Y-18356765D01*
X27449500Y-18643234D01*
X27481573Y-18927896D01*
X27545318Y-19207185D01*
X27639930Y-19477569D01*
X27764223Y-19735667D01*
X27851359Y-19874342D01*
X27916634Y-19978227D01*
X28095243Y-20202195D01*
X28297805Y-20404757D01*
X28521773Y-20583366D01*
X28593179Y-20628233D01*
X28764332Y-20735776D01*
X28888939Y-20795783D01*
X29022428Y-20860068D01*
X29022431Y-20860069D01*
X29022430Y-20860069D01*
X29292814Y-20954681D01*
X29292817Y-20954681D01*
X29292818Y-20954682D01*
X29572102Y-21018426D01*
X29856767Y-21050500D01*
X29856768Y-21050500D01*
X30143232Y-21050500D01*
X30143233Y-21050500D01*
X30427898Y-21018426D01*
X30707182Y-20954682D01*
X30977572Y-20860068D01*
X31235669Y-20735775D01*
X31478227Y-20583366D01*
X31702195Y-20404757D01*
X31904757Y-20202195D01*
X32083366Y-19978227D01*
X32235775Y-19735669D01*
X32360068Y-19477572D01*
X32454682Y-19207182D01*
X32472298Y-19130001D01*
X40250000Y-19130001D01*
X40250000Y-19354624D01*
X40264506Y-19427546D01*
X40264507Y-19427548D01*
X40319758Y-19510237D01*
X40319762Y-19510241D01*
X40402451Y-19565492D01*
X40402453Y-19565493D01*
X40475375Y-19579999D01*
X40475377Y-19580000D01*
X40599999Y-19580000D01*
X40600000Y-19579999D01*
X40600000Y-19130001D01*
X40599999Y-19130000D01*
X40250001Y-19130000D01*
X40250000Y-19130001D01*
X32472298Y-19130001D01*
X32518426Y-18927898D01*
X32550500Y-18643233D01*
X32550500Y-18405375D01*
X40250000Y-18405375D01*
X40250000Y-18629999D01*
X40250001Y-18630000D01*
X40599999Y-18630000D01*
X40600000Y-18629999D01*
X40600000Y-18180001D01*
X40599999Y-18180000D01*
X40475375Y-18180000D01*
X40402453Y-18194506D01*
X40402451Y-18194507D01*
X40319762Y-18249758D01*
X40319758Y-18249762D01*
X40264507Y-18332451D01*
X40264506Y-18332453D01*
X40250000Y-18405375D01*
X32550500Y-18405375D01*
X32550500Y-18356767D01*
X32518426Y-18072102D01*
X32454682Y-17792818D01*
X32452284Y-17785966D01*
X32360069Y-17522430D01*
X32235776Y-17264332D01*
X32083365Y-17021772D01*
X32039199Y-16966390D01*
X31904757Y-16797805D01*
X31702195Y-16595243D01*
X31478227Y-16416634D01*
X31436048Y-16390131D01*
X31235670Y-16264225D01*
X31003620Y-16152476D01*
X30959396Y-16110193D01*
X30948471Y-16049991D01*
X30975018Y-15994865D01*
X30997070Y-15977546D01*
X31061263Y-15940485D01*
X31140485Y-15861263D01*
X31196503Y-15764237D01*
X31225500Y-15656018D01*
X31225500Y-15543982D01*
X31221840Y-15530323D01*
X31225041Y-15469224D01*
X31263544Y-15421673D01*
X31322645Y-15405836D01*
X31379767Y-15427761D01*
X31387470Y-15434696D01*
X32637240Y-16684466D01*
X32712604Y-16727977D01*
X32712606Y-16727977D01*
X32712607Y-16727978D01*
X32738615Y-16734947D01*
X32796658Y-16750500D01*
X32796660Y-16750501D01*
X32796661Y-16750501D01*
X32889746Y-16750501D01*
X32889762Y-16750500D01*
X44542094Y-16750500D01*
X44600285Y-16769407D01*
X44612098Y-16779496D01*
X45140504Y-17307902D01*
X45144130Y-17315019D01*
X45150593Y-17319715D01*
X45157756Y-17341763D01*
X45168281Y-17362419D01*
X45169500Y-17377906D01*
X45169500Y-17545032D01*
X45150593Y-17603223D01*
X45108387Y-17636495D01*
X45102263Y-17639031D01*
X45019400Y-17694397D01*
X45019397Y-17694400D01*
X44964035Y-17777257D01*
X44964033Y-17777263D01*
X44949501Y-17850315D01*
X44949500Y-17850327D01*
X44949500Y-18065500D01*
X44930593Y-18123691D01*
X44881093Y-18159655D01*
X44850500Y-18164500D01*
X44743982Y-18164500D01*
X44686135Y-18180000D01*
X44635758Y-18193498D01*
X44573500Y-18229444D01*
X44513652Y-18242166D01*
X44457756Y-18217280D01*
X44427163Y-18164292D01*
X44425000Y-18143708D01*
X44425000Y-17770377D01*
X44424999Y-17770375D01*
X44410493Y-17697453D01*
X44410492Y-17697451D01*
X44355241Y-17614762D01*
X44355237Y-17614758D01*
X44272548Y-17559507D01*
X44272546Y-17559506D01*
X44199624Y-17545000D01*
X43750001Y-17545000D01*
X43750000Y-17545001D01*
X43750000Y-18401000D01*
X43731093Y-18459191D01*
X43681593Y-18495155D01*
X43651000Y-18500000D01*
X43349000Y-18500000D01*
X43290809Y-18481093D01*
X43254845Y-18431593D01*
X43250000Y-18401000D01*
X43250000Y-17545001D01*
X43249999Y-17545000D01*
X42800375Y-17545000D01*
X42727453Y-17559506D01*
X42727451Y-17559507D01*
X42689074Y-17585150D01*
X42630185Y-17601759D01*
X42572782Y-17580581D01*
X42548336Y-17552335D01*
X42540486Y-17538739D01*
X42540485Y-17538737D01*
X42461263Y-17459515D01*
X42447374Y-17451496D01*
X42364240Y-17403498D01*
X42364242Y-17403498D01*
X42322251Y-17392247D01*
X42256018Y-17374500D01*
X42143982Y-17374500D01*
X42077748Y-17392247D01*
X42035758Y-17403498D01*
X41938739Y-17459513D01*
X41859513Y-17538739D01*
X41803498Y-17635758D01*
X41793117Y-17674501D01*
X41778086Y-17730601D01*
X41774500Y-17743983D01*
X41774500Y-17787805D01*
X41755593Y-17845996D01*
X41745505Y-17857807D01*
X41725545Y-17877767D01*
X41706646Y-17910501D01*
X41706645Y-17910500D01*
X41688618Y-17941726D01*
X41688615Y-17941732D01*
X41674936Y-17992781D01*
X41674935Y-17992786D01*
X41672066Y-18003497D01*
X41669500Y-18013072D01*
X41669500Y-18132911D01*
X41669426Y-18134819D01*
X41659480Y-18161817D01*
X41650593Y-18189172D01*
X41648970Y-18190350D01*
X41648277Y-18192233D01*
X41624368Y-18208225D01*
X41601093Y-18225136D01*
X41598174Y-18225746D01*
X41597420Y-18226251D01*
X41596020Y-18226196D01*
X41585012Y-18228498D01*
X41585023Y-18228550D01*
X41521772Y-18241132D01*
X41521767Y-18241134D01*
X41499311Y-18256139D01*
X41440423Y-18272747D01*
X41389227Y-18253859D01*
X41388347Y-18255177D01*
X41297548Y-18194507D01*
X41297546Y-18194506D01*
X41224624Y-18180000D01*
X41100001Y-18180000D01*
X41100000Y-18180001D01*
X41100000Y-19579999D01*
X41100001Y-19580000D01*
X41224623Y-19580000D01*
X41224624Y-19579999D01*
X41297546Y-19565493D01*
X41297548Y-19565492D01*
X41388347Y-19504823D01*
X41390441Y-19507958D01*
X41428772Y-19488403D01*
X41489209Y-19497943D01*
X41499299Y-19503852D01*
X41521769Y-19518867D01*
X41566231Y-19527711D01*
X41580241Y-19530498D01*
X41580246Y-19530498D01*
X41580252Y-19530500D01*
X41580253Y-19530500D01*
X42319747Y-19530500D01*
X42319748Y-19530500D01*
X42378231Y-19518867D01*
X42444552Y-19474552D01*
X42488867Y-19408231D01*
X42488867Y-19408227D01*
X42493497Y-19401299D01*
X42541547Y-19363419D01*
X42602685Y-19361017D01*
X42631452Y-19374414D01*
X42739043Y-19447519D01*
X42751878Y-19464063D01*
X42767806Y-19477662D01*
X42770218Y-19487703D01*
X42776548Y-19495862D01*
X42777207Y-19516791D01*
X42782100Y-19537154D01*
X42778149Y-19546695D01*
X42778475Y-19557017D01*
X42766706Y-19574337D01*
X42758696Y-19593687D01*
X42745728Y-19605211D01*
X42744089Y-19607625D01*
X42742280Y-19608276D01*
X42738407Y-19611719D01*
X42680452Y-19650444D01*
X42680445Y-19650451D01*
X42636134Y-19716766D01*
X42636132Y-19716772D01*
X42624501Y-19775241D01*
X42624500Y-19775253D01*
X42624500Y-20068400D01*
X42605593Y-20126591D01*
X42556093Y-20162555D01*
X42494907Y-20162555D01*
X42452236Y-20131552D01*
X42451446Y-20132343D01*
X42446456Y-20127353D01*
X42445407Y-20126591D01*
X42444747Y-20125644D01*
X42444554Y-20125451D01*
X42444552Y-20125448D01*
X42444548Y-20125445D01*
X42378233Y-20081134D01*
X42378231Y-20081133D01*
X42378228Y-20081132D01*
X42378227Y-20081132D01*
X42319758Y-20069501D01*
X42319748Y-20069500D01*
X41580252Y-20069500D01*
X41580251Y-20069500D01*
X41580241Y-20069501D01*
X41521772Y-20081132D01*
X41521766Y-20081134D01*
X41455002Y-20125746D01*
X41396114Y-20142355D01*
X41344998Y-20125746D01*
X41278233Y-20081134D01*
X41278231Y-20081133D01*
X41278228Y-20081132D01*
X41278227Y-20081132D01*
X41219758Y-20069501D01*
X41219748Y-20069500D01*
X40480252Y-20069500D01*
X40480251Y-20069500D01*
X40480241Y-20069501D01*
X40421772Y-20081132D01*
X40421766Y-20081134D01*
X40355451Y-20125445D01*
X40355445Y-20125451D01*
X40311134Y-20191766D01*
X40311132Y-20191772D01*
X40299501Y-20250241D01*
X40299500Y-20250253D01*
X40299500Y-21189746D01*
X40299501Y-21189758D01*
X40309626Y-21240657D01*
X40311133Y-21248231D01*
X40311134Y-21248233D01*
X40313604Y-21254196D01*
X40318402Y-21315193D01*
X40307874Y-21341578D01*
X40253498Y-21435758D01*
X40253497Y-21435763D01*
X40224500Y-21543982D01*
X40224500Y-21656018D01*
X40231574Y-21682417D01*
X40253498Y-21764241D01*
X40303589Y-21851000D01*
X40316311Y-21910848D01*
X40291424Y-21966744D01*
X40238436Y-21997337D01*
X40217853Y-21999500D01*
X7399000Y-21999500D01*
X7340809Y-21980593D01*
X7304845Y-21931093D01*
X7300000Y-21900500D01*
X7300000Y-20787105D01*
X7318907Y-20728914D01*
X7368407Y-20692950D01*
X7429593Y-20692950D01*
X7454002Y-20704790D01*
X7499952Y-20735493D01*
X7572875Y-20749999D01*
X7572877Y-20750000D01*
X7797499Y-20750000D01*
X7797500Y-20749999D01*
X7797500Y-18750001D01*
X7797499Y-18750000D01*
X7572875Y-18750000D01*
X7499953Y-18764506D01*
X7499952Y-18764506D01*
X7454001Y-18795210D01*
X7395113Y-18811818D01*
X7337709Y-18790640D01*
X7303717Y-18739766D01*
X7300000Y-18712894D01*
X7300000Y-12750001D01*
X13667500Y-12750001D01*
X13667500Y-12974624D01*
X13682006Y-13047546D01*
X13682007Y-13047548D01*
X13742677Y-13138347D01*
X13741628Y-13139047D01*
X13764794Y-13184513D01*
X13755223Y-13244945D01*
X13738013Y-13268632D01*
X13682007Y-13352451D01*
X13682006Y-13352453D01*
X13667500Y-13425375D01*
X13667500Y-13649999D01*
X13667501Y-13650000D01*
X14117499Y-13650000D01*
X14117500Y-13649999D01*
X14117500Y-12750001D01*
X14617500Y-12750001D01*
X14617500Y-13649999D01*
X14617501Y-13650000D01*
X15517499Y-13650000D01*
X15517500Y-13649999D01*
X15517500Y-12750001D01*
X16017500Y-12750001D01*
X16017500Y-13649999D01*
X16017501Y-13650000D01*
X16917499Y-13650000D01*
X16917500Y-13649999D01*
X16917500Y-12750001D01*
X17417500Y-12750001D01*
X17417500Y-13649999D01*
X17417501Y-13650000D01*
X17867499Y-13650000D01*
X17867500Y-13649999D01*
X17867500Y-13425377D01*
X17867499Y-13425375D01*
X17852993Y-13352453D01*
X17852992Y-13352451D01*
X17792323Y-13261653D01*
X17793371Y-13260952D01*
X17770206Y-13215487D01*
X17779777Y-13155055D01*
X17796986Y-13131367D01*
X17852992Y-13047548D01*
X17852993Y-13047546D01*
X17867499Y-12974624D01*
X17867500Y-12974622D01*
X17867500Y-12750001D01*
X17867499Y-12750000D01*
X17417501Y-12750000D01*
X17417500Y-12750001D01*
X16917500Y-12750001D01*
X16917499Y-12750000D01*
X16017501Y-12750000D01*
X16017500Y-12750001D01*
X15517500Y-12750001D01*
X15517499Y-12750000D01*
X14617501Y-12750000D01*
X14617500Y-12750001D01*
X14117500Y-12750001D01*
X14117499Y-12750000D01*
X13667501Y-12750000D01*
X13667500Y-12750001D01*
X7300000Y-12750001D01*
X7300000Y-11350001D01*
X13667500Y-11350001D01*
X13667500Y-11574624D01*
X13682006Y-11647546D01*
X13682007Y-11647548D01*
X13742677Y-11738347D01*
X13741628Y-11739047D01*
X13764794Y-11784513D01*
X13755223Y-11844945D01*
X13738013Y-11868632D01*
X13682007Y-11952451D01*
X13682006Y-11952453D01*
X13667500Y-12025375D01*
X13667500Y-12249999D01*
X13667501Y-12250000D01*
X14117499Y-12250000D01*
X14117500Y-12249999D01*
X14117500Y-11350001D01*
X14617500Y-11350001D01*
X14617500Y-12249999D01*
X14617501Y-12250000D01*
X15517499Y-12250000D01*
X15517500Y-12249999D01*
X15517500Y-11350001D01*
X16017500Y-11350001D01*
X16017500Y-12249999D01*
X16017501Y-12250000D01*
X16917499Y-12250000D01*
X16917500Y-12249999D01*
X16917500Y-11350001D01*
X17417500Y-11350001D01*
X17417500Y-12249999D01*
X17417501Y-12250000D01*
X17867499Y-12250000D01*
X17867500Y-12249999D01*
X17867500Y-12025377D01*
X17867499Y-12025375D01*
X17852993Y-11952453D01*
X17852992Y-11952451D01*
X17792323Y-11861653D01*
X17793371Y-11860952D01*
X17770206Y-11815487D01*
X17779777Y-11755055D01*
X17796986Y-11731367D01*
X17852992Y-11647548D01*
X17852993Y-11647546D01*
X17867499Y-11574624D01*
X17867500Y-11574622D01*
X17867500Y-11350001D01*
X17867499Y-11350000D01*
X17417501Y-11350000D01*
X17417500Y-11350001D01*
X16917500Y-11350001D01*
X16917499Y-11350000D01*
X16017501Y-11350000D01*
X16017500Y-11350001D01*
X15517500Y-11350001D01*
X15517499Y-11350000D01*
X14617501Y-11350000D01*
X14617500Y-11350001D01*
X14117500Y-11350001D01*
X14117499Y-11350000D01*
X13667501Y-11350000D01*
X13667500Y-11350001D01*
X7300000Y-11350001D01*
X7300000Y-10625375D01*
X13667500Y-10625375D01*
X13667500Y-10849999D01*
X13667501Y-10850000D01*
X14117499Y-10850000D01*
X14117500Y-10849999D01*
X14117500Y-10400001D01*
X14617500Y-10400001D01*
X14617500Y-10849999D01*
X14617501Y-10850000D01*
X15517499Y-10850000D01*
X15517500Y-10849999D01*
X15517500Y-10400001D01*
X16017500Y-10400001D01*
X16017500Y-10849999D01*
X16017501Y-10850000D01*
X16917499Y-10850000D01*
X16917500Y-10849999D01*
X16917500Y-10400001D01*
X17417500Y-10400001D01*
X17417500Y-10849999D01*
X17417501Y-10850000D01*
X17867499Y-10850000D01*
X17867500Y-10849999D01*
X17867500Y-10625377D01*
X17867499Y-10625375D01*
X17852993Y-10552453D01*
X17852992Y-10552451D01*
X17797741Y-10469762D01*
X17797737Y-10469758D01*
X17715048Y-10414507D01*
X17715046Y-10414506D01*
X17642124Y-10400000D01*
X17417501Y-10400000D01*
X17417500Y-10400001D01*
X16917500Y-10400001D01*
X16917499Y-10400000D01*
X16692875Y-10400000D01*
X16619953Y-10414506D01*
X16619951Y-10414507D01*
X16529153Y-10475177D01*
X16528452Y-10474128D01*
X16482987Y-10497294D01*
X16422555Y-10487723D01*
X16398867Y-10470513D01*
X16315048Y-10414507D01*
X16315046Y-10414506D01*
X16242124Y-10400000D01*
X16017501Y-10400000D01*
X16017500Y-10400001D01*
X15517500Y-10400001D01*
X15517499Y-10400000D01*
X15292875Y-10400000D01*
X15219953Y-10414506D01*
X15219951Y-10414507D01*
X15129153Y-10475177D01*
X15128452Y-10474128D01*
X15082987Y-10497294D01*
X15022555Y-10487723D01*
X14998867Y-10470513D01*
X14915048Y-10414507D01*
X14915046Y-10414506D01*
X14842124Y-10400000D01*
X14617501Y-10400000D01*
X14617500Y-10400001D01*
X14117500Y-10400001D01*
X14117499Y-10400000D01*
X13892875Y-10400000D01*
X13819953Y-10414506D01*
X13819951Y-10414507D01*
X13737262Y-10469758D01*
X13737258Y-10469762D01*
X13682007Y-10552451D01*
X13682006Y-10552453D01*
X13667500Y-10625375D01*
X7300000Y-10625375D01*
X7300000Y-3287105D01*
X7318907Y-3228914D01*
X7368407Y-3192950D01*
X7429593Y-3192950D01*
X7454002Y-3204790D01*
X7499952Y-3235493D01*
X7572875Y-3249999D01*
X7572877Y-3250000D01*
X7797499Y-3250000D01*
X7797500Y-3249999D01*
X7797500Y-1250001D01*
X7797499Y-1250000D01*
X7572875Y-1250000D01*
X7499953Y-1264506D01*
X7499952Y-1264506D01*
X7454001Y-1295210D01*
X7395113Y-1311818D01*
X7337709Y-1290640D01*
X7303717Y-1239766D01*
X7300000Y-1212894D01*
X7300000Y-599499D01*
X7318907Y-541308D01*
X7368407Y-505344D01*
X7399000Y-500499D01*
X27330915Y-500499D01*
X27389106Y-519406D01*
G37*
G04 #@! TD.AperFunction*
G04 #@! TA.AperFunction,Conductor*
G36*
X14966936Y-15919407D02*
G01*
X15002900Y-15968907D01*
X15002900Y-16030093D01*
X14978750Y-16069501D01*
X14963943Y-16084309D01*
X14959513Y-16088739D01*
X14903498Y-16185758D01*
X14894879Y-16217927D01*
X14874500Y-16293982D01*
X14874500Y-16406018D01*
X14897133Y-16490485D01*
X14903498Y-16514241D01*
X14952794Y-16599622D01*
X14959515Y-16611263D01*
X15038737Y-16690485D01*
X15067500Y-16707091D01*
X15108441Y-16752559D01*
X15117000Y-16792827D01*
X15117000Y-18753719D01*
X15098093Y-18811910D01*
X15048593Y-18847874D01*
X14987407Y-18847874D01*
X14978040Y-18844296D01*
X14970157Y-18840818D01*
X14925731Y-18811133D01*
X14884100Y-18802852D01*
X14874136Y-18798456D01*
X14859051Y-18784966D01*
X14841397Y-18775079D01*
X14836768Y-18765038D01*
X14828528Y-18757669D01*
X14824254Y-18737892D01*
X14815782Y-18719514D01*
X14816908Y-18703898D01*
X14815604Y-18697864D01*
X14817683Y-18693151D01*
X14818468Y-18682259D01*
X14825500Y-18656018D01*
X14825500Y-18543982D01*
X14796503Y-18435763D01*
X14796501Y-18435760D01*
X14796501Y-18435758D01*
X14744541Y-18345763D01*
X14740485Y-18338737D01*
X14661263Y-18259515D01*
X14655416Y-18256139D01*
X14564240Y-18203498D01*
X14564242Y-18203498D01*
X14510775Y-18189172D01*
X14456018Y-18174500D01*
X14343982Y-18174500D01*
X14289225Y-18189172D01*
X14235758Y-18203498D01*
X14138739Y-18259513D01*
X14059513Y-18338739D01*
X14003498Y-18435758D01*
X13987583Y-18495155D01*
X13977180Y-18533982D01*
X13974500Y-18543983D01*
X13974500Y-18656020D01*
X13981277Y-18681313D01*
X13978074Y-18742414D01*
X13939567Y-18789964D01*
X13926917Y-18796923D01*
X13916353Y-18801767D01*
X13869269Y-18811133D01*
X13810941Y-18850107D01*
X13803767Y-18853397D01*
X13780835Y-18856064D01*
X13758614Y-18862332D01*
X13750268Y-18859620D01*
X13742992Y-18860467D01*
X13729485Y-18852867D01*
X13707498Y-18845723D01*
X13655733Y-18811134D01*
X13655731Y-18811133D01*
X13655728Y-18811132D01*
X13655727Y-18811132D01*
X13597258Y-18799501D01*
X13597248Y-18799500D01*
X12657752Y-18799500D01*
X12657751Y-18799500D01*
X12657741Y-18799501D01*
X12599272Y-18811132D01*
X12599266Y-18811134D01*
X12547502Y-18845723D01*
X12488614Y-18862332D01*
X12437498Y-18845723D01*
X12385733Y-18811134D01*
X12385731Y-18811133D01*
X12385728Y-18811132D01*
X12385727Y-18811132D01*
X12327258Y-18799501D01*
X12327248Y-18799500D01*
X11387752Y-18799500D01*
X11387751Y-18799500D01*
X11387741Y-18799501D01*
X11329272Y-18811132D01*
X11329266Y-18811134D01*
X11277502Y-18845723D01*
X11218614Y-18862332D01*
X11167498Y-18845723D01*
X11115733Y-18811134D01*
X11115731Y-18811133D01*
X11115728Y-18811132D01*
X11115727Y-18811132D01*
X11057258Y-18799501D01*
X11057248Y-18799500D01*
X11057247Y-18799500D01*
X10967000Y-18799500D01*
X10953037Y-18794963D01*
X10938361Y-18795267D01*
X10924670Y-18785746D01*
X10908809Y-18780593D01*
X10900179Y-18768715D01*
X10888128Y-18760335D01*
X10882986Y-18745052D01*
X10872845Y-18731093D01*
X10868021Y-18702547D01*
X10868000Y-18701531D01*
X10868000Y-18550572D01*
X10867729Y-18549562D01*
X10848884Y-18479231D01*
X10843807Y-18470438D01*
X10843807Y-18470437D01*
X10843804Y-18470434D01*
X10838761Y-18461698D01*
X10825500Y-18412203D01*
X10825500Y-18343983D01*
X10825500Y-18343982D01*
X10796503Y-18235763D01*
X10796501Y-18235760D01*
X10796501Y-18235758D01*
X10743355Y-18143708D01*
X10740485Y-18138737D01*
X10661263Y-18059515D01*
X10661260Y-18059513D01*
X10564241Y-18003498D01*
X10524244Y-17992781D01*
X10456018Y-17974500D01*
X10343982Y-17974500D01*
X10277748Y-17992247D01*
X10235758Y-18003498D01*
X10138739Y-18059513D01*
X10138737Y-18059514D01*
X10138737Y-18059515D01*
X10087001Y-18111250D01*
X10032487Y-18139026D01*
X9972055Y-18129455D01*
X9928790Y-18086190D01*
X9918000Y-18041245D01*
X9918000Y-17813665D01*
X9936907Y-17755474D01*
X9946996Y-17743661D01*
X11761161Y-15929496D01*
X11815678Y-15901719D01*
X11831165Y-15900500D01*
X14908745Y-15900500D01*
X14966936Y-15919407D01*
G37*
G04 #@! TD.AperFunction*
G04 #@! TA.AperFunction,Conductor*
G36*
X24792295Y-10256365D02*
G01*
X24824264Y-10308534D01*
X24827000Y-10331646D01*
X24827000Y-10844674D01*
X24841534Y-10917740D01*
X24867261Y-10956245D01*
X24871485Y-10969100D01*
X24871542Y-10986826D01*
X24876355Y-11003890D01*
X24871646Y-11018381D01*
X24871685Y-11030286D01*
X24864577Y-11040136D01*
X24859748Y-11054999D01*
X24841535Y-11082257D01*
X24841533Y-11082263D01*
X24827001Y-11155315D01*
X24827000Y-11155327D01*
X24827000Y-12104672D01*
X24827001Y-12104684D01*
X24841533Y-12177736D01*
X24841535Y-12177742D01*
X24866429Y-12214999D01*
X24883037Y-12273888D01*
X24866429Y-12325001D01*
X24841535Y-12362257D01*
X24841533Y-12362263D01*
X24827001Y-12435315D01*
X24827000Y-12435327D01*
X24827000Y-13384672D01*
X24827001Y-13384684D01*
X24841533Y-13457736D01*
X24841536Y-13457745D01*
X24893155Y-13535000D01*
X24909763Y-13593888D01*
X24893156Y-13645000D01*
X24888634Y-13651767D01*
X24888632Y-13651772D01*
X24877001Y-13710241D01*
X24877000Y-13710253D01*
X24877000Y-14649746D01*
X24877001Y-14649758D01*
X24888632Y-14708227D01*
X24888634Y-14708233D01*
X24923223Y-14759998D01*
X24939832Y-14818886D01*
X24923223Y-14870002D01*
X24888634Y-14921766D01*
X24888632Y-14921772D01*
X24877001Y-14980241D01*
X24877000Y-14980253D01*
X24877000Y-15919746D01*
X24877001Y-15919758D01*
X24888632Y-15978227D01*
X24888634Y-15978233D01*
X24923223Y-16029998D01*
X24939832Y-16088886D01*
X24923223Y-16140002D01*
X24888634Y-16191766D01*
X24888632Y-16191772D01*
X24877001Y-16250241D01*
X24877000Y-16250253D01*
X24877000Y-17189746D01*
X24877001Y-17189758D01*
X24888632Y-17248227D01*
X24888634Y-17248233D01*
X24923223Y-17299998D01*
X24939832Y-17358886D01*
X24923223Y-17410002D01*
X24888634Y-17461766D01*
X24888632Y-17461772D01*
X24877001Y-17520241D01*
X24877000Y-17520253D01*
X24877000Y-18138383D01*
X24858093Y-18196574D01*
X24808593Y-18232538D01*
X24747407Y-18232538D01*
X24707996Y-18208387D01*
X23978296Y-17478687D01*
X23959969Y-17451255D01*
X23959748Y-17451383D01*
X23957797Y-17448004D01*
X23956833Y-17446561D01*
X23956504Y-17445769D01*
X23956503Y-17445763D01*
X23900485Y-17348737D01*
X23821263Y-17269515D01*
X23812286Y-17264332D01*
X23724240Y-17213498D01*
X23724242Y-17213498D01*
X23682251Y-17202247D01*
X23616018Y-17184500D01*
X23503982Y-17184500D01*
X23437748Y-17202247D01*
X23395758Y-17213498D01*
X23298739Y-17269513D01*
X23219513Y-17348739D01*
X23163498Y-17445758D01*
X23159812Y-17459515D01*
X23134500Y-17553982D01*
X23134500Y-17666018D01*
X23142923Y-17697453D01*
X23163498Y-17774241D01*
X23210713Y-17856018D01*
X23219515Y-17871263D01*
X23298737Y-17950485D01*
X23298739Y-17950486D01*
X23401382Y-18009748D01*
X23399864Y-18012377D01*
X23436898Y-18043987D01*
X23451200Y-18103478D01*
X23427803Y-18160013D01*
X23422507Y-18165744D01*
X23339514Y-18248737D01*
X23283498Y-18345758D01*
X23276874Y-18370479D01*
X23255107Y-18451719D01*
X23254500Y-18453983D01*
X23254500Y-18469521D01*
X23235593Y-18527712D01*
X23225504Y-18539525D01*
X23102989Y-18662040D01*
X23102988Y-18662039D01*
X23047041Y-18717987D01*
X23028558Y-18750001D01*
X22983088Y-18790941D01*
X22942822Y-18799500D01*
X22817752Y-18799500D01*
X22817751Y-18799500D01*
X22817741Y-18799501D01*
X22759272Y-18811132D01*
X22759266Y-18811134D01*
X22707502Y-18845723D01*
X22648614Y-18862332D01*
X22597498Y-18845723D01*
X22545733Y-18811134D01*
X22545731Y-18811133D01*
X22545728Y-18811132D01*
X22545727Y-18811132D01*
X22487258Y-18799501D01*
X22487248Y-18799500D01*
X21547752Y-18799500D01*
X21547751Y-18799500D01*
X21547741Y-18799501D01*
X21489272Y-18811132D01*
X21489266Y-18811134D01*
X21437502Y-18845723D01*
X21378614Y-18862332D01*
X21327498Y-18845723D01*
X21275733Y-18811134D01*
X21275731Y-18811133D01*
X21275728Y-18811132D01*
X21275727Y-18811132D01*
X21217258Y-18799501D01*
X21217248Y-18799500D01*
X21217247Y-18799500D01*
X20857000Y-18799500D01*
X20798809Y-18780593D01*
X20762845Y-18731093D01*
X20758000Y-18700500D01*
X20758000Y-16490574D01*
X20758000Y-16490572D01*
X20738884Y-16419231D01*
X20701956Y-16355269D01*
X20687187Y-16340500D01*
X20654496Y-16307808D01*
X20626719Y-16253291D01*
X20625500Y-16237805D01*
X20625500Y-16193983D01*
X20624906Y-16191766D01*
X20596503Y-16085763D01*
X20596501Y-16085760D01*
X20596501Y-16085758D01*
X20544023Y-15994865D01*
X20540485Y-15988737D01*
X20461263Y-15909515D01*
X20461260Y-15909513D01*
X20364240Y-15853498D01*
X20364242Y-15853498D01*
X20322251Y-15842247D01*
X20256018Y-15824500D01*
X20143982Y-15824500D01*
X20077748Y-15842247D01*
X20035758Y-15853498D01*
X19938739Y-15909513D01*
X19859513Y-15988739D01*
X19803498Y-16085758D01*
X19791619Y-16130093D01*
X19774500Y-16193982D01*
X19774500Y-16306018D01*
X19791859Y-16370803D01*
X19803498Y-16414241D01*
X19859513Y-16511260D01*
X19859515Y-16511263D01*
X19938737Y-16590485D01*
X19946978Y-16595243D01*
X20035759Y-16646501D01*
X20035757Y-16646501D01*
X20035761Y-16646502D01*
X20035763Y-16646503D01*
X20123625Y-16670045D01*
X20174937Y-16703368D01*
X20196864Y-16760489D01*
X20197000Y-16765671D01*
X20197000Y-18753719D01*
X20178093Y-18811910D01*
X20128593Y-18847874D01*
X20067407Y-18847874D01*
X20042998Y-18836034D01*
X20005733Y-18811134D01*
X20005731Y-18811133D01*
X20005728Y-18811132D01*
X20005727Y-18811132D01*
X19947258Y-18799501D01*
X19947248Y-18799500D01*
X19947247Y-18799500D01*
X19587000Y-18799500D01*
X19573606Y-18795148D01*
X19559531Y-18795613D01*
X19545233Y-18785929D01*
X19528809Y-18780593D01*
X19520530Y-18769198D01*
X19508871Y-18761302D01*
X19503567Y-18745850D01*
X19492845Y-18731093D01*
X19488054Y-18703767D01*
X19488000Y-18702131D01*
X19488000Y-18570572D01*
X19485990Y-18563072D01*
X19483045Y-18552081D01*
X19483045Y-18552079D01*
X19468884Y-18499232D01*
X19468883Y-18499230D01*
X19464554Y-18491731D01*
X19438763Y-18447059D01*
X19425500Y-18397560D01*
X19425500Y-18343983D01*
X19425500Y-18343982D01*
X19396503Y-18235763D01*
X19396501Y-18235760D01*
X19396501Y-18235758D01*
X19343355Y-18143708D01*
X19340485Y-18138737D01*
X19261263Y-18059515D01*
X19261260Y-18059513D01*
X19164241Y-18003498D01*
X19124244Y-17992781D01*
X19056018Y-17974500D01*
X18943982Y-17974500D01*
X18877748Y-17992247D01*
X18835758Y-18003498D01*
X18738739Y-18059513D01*
X18659513Y-18138739D01*
X18603498Y-18235758D01*
X18599812Y-18249515D01*
X18574500Y-18343982D01*
X18574500Y-18456018D01*
X18600072Y-18551455D01*
X18603498Y-18564241D01*
X18653589Y-18651000D01*
X18666311Y-18710848D01*
X18641424Y-18766744D01*
X18588436Y-18797337D01*
X18567853Y-18799500D01*
X18317000Y-18799500D01*
X18258809Y-18780593D01*
X18222845Y-18731093D01*
X18218000Y-18700500D01*
X18218000Y-16390131D01*
X18231264Y-16340631D01*
X18246503Y-16314237D01*
X18275500Y-16206018D01*
X18275500Y-16093982D01*
X18257049Y-16025121D01*
X18260252Y-15964021D01*
X18298757Y-15916471D01*
X18352676Y-15900500D01*
X18868993Y-15900500D01*
X18868994Y-15900500D01*
X19004328Y-15873580D01*
X19131811Y-15820775D01*
X19246543Y-15744114D01*
X24544114Y-10446543D01*
X24620775Y-10331811D01*
X24636536Y-10293761D01*
X24676272Y-10247235D01*
X24735767Y-10232951D01*
X24792295Y-10256365D01*
G37*
G04 #@! TD.AperFunction*
G04 #@! TA.AperFunction,Conductor*
G36*
X32908691Y-11099407D02*
G01*
X32944655Y-11148907D01*
X32949500Y-11179500D01*
X32949500Y-11519746D01*
X32949501Y-11519758D01*
X32961132Y-11578227D01*
X32961134Y-11578233D01*
X32974691Y-11598522D01*
X32991300Y-11657411D01*
X32978599Y-11702172D01*
X32967000Y-11722728D01*
X32955448Y-11730448D01*
X32911133Y-11796769D01*
X32903458Y-11835350D01*
X32895674Y-11849148D01*
X32884237Y-11859652D01*
X32876650Y-11873200D01*
X32862270Y-11879828D01*
X32850612Y-11890537D01*
X32835187Y-11892313D01*
X32821085Y-11898814D01*
X32809451Y-11899500D01*
X32665892Y-11899500D01*
X32534108Y-11899500D01*
X32459466Y-11919500D01*
X32406809Y-11933609D01*
X32292690Y-11999496D01*
X32199496Y-12092690D01*
X32133609Y-12206809D01*
X32115636Y-12273888D01*
X32099500Y-12334108D01*
X32099500Y-12465892D01*
X32115457Y-12525445D01*
X32133609Y-12593190D01*
X32199496Y-12707309D01*
X32199498Y-12707311D01*
X32199500Y-12707314D01*
X32292686Y-12800500D01*
X32292688Y-12800501D01*
X32292690Y-12800503D01*
X32406810Y-12866390D01*
X32406808Y-12866390D01*
X32406812Y-12866391D01*
X32406814Y-12866392D01*
X32534108Y-12900500D01*
X32665892Y-12900500D01*
X32800500Y-12900500D01*
X32858691Y-12919407D01*
X32894655Y-12968907D01*
X32899500Y-12999500D01*
X32899500Y-13144746D01*
X32899501Y-13144758D01*
X32911132Y-13203227D01*
X32911134Y-13203233D01*
X32955445Y-13269548D01*
X32955448Y-13269552D01*
X33021769Y-13313867D01*
X33058298Y-13321133D01*
X33080241Y-13325498D01*
X33080246Y-13325498D01*
X33080252Y-13325500D01*
X33476678Y-13325500D01*
X33534869Y-13344407D01*
X33546682Y-13354496D01*
X34305504Y-14113318D01*
X34333281Y-14167835D01*
X34334500Y-14183322D01*
X34334500Y-14810500D01*
X34315593Y-14868691D01*
X34266093Y-14904655D01*
X34235500Y-14909500D01*
X33506850Y-14909500D01*
X33448659Y-14890593D01*
X33436846Y-14880504D01*
X30120874Y-11564532D01*
X30093097Y-11510015D01*
X30095251Y-11468905D01*
X30096500Y-11464240D01*
X30096503Y-11464237D01*
X30125500Y-11356018D01*
X30125500Y-11243982D01*
X30115087Y-11205120D01*
X30118289Y-11144022D01*
X30156794Y-11096472D01*
X30210714Y-11080500D01*
X32850500Y-11080500D01*
X32908691Y-11099407D01*
G37*
G04 #@! TD.AperFunction*
G04 #@! TD*
M02*
