G04 #@! TF.GenerationSoftware,KiCad,Pcbnew,9.0.0-9.0.0-2~ubuntu22.04.1*
G04 #@! TF.CreationDate,2025-03-24T08:10:21+01:00*
G04 #@! TF.ProjectId,kicad_makespace_tutorial,6b696361-645f-46d6-916b-657370616365,v1*
G04 #@! TF.SameCoordinates,Original*
G04 #@! TF.FileFunction,Copper,L2,Bot*
G04 #@! TF.FilePolarity,Positive*
%FSLAX46Y46*%
G04 Gerber Fmt 4.6, Leading zero omitted, Abs format (unit mm)*
G04 Created by KiCad (PCBNEW 9.0.0-9.0.0-2~ubuntu22.04.1) date 2025-03-24 08:10:21*
%MOMM*%
%LPD*%
G01*
G04 APERTURE LIST*
G04 Aperture macros list*
%AMRoundRect*
0 Rectangle with rounded corners*
0 $1 Rounding radius*
0 $2 $3 $4 $5 $6 $7 $8 $9 X,Y pos of 4 corners*
0 Add a 4 corners polygon primitive as box body*
4,1,4,$2,$3,$4,$5,$6,$7,$8,$9,$2,$3,0*
0 Add four circle primitives for the rounded corners*
1,1,$1+$1,$2,$3*
1,1,$1+$1,$4,$5*
1,1,$1+$1,$6,$7*
1,1,$1+$1,$8,$9*
0 Add four rect primitives between the rounded corners*
20,1,$1+$1,$2,$3,$4,$5,0*
20,1,$1+$1,$4,$5,$6,$7,0*
20,1,$1+$1,$6,$7,$8,$9,0*
20,1,$1+$1,$8,$9,$2,$3,0*%
%AMFreePoly0*
4,1,6,1.000000,0.000000,0.500000,-0.750000,-0.500000,-0.750000,-0.500000,0.750000,0.500000,0.750000,1.000000,0.000000,1.000000,0.000000,$1*%
%AMFreePoly1*
4,1,6,0.500000,-0.750000,-0.650000,-0.750000,-0.150000,0.000000,-0.650000,0.750000,0.500000,0.750000,0.500000,-0.750000,0.500000,-0.750000,$1*%
%AMFreePoly2*
4,1,23,0.550000,-0.750000,0.000000,-0.750000,0.000000,-0.745722,-0.065263,-0.745722,-0.191342,-0.711940,-0.304381,-0.646677,-0.396677,-0.554381,-0.461940,-0.441342,-0.495722,-0.315263,-0.495722,-0.250000,-0.500000,-0.250000,-0.500000,0.250000,-0.495722,0.250000,-0.495722,0.315263,-0.461940,0.441342,-0.396677,0.554381,-0.304381,0.646677,-0.191342,0.711940,-0.065263,0.745722,0.000000,0.745722,
0.000000,0.750000,0.550000,0.750000,0.550000,-0.750000,0.550000,-0.750000,$1*%
%AMFreePoly3*
4,1,23,0.000000,0.745722,0.065263,0.745722,0.191342,0.711940,0.304381,0.646677,0.396677,0.554381,0.461940,0.441342,0.495722,0.315263,0.495722,0.250000,0.500000,0.250000,0.500000,-0.250000,0.495722,-0.250000,0.495722,-0.315263,0.461940,-0.441342,0.396677,-0.554381,0.304381,-0.646677,0.191342,-0.711940,0.065263,-0.745722,0.000000,-0.745722,0.000000,-0.750000,-0.550000,-0.750000,
-0.550000,0.750000,0.000000,0.750000,0.000000,0.745722,0.000000,0.745722,$1*%
G04 Aperture macros list end*
G04 #@! TA.AperFunction,EtchedComponent*
%ADD10C,0.000000*%
G04 #@! TD*
G04 #@! TA.AperFunction,ComponentPad*
%ADD11C,2.000000*%
G04 #@! TD*
G04 #@! TA.AperFunction,ComponentPad*
%ADD12C,4.700000*%
G04 #@! TD*
G04 #@! TA.AperFunction,ComponentPad*
%ADD13C,0.750000*%
G04 #@! TD*
G04 #@! TA.AperFunction,ComponentPad*
%ADD14O,1.200000X2.000000*%
G04 #@! TD*
G04 #@! TA.AperFunction,ComponentPad*
%ADD15O,1.200000X1.800000*%
G04 #@! TD*
G04 #@! TA.AperFunction,ComponentPad*
%ADD16R,1.700000X1.700000*%
G04 #@! TD*
G04 #@! TA.AperFunction,ComponentPad*
%ADD17O,1.700000X1.700000*%
G04 #@! TD*
G04 #@! TA.AperFunction,SMDPad,CuDef*
%ADD18C,1.000000*%
G04 #@! TD*
G04 #@! TA.AperFunction,SMDPad,CuDef*
%ADD19RoundRect,0.250000X-0.450000X0.350000X-0.450000X-0.350000X0.450000X-0.350000X0.450000X0.350000X0*%
G04 #@! TD*
G04 #@! TA.AperFunction,SMDPad,CuDef*
%ADD20FreePoly0,90.000000*%
G04 #@! TD*
G04 #@! TA.AperFunction,SMDPad,CuDef*
%ADD21FreePoly1,90.000000*%
G04 #@! TD*
G04 #@! TA.AperFunction,SMDPad,CuDef*
%ADD22R,0.650000X3.000000*%
G04 #@! TD*
G04 #@! TA.AperFunction,SMDPad,CuDef*
%ADD23FreePoly2,180.000000*%
G04 #@! TD*
G04 #@! TA.AperFunction,SMDPad,CuDef*
%ADD24R,1.000000X1.500000*%
G04 #@! TD*
G04 #@! TA.AperFunction,SMDPad,CuDef*
%ADD25FreePoly3,180.000000*%
G04 #@! TD*
G04 #@! TA.AperFunction,SMDPad,CuDef*
%ADD26FreePoly0,270.000000*%
G04 #@! TD*
G04 #@! TA.AperFunction,SMDPad,CuDef*
%ADD27FreePoly1,270.000000*%
G04 #@! TD*
G04 #@! TA.AperFunction,ViaPad*
%ADD28C,0.600000*%
G04 #@! TD*
G04 #@! TA.AperFunction,ViaPad*
%ADD29C,0.450000*%
G04 #@! TD*
G04 #@! TA.AperFunction,Conductor*
%ADD30C,1.000000*%
G04 #@! TD*
G04 #@! TA.AperFunction,Conductor*
%ADD31C,0.600000*%
G04 #@! TD*
G04 #@! TA.AperFunction,Conductor*
%ADD32C,0.700000*%
G04 #@! TD*
G04 #@! TA.AperFunction,Conductor*
%ADD33C,0.300000*%
G04 #@! TD*
G04 #@! TA.AperFunction,Conductor*
%ADD34C,0.160000*%
G04 #@! TD*
G04 #@! TA.AperFunction,Conductor*
%ADD35C,0.200000*%
G04 #@! TD*
G04 APERTURE END LIST*
D10*
G04 #@! TA.AperFunction,EtchedComponent*
G04 #@! TO.C,JP6*
G36*
X38400000Y-10900000D02*
G01*
X37900000Y-10900000D01*
X37900000Y-10500000D01*
X38400000Y-10500000D01*
X38400000Y-10900000D01*
G37*
G04 #@! TD.AperFunction*
G04 #@! TA.AperFunction,EtchedComponent*
G36*
X38400000Y-11700000D02*
G01*
X37900000Y-11700000D01*
X37900000Y-11300000D01*
X38400000Y-11300000D01*
X38400000Y-11700000D01*
G37*
G04 #@! TD.AperFunction*
G04 #@! TD*
D11*
G04 #@! TO.P,J1,1,Pin_1*
G04 #@! TO.N,Net-(J1-Pin_1)*
X56750000Y-17000000D03*
G04 #@! TO.P,J1,2,Pin_2*
G04 #@! TO.N,Net-(J1-Pin_2)*
X61750000Y-17000000D03*
G04 #@! TD*
D12*
G04 #@! TO.P,H1,1*
G04 #@! TO.N,N/C*
X50750000Y-12250000D03*
G04 #@! TD*
D13*
G04 #@! TO.P,USBC1,*
G04 #@! TO.N,*
X35150000Y-5262500D03*
X29350000Y-5262500D03*
D14*
G04 #@! TO.P,USBC1,0,SH*
G04 #@! TO.N,GND*
X36580000Y-5762500D03*
G04 #@! TO.P,USBC1,1*
G04 #@! TO.N,N/C*
X27920000Y-5762500D03*
D15*
G04 #@! TO.P,USBC1,2*
X27920000Y-1582500D03*
G04 #@! TO.P,USBC1,3*
X36580000Y-1582500D03*
G04 #@! TD*
D12*
G04 #@! TO.P,H3,1*
G04 #@! TO.N,N/C*
X30000000Y-18500000D03*
G04 #@! TD*
D16*
G04 #@! TO.P,J3,1,Pin_1*
G04 #@! TO.N,/GPIO_19*
X55000000Y-5000000D03*
D17*
G04 #@! TO.P,J3,2,Pin_2*
G04 #@! TO.N,/GPIO_17*
X55000000Y-2460000D03*
G04 #@! TO.P,J3,3,Pin_3*
G04 #@! TO.N,GND*
X57540000Y-5000000D03*
G04 #@! TO.P,J3,4,Pin_4*
X57540000Y-2460000D03*
G04 #@! TO.P,J3,5,Pin_5*
G04 #@! TO.N,/GPIO_34*
X60080000Y-5000000D03*
G04 #@! TO.P,J3,6,Pin_6*
G04 #@! TO.N,/GPIO_16*
X60080000Y-2460000D03*
G04 #@! TD*
D18*
G04 #@! TO.P,TP19,1,1*
G04 #@! TO.N,GND*
X22000000Y-2000000D03*
G04 #@! TD*
G04 #@! TO.P,TP2,1,1*
G04 #@! TO.N,/GPIO_21*
X14500000Y-5000000D03*
G04 #@! TD*
D19*
G04 #@! TO.P,R5,1*
G04 #@! TO.N,/5V*
X59350000Y-7300000D03*
G04 #@! TO.P,R5,2*
G04 #@! TO.N,/GAIN_SLOT*
X59350000Y-9300000D03*
G04 #@! TD*
D18*
G04 #@! TO.P,TP5,1,1*
G04 #@! TO.N,/GPIO_18*
X18500000Y-5000000D03*
G04 #@! TD*
G04 #@! TO.P,TP17,1,1*
G04 #@! TO.N,GND*
X10500000Y-8800000D03*
G04 #@! TD*
D20*
G04 #@! TO.P,JP3,1,A*
G04 #@! TO.N,/GAIN_SLOT*
X56900000Y-9025000D03*
D21*
G04 #@! TO.P,JP3,2,B*
G04 #@! TO.N,/5V*
X56900000Y-7575000D03*
G04 #@! TD*
D22*
G04 #@! TO.P,J2,1,Pin_1*
G04 #@! TO.N,/3V3*
X21995000Y-16050000D03*
G04 #@! TO.P,J2,2,Pin_2*
G04 #@! TO.N,GND*
X20725000Y-19050000D03*
G04 #@! TO.P,J2,3,Pin_3*
G04 #@! TO.N,/GPIO_26*
X19455000Y-16050000D03*
G04 #@! TO.P,J2,4,Pin_4*
G04 #@! TO.N,/GPIO_25*
X18185000Y-19050000D03*
G04 #@! TO.P,J2,5,Pin_5*
G04 #@! TO.N,/GPIO_33*
X16915000Y-16050000D03*
G04 #@! TO.P,J2,6,Pin_6*
G04 #@! TO.N,/GPIO_32*
X15645000Y-19050000D03*
G04 #@! TO.P,J2,7,Pin_7*
G04 #@! TO.N,/GPIO_16*
X14375000Y-16050000D03*
G04 #@! TO.P,J2,8,Pin_8*
G04 #@! TO.N,/GPIO_34*
X13105000Y-19050000D03*
G04 #@! TD*
D18*
G04 #@! TO.P,TP16,1,1*
G04 #@! TO.N,/ESP_TXD*
X9500000Y-7000000D03*
G04 #@! TD*
G04 #@! TO.P,TP1,1,1*
G04 #@! TO.N,GND*
X19500000Y-12000000D03*
G04 #@! TD*
G04 #@! TO.P,TP18,1,1*
G04 #@! TO.N,/ESP_PROG*
X24000000Y-2000000D03*
G04 #@! TD*
G04 #@! TO.P,TP12,1,1*
G04 #@! TO.N,/GPIO_5*
X20500000Y-5000000D03*
G04 #@! TD*
D20*
G04 #@! TO.P,JP2,1,A*
G04 #@! TO.N,GND*
X56900000Y-13525000D03*
D21*
G04 #@! TO.P,JP2,2,B*
G04 #@! TO.N,/GAIN_SLOT*
X56900000Y-12075000D03*
G04 #@! TD*
D18*
G04 #@! TO.P,TP6,1,1*
G04 #@! TO.N,GND*
X18500000Y-7000000D03*
G04 #@! TD*
D23*
G04 #@! TO.P,JP6,1,A*
G04 #@! TO.N,/5V*
X38800000Y-11100000D03*
D24*
G04 #@! TO.P,JP6,2,C*
G04 #@! TO.N,/WLED_VDD*
X37500000Y-11100000D03*
D25*
G04 #@! TO.P,JP6,3,B*
G04 #@! TO.N,/3V3*
X36200000Y-11100000D03*
G04 #@! TD*
D18*
G04 #@! TO.P,TP15,1,1*
G04 #@! TO.N,/ESP_RXD*
X11500000Y-7000000D03*
G04 #@! TD*
G04 #@! TO.P,TP4,1,1*
G04 #@! TO.N,GND*
X20500000Y-7000000D03*
G04 #@! TD*
D26*
G04 #@! TO.P,JP1,1,A*
G04 #@! TO.N,/SD_MODE*
X61700000Y-12125000D03*
D27*
G04 #@! TO.P,JP1,2,B*
G04 #@! TO.N,/5V*
X61700000Y-13575000D03*
G04 #@! TD*
D18*
G04 #@! TO.P,TP3,1,1*
G04 #@! TO.N,/GPIO_19*
X16500000Y-5000000D03*
G04 #@! TD*
D19*
G04 #@! TO.P,R6,1*
G04 #@! TO.N,/GAIN_SLOT*
X59350000Y-11800000D03*
G04 #@! TO.P,R6,2*
G04 #@! TO.N,GND*
X59350000Y-13800000D03*
G04 #@! TD*
D18*
G04 #@! TO.P,TP13,1,1*
G04 #@! TO.N,GND*
X14500000Y-7000000D03*
G04 #@! TD*
D28*
G04 #@! TO.N,/3V3*
X43950000Y-9600000D03*
X24000000Y-6550000D03*
X32600000Y-12400000D03*
X44800000Y-4000000D03*
X20500000Y-13500000D03*
G04 #@! TO.N,GND*
X26200000Y-20600000D03*
X8700000Y-13600000D03*
X59700000Y-17550000D03*
X9600000Y-4750000D03*
X11900000Y-17600000D03*
X48600000Y-14500000D03*
X51800000Y-18750000D03*
X46750000Y-19000000D03*
X41500000Y-11900000D03*
X47600000Y-10400000D03*
X53400000Y-18800000D03*
X44000000Y-6400000D03*
X46400000Y-6400000D03*
X56050000Y-20300000D03*
X32500000Y-1800000D03*
X12900000Y-5700000D03*
X51650000Y-20400000D03*
X56700000Y-18650000D03*
X58250000Y-20400000D03*
X58450000Y-18450000D03*
X9900000Y-10500000D03*
X38900000Y-1800000D03*
X33600000Y-17900000D03*
X54400000Y-12600000D03*
X47700000Y-13400000D03*
X32900000Y-20900000D03*
X21300000Y-9800000D03*
X51800000Y-6900000D03*
X23600000Y-16500000D03*
X51150000Y-17150000D03*
X27900000Y-7400000D03*
X53650000Y-20350000D03*
X44800000Y-14600000D03*
X45000000Y-1700000D03*
X23000000Y-13500000D03*
X49900000Y-3600000D03*
X54550000Y-17200000D03*
X38600000Y-6400000D03*
X41400000Y-17300000D03*
X61100000Y-19100000D03*
X47250000Y-18500000D03*
X40100000Y-17300000D03*
X31500000Y-12100000D03*
X46400000Y-11500000D03*
X49100000Y-6700000D03*
G04 #@! TO.N,/5V*
X44800000Y-12800000D03*
D29*
X50500000Y-7500000D03*
D28*
X50450000Y-21500000D03*
X48000000Y-15950000D03*
X42500000Y-10500000D03*
X43500000Y-7900000D03*
D29*
G04 #@! TO.N,/SD_MODE*
X58800000Y-10600000D03*
X44700000Y-19900000D03*
X59900000Y-10600000D03*
X56200000Y-11100000D03*
G04 #@! TO.N,/GAIN_SLOT*
X44800000Y-18590000D03*
G04 #@! TO.N,/ESP_PROG*
X26000000Y-2000000D03*
G04 #@! TO.N,/ESP_EN*
X10400000Y-18400000D03*
X29700000Y-11300000D03*
G04 #@! TO.N,/USB_N*
X32547488Y-8249936D03*
X23680000Y-18510000D03*
G04 #@! TO.N,/ESP_TXD*
X9500000Y-5800000D03*
G04 #@! TO.N,/ESP_RXD*
X11500000Y-5800000D03*
G04 #@! TO.N,/USB_P*
X23560000Y-17610000D03*
X32052512Y-7754960D03*
G04 #@! TO.N,/GPIO_21*
X14397500Y-3400000D03*
G04 #@! TO.N,/GPIO_19*
X15667500Y-3300000D03*
G04 #@! TO.N,/GPIO_16*
X51400000Y-5400000D03*
X15300000Y-16350000D03*
X49900000Y-5900000D03*
G04 #@! TO.N,/GPIO_17*
X19800000Y-3400000D03*
G04 #@! TO.N,/GPIO_5*
X18600000Y-3500000D03*
G04 #@! TO.N,/GPIO_18*
X16900000Y-3300000D03*
G04 #@! TO.N,/GPIO_25*
X19000000Y-18400000D03*
G04 #@! TO.N,/GPIO_32*
X16550000Y-18400000D03*
G04 #@! TO.N,/GPIO_26*
X20200000Y-16250000D03*
G04 #@! TO.N,/GPIO_33*
X17850000Y-16150000D03*
D28*
G04 #@! TO.N,/WLED_VDD*
X27400000Y-16500000D03*
X41900000Y-21600000D03*
X52800000Y-8300000D03*
D29*
G04 #@! TO.N,Net-(LED3-DO)*
X30800000Y-15600000D03*
X40650000Y-21600000D03*
G04 #@! TO.N,Net-(LED4-DO)*
X49500000Y-20400000D03*
X42200000Y-17800000D03*
G04 #@! TO.N,/GPIO_34*
X14400000Y-18600000D03*
G04 #@! TD*
D30*
G04 #@! TO.N,/3V3*
X26550000Y-4000000D02*
X44800000Y-4000000D01*
D31*
X36200000Y-11100000D02*
X35550000Y-10450000D01*
X36300000Y-9600000D02*
X43950000Y-9600000D01*
D32*
X20900000Y-13500000D02*
X21995000Y-14595000D01*
D31*
X33500000Y-12400000D02*
X35550000Y-10350000D01*
X35550000Y-10350000D02*
X36300000Y-9600000D01*
X36200000Y-11100000D02*
X36200000Y-11125000D01*
X36200000Y-11125000D02*
X36350000Y-11275000D01*
X35550000Y-10450000D02*
X35550000Y-10350000D01*
D30*
X24000000Y-6550000D02*
X26550000Y-4000000D01*
D32*
X20900000Y-13500000D02*
X20500000Y-13500000D01*
D31*
X32600000Y-12400000D02*
X33500000Y-12400000D01*
D33*
X21995000Y-16050000D02*
X21995000Y-14595000D01*
G04 #@! TO.N,/5V*
X61700000Y-13575000D02*
X62455000Y-13575000D01*
X56900000Y-7575000D02*
X59075000Y-7575000D01*
D30*
X44850000Y-12800000D02*
X50450000Y-18400000D01*
D33*
X56900000Y-7575000D02*
X43825000Y-7575000D01*
X62705000Y-8355000D02*
X61700000Y-7350000D01*
D30*
X50450000Y-18400000D02*
X50450000Y-21500000D01*
X44800000Y-12800000D02*
X44850000Y-12800000D01*
X42500000Y-10500000D02*
X39520097Y-10500000D01*
D33*
X62705000Y-13325000D02*
X62705000Y-8355000D01*
D30*
X39520097Y-10500000D02*
X38900000Y-11120097D01*
D33*
X62455000Y-13575000D02*
X62705000Y-13325000D01*
X61700000Y-7350000D02*
X59400000Y-7350000D01*
X43825000Y-7575000D02*
X43500000Y-7900000D01*
D34*
G04 #@! TO.N,/SD_MODE*
X44000000Y-17111177D02*
X45330000Y-18441177D01*
X56200000Y-10715000D02*
X56315000Y-10600000D01*
X55000000Y-9285000D02*
X47325000Y-9285000D01*
X56315000Y-10600000D02*
X55000000Y-9285000D01*
X59900000Y-10600000D02*
X60000000Y-10500000D01*
X56200000Y-11100000D02*
X56200000Y-10715000D01*
X60075000Y-10500000D02*
X61700000Y-12125000D01*
X58800000Y-10600000D02*
X56315000Y-10600000D01*
X47325000Y-9285000D02*
X44000000Y-12610000D01*
X60000000Y-10500000D02*
X60075000Y-10500000D01*
X45330000Y-19270000D02*
X44700000Y-19900000D01*
X45330000Y-18441177D02*
X45330000Y-19270000D01*
X44000000Y-12610000D02*
X44000000Y-17111177D01*
G04 #@! TO.N,/GAIN_SLOT*
X47217304Y-9025000D02*
X56900000Y-9025000D01*
X56900000Y-9025000D02*
X59075000Y-9025000D01*
X44800000Y-18590000D02*
X44800000Y-18300000D01*
X43739999Y-12502305D02*
X47217304Y-9025000D01*
X44800000Y-18300000D02*
X43739999Y-17239999D01*
X43739999Y-17239999D02*
X43739999Y-12502305D01*
X59350000Y-9300000D02*
X59350000Y-11800000D01*
X59350000Y-11800000D02*
X57175000Y-11800000D01*
G04 #@! TO.N,/ESP_PROG*
X24000000Y-2000000D02*
X26000000Y-2000000D01*
G04 #@! TO.N,/ESP_EN*
X29100000Y-10700000D02*
X29700000Y-11300000D01*
X15938220Y-10700000D02*
X29100000Y-10700000D01*
X10400000Y-18400000D02*
X10400000Y-16238220D01*
X10400000Y-16238220D02*
X15938220Y-10700000D01*
D35*
G04 #@! TO.N,/USB_N*
X32547488Y-9797512D02*
X32547488Y-8249936D01*
X23680000Y-18510000D02*
X23835000Y-18510000D01*
X23835000Y-18510000D02*
X32547488Y-9797512D01*
D34*
G04 #@! TO.N,/ESP_TXD*
X9500000Y-5800000D02*
X9500000Y-7000000D01*
G04 #@! TO.N,/ESP_RXD*
X11500000Y-5800000D02*
X11500000Y-7000000D01*
D35*
G04 #@! TO.N,/USB_P*
X32047488Y-7759984D02*
X32052512Y-7754960D01*
X23560000Y-17610000D02*
X23570000Y-17600000D01*
X23570000Y-17600000D02*
X24165736Y-17600000D01*
X32047488Y-9718248D02*
X32047488Y-7759984D01*
X24165736Y-17600000D02*
X32047488Y-9718248D01*
D34*
G04 #@! TO.N,/GPIO_21*
X14397500Y-3400000D02*
X14500000Y-3502500D01*
X14500000Y-3502500D02*
X14500000Y-5000000D01*
G04 #@! TO.N,/GPIO_19*
X33335392Y-6000000D02*
X34915392Y-7580000D01*
X34915392Y-7580000D02*
X39052304Y-7580000D01*
X15667500Y-3300000D02*
X15667500Y-4167500D01*
X31164608Y-6000000D02*
X33335392Y-6000000D01*
X22678112Y-8070000D02*
X22988112Y-8380000D01*
X55000000Y-5000000D02*
X54500000Y-5000000D01*
X22988112Y-8380000D02*
X28784608Y-8380000D01*
X41392304Y-5240000D02*
X49940000Y-5240000D01*
X15667500Y-4167500D02*
X16500000Y-5000000D01*
X39052304Y-7580000D02*
X41392304Y-5240000D01*
X16500000Y-5000000D02*
X16500000Y-6920000D01*
X54500000Y-5000000D02*
X54260000Y-5240000D01*
X50639000Y-5939000D02*
X54061000Y-5939000D01*
X49940000Y-5240000D02*
X50639000Y-5939000D01*
X54061000Y-5939000D02*
X55000000Y-5000000D01*
X17650000Y-8070000D02*
X22678112Y-8070000D01*
X16500000Y-6920000D02*
X17650000Y-8070000D01*
X28784608Y-8380000D02*
X31164608Y-6000000D01*
G04 #@! TO.N,/GPIO_16*
X15300000Y-16350000D02*
X14675000Y-16350000D01*
X58571000Y-3969000D02*
X60080000Y-2460000D01*
X33227696Y-6260000D02*
X31272304Y-6260000D01*
X13611000Y-20731000D02*
X14881000Y-19461000D01*
X28892304Y-8640000D02*
X17260000Y-8640000D01*
X10331000Y-20731000D02*
X13611000Y-20731000D01*
X49900000Y-5900000D02*
X49500000Y-5500000D01*
X51400000Y-5400000D02*
X51400000Y-5500000D01*
X31272304Y-6260000D02*
X28892304Y-8640000D01*
X17260000Y-8640000D02*
X9500000Y-16400000D01*
X9500000Y-16400000D02*
X9500000Y-19900000D01*
X52931000Y-3969000D02*
X58571000Y-3969000D01*
X14881000Y-19461000D02*
X14881000Y-16556000D01*
X34807696Y-7840000D02*
X33227696Y-6260000D01*
X9500000Y-19900000D02*
X10331000Y-20731000D01*
X14675000Y-16350000D02*
X14375000Y-16050000D01*
X14881000Y-16556000D02*
X14375000Y-16050000D01*
X39160000Y-7840000D02*
X34807696Y-7840000D01*
X41500000Y-5500000D02*
X39160000Y-7840000D01*
X49500000Y-5500000D02*
X41500000Y-5500000D01*
X51400000Y-5500000D02*
X52931000Y-3969000D01*
G04 #@! TO.N,/GPIO_17*
X35023088Y-7320000D02*
X38944608Y-7320000D01*
X23095808Y-8120000D02*
X28676912Y-8120000D01*
X50499999Y-4979999D02*
X50500000Y-4980000D01*
X41284609Y-4979999D02*
X50499999Y-4979999D01*
X38944608Y-7320000D02*
X41284609Y-4979999D01*
X19861666Y-3400000D02*
X21700000Y-5238334D01*
X21700000Y-5238334D02*
X21700000Y-6724192D01*
X21700000Y-6724192D02*
X23095808Y-8120000D01*
X31096912Y-5700000D02*
X33403088Y-5700000D01*
X33403088Y-5700000D02*
X35023088Y-7320000D01*
X50500000Y-4980000D02*
X50920000Y-4980000D01*
X53440000Y-2460000D02*
X55000000Y-2460000D01*
X28676912Y-8120000D02*
X31096912Y-5700000D01*
X19800000Y-3400000D02*
X19861666Y-3400000D01*
X50920000Y-4980000D02*
X53440000Y-2460000D01*
G04 #@! TO.N,/GPIO_5*
X18600000Y-3500000D02*
X19000000Y-3500000D01*
X19000000Y-3500000D02*
X20500000Y-5000000D01*
G04 #@! TO.N,/GPIO_18*
X16900000Y-3300000D02*
X16900000Y-3400000D01*
X16900000Y-3400000D02*
X18500000Y-5000000D01*
G04 #@! TO.N,/GPIO_25*
X19000000Y-18400000D02*
X18835000Y-18400000D01*
X18835000Y-18400000D02*
X18185000Y-19050000D01*
G04 #@! TO.N,/GPIO_32*
X16550000Y-18400000D02*
X16295000Y-18400000D01*
X16295000Y-18400000D02*
X15645000Y-19050000D01*
G04 #@! TO.N,/GPIO_26*
X20200000Y-16250000D02*
X19655000Y-16250000D01*
G04 #@! TO.N,/GPIO_33*
X17850000Y-16150000D02*
X17015000Y-16150000D01*
D31*
G04 #@! TO.N,/WLED_VDD*
X52700000Y-8200000D02*
X52800000Y-8300000D01*
X36030000Y-13230000D02*
X33400000Y-13230000D01*
X33400000Y-13230000D02*
X30670000Y-13230000D01*
X37500000Y-11760000D02*
X37500000Y-11100000D01*
X33400000Y-13230000D02*
X33449239Y-13230000D01*
X49800000Y-8200000D02*
X52700000Y-8200000D01*
X33449239Y-13230000D02*
X37409620Y-17190380D01*
X37409620Y-17190380D02*
X41819239Y-21600000D01*
X37409620Y-17190380D02*
X46400000Y-8200000D01*
X30670000Y-13230000D02*
X27400000Y-16500000D01*
X46400000Y-8200000D02*
X49800000Y-8200000D01*
X41819239Y-21600000D02*
X41900000Y-21600000D01*
X36030000Y-13230000D02*
X37500000Y-11760000D01*
D34*
G04 #@! TO.N,Net-(LED3-DO)*
X40650000Y-21600000D02*
X38578823Y-21600000D01*
X38578823Y-21600000D02*
X32578823Y-15600000D01*
X32578823Y-15600000D02*
X30800000Y-15600000D01*
G04 #@! TO.N,Net-(LED4-DO)*
X42200000Y-17800000D02*
X42200000Y-20500000D01*
X42200000Y-20500000D02*
X43400000Y-21700000D01*
X48200000Y-21700000D02*
X49500000Y-20400000D01*
X43400000Y-21700000D02*
X48200000Y-21700000D01*
G04 #@! TO.N,/GPIO_34*
X58880000Y-6200000D02*
X50600000Y-6200000D01*
X10369763Y-19050000D02*
X13105000Y-19050000D01*
X50200000Y-6600000D02*
X49900000Y-6600000D01*
X29000414Y-8901000D02*
X28784194Y-8901000D01*
X60080000Y-5000000D02*
X58880000Y-6200000D01*
X49061000Y-5761000D02*
X41608110Y-5761000D01*
X29153304Y-8748110D02*
X29000414Y-8901000D01*
X9919000Y-16350110D02*
X9919000Y-18599237D01*
X34546696Y-7948110D02*
X33119586Y-6521000D01*
X9919000Y-18599237D02*
X10369763Y-19050000D01*
X59856000Y-4145433D02*
X59856000Y-4854567D01*
X28784194Y-8901000D02*
X17368110Y-8901000D01*
X39421000Y-7948110D02*
X39268110Y-8101000D01*
X50600000Y-6200000D02*
X50200000Y-6600000D01*
X41608110Y-5761000D02*
X39421000Y-7948110D01*
X39051890Y-8101000D02*
X34915806Y-8101000D01*
X60080000Y-4700000D02*
X59980000Y-4600000D01*
X33119586Y-6521000D02*
X31380414Y-6521000D01*
X49900000Y-6600000D02*
X49061000Y-5761000D01*
X60080000Y-5000000D02*
X60080000Y-4700000D01*
X39268110Y-8101000D02*
X39051890Y-8101000D01*
X17368110Y-8901000D02*
X9919000Y-16350110D01*
X13105000Y-19050000D02*
X13750000Y-19050000D01*
X31380414Y-6521000D02*
X29153304Y-8748110D01*
X13750000Y-19050000D02*
X14300000Y-18500000D01*
X34699586Y-8101000D02*
X34546696Y-7948110D01*
X59855000Y-4144433D02*
X59856000Y-4145433D01*
X14300000Y-18500000D02*
X14400000Y-18600000D01*
X34915806Y-8101000D02*
X34699586Y-8101000D01*
G04 #@! TD*
G04 #@! TA.AperFunction,Conductor*
G04 #@! TO.N,GND*
G36*
X27389106Y-519406D02*
G01*
X27425070Y-568906D01*
X27425070Y-630092D01*
X27400919Y-669503D01*
X27298214Y-772207D01*
X27298211Y-772211D01*
X27210609Y-903314D01*
X27210603Y-903325D01*
X27150263Y-1049001D01*
X27150263Y-1049003D01*
X27119500Y-1203655D01*
X27119500Y-1961344D01*
X27150263Y-2115996D01*
X27150263Y-2115998D01*
X27210603Y-2261674D01*
X27210609Y-2261685D01*
X27257463Y-2331806D01*
X27298211Y-2392789D01*
X27409711Y-2504289D01*
X27487876Y-2556517D01*
X27540814Y-2591890D01*
X27540825Y-2591896D01*
X27594638Y-2614185D01*
X27686503Y-2652237D01*
X27841158Y-2683000D01*
X27841159Y-2683000D01*
X27998841Y-2683000D01*
X27998842Y-2683000D01*
X28153497Y-2652237D01*
X28299179Y-2591894D01*
X28430289Y-2504289D01*
X28541789Y-2392789D01*
X28629394Y-2261679D01*
X28689737Y-2115997D01*
X28720500Y-1961342D01*
X28720500Y-1203658D01*
X28689737Y-1049003D01*
X28629394Y-903321D01*
X28629393Y-903319D01*
X28629390Y-903314D01*
X28594017Y-850376D01*
X28541789Y-772211D01*
X28439081Y-669503D01*
X28411304Y-614986D01*
X28420875Y-554554D01*
X28464140Y-511289D01*
X28509085Y-500499D01*
X35990915Y-500499D01*
X36049106Y-519406D01*
X36085070Y-568906D01*
X36085070Y-630092D01*
X36060919Y-669503D01*
X35958214Y-772207D01*
X35958211Y-772211D01*
X35870609Y-903314D01*
X35870603Y-903325D01*
X35810263Y-1049001D01*
X35810263Y-1049003D01*
X35779500Y-1203655D01*
X35779500Y-1961344D01*
X35810263Y-2115996D01*
X35810263Y-2115998D01*
X35870603Y-2261674D01*
X35870609Y-2261685D01*
X35917463Y-2331806D01*
X35958211Y-2392789D01*
X36069711Y-2504289D01*
X36147876Y-2556517D01*
X36200814Y-2591890D01*
X36200825Y-2591896D01*
X36254638Y-2614185D01*
X36346503Y-2652237D01*
X36501158Y-2683000D01*
X36501159Y-2683000D01*
X36658841Y-2683000D01*
X36658842Y-2683000D01*
X36813497Y-2652237D01*
X36959179Y-2591894D01*
X37090289Y-2504289D01*
X37201789Y-2392789D01*
X37289394Y-2261679D01*
X37349737Y-2115997D01*
X37380500Y-1961342D01*
X37380500Y-1203658D01*
X37349737Y-1049003D01*
X37289394Y-903321D01*
X37289393Y-903319D01*
X37289390Y-903314D01*
X37254017Y-850376D01*
X37201789Y-772211D01*
X37099081Y-669503D01*
X37071304Y-614986D01*
X37080875Y-554554D01*
X37124140Y-511289D01*
X37169085Y-500499D01*
X63060712Y-500499D01*
X63075292Y-501578D01*
X63218737Y-522939D01*
X63234848Y-526737D01*
X63378443Y-573564D01*
X63393694Y-579993D01*
X63527480Y-650093D01*
X63541449Y-658974D01*
X63661682Y-750384D01*
X63673976Y-761470D01*
X63777291Y-871630D01*
X63787567Y-884610D01*
X63871091Y-1010461D01*
X63879059Y-1024970D01*
X63940436Y-1162958D01*
X63945876Y-1178593D01*
X63983408Y-1324897D01*
X63986166Y-1341220D01*
X63999153Y-1496008D01*
X63999500Y-1504285D01*
X63999500Y-21900500D01*
X63980593Y-21958691D01*
X63931093Y-21994655D01*
X63900500Y-21999500D01*
X51143945Y-21999500D01*
X51085754Y-21980593D01*
X51049790Y-21931093D01*
X51049790Y-21869907D01*
X51061631Y-21845497D01*
X51070770Y-21831819D01*
X51070771Y-21831816D01*
X51070775Y-21831811D01*
X51123580Y-21704328D01*
X51150500Y-21568993D01*
X51150500Y-18331007D01*
X51150048Y-18328737D01*
X51123580Y-18195672D01*
X51077531Y-18084500D01*
X51070776Y-18068191D01*
X51061804Y-18054764D01*
X50994114Y-17953457D01*
X49946172Y-16905515D01*
X55549500Y-16905515D01*
X55549500Y-17094484D01*
X55579058Y-17281113D01*
X55637453Y-17460832D01*
X55722747Y-17628233D01*
X55723240Y-17629199D01*
X55834310Y-17782073D01*
X55967927Y-17915690D01*
X56120801Y-18026760D01*
X56289168Y-18112547D01*
X56468882Y-18170940D01*
X56468883Y-18170940D01*
X56468886Y-18170941D01*
X56655516Y-18200500D01*
X56655519Y-18200500D01*
X56844484Y-18200500D01*
X57031113Y-18170941D01*
X57031114Y-18170940D01*
X57031118Y-18170940D01*
X57210832Y-18112547D01*
X57379199Y-18026760D01*
X57532073Y-17915690D01*
X57665690Y-17782073D01*
X57776760Y-17629199D01*
X57862547Y-17460832D01*
X57920940Y-17281118D01*
X57921023Y-17280593D01*
X57950500Y-17094484D01*
X57950500Y-16905515D01*
X60549500Y-16905515D01*
X60549500Y-17094484D01*
X60579058Y-17281113D01*
X60637453Y-17460832D01*
X60722747Y-17628233D01*
X60723240Y-17629199D01*
X60834310Y-17782073D01*
X60967927Y-17915690D01*
X61120801Y-18026760D01*
X61289168Y-18112547D01*
X61468882Y-18170940D01*
X61468883Y-18170940D01*
X61468886Y-18170941D01*
X61655516Y-18200500D01*
X61655519Y-18200500D01*
X61844484Y-18200500D01*
X62031113Y-18170941D01*
X62031114Y-18170940D01*
X62031118Y-18170940D01*
X62210832Y-18112547D01*
X62379199Y-18026760D01*
X62532073Y-17915690D01*
X62665690Y-17782073D01*
X62776760Y-17629199D01*
X62862547Y-17460832D01*
X62920940Y-17281118D01*
X62921023Y-17280593D01*
X62950500Y-17094484D01*
X62950500Y-16905515D01*
X62920941Y-16718886D01*
X62920940Y-16718882D01*
X62862547Y-16539168D01*
X62776760Y-16370801D01*
X62665690Y-16217927D01*
X62532073Y-16084310D01*
X62379199Y-15973240D01*
X62379198Y-15973239D01*
X62379196Y-15973238D01*
X62210832Y-15887453D01*
X62031113Y-15829058D01*
X61844484Y-15799500D01*
X61844481Y-15799500D01*
X61655519Y-15799500D01*
X61655516Y-15799500D01*
X61468886Y-15829058D01*
X61289167Y-15887453D01*
X61120803Y-15973238D01*
X60967928Y-16084309D01*
X60834309Y-16217928D01*
X60723238Y-16370803D01*
X60637453Y-16539167D01*
X60579058Y-16718886D01*
X60549500Y-16905515D01*
X57950500Y-16905515D01*
X57920941Y-16718886D01*
X57920940Y-16718882D01*
X57862547Y-16539168D01*
X57776760Y-16370801D01*
X57665690Y-16217927D01*
X57532073Y-16084310D01*
X57379199Y-15973240D01*
X57379198Y-15973239D01*
X57379196Y-15973238D01*
X57210832Y-15887453D01*
X57031113Y-15829058D01*
X56844484Y-15799500D01*
X56844481Y-15799500D01*
X56655519Y-15799500D01*
X56655516Y-15799500D01*
X56468886Y-15829058D01*
X56289167Y-15887453D01*
X56120803Y-15973238D01*
X55967928Y-16084309D01*
X55834309Y-16217928D01*
X55723238Y-16370803D01*
X55637453Y-16539167D01*
X55579058Y-16718886D01*
X55549500Y-16905515D01*
X49946172Y-16905515D01*
X45296543Y-12255886D01*
X45296539Y-12255883D01*
X45181810Y-12179224D01*
X45068133Y-12132138D01*
X45021608Y-12092401D01*
X45007324Y-12032907D01*
X45030739Y-11976379D01*
X45036002Y-11970683D01*
X47412190Y-9594496D01*
X47466707Y-9566719D01*
X47482194Y-9565500D01*
X50171069Y-9565500D01*
X50229260Y-9584407D01*
X50265224Y-9633907D01*
X50265224Y-9695093D01*
X50229260Y-9744593D01*
X50193098Y-9761018D01*
X50042814Y-9795318D01*
X49772430Y-9889930D01*
X49514332Y-10014223D01*
X49271772Y-10166634D01*
X49047806Y-10345242D01*
X48845242Y-10547806D01*
X48666634Y-10771772D01*
X48514223Y-11014332D01*
X48389930Y-11272430D01*
X48295318Y-11542814D01*
X48231573Y-11822103D01*
X48199500Y-12106765D01*
X48199500Y-12393234D01*
X48231573Y-12677896D01*
X48295318Y-12957185D01*
X48389930Y-13227569D01*
X48514223Y-13485667D01*
X48646631Y-13696392D01*
X48666634Y-13728227D01*
X48845243Y-13952195D01*
X49047805Y-14154757D01*
X49271773Y-14333366D01*
X49365229Y-14392088D01*
X49514332Y-14485776D01*
X49606688Y-14530252D01*
X49772428Y-14610068D01*
X49772431Y-14610069D01*
X49772430Y-14610069D01*
X50042814Y-14704681D01*
X50042817Y-14704681D01*
X50042818Y-14704682D01*
X50322102Y-14768426D01*
X50606767Y-14800500D01*
X50606768Y-14800500D01*
X50893232Y-14800500D01*
X50893233Y-14800500D01*
X51177898Y-14768426D01*
X51457182Y-14704682D01*
X51727572Y-14610068D01*
X51985669Y-14485775D01*
X52228227Y-14333366D01*
X52398191Y-14197824D01*
X58399999Y-14197824D01*
X58406401Y-14257370D01*
X58406403Y-14257381D01*
X58456646Y-14392088D01*
X58456647Y-14392090D01*
X58542807Y-14507184D01*
X58542815Y-14507192D01*
X58657909Y-14593352D01*
X58657911Y-14593353D01*
X58792618Y-14643596D01*
X58792629Y-14643598D01*
X58852176Y-14650000D01*
X59099999Y-14650000D01*
X59100000Y-14649999D01*
X59100000Y-14050001D01*
X59600000Y-14050001D01*
X59600000Y-14649999D01*
X59600001Y-14650000D01*
X59847824Y-14650000D01*
X59907370Y-14643598D01*
X59907381Y-14643596D01*
X60042088Y-14593353D01*
X60042090Y-14593352D01*
X60157184Y-14507192D01*
X60157192Y-14507184D01*
X60243352Y-14392090D01*
X60243353Y-14392088D01*
X60293596Y-14257381D01*
X60293598Y-14257370D01*
X60300000Y-14197824D01*
X60300000Y-14050001D01*
X60299999Y-14050000D01*
X59600001Y-14050000D01*
X59600000Y-14050001D01*
X59100000Y-14050001D01*
X59099999Y-14050000D01*
X58400001Y-14050000D01*
X58400000Y-14050001D01*
X58400000Y-14197824D01*
X58399999Y-14197824D01*
X52398191Y-14197824D01*
X52452195Y-14154757D01*
X52654757Y-13952195D01*
X52833366Y-13728227D01*
X52985775Y-13485669D01*
X53025984Y-13402175D01*
X58400000Y-13402175D01*
X58400000Y-13549999D01*
X58400001Y-13550000D01*
X59099999Y-13550000D01*
X59100000Y-13549999D01*
X59100000Y-12950001D01*
X59600000Y-12950001D01*
X59600000Y-13549999D01*
X59600001Y-13550000D01*
X60299999Y-13550000D01*
X60300000Y-13549999D01*
X60300000Y-13402175D01*
X60293598Y-13342629D01*
X60293596Y-13342618D01*
X60243353Y-13207911D01*
X60243352Y-13207909D01*
X60157192Y-13092815D01*
X60157184Y-13092807D01*
X60042090Y-13006647D01*
X60042088Y-13006646D01*
X59907381Y-12956403D01*
X59907370Y-12956401D01*
X59847824Y-12950000D01*
X59600001Y-12950000D01*
X59600000Y-12950001D01*
X59100000Y-12950001D01*
X59099999Y-12950000D01*
X58852176Y-12950000D01*
X58792629Y-12956401D01*
X58792618Y-12956403D01*
X58657911Y-13006646D01*
X58657909Y-13006647D01*
X58542815Y-13092807D01*
X58542807Y-13092815D01*
X58456647Y-13207909D01*
X58456646Y-13207911D01*
X58406403Y-13342618D01*
X58406401Y-13342629D01*
X58400000Y-13402175D01*
X53025984Y-13402175D01*
X53035759Y-13381876D01*
X53047948Y-13356566D01*
X53047948Y-13356565D01*
X53110068Y-13227572D01*
X53204682Y-12957182D01*
X53268426Y-12677898D01*
X53300500Y-12393233D01*
X53300500Y-12106767D01*
X53268426Y-11822102D01*
X53204682Y-11542818D01*
X53194827Y-11514655D01*
X53110069Y-11272430D01*
X52985776Y-11014332D01*
X52903234Y-10882968D01*
X52833366Y-10771773D01*
X52654757Y-10547805D01*
X52452195Y-10345243D01*
X52228227Y-10166634D01*
X52189958Y-10142588D01*
X51985667Y-10014223D01*
X51727568Y-9889930D01*
X51727569Y-9889930D01*
X51457185Y-9795318D01*
X51306902Y-9761018D01*
X51254377Y-9729636D01*
X51230330Y-9673375D01*
X51243944Y-9613723D01*
X51290021Y-9573467D01*
X51328931Y-9565500D01*
X54842806Y-9565500D01*
X54900997Y-9584407D01*
X54912810Y-9594496D01*
X55895331Y-10577018D01*
X55904717Y-10595441D01*
X55917736Y-10611503D01*
X55918295Y-10622089D01*
X55923108Y-10631535D01*
X55920965Y-10672603D01*
X55920724Y-10673504D01*
X55920711Y-10673551D01*
X55919501Y-10678063D01*
X55919500Y-10678075D01*
X55919500Y-10737744D01*
X55900593Y-10795935D01*
X55890505Y-10807747D01*
X55859513Y-10838739D01*
X55803498Y-10935758D01*
X55801284Y-10944022D01*
X55774500Y-11043982D01*
X55774500Y-11156018D01*
X55787720Y-11205356D01*
X55803498Y-11264241D01*
X55859513Y-11361260D01*
X55859515Y-11361263D01*
X55929737Y-11431485D01*
X55957513Y-11486000D01*
X55956250Y-11523515D01*
X55944500Y-11574998D01*
X55944500Y-12724999D01*
X55944501Y-12725011D01*
X55957933Y-12798079D01*
X55957935Y-12798085D01*
X56008666Y-12874181D01*
X56087389Y-12920730D01*
X56094558Y-12921342D01*
X56178514Y-12928512D01*
X56263991Y-12895986D01*
X56845085Y-12508589D01*
X56903989Y-12492043D01*
X56954914Y-12508590D01*
X57536006Y-12895985D01*
X57536009Y-12895986D01*
X57604272Y-12925348D01*
X57604273Y-12925348D01*
X57695728Y-12925348D01*
X57778127Y-12885666D01*
X57835149Y-12814163D01*
X57855500Y-12725000D01*
X57855500Y-12179500D01*
X57874407Y-12121309D01*
X57923907Y-12085345D01*
X57954500Y-12080500D01*
X58350500Y-12080500D01*
X58408691Y-12099407D01*
X58444655Y-12148907D01*
X58449500Y-12179500D01*
X58449500Y-12204274D01*
X58452353Y-12234694D01*
X58452355Y-12234703D01*
X58497206Y-12362880D01*
X58497207Y-12362883D01*
X58577845Y-12472144D01*
X58577847Y-12472146D01*
X58577850Y-12472150D01*
X58577853Y-12472152D01*
X58577855Y-12472154D01*
X58687116Y-12552792D01*
X58687117Y-12552792D01*
X58687118Y-12552793D01*
X58815301Y-12597646D01*
X58845725Y-12600499D01*
X58845727Y-12600500D01*
X58845734Y-12600500D01*
X59854273Y-12600500D01*
X59854273Y-12600499D01*
X59884699Y-12597646D01*
X60012882Y-12552793D01*
X60122150Y-12472150D01*
X60202793Y-12362882D01*
X60206058Y-12353553D01*
X60240233Y-12255883D01*
X60247646Y-12234699D01*
X60250499Y-12204273D01*
X60250500Y-12204273D01*
X60250500Y-11395727D01*
X60250499Y-11395725D01*
X60247646Y-11365301D01*
X60232642Y-11322421D01*
X60231596Y-11319432D01*
X60230223Y-11258262D01*
X60265067Y-11207967D01*
X60322818Y-11187759D01*
X60381419Y-11205356D01*
X60395044Y-11216730D01*
X60716744Y-11538430D01*
X60744521Y-11592947D01*
X60745118Y-11619518D01*
X60744500Y-11625003D01*
X60744500Y-12625009D01*
X60745244Y-12642484D01*
X60745244Y-12642485D01*
X60751197Y-12661093D01*
X60770417Y-12721178D01*
X60776509Y-12740219D01*
X60774285Y-12740930D01*
X60784269Y-12785624D01*
X60768317Y-12825129D01*
X60769689Y-12825790D01*
X60764851Y-12835835D01*
X60744500Y-12925000D01*
X60744500Y-14075001D01*
X60749651Y-14120727D01*
X60786780Y-14197824D01*
X60789334Y-14203127D01*
X60860837Y-14260149D01*
X60950000Y-14280500D01*
X62449999Y-14280500D01*
X62450000Y-14280500D01*
X62495728Y-14275348D01*
X62578127Y-14235666D01*
X62635149Y-14164163D01*
X62655500Y-14075000D01*
X62655500Y-13911189D01*
X62674407Y-13852998D01*
X62684496Y-13841186D01*
X62741127Y-13784555D01*
X62985469Y-13540212D01*
X63031614Y-13460288D01*
X63038629Y-13434108D01*
X63039942Y-13429210D01*
X63047185Y-13402175D01*
X63055500Y-13371144D01*
X63055500Y-8308856D01*
X63031614Y-8219712D01*
X63016722Y-8193918D01*
X63016721Y-8193916D01*
X63016721Y-8193915D01*
X62999249Y-8163654D01*
X62985470Y-8139788D01*
X61915212Y-7069530D01*
X61835288Y-7023386D01*
X61746144Y-6999500D01*
X61746142Y-6999500D01*
X60349500Y-6999500D01*
X60291309Y-6980593D01*
X60255345Y-6931093D01*
X60250500Y-6900500D01*
X60250500Y-6895727D01*
X60250499Y-6895725D01*
X60248264Y-6871890D01*
X60247646Y-6865301D01*
X60202793Y-6737118D01*
X60155316Y-6672789D01*
X60122154Y-6627855D01*
X60122152Y-6627853D01*
X60122150Y-6627850D01*
X60122146Y-6627847D01*
X60122144Y-6627845D01*
X60012883Y-6547207D01*
X59884703Y-6502355D01*
X59884694Y-6502353D01*
X59854274Y-6499500D01*
X59854266Y-6499500D01*
X59216193Y-6499500D01*
X59158002Y-6480593D01*
X59122038Y-6431093D01*
X59122038Y-6369907D01*
X59146189Y-6330497D01*
X59509706Y-5966979D01*
X59564223Y-5939201D01*
X59617592Y-5945517D01*
X59773580Y-6010130D01*
X59976535Y-6050500D01*
X59976536Y-6050500D01*
X60183464Y-6050500D01*
X60183465Y-6050500D01*
X60386420Y-6010130D01*
X60577598Y-5930941D01*
X60749655Y-5815977D01*
X60895977Y-5669655D01*
X61010941Y-5497598D01*
X61090130Y-5306420D01*
X61130500Y-5103465D01*
X61130500Y-4896535D01*
X61090130Y-4693580D01*
X61010941Y-4502402D01*
X60895977Y-4330345D01*
X60749655Y-4184023D01*
X60685612Y-4141231D01*
X60577597Y-4069058D01*
X60386418Y-3989869D01*
X60183467Y-3949500D01*
X60183465Y-3949500D01*
X60097761Y-3949500D01*
X60090171Y-3947034D01*
X60082290Y-3948284D01*
X60061636Y-3937762D01*
X60039570Y-3930593D01*
X60027769Y-3920515D01*
X60027759Y-3920505D01*
X60027757Y-3920504D01*
X60027229Y-3919976D01*
X59963268Y-3883048D01*
X59891931Y-3863933D01*
X59891929Y-3863933D01*
X59818071Y-3863933D01*
X59818068Y-3863933D01*
X59746731Y-3883048D01*
X59682771Y-3919976D01*
X59682769Y-3919978D01*
X59630545Y-3972202D01*
X59593616Y-4036164D01*
X59593615Y-4036165D01*
X59593612Y-4036172D01*
X59591130Y-4042164D01*
X59588504Y-4041076D01*
X59561623Y-4082446D01*
X59554343Y-4087807D01*
X59410348Y-4184020D01*
X59264020Y-4330348D01*
X59149058Y-4502402D01*
X59069869Y-4693581D01*
X59029500Y-4896532D01*
X59029500Y-5103467D01*
X59054072Y-5226998D01*
X59065342Y-5283658D01*
X59069870Y-5306419D01*
X59069870Y-5306421D01*
X59134480Y-5462404D01*
X59139281Y-5523400D01*
X59113020Y-5570292D01*
X58792811Y-5890503D01*
X58738294Y-5918281D01*
X58722807Y-5919500D01*
X58415142Y-5919500D01*
X58356951Y-5900593D01*
X58320987Y-5851093D01*
X58320987Y-5789907D01*
X58345138Y-5750496D01*
X58379037Y-5716596D01*
X58480802Y-5576528D01*
X58480804Y-5576524D01*
X58559411Y-5422248D01*
X58612913Y-5257586D01*
X58614114Y-5250000D01*
X57973012Y-5250000D01*
X58005925Y-5192993D01*
X58040000Y-5065826D01*
X58040000Y-4934174D01*
X58005925Y-4807007D01*
X57973012Y-4750000D01*
X58614114Y-4750000D01*
X58612913Y-4742413D01*
X58559411Y-4577751D01*
X58480804Y-4423475D01*
X58480800Y-4423470D01*
X58468610Y-4406691D01*
X58449702Y-4348501D01*
X58468609Y-4290310D01*
X58518108Y-4254346D01*
X58548702Y-4249500D01*
X58607930Y-4249500D01*
X58607930Y-4249499D01*
X58679265Y-4230385D01*
X58679266Y-4230385D01*
X58679266Y-4230384D01*
X58679269Y-4230384D01*
X58743231Y-4193456D01*
X58795456Y-4141231D01*
X58795457Y-4141228D01*
X59509708Y-3426976D01*
X59564223Y-3399201D01*
X59617592Y-3405517D01*
X59773580Y-3470130D01*
X59976535Y-3510500D01*
X59976536Y-3510500D01*
X60183464Y-3510500D01*
X60183465Y-3510500D01*
X60386420Y-3470130D01*
X60577598Y-3390941D01*
X60749655Y-3275977D01*
X60895977Y-3129655D01*
X61010941Y-2957598D01*
X61090130Y-2766420D01*
X61130500Y-2563465D01*
X61130500Y-2356535D01*
X61090130Y-2153580D01*
X61010941Y-1962402D01*
X60895977Y-1790345D01*
X60749655Y-1644023D01*
X60689005Y-1603498D01*
X60577597Y-1529058D01*
X60386418Y-1449869D01*
X60183467Y-1409500D01*
X60183465Y-1409500D01*
X59976535Y-1409500D01*
X59976532Y-1409500D01*
X59773581Y-1449869D01*
X59582402Y-1529058D01*
X59410348Y-1644020D01*
X59264020Y-1790348D01*
X59149058Y-1962402D01*
X59069869Y-2153581D01*
X59029500Y-2356532D01*
X59029500Y-2563467D01*
X59047158Y-2652237D01*
X59066367Y-2748811D01*
X59069870Y-2766419D01*
X59069870Y-2766421D01*
X59134480Y-2922403D01*
X59139281Y-2983399D01*
X59113020Y-3030291D01*
X58483810Y-3659503D01*
X58429293Y-3687281D01*
X58413806Y-3688500D01*
X57943802Y-3688500D01*
X57885611Y-3669593D01*
X57849647Y-3620093D01*
X57849647Y-3558907D01*
X57885611Y-3509407D01*
X57913210Y-3495345D01*
X57962246Y-3479412D01*
X58116524Y-3400804D01*
X58116528Y-3400802D01*
X58256596Y-3299037D01*
X58379037Y-3176596D01*
X58480802Y-3036528D01*
X58480804Y-3036524D01*
X58559411Y-2882248D01*
X58612913Y-2717586D01*
X58614114Y-2710000D01*
X57973012Y-2710000D01*
X58005925Y-2652993D01*
X58040000Y-2525826D01*
X58040000Y-2394174D01*
X58005925Y-2267007D01*
X57973012Y-2210000D01*
X58614114Y-2210000D01*
X58612913Y-2202413D01*
X58559411Y-2037751D01*
X58480804Y-1883475D01*
X58480802Y-1883471D01*
X58379037Y-1743403D01*
X58256596Y-1620962D01*
X58116528Y-1519197D01*
X58116524Y-1519195D01*
X57962248Y-1440588D01*
X57797586Y-1387086D01*
X57790000Y-1385884D01*
X57790000Y-2026988D01*
X57732993Y-1994075D01*
X57605826Y-1960000D01*
X57474174Y-1960000D01*
X57347007Y-1994075D01*
X57290000Y-2026988D01*
X57290000Y-1385884D01*
X57282413Y-1387086D01*
X57117751Y-1440588D01*
X56963475Y-1519195D01*
X56963471Y-1519197D01*
X56823403Y-1620962D01*
X56700962Y-1743403D01*
X56599197Y-1883471D01*
X56599195Y-1883475D01*
X56520588Y-2037751D01*
X56467086Y-2202413D01*
X56465886Y-2210000D01*
X57106988Y-2210000D01*
X57074075Y-2267007D01*
X57040000Y-2394174D01*
X57040000Y-2525826D01*
X57074075Y-2652993D01*
X57106988Y-2710000D01*
X56465886Y-2710000D01*
X56467086Y-2717586D01*
X56520588Y-2882248D01*
X56599195Y-3036524D01*
X56599197Y-3036528D01*
X56700962Y-3176596D01*
X56823403Y-3299037D01*
X56963471Y-3400802D01*
X56963475Y-3400804D01*
X57117753Y-3479412D01*
X57166790Y-3495345D01*
X57216290Y-3531309D01*
X57235198Y-3589500D01*
X57216291Y-3647690D01*
X57166791Y-3683654D01*
X57136198Y-3688500D01*
X55213764Y-3688500D01*
X55155573Y-3669593D01*
X55119609Y-3620093D01*
X55119609Y-3558907D01*
X55155573Y-3509407D01*
X55194450Y-3492402D01*
X55306420Y-3470130D01*
X55497598Y-3390941D01*
X55669655Y-3275977D01*
X55815977Y-3129655D01*
X55930941Y-2957598D01*
X56010130Y-2766420D01*
X56050500Y-2563465D01*
X56050500Y-2356535D01*
X56032692Y-2267007D01*
X56031081Y-2258907D01*
X56012384Y-2164911D01*
X56010130Y-2153580D01*
X55930941Y-1962402D01*
X55815977Y-1790345D01*
X55669655Y-1644023D01*
X55609005Y-1603498D01*
X55497597Y-1529058D01*
X55306418Y-1449869D01*
X55103467Y-1409500D01*
X55103465Y-1409500D01*
X54896535Y-1409500D01*
X54896532Y-1409500D01*
X54693581Y-1449869D01*
X54502402Y-1529058D01*
X54330348Y-1644020D01*
X54184020Y-1790348D01*
X54069058Y-1962402D01*
X54028673Y-2059901D01*
X54005438Y-2115997D01*
X54004448Y-2118386D01*
X53964711Y-2164911D01*
X53912984Y-2179500D01*
X53476929Y-2179500D01*
X53403071Y-2179500D01*
X53361546Y-2190627D01*
X53361545Y-2190626D01*
X53331733Y-2198615D01*
X53331731Y-2198615D01*
X53331731Y-2198616D01*
X53296827Y-2218768D01*
X53267766Y-2235546D01*
X50832810Y-4670504D01*
X50778293Y-4698281D01*
X50762806Y-4699500D01*
X50543007Y-4699500D01*
X50542991Y-4699499D01*
X50536928Y-4699499D01*
X50536927Y-4699499D01*
X45330165Y-4699499D01*
X45271974Y-4680592D01*
X45236010Y-4631092D01*
X45236010Y-4569906D01*
X45260161Y-4530495D01*
X45290656Y-4500000D01*
X45344114Y-4446542D01*
X45420775Y-4331811D01*
X45473580Y-4204328D01*
X45500500Y-4068993D01*
X45500500Y-3931007D01*
X45473580Y-3795672D01*
X45450721Y-3740485D01*
X45420777Y-3668193D01*
X45420771Y-3668182D01*
X45344114Y-3553458D01*
X45246541Y-3455885D01*
X45131817Y-3379228D01*
X45131806Y-3379222D01*
X45004328Y-3326420D01*
X44868995Y-3299500D01*
X44868993Y-3299500D01*
X26618994Y-3299500D01*
X26481006Y-3299500D01*
X26481003Y-3299500D01*
X26345672Y-3326420D01*
X26345670Y-3326420D01*
X26218191Y-3379223D01*
X26103460Y-3455883D01*
X23455883Y-6103460D01*
X23379223Y-6218191D01*
X23326420Y-6345670D01*
X23326420Y-6345672D01*
X23299500Y-6481003D01*
X23299500Y-6618996D01*
X23326420Y-6754327D01*
X23326420Y-6754329D01*
X23379223Y-6881808D01*
X23448732Y-6985837D01*
X23455886Y-6996543D01*
X23553457Y-7094114D01*
X23668189Y-7170775D01*
X23795672Y-7223580D01*
X23931006Y-7250500D01*
X23931007Y-7250500D01*
X24068993Y-7250500D01*
X24068994Y-7250500D01*
X24204328Y-7223580D01*
X24331811Y-7170775D01*
X24446543Y-7094114D01*
X26811161Y-4729496D01*
X26865678Y-4701719D01*
X26881165Y-4700500D01*
X27214366Y-4700500D01*
X27272557Y-4719407D01*
X27308521Y-4768907D01*
X27308521Y-4830093D01*
X27296683Y-4854497D01*
X27268908Y-4896064D01*
X27210609Y-4983314D01*
X27210603Y-4983325D01*
X27150263Y-5129001D01*
X27150263Y-5129003D01*
X27119500Y-5283655D01*
X27119500Y-6241344D01*
X27150263Y-6395996D01*
X27150263Y-6395998D01*
X27210603Y-6541674D01*
X27210609Y-6541685D01*
X27237871Y-6582484D01*
X27298211Y-6672789D01*
X27409711Y-6784289D01*
X27482326Y-6832809D01*
X27540814Y-6871890D01*
X27540825Y-6871896D01*
X27584171Y-6889850D01*
X27686503Y-6932237D01*
X27841158Y-6963000D01*
X27841159Y-6963000D01*
X27998841Y-6963000D01*
X27998842Y-6963000D01*
X28153497Y-6932237D01*
X28299179Y-6871894D01*
X28430289Y-6784289D01*
X28541789Y-6672789D01*
X28629394Y-6541679D01*
X28689737Y-6395997D01*
X28720500Y-6241342D01*
X28720500Y-5756599D01*
X28739407Y-5698408D01*
X28788907Y-5662444D01*
X28850093Y-5662444D01*
X28889504Y-5686595D01*
X28951267Y-5748358D01*
X29053714Y-5816811D01*
X29167548Y-5863963D01*
X29288394Y-5888000D01*
X29288396Y-5888000D01*
X29411604Y-5888000D01*
X29411606Y-5888000D01*
X29532452Y-5863963D01*
X29646286Y-5816811D01*
X29748733Y-5748358D01*
X29835858Y-5661233D01*
X29904311Y-5558786D01*
X29951463Y-5444952D01*
X29975500Y-5324106D01*
X29975500Y-5200894D01*
X29951463Y-5080048D01*
X29904311Y-4966214D01*
X29835858Y-4863767D01*
X29835856Y-4863764D01*
X29834654Y-4862300D01*
X29834338Y-4861493D01*
X29833156Y-4859724D01*
X29833544Y-4859464D01*
X29812357Y-4805322D01*
X29827810Y-4746120D01*
X29875110Y-4707307D01*
X29911186Y-4700500D01*
X34588814Y-4700500D01*
X34647005Y-4719407D01*
X34682969Y-4768907D01*
X34682969Y-4830093D01*
X34666779Y-4859680D01*
X34666844Y-4859724D01*
X34666355Y-4860455D01*
X34665346Y-4862300D01*
X34664143Y-4863764D01*
X34595688Y-4966214D01*
X34548536Y-5080049D01*
X34524500Y-5200891D01*
X34524500Y-5324108D01*
X34548536Y-5444950D01*
X34595688Y-5558785D01*
X34595689Y-5558786D01*
X34664142Y-5661233D01*
X34751267Y-5748358D01*
X34853714Y-5816811D01*
X34967548Y-5863963D01*
X35088394Y-5888000D01*
X35088396Y-5888000D01*
X35211604Y-5888000D01*
X35211606Y-5888000D01*
X35332452Y-5863963D01*
X35446286Y-5816811D01*
X35548733Y-5748358D01*
X35635858Y-5661233D01*
X35680127Y-5594980D01*
X35705841Y-5556498D01*
X35753892Y-5518619D01*
X35788156Y-5512500D01*
X36180001Y-5512500D01*
X36180001Y-6012500D01*
X35730001Y-6012500D01*
X35730000Y-6012501D01*
X35730000Y-6246220D01*
X35762664Y-6410434D01*
X35826739Y-6565125D01*
X35919759Y-6704340D01*
X36038159Y-6822740D01*
X36091205Y-6858184D01*
X36129085Y-6906234D01*
X36131487Y-6967372D01*
X36097495Y-7018246D01*
X36040091Y-7039424D01*
X36036204Y-7039500D01*
X35180283Y-7039500D01*
X35122092Y-7020593D01*
X35110279Y-7010504D01*
X33627545Y-5527771D01*
X33627544Y-5527769D01*
X33575319Y-5475544D01*
X33511357Y-5438616D01*
X33511354Y-5438615D01*
X33467239Y-5426793D01*
X33467234Y-5426793D01*
X33440017Y-5419500D01*
X33440016Y-5419500D01*
X31133841Y-5419500D01*
X31059983Y-5419500D01*
X31059980Y-5419500D01*
X30988646Y-5438614D01*
X30988645Y-5438614D01*
X30924681Y-5475544D01*
X29753781Y-6646445D01*
X28589722Y-7810504D01*
X28535205Y-7838281D01*
X28519718Y-7839500D01*
X23253003Y-7839500D01*
X23194812Y-7820593D01*
X23182999Y-7810504D01*
X22009496Y-6637001D01*
X21981719Y-6582484D01*
X21980500Y-6566997D01*
X21980500Y-5201405D01*
X21972682Y-5172232D01*
X21972681Y-5172229D01*
X21961384Y-5130065D01*
X21924456Y-5066103D01*
X20252735Y-3394382D01*
X20227112Y-3350001D01*
X20225500Y-3343984D01*
X20225500Y-3343982D01*
X20196503Y-3235763D01*
X20196501Y-3235760D01*
X20196501Y-3235758D01*
X20140486Y-3138739D01*
X20140485Y-3138737D01*
X20061263Y-3059515D01*
X20061260Y-3059513D01*
X19964240Y-3003498D01*
X19964242Y-3003498D01*
X19922251Y-2992247D01*
X19856018Y-2974500D01*
X19743982Y-2974500D01*
X19677748Y-2992247D01*
X19635758Y-3003498D01*
X19538739Y-3059513D01*
X19459513Y-3138739D01*
X19403498Y-3235758D01*
X19401295Y-3243982D01*
X19392722Y-3275979D01*
X19390599Y-3283901D01*
X19357275Y-3335215D01*
X19300153Y-3357142D01*
X19241053Y-3341306D01*
X19224968Y-3328282D01*
X19224457Y-3327771D01*
X19224456Y-3327769D01*
X19172231Y-3275544D01*
X19108269Y-3238616D01*
X19108266Y-3238615D01*
X19104353Y-3237566D01*
X19104348Y-3237565D01*
X19097622Y-3235763D01*
X19036929Y-3219500D01*
X19036928Y-3219500D01*
X18956238Y-3219500D01*
X18950269Y-3218772D01*
X18927718Y-3208278D01*
X18904065Y-3200593D01*
X18895519Y-3193294D01*
X18894796Y-3192958D01*
X18894498Y-3192423D01*
X18892253Y-3190505D01*
X18878344Y-3176596D01*
X18861263Y-3159515D01*
X18861260Y-3159513D01*
X18764240Y-3103498D01*
X18764242Y-3103498D01*
X18722251Y-3092247D01*
X18656018Y-3074500D01*
X18543982Y-3074500D01*
X18477748Y-3092247D01*
X18435758Y-3103498D01*
X18338739Y-3159513D01*
X18259513Y-3238739D01*
X18203498Y-3335758D01*
X18195088Y-3367147D01*
X18174500Y-3443982D01*
X18174500Y-3556018D01*
X18184209Y-3592251D01*
X18203498Y-3664241D01*
X18249862Y-3744544D01*
X18259515Y-3761263D01*
X18338737Y-3840485D01*
X18338739Y-3840486D01*
X18435759Y-3896501D01*
X18435757Y-3896501D01*
X18435761Y-3896502D01*
X18435763Y-3896503D01*
X18543982Y-3925500D01*
X18543984Y-3925500D01*
X18656016Y-3925500D01*
X18656018Y-3925500D01*
X18764237Y-3896503D01*
X18847800Y-3848257D01*
X18907646Y-3835536D01*
X18963542Y-3860422D01*
X18967303Y-3863990D01*
X19801350Y-4698037D01*
X19829127Y-4752554D01*
X19826503Y-4790729D01*
X19827369Y-4790902D01*
X19826421Y-4795670D01*
X19826420Y-4795672D01*
X19824165Y-4807007D01*
X19799500Y-4931004D01*
X19799500Y-5068995D01*
X19806357Y-5103465D01*
X19825737Y-5200896D01*
X19826420Y-5204327D01*
X19826420Y-5204329D01*
X19879222Y-5331806D01*
X19879228Y-5331817D01*
X19955885Y-5446541D01*
X20053458Y-5544114D01*
X20168182Y-5620771D01*
X20168193Y-5620777D01*
X20204361Y-5635758D01*
X20295672Y-5673580D01*
X20431007Y-5700500D01*
X20431008Y-5700500D01*
X20568992Y-5700500D01*
X20568993Y-5700500D01*
X20704328Y-5673580D01*
X20831811Y-5620775D01*
X20946542Y-5544114D01*
X21044114Y-5446542D01*
X21120775Y-5331811D01*
X21144918Y-5273523D01*
X21147540Y-5270453D01*
X21148172Y-5266464D01*
X21167191Y-5247444D01*
X21184654Y-5226998D01*
X21188580Y-5226055D01*
X21191437Y-5223199D01*
X21217998Y-5218992D01*
X21244148Y-5212714D01*
X21247879Y-5214259D01*
X21251869Y-5213628D01*
X21275831Y-5225837D01*
X21300677Y-5236128D01*
X21306366Y-5241386D01*
X21390505Y-5325525D01*
X21418281Y-5380040D01*
X21419500Y-5395527D01*
X21419500Y-6761120D01*
X21438616Y-6832461D01*
X21475544Y-6896423D01*
X21527769Y-6948648D01*
X21527771Y-6948649D01*
X22199617Y-7620496D01*
X22227394Y-7675013D01*
X22217823Y-7735445D01*
X22174558Y-7778710D01*
X22129613Y-7789500D01*
X20922394Y-7789500D01*
X20864203Y-7770593D01*
X20828239Y-7721093D01*
X20825776Y-7679330D01*
X20499999Y-7353553D01*
X20173674Y-7679877D01*
X20167511Y-7731948D01*
X20125978Y-7776877D01*
X20077605Y-7789500D01*
X18922394Y-7789500D01*
X18864203Y-7770593D01*
X18828239Y-7721093D01*
X18825776Y-7679330D01*
X18499999Y-7353553D01*
X18173674Y-7679877D01*
X18167511Y-7731948D01*
X18125978Y-7776877D01*
X18077605Y-7789500D01*
X17807195Y-7789500D01*
X17749004Y-7770593D01*
X17737191Y-7760504D01*
X16902815Y-6926128D01*
X17750000Y-6926128D01*
X17750000Y-7073871D01*
X17778822Y-7218766D01*
X17778822Y-7218768D01*
X17822420Y-7324024D01*
X18146446Y-6999999D01*
X18853553Y-6999999D01*
X19177577Y-7324023D01*
X19221176Y-7218770D01*
X19221178Y-7218764D01*
X19249999Y-7073871D01*
X19250000Y-7073867D01*
X19250000Y-6926132D01*
X19249999Y-6926128D01*
X19750000Y-6926128D01*
X19750000Y-7073871D01*
X19778822Y-7218766D01*
X19778822Y-7218768D01*
X19822420Y-7324024D01*
X20146446Y-6999999D01*
X20853553Y-6999999D01*
X21177577Y-7324023D01*
X21221176Y-7218770D01*
X21221178Y-7218764D01*
X21249999Y-7073871D01*
X21250000Y-7073867D01*
X21250000Y-6926132D01*
X21249999Y-6926128D01*
X21221178Y-6781234D01*
X21177578Y-6675974D01*
X20853553Y-6999999D01*
X20146446Y-6999999D01*
X19822421Y-6675974D01*
X19822420Y-6675974D01*
X19778822Y-6781231D01*
X19778822Y-6781233D01*
X19750000Y-6926128D01*
X19249999Y-6926128D01*
X19221178Y-6781234D01*
X19177578Y-6675974D01*
X19177577Y-6675974D01*
X18853553Y-6999999D01*
X18146446Y-6999999D01*
X17822421Y-6675974D01*
X17822420Y-6675974D01*
X17778822Y-6781231D01*
X17778822Y-6781233D01*
X17750000Y-6926128D01*
X16902815Y-6926128D01*
X16809496Y-6832809D01*
X16781719Y-6778292D01*
X16780500Y-6762805D01*
X16780500Y-6322420D01*
X18175974Y-6322420D01*
X18175974Y-6322421D01*
X18499999Y-6646445D01*
X18824024Y-6322420D01*
X20175974Y-6322420D01*
X20175974Y-6322421D01*
X20499999Y-6646445D01*
X20824024Y-6322420D01*
X20718767Y-6278822D01*
X20573871Y-6250000D01*
X20426128Y-6250000D01*
X20281233Y-6278822D01*
X20281231Y-6278822D01*
X20175974Y-6322420D01*
X18824024Y-6322420D01*
X18718767Y-6278822D01*
X18573871Y-6250000D01*
X18426128Y-6250000D01*
X18281233Y-6278822D01*
X18281231Y-6278822D01*
X18175974Y-6322420D01*
X16780500Y-6322420D01*
X16780500Y-5707539D01*
X16799407Y-5649348D01*
X16828259Y-5624216D01*
X16827766Y-5623478D01*
X16841072Y-5614586D01*
X16946542Y-5544114D01*
X17044114Y-5446542D01*
X17120775Y-5331811D01*
X17173580Y-5204328D01*
X17200500Y-5068993D01*
X17200500Y-4931007D01*
X17173580Y-4795672D01*
X17152326Y-4744360D01*
X17120777Y-4668193D01*
X17120771Y-4668182D01*
X17044114Y-4553458D01*
X16946541Y-4455885D01*
X16831817Y-4379228D01*
X16831806Y-4379222D01*
X16704328Y-4326420D01*
X16568995Y-4299500D01*
X16568993Y-4299500D01*
X16431007Y-4299500D01*
X16431004Y-4299500D01*
X16338469Y-4317907D01*
X16295672Y-4326420D01*
X16295671Y-4326420D01*
X16290902Y-4327369D01*
X16290623Y-4325968D01*
X16235582Y-4324874D01*
X16198037Y-4301350D01*
X15976996Y-4080309D01*
X15949219Y-4025792D01*
X15948000Y-4010305D01*
X15948000Y-3662255D01*
X15966907Y-3604064D01*
X15976990Y-3592257D01*
X16007985Y-3561263D01*
X16064003Y-3464237D01*
X16093000Y-3356018D01*
X16093000Y-3243982D01*
X16474500Y-3243982D01*
X16474500Y-3356018D01*
X16493514Y-3426978D01*
X16503498Y-3464241D01*
X16559513Y-3561260D01*
X16559515Y-3561263D01*
X16638737Y-3640485D01*
X16665272Y-3655805D01*
X16735759Y-3696501D01*
X16735760Y-3696501D01*
X16735763Y-3696503D01*
X16797638Y-3713082D01*
X16842018Y-3738705D01*
X17801350Y-4698037D01*
X17829127Y-4752554D01*
X17826503Y-4790729D01*
X17827369Y-4790902D01*
X17826421Y-4795670D01*
X17826420Y-4795672D01*
X17824165Y-4807007D01*
X17799500Y-4931004D01*
X17799500Y-5068995D01*
X17806357Y-5103465D01*
X17825737Y-5200896D01*
X17826420Y-5204327D01*
X17826420Y-5204329D01*
X17879222Y-5331806D01*
X17879228Y-5331817D01*
X17955885Y-5446541D01*
X18053458Y-5544114D01*
X18168182Y-5620771D01*
X18168193Y-5620777D01*
X18204361Y-5635758D01*
X18295672Y-5673580D01*
X18431007Y-5700500D01*
X18431008Y-5700500D01*
X18568992Y-5700500D01*
X18568993Y-5700500D01*
X18704328Y-5673580D01*
X18831811Y-5620775D01*
X18946542Y-5544114D01*
X19044114Y-5446542D01*
X19120775Y-5331811D01*
X19173580Y-5204328D01*
X19200500Y-5068993D01*
X19200500Y-4931007D01*
X19173580Y-4795672D01*
X19152326Y-4744360D01*
X19120777Y-4668193D01*
X19120771Y-4668182D01*
X19044114Y-4553458D01*
X18946541Y-4455885D01*
X18831817Y-4379228D01*
X18831806Y-4379222D01*
X18704328Y-4326420D01*
X18568995Y-4299500D01*
X18568993Y-4299500D01*
X18431007Y-4299500D01*
X18431004Y-4299500D01*
X18338469Y-4317907D01*
X18295672Y-4326420D01*
X18295671Y-4326420D01*
X18290902Y-4327369D01*
X18290623Y-4325968D01*
X18235582Y-4324874D01*
X18198037Y-4301350D01*
X17350532Y-3453846D01*
X17322755Y-3399329D01*
X17324689Y-3362456D01*
X17324653Y-3362452D01*
X17324713Y-3361992D01*
X17324911Y-3358213D01*
X17325500Y-3356018D01*
X17325500Y-3243982D01*
X17296503Y-3135763D01*
X17296501Y-3135760D01*
X17296501Y-3135758D01*
X17240486Y-3038739D01*
X17240485Y-3038737D01*
X17161263Y-2959515D01*
X17157941Y-2957597D01*
X17064240Y-2903498D01*
X17064242Y-2903498D01*
X17022251Y-2892247D01*
X16956018Y-2874500D01*
X16843982Y-2874500D01*
X16777748Y-2892247D01*
X16735758Y-2903498D01*
X16638739Y-2959513D01*
X16559513Y-3038739D01*
X16503498Y-3135758D01*
X16497133Y-3159513D01*
X16474500Y-3243982D01*
X16093000Y-3243982D01*
X16064003Y-3135763D01*
X16064001Y-3135760D01*
X16064001Y-3135758D01*
X16007986Y-3038739D01*
X16007985Y-3038737D01*
X15928763Y-2959515D01*
X15925441Y-2957597D01*
X15831740Y-2903498D01*
X15831742Y-2903498D01*
X15789751Y-2892247D01*
X15723518Y-2874500D01*
X15611482Y-2874500D01*
X15545248Y-2892247D01*
X15503258Y-2903498D01*
X15406239Y-2959513D01*
X15327013Y-3038739D01*
X15270998Y-3135758D01*
X15264633Y-3159513D01*
X15242000Y-3243982D01*
X15242000Y-3356018D01*
X15261014Y-3426978D01*
X15270998Y-3464241D01*
X15327013Y-3561260D01*
X15327015Y-3561263D01*
X15358005Y-3592253D01*
X15385781Y-3646768D01*
X15387000Y-3662255D01*
X15387000Y-4204428D01*
X15406116Y-4275769D01*
X15443044Y-4339731D01*
X15495269Y-4391956D01*
X15495271Y-4391957D01*
X15500913Y-4397599D01*
X15500912Y-4397599D01*
X15500916Y-4397602D01*
X15801350Y-4698037D01*
X15829127Y-4752553D01*
X15826506Y-4790730D01*
X15827369Y-4790902D01*
X15826421Y-4795670D01*
X15826420Y-4795672D01*
X15824165Y-4807007D01*
X15799500Y-4931004D01*
X15799500Y-5068995D01*
X15806357Y-5103465D01*
X15825737Y-5200896D01*
X15826420Y-5204327D01*
X15826420Y-5204329D01*
X15879222Y-5331806D01*
X15879228Y-5331817D01*
X15955885Y-5446541D01*
X15955886Y-5446542D01*
X16053458Y-5544114D01*
X16129581Y-5594978D01*
X16172234Y-5623478D01*
X16171435Y-5624673D01*
X16209567Y-5664318D01*
X16219500Y-5707539D01*
X16219500Y-6956931D01*
X16237305Y-7023377D01*
X16237305Y-7023380D01*
X16237306Y-7023380D01*
X16238615Y-7028266D01*
X16238618Y-7028274D01*
X16275542Y-7092228D01*
X16275544Y-7092231D01*
X16327769Y-7144456D01*
X16327771Y-7144457D01*
X17373809Y-8190496D01*
X17381921Y-8206418D01*
X17393968Y-8219614D01*
X17395468Y-8233006D01*
X17401586Y-8245013D01*
X17398790Y-8262662D01*
X17400780Y-8280419D01*
X17394123Y-8292133D01*
X17392015Y-8305445D01*
X17379379Y-8318080D01*
X17370552Y-8333615D01*
X17359596Y-8337863D01*
X17348750Y-8348710D01*
X17314828Y-8358884D01*
X17309330Y-8359500D01*
X17296928Y-8359500D01*
X17223071Y-8359500D01*
X17168282Y-8374181D01*
X17161091Y-8376107D01*
X17161089Y-8376108D01*
X17151731Y-8378616D01*
X17098985Y-8409069D01*
X17087766Y-8415546D01*
X9327769Y-16175544D01*
X9327768Y-16175543D01*
X9275544Y-16227767D01*
X9252537Y-16267618D01*
X9252536Y-16267620D01*
X9247987Y-16275500D01*
X9238616Y-16291731D01*
X9222869Y-16350500D01*
X9221864Y-16354249D01*
X9221863Y-16354253D01*
X9219500Y-16363071D01*
X9219500Y-19936931D01*
X9224480Y-19955515D01*
X9230566Y-19978227D01*
X9238616Y-20008269D01*
X9275544Y-20072231D01*
X9327769Y-20124456D01*
X9327771Y-20124457D01*
X10106543Y-20903230D01*
X10106544Y-20903231D01*
X10106543Y-20903231D01*
X10157994Y-20954681D01*
X10158769Y-20955456D01*
X10222731Y-20992384D01*
X10222733Y-20992384D01*
X10222734Y-20992385D01*
X10258401Y-21001942D01*
X10294068Y-21011499D01*
X10294070Y-21011500D01*
X10294071Y-21011500D01*
X13647930Y-21011500D01*
X13647930Y-21011499D01*
X13719265Y-20992385D01*
X13719266Y-20992385D01*
X13719266Y-20992384D01*
X13719269Y-20992384D01*
X13783231Y-20955456D01*
X13835456Y-20903231D01*
X13835457Y-20903228D01*
X14950499Y-19788187D01*
X15005013Y-19760412D01*
X15065445Y-19769983D01*
X15108710Y-19813248D01*
X15119500Y-19858193D01*
X15119500Y-20569746D01*
X15119501Y-20569758D01*
X15131132Y-20628227D01*
X15131134Y-20628233D01*
X15160533Y-20672231D01*
X15175448Y-20694552D01*
X15175451Y-20694554D01*
X15228853Y-20730237D01*
X15241769Y-20738867D01*
X15284044Y-20747276D01*
X15300241Y-20750498D01*
X15300246Y-20750498D01*
X15300252Y-20750500D01*
X15300253Y-20750500D01*
X15989747Y-20750500D01*
X15989748Y-20750500D01*
X16048231Y-20738867D01*
X16114552Y-20694552D01*
X16158867Y-20628231D01*
X16170500Y-20569748D01*
X16170500Y-18962194D01*
X16172968Y-18954596D01*
X16171719Y-18946708D01*
X16182242Y-18926054D01*
X16189407Y-18904003D01*
X16199496Y-18892191D01*
X16274938Y-18816748D01*
X16329454Y-18788970D01*
X16379476Y-18794890D01*
X16379495Y-18794823D01*
X16379959Y-18794947D01*
X16382828Y-18795287D01*
X16385761Y-18796502D01*
X16385763Y-18796503D01*
X16493982Y-18825500D01*
X16493984Y-18825500D01*
X16606016Y-18825500D01*
X16606018Y-18825500D01*
X16714237Y-18796503D01*
X16714239Y-18796501D01*
X16714241Y-18796501D01*
X16757959Y-18771260D01*
X16811263Y-18740485D01*
X16890485Y-18661263D01*
X16946503Y-18564237D01*
X16975500Y-18456018D01*
X16975500Y-18343982D01*
X16946503Y-18235763D01*
X16946501Y-18235760D01*
X16946501Y-18235758D01*
X16890486Y-18138739D01*
X16890485Y-18138737D01*
X16811263Y-18059515D01*
X16811260Y-18059513D01*
X16714240Y-18003498D01*
X16714242Y-18003498D01*
X16672251Y-17992247D01*
X16606018Y-17974500D01*
X16493982Y-17974500D01*
X16427748Y-17992247D01*
X16385758Y-18003498D01*
X16319000Y-18042042D01*
X16259152Y-18054764D01*
X16203256Y-18029877D01*
X16172663Y-17976889D01*
X16170500Y-17956306D01*
X16170500Y-17530253D01*
X16170498Y-17530241D01*
X16163360Y-17494359D01*
X16158867Y-17471769D01*
X16114552Y-17405448D01*
X16114548Y-17405445D01*
X16048233Y-17361134D01*
X16048231Y-17361133D01*
X16048228Y-17361132D01*
X16048227Y-17361132D01*
X15989758Y-17349501D01*
X15989748Y-17349500D01*
X15300252Y-17349500D01*
X15300246Y-17349500D01*
X15279813Y-17353565D01*
X15219052Y-17346373D01*
X15174123Y-17304840D01*
X15161500Y-17256467D01*
X15161500Y-16874500D01*
X15180407Y-16816309D01*
X15229907Y-16780345D01*
X15260500Y-16775500D01*
X15356016Y-16775500D01*
X15356018Y-16775500D01*
X15464237Y-16746503D01*
X15464239Y-16746501D01*
X15464241Y-16746501D01*
X15512078Y-16718882D01*
X15561263Y-16690485D01*
X15640485Y-16611263D01*
X15682110Y-16539167D01*
X15696501Y-16514241D01*
X15696501Y-16514239D01*
X15696503Y-16514237D01*
X15725500Y-16406018D01*
X15725500Y-16293982D01*
X15696503Y-16185763D01*
X15696501Y-16185760D01*
X15696501Y-16185758D01*
X15640486Y-16088739D01*
X15640485Y-16088737D01*
X15561263Y-16009515D01*
X15538726Y-15996503D01*
X15464240Y-15953498D01*
X15464242Y-15953498D01*
X15408028Y-15938436D01*
X15356018Y-15924500D01*
X15243982Y-15924500D01*
X15191972Y-15938436D01*
X15135758Y-15953498D01*
X15049000Y-16003589D01*
X14989152Y-16016311D01*
X14933256Y-15991424D01*
X14902663Y-15938436D01*
X14900500Y-15917853D01*
X14900500Y-14530253D01*
X16389500Y-14530253D01*
X16389500Y-17569746D01*
X16389501Y-17569758D01*
X16401132Y-17628227D01*
X16401134Y-17628233D01*
X16445445Y-17694548D01*
X16445448Y-17694552D01*
X16511769Y-17738867D01*
X16556231Y-17747711D01*
X16570241Y-17750498D01*
X16570246Y-17750498D01*
X16570252Y-17750500D01*
X16570253Y-17750500D01*
X17259747Y-17750500D01*
X17259748Y-17750500D01*
X17318231Y-17738867D01*
X17384552Y-17694552D01*
X17428867Y-17628231D01*
X17440500Y-17569748D01*
X17440500Y-17530253D01*
X17659500Y-17530253D01*
X17659500Y-20569746D01*
X17659501Y-20569758D01*
X17671132Y-20628227D01*
X17671134Y-20628233D01*
X17700533Y-20672231D01*
X17715448Y-20694552D01*
X17715451Y-20694554D01*
X17768853Y-20730237D01*
X17781769Y-20738867D01*
X17824044Y-20747276D01*
X17840241Y-20750498D01*
X17840246Y-20750498D01*
X17840252Y-20750500D01*
X17840253Y-20750500D01*
X18529747Y-20750500D01*
X18529748Y-20750500D01*
X18588231Y-20738867D01*
X18654552Y-20694552D01*
X18698867Y-20628231D01*
X18710500Y-20569748D01*
X18710500Y-19300001D01*
X20150000Y-19300001D01*
X20150000Y-20574624D01*
X20164506Y-20647546D01*
X20164507Y-20647548D01*
X20219758Y-20730237D01*
X20219762Y-20730241D01*
X20302451Y-20785492D01*
X20302453Y-20785493D01*
X20375375Y-20799999D01*
X20375377Y-20800000D01*
X20474999Y-20800000D01*
X20475000Y-20799999D01*
X20475000Y-19300001D01*
X20975000Y-19300001D01*
X20975000Y-20799999D01*
X20975001Y-20800000D01*
X21074623Y-20800000D01*
X21074624Y-20799999D01*
X21147546Y-20785493D01*
X21147548Y-20785492D01*
X21230237Y-20730241D01*
X21230241Y-20730237D01*
X21285492Y-20647548D01*
X21285493Y-20647546D01*
X21299999Y-20574624D01*
X21300000Y-20574622D01*
X21300000Y-19300001D01*
X21299999Y-19300000D01*
X20975001Y-19300000D01*
X20975000Y-19300001D01*
X20475000Y-19300001D01*
X20474999Y-19300000D01*
X20150001Y-19300000D01*
X20150000Y-19300001D01*
X18710500Y-19300001D01*
X18710500Y-18962192D01*
X18712968Y-18954594D01*
X18711719Y-18946705D01*
X18722243Y-18926049D01*
X18729407Y-18904001D01*
X18739485Y-18892200D01*
X18794890Y-18836794D01*
X18849405Y-18809019D01*
X18890511Y-18811172D01*
X18943982Y-18825500D01*
X18943984Y-18825500D01*
X19056016Y-18825500D01*
X19056018Y-18825500D01*
X19164237Y-18796503D01*
X19164239Y-18796501D01*
X19164241Y-18796501D01*
X19207959Y-18771260D01*
X19261263Y-18740485D01*
X19340485Y-18661263D01*
X19396503Y-18564237D01*
X19425500Y-18456018D01*
X19425500Y-18343982D01*
X19396503Y-18235763D01*
X19396501Y-18235760D01*
X19396501Y-18235758D01*
X19340486Y-18138739D01*
X19340485Y-18138737D01*
X19261263Y-18059515D01*
X19261260Y-18059513D01*
X19164240Y-18003498D01*
X19164242Y-18003498D01*
X19122251Y-17992247D01*
X19056018Y-17974500D01*
X18943982Y-17974500D01*
X18915448Y-17982145D01*
X18835122Y-18003668D01*
X18774021Y-18000465D01*
X18726471Y-17961959D01*
X18710500Y-17908041D01*
X18710500Y-17530253D01*
X18710498Y-17530241D01*
X18703360Y-17494359D01*
X18698867Y-17471769D01*
X18654552Y-17405448D01*
X18654548Y-17405445D01*
X18588233Y-17361134D01*
X18588231Y-17361133D01*
X18588228Y-17361132D01*
X18588227Y-17361132D01*
X18529758Y-17349501D01*
X18529748Y-17349500D01*
X17840252Y-17349500D01*
X17840251Y-17349500D01*
X17840241Y-17349501D01*
X17781772Y-17361132D01*
X17781766Y-17361134D01*
X17715451Y-17405445D01*
X17715445Y-17405451D01*
X17671134Y-17471766D01*
X17671132Y-17471772D01*
X17659501Y-17530241D01*
X17659500Y-17530253D01*
X17440500Y-17530253D01*
X17440500Y-16576373D01*
X17459407Y-16518182D01*
X17508907Y-16482218D01*
X17570093Y-16482218D01*
X17589000Y-16490637D01*
X17685759Y-16546501D01*
X17685757Y-16546501D01*
X17685761Y-16546502D01*
X17685763Y-16546503D01*
X17793982Y-16575500D01*
X17793984Y-16575500D01*
X17906016Y-16575500D01*
X17906018Y-16575500D01*
X18014237Y-16546503D01*
X18014239Y-16546501D01*
X18014241Y-16546501D01*
X18075274Y-16511263D01*
X18111263Y-16490485D01*
X18190485Y-16411263D01*
X18246503Y-16314237D01*
X18275500Y-16206018D01*
X18275500Y-16093982D01*
X18246503Y-15985763D01*
X18246501Y-15985760D01*
X18246501Y-15985758D01*
X18196645Y-15899407D01*
X18190485Y-15888737D01*
X18111263Y-15809515D01*
X18083010Y-15793203D01*
X18014240Y-15753498D01*
X18014242Y-15753498D01*
X17972251Y-15742247D01*
X17906018Y-15724500D01*
X17793982Y-15724500D01*
X17739872Y-15738998D01*
X17685761Y-15753497D01*
X17589000Y-15809363D01*
X17529151Y-15822084D01*
X17473256Y-15797197D01*
X17442663Y-15744209D01*
X17440500Y-15723626D01*
X17440500Y-14530253D01*
X18929500Y-14530253D01*
X18929500Y-17569746D01*
X18929501Y-17569758D01*
X18941132Y-17628227D01*
X18941134Y-17628233D01*
X18985445Y-17694548D01*
X18985448Y-17694552D01*
X19051769Y-17738867D01*
X19096231Y-17747711D01*
X19110241Y-17750498D01*
X19110246Y-17750498D01*
X19110252Y-17750500D01*
X19110253Y-17750500D01*
X19799747Y-17750500D01*
X19799748Y-17750500D01*
X19858231Y-17738867D01*
X19924552Y-17694552D01*
X19968685Y-17628502D01*
X20016735Y-17590624D01*
X20077873Y-17588222D01*
X20128747Y-17622215D01*
X20149924Y-17679619D01*
X20150000Y-17683505D01*
X20150000Y-18799999D01*
X20150001Y-18800000D01*
X20474999Y-18800000D01*
X20475000Y-18799999D01*
X20475000Y-17300001D01*
X20474999Y-17300000D01*
X20375375Y-17300000D01*
X20302453Y-17314506D01*
X20302451Y-17314507D01*
X20219762Y-17369758D01*
X20219758Y-17369762D01*
X20161815Y-17456480D01*
X20113765Y-17494359D01*
X20052627Y-17496761D01*
X20001753Y-17462768D01*
X19980576Y-17405364D01*
X19980500Y-17401478D01*
X19980500Y-16760714D01*
X19999407Y-16702523D01*
X20048907Y-16666559D01*
X20105120Y-16665087D01*
X20143982Y-16675500D01*
X20143985Y-16675500D01*
X20256016Y-16675500D01*
X20256018Y-16675500D01*
X20364237Y-16646503D01*
X20364239Y-16646501D01*
X20364241Y-16646501D01*
X20393064Y-16629859D01*
X20461263Y-16590485D01*
X20540485Y-16511263D01*
X20585030Y-16434109D01*
X20596501Y-16414241D01*
X20596501Y-16414239D01*
X20596503Y-16414237D01*
X20625500Y-16306018D01*
X20625500Y-16193982D01*
X20596503Y-16085763D01*
X20596501Y-16085760D01*
X20596501Y-16085758D01*
X20540486Y-15988739D01*
X20540485Y-15988737D01*
X20461263Y-15909515D01*
X20461260Y-15909513D01*
X20364240Y-15853498D01*
X20364242Y-15853498D01*
X20294876Y-15834912D01*
X20256018Y-15824500D01*
X20143982Y-15824500D01*
X20129192Y-15828462D01*
X20105122Y-15834912D01*
X20044020Y-15831709D01*
X19996471Y-15793203D01*
X19980500Y-15739285D01*
X19980500Y-14530253D01*
X19980498Y-14530241D01*
X19971653Y-14485775D01*
X19968867Y-14471769D01*
X19924552Y-14405448D01*
X19890231Y-14382515D01*
X19858233Y-14361134D01*
X19858231Y-14361133D01*
X19858228Y-14361132D01*
X19858227Y-14361132D01*
X19799758Y-14349501D01*
X19799748Y-14349500D01*
X19110252Y-14349500D01*
X19110251Y-14349500D01*
X19110241Y-14349501D01*
X19051772Y-14361132D01*
X19051766Y-14361134D01*
X18985451Y-14405445D01*
X18985445Y-14405451D01*
X18941134Y-14471766D01*
X18941132Y-14471772D01*
X18929501Y-14530241D01*
X18929500Y-14530253D01*
X17440500Y-14530253D01*
X17440498Y-14530241D01*
X17431653Y-14485775D01*
X17428867Y-14471769D01*
X17384552Y-14405448D01*
X17350231Y-14382515D01*
X17318233Y-14361134D01*
X17318231Y-14361133D01*
X17318228Y-14361132D01*
X17318227Y-14361132D01*
X17259758Y-14349501D01*
X17259748Y-14349500D01*
X16570252Y-14349500D01*
X16570251Y-14349500D01*
X16570241Y-14349501D01*
X16511772Y-14361132D01*
X16511766Y-14361134D01*
X16445451Y-14405445D01*
X16445445Y-14405451D01*
X16401134Y-14471766D01*
X16401132Y-14471772D01*
X16389501Y-14530241D01*
X16389500Y-14530253D01*
X14900500Y-14530253D01*
X14900498Y-14530241D01*
X14891653Y-14485775D01*
X14888867Y-14471769D01*
X14844552Y-14405448D01*
X14810231Y-14382515D01*
X14778233Y-14361134D01*
X14778231Y-14361133D01*
X14778228Y-14361132D01*
X14778227Y-14361132D01*
X14719758Y-14349501D01*
X14719748Y-14349500D01*
X14030252Y-14349500D01*
X14030251Y-14349500D01*
X14030241Y-14349501D01*
X13971772Y-14361132D01*
X13971766Y-14361134D01*
X13905451Y-14405445D01*
X13905445Y-14405451D01*
X13861134Y-14471766D01*
X13861132Y-14471772D01*
X13849501Y-14530241D01*
X13849500Y-14530253D01*
X13849500Y-17569746D01*
X13849501Y-17569758D01*
X13861132Y-17628227D01*
X13861134Y-17628233D01*
X13905445Y-17694548D01*
X13905448Y-17694552D01*
X13971769Y-17738867D01*
X14016231Y-17747711D01*
X14030241Y-17750498D01*
X14030246Y-17750498D01*
X14030252Y-17750500D01*
X14501500Y-17750500D01*
X14559691Y-17769407D01*
X14595655Y-17818907D01*
X14600500Y-17849500D01*
X14600500Y-18084194D01*
X14581593Y-18142385D01*
X14532093Y-18178349D01*
X14475879Y-18179821D01*
X14456020Y-18174500D01*
X14456018Y-18174500D01*
X14343982Y-18174500D01*
X14277748Y-18192247D01*
X14235758Y-18203498D01*
X14138739Y-18259513D01*
X14059513Y-18338739D01*
X14059509Y-18338744D01*
X14059112Y-18339433D01*
X14043386Y-18359925D01*
X13799504Y-18603809D01*
X13744987Y-18631587D01*
X13684555Y-18622016D01*
X13641291Y-18578751D01*
X13630500Y-18533806D01*
X13630500Y-17530253D01*
X13630498Y-17530241D01*
X13623360Y-17494359D01*
X13618867Y-17471769D01*
X13574552Y-17405448D01*
X13574548Y-17405445D01*
X13508233Y-17361134D01*
X13508231Y-17361133D01*
X13508228Y-17361132D01*
X13508227Y-17361132D01*
X13449758Y-17349501D01*
X13449748Y-17349500D01*
X12760252Y-17349500D01*
X12760251Y-17349500D01*
X12760241Y-17349501D01*
X12701772Y-17361132D01*
X12701766Y-17361134D01*
X12635451Y-17405445D01*
X12635445Y-17405451D01*
X12591134Y-17471766D01*
X12591132Y-17471772D01*
X12579501Y-17530241D01*
X12579500Y-17530253D01*
X12579500Y-18670500D01*
X12560593Y-18728691D01*
X12511093Y-18764655D01*
X12480500Y-18769500D01*
X10849467Y-18769500D01*
X10791276Y-18750593D01*
X10755312Y-18701093D01*
X10755312Y-18639907D01*
X10763731Y-18620999D01*
X10788123Y-18578751D01*
X10796503Y-18564237D01*
X10825500Y-18456018D01*
X10825500Y-18343982D01*
X10796503Y-18235763D01*
X10796501Y-18235760D01*
X10796501Y-18235758D01*
X10740486Y-18138739D01*
X10740485Y-18138737D01*
X10709495Y-18107747D01*
X10681719Y-18053230D01*
X10680500Y-18037744D01*
X10680500Y-16395414D01*
X10699407Y-16337223D01*
X10709496Y-16325410D01*
X13607382Y-13427525D01*
X19949500Y-13427525D01*
X19949500Y-13572475D01*
X19965049Y-13630503D01*
X19987017Y-13712489D01*
X20059487Y-13838010D01*
X20059489Y-13838012D01*
X20059491Y-13838015D01*
X20161985Y-13940509D01*
X20161987Y-13940510D01*
X20161989Y-13940512D01*
X20287511Y-14012982D01*
X20287512Y-14012982D01*
X20287515Y-14012984D01*
X20427525Y-14050500D01*
X20630967Y-14050500D01*
X20689158Y-14069407D01*
X20700971Y-14079496D01*
X21440504Y-14819029D01*
X21468281Y-14873546D01*
X21469500Y-14889033D01*
X21469500Y-17401478D01*
X21450593Y-17459669D01*
X21401093Y-17495633D01*
X21339907Y-17495633D01*
X21290407Y-17459669D01*
X21288185Y-17456480D01*
X21230241Y-17369762D01*
X21230237Y-17369758D01*
X21147548Y-17314507D01*
X21147546Y-17314506D01*
X21074624Y-17300000D01*
X20975001Y-17300000D01*
X20975000Y-17300001D01*
X20975000Y-18799999D01*
X20975001Y-18800000D01*
X21299999Y-18800000D01*
X21300000Y-18799999D01*
X21300000Y-17683505D01*
X21318907Y-17625314D01*
X21368407Y-17589350D01*
X21429593Y-17589350D01*
X21479093Y-17625314D01*
X21481308Y-17628494D01*
X21525448Y-17694552D01*
X21591769Y-17738867D01*
X21636231Y-17747711D01*
X21650241Y-17750498D01*
X21650246Y-17750498D01*
X21650252Y-17750500D01*
X21650253Y-17750500D01*
X22339747Y-17750500D01*
X22339748Y-17750500D01*
X22398231Y-17738867D01*
X22464552Y-17694552D01*
X22508867Y-17628231D01*
X22520500Y-17569748D01*
X22520500Y-14773808D01*
X22523873Y-14748185D01*
X22545500Y-14667473D01*
X22545500Y-14522527D01*
X22541389Y-14507184D01*
X22507984Y-14382515D01*
X22435510Y-14256985D01*
X21238015Y-13059490D01*
X21112485Y-12987016D01*
X21112484Y-12987015D01*
X21112481Y-12987014D01*
X21065779Y-12974500D01*
X21065779Y-12974501D01*
X20972475Y-12949500D01*
X20427525Y-12949500D01*
X20398856Y-12957182D01*
X20287510Y-12987017D01*
X20161989Y-13059487D01*
X20059487Y-13161989D01*
X19987017Y-13287510D01*
X19957884Y-13396237D01*
X19949500Y-13427525D01*
X13607382Y-13427525D01*
X13683875Y-13351032D01*
X14357330Y-12677577D01*
X19175974Y-12677577D01*
X19175974Y-12677578D01*
X19281234Y-12721178D01*
X19426128Y-12749999D01*
X19426132Y-12750000D01*
X19573868Y-12750000D01*
X19573871Y-12749999D01*
X19718764Y-12721178D01*
X19718770Y-12721176D01*
X19824023Y-12677577D01*
X19499999Y-12353553D01*
X19175974Y-12677577D01*
X14357330Y-12677577D01*
X15108779Y-11926128D01*
X18750000Y-11926128D01*
X18750000Y-12073871D01*
X18778822Y-12218766D01*
X18778822Y-12218768D01*
X18822420Y-12324024D01*
X19146446Y-11999999D01*
X19853553Y-11999999D01*
X20177577Y-12324023D01*
X20221176Y-12218770D01*
X20221178Y-12218764D01*
X20249999Y-12073871D01*
X20250000Y-12073867D01*
X20250000Y-11926132D01*
X20249999Y-11926128D01*
X20221178Y-11781234D01*
X20177578Y-11675974D01*
X20177577Y-11675974D01*
X19853553Y-11999999D01*
X19146446Y-11999999D01*
X18822421Y-11675974D01*
X18822420Y-11675974D01*
X18778822Y-11781231D01*
X18778822Y-11781233D01*
X18750000Y-11926128D01*
X15108779Y-11926128D01*
X15712487Y-11322420D01*
X19175974Y-11322420D01*
X19175974Y-11322421D01*
X19499999Y-11646445D01*
X19824024Y-11322420D01*
X19718767Y-11278822D01*
X19573871Y-11250000D01*
X19426128Y-11250000D01*
X19281233Y-11278822D01*
X19281231Y-11278822D01*
X19175974Y-11322420D01*
X15712487Y-11322420D01*
X16025411Y-11009496D01*
X16079928Y-10981719D01*
X16095415Y-10980500D01*
X28942806Y-10980500D01*
X29000997Y-10999407D01*
X29012810Y-11009496D01*
X29245504Y-11242190D01*
X29273281Y-11296707D01*
X29274500Y-11312194D01*
X29274500Y-11356018D01*
X29291510Y-11419500D01*
X29303498Y-11464241D01*
X29355153Y-11553708D01*
X29359515Y-11561263D01*
X29438737Y-11640485D01*
X29438739Y-11640486D01*
X29492813Y-11671706D01*
X29533754Y-11717175D01*
X29540150Y-11778025D01*
X29513317Y-11827446D01*
X24070261Y-17270504D01*
X24063143Y-17274130D01*
X24058448Y-17280593D01*
X24036399Y-17287756D01*
X24015744Y-17298281D01*
X24000257Y-17299500D01*
X23892255Y-17299500D01*
X23834064Y-17280593D01*
X23822257Y-17270509D01*
X23821263Y-17269515D01*
X23812286Y-17264332D01*
X23724240Y-17213498D01*
X23724242Y-17213498D01*
X23682251Y-17202247D01*
X23616018Y-17184500D01*
X23503982Y-17184500D01*
X23437748Y-17202247D01*
X23395758Y-17213498D01*
X23298739Y-17269513D01*
X23219513Y-17348739D01*
X23163498Y-17445758D01*
X23156529Y-17471769D01*
X23134500Y-17553982D01*
X23134500Y-17666018D01*
X23154019Y-17738865D01*
X23163498Y-17774241D01*
X23206950Y-17849500D01*
X23219515Y-17871263D01*
X23298737Y-17950485D01*
X23298739Y-17950486D01*
X23401382Y-18009748D01*
X23399864Y-18012377D01*
X23436898Y-18043987D01*
X23451200Y-18103478D01*
X23427803Y-18160013D01*
X23422507Y-18165744D01*
X23339514Y-18248737D01*
X23283498Y-18345758D01*
X23279702Y-18359925D01*
X23254500Y-18453982D01*
X23254500Y-18566018D01*
X23257912Y-18578751D01*
X23283498Y-18674241D01*
X23327581Y-18750593D01*
X23339515Y-18771263D01*
X23418737Y-18850485D01*
X23420085Y-18851263D01*
X23515759Y-18906501D01*
X23515757Y-18906501D01*
X23515761Y-18906502D01*
X23515763Y-18906503D01*
X23623982Y-18935500D01*
X23623984Y-18935500D01*
X23736016Y-18935500D01*
X23736018Y-18935500D01*
X23844237Y-18906503D01*
X23844239Y-18906501D01*
X23844241Y-18906501D01*
X23873064Y-18889859D01*
X23941263Y-18850485D01*
X24020485Y-18771263D01*
X24043717Y-18731021D01*
X24059447Y-18710522D01*
X24075460Y-18694511D01*
X32787948Y-9982023D01*
X32787951Y-9982018D01*
X32827508Y-9913504D01*
X32827508Y-9913502D01*
X32827510Y-9913500D01*
X32847988Y-9837074D01*
X32847988Y-9757950D01*
X32847988Y-8592191D01*
X32866895Y-8534000D01*
X32876978Y-8522193D01*
X32887973Y-8511199D01*
X32935562Y-8428773D01*
X32943989Y-8414177D01*
X32943989Y-8414175D01*
X32943991Y-8414173D01*
X32972988Y-8305954D01*
X32972988Y-8193918D01*
X32943991Y-8085699D01*
X32943989Y-8085696D01*
X32943989Y-8085694D01*
X32887974Y-7988675D01*
X32887973Y-7988673D01*
X32808751Y-7909451D01*
X32808748Y-7909449D01*
X32711728Y-7853434D01*
X32711730Y-7853434D01*
X32659726Y-7839500D01*
X32603506Y-7824436D01*
X32577012Y-7824436D01*
X32518821Y-7805529D01*
X32482857Y-7756029D01*
X32478012Y-7725436D01*
X32478012Y-7698943D01*
X32478012Y-7698942D01*
X32449015Y-7590723D01*
X32449013Y-7590720D01*
X32449013Y-7590718D01*
X32392998Y-7493699D01*
X32392997Y-7493697D01*
X32313775Y-7414475D01*
X32287838Y-7399500D01*
X32216752Y-7358458D01*
X32216754Y-7358458D01*
X32174763Y-7347207D01*
X32108530Y-7329460D01*
X31996494Y-7329460D01*
X31930260Y-7347207D01*
X31888270Y-7358458D01*
X31791251Y-7414473D01*
X31712025Y-7493699D01*
X31656010Y-7590718D01*
X31647956Y-7620777D01*
X31627012Y-7698942D01*
X31627012Y-7810978D01*
X31638388Y-7853433D01*
X31656010Y-7919201D01*
X31702012Y-7998877D01*
X31712027Y-8016223D01*
X31717993Y-8022189D01*
X31745769Y-8076704D01*
X31746988Y-8092191D01*
X31746988Y-9552768D01*
X31728081Y-9610959D01*
X31717992Y-9622772D01*
X30227446Y-11113317D01*
X30172929Y-11141094D01*
X30112497Y-11131523D01*
X30071706Y-11092813D01*
X30040486Y-11038739D01*
X30040485Y-11038737D01*
X29961263Y-10959515D01*
X29955222Y-10956027D01*
X29864240Y-10903498D01*
X29864242Y-10903498D01*
X29822232Y-10892242D01*
X29756018Y-10874500D01*
X29756016Y-10874500D01*
X29712194Y-10874500D01*
X29654003Y-10855593D01*
X29642191Y-10845504D01*
X29330102Y-10533416D01*
X29330099Y-10533412D01*
X29330099Y-10533413D01*
X29324457Y-10527771D01*
X29324456Y-10527769D01*
X29272231Y-10475544D01*
X29208269Y-10438616D01*
X29208266Y-10438615D01*
X29191443Y-10434107D01*
X29136931Y-10419500D01*
X29136929Y-10419500D01*
X29136928Y-10419500D01*
X16485305Y-10419500D01*
X16427114Y-10400593D01*
X16391150Y-10351093D01*
X16391150Y-10289907D01*
X16415301Y-10250496D01*
X17455301Y-9210496D01*
X17509818Y-9182719D01*
X17525305Y-9181500D01*
X29037344Y-9181500D01*
X29037344Y-9181499D01*
X29108679Y-9162385D01*
X29108680Y-9162385D01*
X29108680Y-9162384D01*
X29108683Y-9162384D01*
X29172645Y-9125456D01*
X29224870Y-9073231D01*
X29224870Y-9073229D01*
X29233020Y-9065080D01*
X29233021Y-9065077D01*
X29377759Y-8920341D01*
X29377758Y-8920341D01*
X30944547Y-7353553D01*
X31467605Y-6830496D01*
X31522122Y-6802719D01*
X31537609Y-6801500D01*
X32962392Y-6801500D01*
X33020583Y-6820407D01*
X33032395Y-6830495D01*
X34374464Y-8172565D01*
X34374466Y-8172566D01*
X34475128Y-8273228D01*
X34475130Y-8273231D01*
X34527355Y-8325456D01*
X34576817Y-8354012D01*
X34576819Y-8354014D01*
X34576820Y-8354014D01*
X34591317Y-8362384D01*
X34662654Y-8381499D01*
X34662656Y-8381500D01*
X34662657Y-8381500D01*
X39305040Y-8381500D01*
X39305040Y-8381499D01*
X39376379Y-8362384D01*
X39390876Y-8354014D01*
X39440341Y-8325456D01*
X39492566Y-8273231D01*
X39492567Y-8273228D01*
X39645455Y-8120341D01*
X39645454Y-8120341D01*
X41157791Y-6608005D01*
X41695301Y-6070496D01*
X41749818Y-6042719D01*
X41765305Y-6041500D01*
X48903806Y-6041500D01*
X48961997Y-6060407D01*
X48973809Y-6070495D01*
X49327769Y-6424456D01*
X49675543Y-6772230D01*
X49675544Y-6772231D01*
X49675543Y-6772231D01*
X49704813Y-6801500D01*
X49727769Y-6824456D01*
X49791731Y-6861384D01*
X49791733Y-6861384D01*
X49791734Y-6861385D01*
X49827401Y-6870942D01*
X49863068Y-6880499D01*
X49863070Y-6880500D01*
X49863071Y-6880500D01*
X50236930Y-6880500D01*
X50236930Y-6880499D01*
X50308265Y-6861385D01*
X50308266Y-6861385D01*
X50308266Y-6861384D01*
X50308269Y-6861384D01*
X50372231Y-6824456D01*
X50424456Y-6772231D01*
X50424456Y-6772229D01*
X50432606Y-6764080D01*
X50432607Y-6764077D01*
X50687191Y-6509496D01*
X50741708Y-6481719D01*
X50757194Y-6480500D01*
X58490491Y-6480500D01*
X58548682Y-6499407D01*
X58584646Y-6548907D01*
X58584646Y-6610093D01*
X58570146Y-6638288D01*
X58497207Y-6737116D01*
X58452355Y-6865296D01*
X58452353Y-6865305D01*
X58449500Y-6895725D01*
X58449500Y-7125500D01*
X58430593Y-7183691D01*
X58381093Y-7219655D01*
X58350500Y-7224500D01*
X57954500Y-7224500D01*
X57896309Y-7205593D01*
X57860345Y-7156093D01*
X57855500Y-7125500D01*
X57855500Y-7075000D01*
X57850348Y-7029272D01*
X57810666Y-6946873D01*
X57790769Y-6931005D01*
X57739162Y-6889850D01*
X57650000Y-6869500D01*
X56150000Y-6869500D01*
X56149998Y-6869500D01*
X56104272Y-6874651D01*
X56021872Y-6914334D01*
X55964850Y-6985837D01*
X55944500Y-7075000D01*
X55944500Y-7125500D01*
X55925593Y-7183691D01*
X55876093Y-7219655D01*
X55845500Y-7224500D01*
X50867256Y-7224500D01*
X50809065Y-7205593D01*
X50797253Y-7195504D01*
X50761262Y-7159514D01*
X50664240Y-7103498D01*
X50664242Y-7103498D01*
X50622180Y-7092228D01*
X50556018Y-7074500D01*
X50443982Y-7074500D01*
X50377820Y-7092228D01*
X50335758Y-7103498D01*
X50238737Y-7159514D01*
X50202747Y-7195504D01*
X50148230Y-7223281D01*
X50132744Y-7224500D01*
X43778856Y-7224500D01*
X43689712Y-7248386D01*
X43689711Y-7248386D01*
X43689709Y-7248387D01*
X43609789Y-7294529D01*
X43533814Y-7370504D01*
X43479297Y-7398281D01*
X43463811Y-7399500D01*
X43434108Y-7399500D01*
X43356200Y-7420375D01*
X43306809Y-7433609D01*
X43192690Y-7499496D01*
X43099496Y-7592690D01*
X43033609Y-7706809D01*
X43029759Y-7721178D01*
X42999500Y-7834108D01*
X42999500Y-7965892D01*
X43022354Y-8051184D01*
X43033609Y-8093190D01*
X43099496Y-8207309D01*
X43099498Y-8207311D01*
X43099500Y-8207314D01*
X43192686Y-8300500D01*
X43192688Y-8300501D01*
X43192690Y-8300503D01*
X43306810Y-8366390D01*
X43306808Y-8366390D01*
X43306812Y-8366391D01*
X43306814Y-8366392D01*
X43434108Y-8400500D01*
X43434110Y-8400500D01*
X43565890Y-8400500D01*
X43565892Y-8400500D01*
X43693186Y-8366392D01*
X43693188Y-8366390D01*
X43693190Y-8366390D01*
X43807309Y-8300503D01*
X43807309Y-8300502D01*
X43807314Y-8300500D01*
X43900500Y-8207314D01*
X43920562Y-8172566D01*
X43966390Y-8093190D01*
X43966390Y-8093188D01*
X43966392Y-8093186D01*
X43991662Y-7998874D01*
X44024985Y-7947563D01*
X44082106Y-7925636D01*
X44087288Y-7925500D01*
X45727679Y-7925500D01*
X45785870Y-7944407D01*
X45821834Y-7993907D01*
X45821834Y-8055093D01*
X45797683Y-8094504D01*
X44532871Y-9359314D01*
X44478354Y-9387091D01*
X44417922Y-9377520D01*
X44377131Y-9338811D01*
X44350501Y-9292688D01*
X44350500Y-9292686D01*
X44257314Y-9199500D01*
X44257311Y-9199498D01*
X44257309Y-9199496D01*
X44143189Y-9133609D01*
X44143191Y-9133609D01*
X44093799Y-9120375D01*
X44015892Y-9099500D01*
X36365892Y-9099500D01*
X36234107Y-9099500D01*
X36156200Y-9120374D01*
X36106809Y-9133609D01*
X35992690Y-9199496D01*
X33321682Y-11870504D01*
X33267165Y-11898281D01*
X33251678Y-11899500D01*
X32665892Y-11899500D01*
X32534108Y-11899500D01*
X32456200Y-11920375D01*
X32406809Y-11933609D01*
X32292690Y-11999496D01*
X32199496Y-12092690D01*
X32133609Y-12206809D01*
X32126136Y-12234699D01*
X32099500Y-12334108D01*
X32099500Y-12465892D01*
X32133608Y-12593186D01*
X32133608Y-12593187D01*
X32135288Y-12599454D01*
X32133939Y-12599815D01*
X32138171Y-12653615D01*
X32106199Y-12705783D01*
X32049670Y-12729195D01*
X32041907Y-12729500D01*
X30735892Y-12729500D01*
X30604107Y-12729500D01*
X30561450Y-12740930D01*
X30476809Y-12763609D01*
X30362690Y-12829496D01*
X30362684Y-12829500D01*
X30362685Y-12829501D01*
X26999496Y-16192690D01*
X26933609Y-16306809D01*
X26933608Y-16306814D01*
X26899500Y-16434108D01*
X26899500Y-16565892D01*
X26926079Y-16665087D01*
X26933609Y-16693190D01*
X26999496Y-16807309D01*
X26999498Y-16807311D01*
X26999500Y-16807314D01*
X27092686Y-16900500D01*
X27092688Y-16900501D01*
X27092690Y-16900503D01*
X27206810Y-16966390D01*
X27206808Y-16966390D01*
X27206812Y-16966391D01*
X27206814Y-16966392D01*
X27334108Y-17000500D01*
X27334110Y-17000500D01*
X27465890Y-17000500D01*
X27465892Y-17000500D01*
X27593186Y-16966392D01*
X27593188Y-16966390D01*
X27593190Y-16966390D01*
X27707309Y-16900503D01*
X27707309Y-16900502D01*
X27707314Y-16900500D01*
X30848318Y-13759496D01*
X30902835Y-13731719D01*
X30918322Y-13730500D01*
X33200917Y-13730500D01*
X33259108Y-13749407D01*
X33270921Y-13759496D01*
X37009120Y-17497694D01*
X40545245Y-21033820D01*
X40573022Y-21088337D01*
X40563451Y-21148769D01*
X40520186Y-21192034D01*
X40500865Y-21199450D01*
X40485763Y-21203496D01*
X40485759Y-21203498D01*
X40388739Y-21259513D01*
X40357747Y-21290505D01*
X40303230Y-21318281D01*
X40287744Y-21319500D01*
X38736018Y-21319500D01*
X38677827Y-21300593D01*
X38666014Y-21290504D01*
X32803280Y-15427771D01*
X32803279Y-15427769D01*
X32751054Y-15375544D01*
X32687092Y-15338616D01*
X32687091Y-15338615D01*
X32687088Y-15338614D01*
X32615754Y-15319500D01*
X32615752Y-15319500D01*
X32615751Y-15319500D01*
X31162256Y-15319500D01*
X31104065Y-15300593D01*
X31092253Y-15290505D01*
X31061263Y-15259515D01*
X31061260Y-15259513D01*
X30964240Y-15203498D01*
X30964242Y-15203498D01*
X30922251Y-15192247D01*
X30856018Y-15174500D01*
X30743982Y-15174500D01*
X30677748Y-15192247D01*
X30635758Y-15203498D01*
X30538739Y-15259513D01*
X30459513Y-15338739D01*
X30403498Y-15435758D01*
X30403497Y-15435763D01*
X30374500Y-15543982D01*
X30374500Y-15656018D01*
X30392615Y-15723626D01*
X30403497Y-15764238D01*
X30437955Y-15823920D01*
X30450676Y-15883768D01*
X30425789Y-15939664D01*
X30372801Y-15970257D01*
X30341134Y-15971798D01*
X30143234Y-15949500D01*
X30143233Y-15949500D01*
X29856767Y-15949500D01*
X29856765Y-15949500D01*
X29572103Y-15981573D01*
X29292814Y-16045318D01*
X29022430Y-16139930D01*
X28764332Y-16264223D01*
X28521772Y-16416634D01*
X28297806Y-16595242D01*
X28095242Y-16797806D01*
X27916634Y-17021772D01*
X27764223Y-17264332D01*
X27639930Y-17522430D01*
X27545318Y-17792814D01*
X27481573Y-18072103D01*
X27449500Y-18356765D01*
X27449500Y-18643234D01*
X27481573Y-18927896D01*
X27545318Y-19207185D01*
X27639930Y-19477569D01*
X27764223Y-19735667D01*
X27865799Y-19897324D01*
X27916634Y-19978227D01*
X28095243Y-20202195D01*
X28297805Y-20404757D01*
X28521773Y-20583366D01*
X28593179Y-20628233D01*
X28764332Y-20735776D01*
X28867569Y-20785492D01*
X29022428Y-20860068D01*
X29022431Y-20860069D01*
X29022430Y-20860069D01*
X29292814Y-20954681D01*
X29292817Y-20954681D01*
X29292818Y-20954682D01*
X29572102Y-21018426D01*
X29856767Y-21050500D01*
X29856768Y-21050500D01*
X30143232Y-21050500D01*
X30143233Y-21050500D01*
X30427898Y-21018426D01*
X30707182Y-20954682D01*
X30977572Y-20860068D01*
X31235669Y-20735775D01*
X31478227Y-20583366D01*
X31702195Y-20404757D01*
X31904757Y-20202195D01*
X32083366Y-19978227D01*
X32235775Y-19735669D01*
X32360068Y-19477572D01*
X32454682Y-19207182D01*
X32518426Y-18927898D01*
X32550500Y-18643233D01*
X32550500Y-18356767D01*
X32518426Y-18072102D01*
X32454682Y-17792818D01*
X32450922Y-17782073D01*
X32360069Y-17522430D01*
X32235776Y-17264332D01*
X32083365Y-17021772D01*
X32062008Y-16994991D01*
X31904757Y-16797805D01*
X31702195Y-16595243D01*
X31478227Y-16416634D01*
X31461329Y-16406016D01*
X31235670Y-16264225D01*
X31003620Y-16152476D01*
X30996987Y-16146134D01*
X30988263Y-16143285D01*
X30975330Y-16125428D01*
X30959396Y-16110193D01*
X30957757Y-16101163D01*
X30952374Y-16093730D01*
X30952407Y-16071683D01*
X30948471Y-16049991D01*
X30952453Y-16041722D01*
X30952467Y-16032545D01*
X30963311Y-16019173D01*
X30975018Y-15994865D01*
X30988506Y-15983099D01*
X30992643Y-15980102D01*
X31061263Y-15940485D01*
X31097812Y-15903935D01*
X31104187Y-15899319D01*
X31126177Y-15892210D01*
X31146770Y-15881719D01*
X31162256Y-15880500D01*
X32421629Y-15880500D01*
X32479820Y-15899407D01*
X32491632Y-15909495D01*
X35432621Y-18850485D01*
X38354366Y-21772230D01*
X38354367Y-21772231D01*
X38354366Y-21772231D01*
X38411180Y-21829044D01*
X38409418Y-21830805D01*
X38437994Y-21872389D01*
X38436388Y-21933554D01*
X38399137Y-21982093D01*
X38343069Y-21999500D01*
X7399000Y-21999500D01*
X7340809Y-21980593D01*
X7304845Y-21931093D01*
X7300000Y-21900500D01*
X7300000Y-9477577D01*
X10175974Y-9477577D01*
X10175974Y-9477578D01*
X10281234Y-9521178D01*
X10426128Y-9549999D01*
X10426132Y-9550000D01*
X10573868Y-9550000D01*
X10573871Y-9549999D01*
X10718764Y-9521178D01*
X10718770Y-9521176D01*
X10824023Y-9477577D01*
X10499999Y-9153553D01*
X10175974Y-9477577D01*
X7300000Y-9477577D01*
X7300000Y-8726128D01*
X9750000Y-8726128D01*
X9750000Y-8873871D01*
X9778822Y-9018766D01*
X9778822Y-9018768D01*
X9822420Y-9124024D01*
X10146446Y-8799999D01*
X10853553Y-8799999D01*
X11177577Y-9124023D01*
X11221176Y-9018770D01*
X11221178Y-9018764D01*
X11249999Y-8873871D01*
X11250000Y-8873867D01*
X11250000Y-8726132D01*
X11249999Y-8726128D01*
X11221178Y-8581234D01*
X11177578Y-8475974D01*
X11177577Y-8475974D01*
X10853553Y-8799999D01*
X10146446Y-8799999D01*
X9822421Y-8475974D01*
X9822420Y-8475974D01*
X9778822Y-8581231D01*
X9778822Y-8581233D01*
X9750000Y-8726128D01*
X7300000Y-8726128D01*
X7300000Y-8122420D01*
X10175974Y-8122420D01*
X10175974Y-8122421D01*
X10499999Y-8446445D01*
X10824024Y-8122420D01*
X10718767Y-8078822D01*
X10573871Y-8050000D01*
X10426128Y-8050000D01*
X10281233Y-8078822D01*
X10281231Y-8078822D01*
X10175974Y-8122420D01*
X7300000Y-8122420D01*
X7300000Y-6931004D01*
X8799500Y-6931004D01*
X8799500Y-7068995D01*
X8826420Y-7204327D01*
X8826420Y-7204329D01*
X8879222Y-7331806D01*
X8879228Y-7331817D01*
X8955885Y-7446541D01*
X9053458Y-7544114D01*
X9168182Y-7620771D01*
X9168193Y-7620777D01*
X9215283Y-7640282D01*
X9295672Y-7673580D01*
X9431007Y-7700500D01*
X9431008Y-7700500D01*
X9568992Y-7700500D01*
X9568993Y-7700500D01*
X9704328Y-7673580D01*
X9831811Y-7620775D01*
X9946542Y-7544114D01*
X10044114Y-7446542D01*
X10120775Y-7331811D01*
X10173580Y-7204328D01*
X10200500Y-7068993D01*
X10200500Y-6931007D01*
X10200499Y-6931004D01*
X10799500Y-6931004D01*
X10799500Y-7068995D01*
X10826420Y-7204327D01*
X10826420Y-7204329D01*
X10879222Y-7331806D01*
X10879228Y-7331817D01*
X10955885Y-7446541D01*
X11053458Y-7544114D01*
X11168182Y-7620771D01*
X11168193Y-7620777D01*
X11215283Y-7640282D01*
X11295672Y-7673580D01*
X11431007Y-7700500D01*
X11431008Y-7700500D01*
X11568992Y-7700500D01*
X11568993Y-7700500D01*
X11684234Y-7677577D01*
X14175974Y-7677577D01*
X14175974Y-7677578D01*
X14281234Y-7721178D01*
X14426128Y-7749999D01*
X14426132Y-7750000D01*
X14573868Y-7750000D01*
X14573871Y-7749999D01*
X14718764Y-7721178D01*
X14718770Y-7721176D01*
X14824023Y-7677577D01*
X14499999Y-7353553D01*
X14175974Y-7677577D01*
X11684234Y-7677577D01*
X11704328Y-7673580D01*
X11831811Y-7620775D01*
X11946542Y-7544114D01*
X12044114Y-7446542D01*
X12120775Y-7331811D01*
X12173580Y-7204328D01*
X12200500Y-7068993D01*
X12200500Y-6931007D01*
X12199529Y-6926128D01*
X13750000Y-6926128D01*
X13750000Y-7073871D01*
X13778822Y-7218766D01*
X13778822Y-7218768D01*
X13822420Y-7324024D01*
X14146446Y-6999999D01*
X14853553Y-6999999D01*
X15177577Y-7324023D01*
X15221176Y-7218770D01*
X15221178Y-7218764D01*
X15249999Y-7073871D01*
X15250000Y-7073867D01*
X15250000Y-6926132D01*
X15249999Y-6926128D01*
X15221178Y-6781234D01*
X15177578Y-6675974D01*
X15177577Y-6675974D01*
X14853553Y-6999999D01*
X14146446Y-6999999D01*
X13822421Y-6675974D01*
X13822420Y-6675974D01*
X13778822Y-6781231D01*
X13778822Y-6781233D01*
X13750000Y-6926128D01*
X12199529Y-6926128D01*
X12173580Y-6795672D01*
X12122682Y-6672792D01*
X12120777Y-6668193D01*
X12120771Y-6668182D01*
X12044114Y-6553458D01*
X11946545Y-6455889D01*
X11946542Y-6455886D01*
X11831811Y-6379225D01*
X11830192Y-6378554D01*
X11824762Y-6374951D01*
X11808519Y-6354483D01*
X11790418Y-6335650D01*
X11789132Y-6330051D01*
X11786729Y-6327023D01*
X11786533Y-6322420D01*
X14175974Y-6322420D01*
X14175974Y-6322421D01*
X14499999Y-6646445D01*
X14824024Y-6322420D01*
X14718767Y-6278822D01*
X14573871Y-6250000D01*
X14426128Y-6250000D01*
X14281233Y-6278822D01*
X14281231Y-6278822D01*
X14175974Y-6322420D01*
X11786533Y-6322420D01*
X11786341Y-6317896D01*
X11780500Y-6292460D01*
X11780500Y-6162255D01*
X11799407Y-6104064D01*
X11809490Y-6092257D01*
X11840485Y-6061263D01*
X11896503Y-5964237D01*
X11925500Y-5856018D01*
X11925500Y-5743982D01*
X11896503Y-5635763D01*
X11896501Y-5635760D01*
X11896501Y-5635758D01*
X11840486Y-5538739D01*
X11840485Y-5538737D01*
X11761263Y-5459515D01*
X11761260Y-5459513D01*
X11664240Y-5403498D01*
X11664242Y-5403498D01*
X11622251Y-5392247D01*
X11556018Y-5374500D01*
X11443982Y-5374500D01*
X11377748Y-5392247D01*
X11335758Y-5403498D01*
X11238739Y-5459513D01*
X11159513Y-5538739D01*
X11103498Y-5635758D01*
X11096348Y-5662444D01*
X11074500Y-5743982D01*
X11074500Y-5856018D01*
X11096789Y-5939201D01*
X11103498Y-5964241D01*
X11153012Y-6050000D01*
X11159515Y-6061263D01*
X11190505Y-6092253D01*
X11194130Y-6099368D01*
X11200593Y-6104064D01*
X11207756Y-6126112D01*
X11218281Y-6146768D01*
X11219500Y-6162255D01*
X11219500Y-6292460D01*
X11200593Y-6350651D01*
X11171742Y-6375789D01*
X11172233Y-6376523D01*
X11168189Y-6379224D01*
X11168189Y-6379225D01*
X11124949Y-6408117D01*
X11053458Y-6455886D01*
X11053454Y-6455889D01*
X10955885Y-6553458D01*
X10879228Y-6668182D01*
X10879222Y-6668193D01*
X10826420Y-6795670D01*
X10826420Y-6795672D01*
X10799500Y-6931004D01*
X10200499Y-6931004D01*
X10173580Y-6795672D01*
X10122682Y-6672792D01*
X10120777Y-6668193D01*
X10120771Y-6668182D01*
X10044114Y-6553458D01*
X9946545Y-6455889D01*
X9946544Y-6455888D01*
X9946542Y-6455886D01*
X9831811Y-6379225D01*
X9831810Y-6379224D01*
X9827767Y-6376523D01*
X9828561Y-6375334D01*
X9817405Y-6363727D01*
X9799407Y-6350651D01*
X9796634Y-6342117D01*
X9790418Y-6335650D01*
X9780500Y-6292460D01*
X9780500Y-6162255D01*
X9799407Y-6104064D01*
X9809490Y-6092257D01*
X9840485Y-6061263D01*
X9896503Y-5964237D01*
X9925500Y-5856018D01*
X9925500Y-5743982D01*
X9896503Y-5635763D01*
X9896501Y-5635760D01*
X9896501Y-5635758D01*
X9840486Y-5538739D01*
X9840485Y-5538737D01*
X9761263Y-5459515D01*
X9761260Y-5459513D01*
X9664240Y-5403498D01*
X9664242Y-5403498D01*
X9622251Y-5392247D01*
X9556018Y-5374500D01*
X9443982Y-5374500D01*
X9377748Y-5392247D01*
X9335758Y-5403498D01*
X9238739Y-5459513D01*
X9159513Y-5538739D01*
X9103498Y-5635758D01*
X9096348Y-5662444D01*
X9074500Y-5743982D01*
X9074500Y-5856018D01*
X9096789Y-5939201D01*
X9103498Y-5964241D01*
X9153012Y-6050000D01*
X9159515Y-6061263D01*
X9190505Y-6092253D01*
X9194130Y-6099368D01*
X9200593Y-6104064D01*
X9207756Y-6126112D01*
X9218281Y-6146768D01*
X9219500Y-6162255D01*
X9219500Y-6292460D01*
X9200593Y-6350651D01*
X9171742Y-6375789D01*
X9172233Y-6376523D01*
X9168189Y-6379224D01*
X9168189Y-6379225D01*
X9124949Y-6408117D01*
X9053458Y-6455886D01*
X9053454Y-6455889D01*
X8955885Y-6553458D01*
X8879228Y-6668182D01*
X8879222Y-6668193D01*
X8826420Y-6795670D01*
X8826420Y-6795672D01*
X8799500Y-6931004D01*
X7300000Y-6931004D01*
X7300000Y-4931004D01*
X13799500Y-4931004D01*
X13799500Y-5068995D01*
X13806357Y-5103465D01*
X13825737Y-5200896D01*
X13826420Y-5204327D01*
X13826420Y-5204329D01*
X13879222Y-5331806D01*
X13879228Y-5331817D01*
X13955885Y-5446541D01*
X14053458Y-5544114D01*
X14168182Y-5620771D01*
X14168193Y-5620777D01*
X14204361Y-5635758D01*
X14295672Y-5673580D01*
X14431007Y-5700500D01*
X14431008Y-5700500D01*
X14568992Y-5700500D01*
X14568993Y-5700500D01*
X14704328Y-5673580D01*
X14831811Y-5620775D01*
X14946542Y-5544114D01*
X15044114Y-5446542D01*
X15120775Y-5331811D01*
X15173580Y-5204328D01*
X15200500Y-5068993D01*
X15200500Y-4931007D01*
X15173580Y-4795672D01*
X15152326Y-4744360D01*
X15120777Y-4668193D01*
X15120771Y-4668182D01*
X15044114Y-4553458D01*
X14946545Y-4455889D01*
X14946542Y-4455886D01*
X14831811Y-4379225D01*
X14831810Y-4379224D01*
X14827767Y-4376523D01*
X14828561Y-4375334D01*
X14790418Y-4335650D01*
X14780500Y-4292460D01*
X14780500Y-3614151D01*
X14792194Y-3570511D01*
X14791519Y-3570232D01*
X14793643Y-3565103D01*
X14793765Y-3564648D01*
X14794003Y-3564237D01*
X14823000Y-3456018D01*
X14823000Y-3343982D01*
X14794003Y-3235763D01*
X14794001Y-3235760D01*
X14794001Y-3235758D01*
X14737986Y-3138739D01*
X14737985Y-3138737D01*
X14658763Y-3059515D01*
X14658760Y-3059513D01*
X14561740Y-3003498D01*
X14561742Y-3003498D01*
X14519751Y-2992247D01*
X14453518Y-2974500D01*
X14341482Y-2974500D01*
X14275248Y-2992247D01*
X14233258Y-3003498D01*
X14136239Y-3059513D01*
X14057013Y-3138739D01*
X14000998Y-3235758D01*
X13984786Y-3296263D01*
X13972000Y-3343982D01*
X13972000Y-3456018D01*
X13989760Y-3522299D01*
X14000998Y-3564241D01*
X14055999Y-3659503D01*
X14057015Y-3661263D01*
X14136237Y-3740485D01*
X14170000Y-3759978D01*
X14210940Y-3805444D01*
X14219500Y-3845713D01*
X14219500Y-4292460D01*
X14200593Y-4350651D01*
X14171742Y-4375789D01*
X14172233Y-4376523D01*
X14168189Y-4379224D01*
X14168189Y-4379225D01*
X14140686Y-4397602D01*
X14053458Y-4455886D01*
X14053454Y-4455889D01*
X13955885Y-4553458D01*
X13879228Y-4668182D01*
X13879222Y-4668193D01*
X13826420Y-4795670D01*
X13826420Y-4795672D01*
X13799500Y-4931004D01*
X7300000Y-4931004D01*
X7300000Y-2677577D01*
X21675974Y-2677577D01*
X21675974Y-2677578D01*
X21781234Y-2721178D01*
X21926128Y-2749999D01*
X21926132Y-2750000D01*
X22073868Y-2750000D01*
X22073871Y-2749999D01*
X22218764Y-2721178D01*
X22218770Y-2721176D01*
X22324023Y-2677577D01*
X21999999Y-2353553D01*
X21675974Y-2677577D01*
X7300000Y-2677577D01*
X7300000Y-1926128D01*
X21250000Y-1926128D01*
X21250000Y-2073871D01*
X21278822Y-2218766D01*
X21278822Y-2218768D01*
X21322420Y-2324024D01*
X21646446Y-1999999D01*
X22353553Y-1999999D01*
X22677577Y-2324023D01*
X22721176Y-2218770D01*
X22721178Y-2218764D01*
X22749999Y-2073871D01*
X22750000Y-2073867D01*
X22750000Y-1931004D01*
X23299500Y-1931004D01*
X23299500Y-2068995D01*
X23316326Y-2153581D01*
X23323694Y-2190626D01*
X23326420Y-2204327D01*
X23326420Y-2204329D01*
X23379222Y-2331806D01*
X23379228Y-2331817D01*
X23455885Y-2446541D01*
X23553458Y-2544114D01*
X23668182Y-2620771D01*
X23668193Y-2620777D01*
X23715283Y-2640282D01*
X23795672Y-2673580D01*
X23931007Y-2700500D01*
X23931008Y-2700500D01*
X24068992Y-2700500D01*
X24068993Y-2700500D01*
X24204328Y-2673580D01*
X24331811Y-2620775D01*
X24446542Y-2544114D01*
X24544114Y-2446542D01*
X24620775Y-2331811D01*
X24620775Y-2331810D01*
X24623477Y-2327767D01*
X24624669Y-2328563D01*
X24664328Y-2290428D01*
X24707539Y-2280500D01*
X25637744Y-2280500D01*
X25695935Y-2299407D01*
X25707747Y-2309495D01*
X25738737Y-2340485D01*
X25766531Y-2356532D01*
X25835759Y-2396501D01*
X25835757Y-2396501D01*
X25835761Y-2396502D01*
X25835763Y-2396503D01*
X25943982Y-2425500D01*
X25943984Y-2425500D01*
X26056016Y-2425500D01*
X26056018Y-2425500D01*
X26164237Y-2396503D01*
X26164239Y-2396501D01*
X26164241Y-2396501D01*
X26193064Y-2379859D01*
X26261263Y-2340485D01*
X26340485Y-2261263D01*
X26396503Y-2164237D01*
X26425500Y-2056018D01*
X26425500Y-1943982D01*
X26396503Y-1835763D01*
X26396501Y-1835760D01*
X26396501Y-1835758D01*
X26340486Y-1738739D01*
X26340485Y-1738737D01*
X26261263Y-1659515D01*
X26261260Y-1659513D01*
X26164240Y-1603498D01*
X26164242Y-1603498D01*
X26122251Y-1592247D01*
X26056018Y-1574500D01*
X25943982Y-1574500D01*
X25877748Y-1592247D01*
X25835758Y-1603498D01*
X25738739Y-1659513D01*
X25707747Y-1690505D01*
X25653230Y-1718281D01*
X25637744Y-1719500D01*
X24707539Y-1719500D01*
X24649348Y-1700593D01*
X24624213Y-1671740D01*
X24623477Y-1672233D01*
X24606246Y-1646445D01*
X24544114Y-1553458D01*
X24446542Y-1455886D01*
X24446541Y-1455885D01*
X24331817Y-1379228D01*
X24331806Y-1379222D01*
X24204328Y-1326420D01*
X24068995Y-1299500D01*
X24068993Y-1299500D01*
X23931007Y-1299500D01*
X23931004Y-1299500D01*
X23795672Y-1326420D01*
X23795670Y-1326420D01*
X23668193Y-1379222D01*
X23668182Y-1379228D01*
X23553458Y-1455885D01*
X23455885Y-1553458D01*
X23379228Y-1668182D01*
X23379222Y-1668193D01*
X23326420Y-1795670D01*
X23326420Y-1795672D01*
X23299500Y-1931004D01*
X22750000Y-1931004D01*
X22750000Y-1926132D01*
X22749999Y-1926128D01*
X22721178Y-1781234D01*
X22677578Y-1675974D01*
X22677577Y-1675974D01*
X22353553Y-1999999D01*
X21646446Y-1999999D01*
X21322421Y-1675974D01*
X21322420Y-1675974D01*
X21278822Y-1781231D01*
X21278822Y-1781233D01*
X21250000Y-1926128D01*
X7300000Y-1926128D01*
X7300000Y-1322420D01*
X21675974Y-1322420D01*
X21675974Y-1322421D01*
X21999999Y-1646445D01*
X22324024Y-1322420D01*
X22218767Y-1278822D01*
X22073871Y-1250000D01*
X21926128Y-1250000D01*
X21781233Y-1278822D01*
X21781231Y-1278822D01*
X21675974Y-1322420D01*
X7300000Y-1322420D01*
X7300000Y-599499D01*
X7318907Y-541308D01*
X7368407Y-505344D01*
X7399000Y-500499D01*
X27330915Y-500499D01*
X27389106Y-519406D01*
G37*
G04 #@! TD.AperFunction*
G04 #@! TA.AperFunction,Conductor*
G36*
X46964301Y-8719407D02*
G01*
X47000265Y-8768907D01*
X47000265Y-8830093D01*
X46976115Y-8869501D01*
X46121377Y-9724240D01*
X43571147Y-12274469D01*
X43571142Y-12274474D01*
X43567770Y-12277847D01*
X43567768Y-12277849D01*
X43515543Y-12330074D01*
X43496602Y-12362882D01*
X43492503Y-12369981D01*
X43492501Y-12369984D01*
X43478616Y-12394032D01*
X43462890Y-12452724D01*
X43462888Y-12452729D01*
X43459499Y-12465374D01*
X43459499Y-17276930D01*
X43462872Y-17289519D01*
X43478613Y-17348264D01*
X43478613Y-17348265D01*
X43486043Y-17361134D01*
X43515543Y-17412230D01*
X43567768Y-17464455D01*
X43567770Y-17464456D01*
X44395746Y-18292433D01*
X44423523Y-18346950D01*
X44413952Y-18407382D01*
X44411481Y-18411933D01*
X44403497Y-18425761D01*
X44374500Y-18533983D01*
X44374500Y-18646014D01*
X44374499Y-18646015D01*
X44403498Y-18754241D01*
X44451162Y-18836796D01*
X44459515Y-18851263D01*
X44538737Y-18930485D01*
X44566831Y-18946705D01*
X44635759Y-18986501D01*
X44635757Y-18986501D01*
X44635761Y-18986502D01*
X44635763Y-18986503D01*
X44743982Y-19015500D01*
X44743984Y-19015500D01*
X44856017Y-19015500D01*
X44856018Y-19015500D01*
X44924878Y-18997049D01*
X44952955Y-18998520D01*
X44981093Y-18998520D01*
X44983279Y-19000108D01*
X44985978Y-19000250D01*
X45007834Y-19017948D01*
X45030593Y-19034484D01*
X45031428Y-19037054D01*
X45033528Y-19038755D01*
X45049500Y-19092675D01*
X45049500Y-19112806D01*
X45030593Y-19170997D01*
X45020504Y-19182809D01*
X44757811Y-19445503D01*
X44703294Y-19473281D01*
X44687807Y-19474500D01*
X44643982Y-19474500D01*
X44577748Y-19492247D01*
X44535758Y-19503498D01*
X44438739Y-19559513D01*
X44359513Y-19638739D01*
X44303498Y-19735758D01*
X44303497Y-19735763D01*
X44274500Y-19843982D01*
X44274500Y-19956018D01*
X44284002Y-19991479D01*
X44303498Y-20064241D01*
X44359513Y-20161260D01*
X44359515Y-20161263D01*
X44438737Y-20240485D01*
X44438739Y-20240486D01*
X44535759Y-20296501D01*
X44535757Y-20296501D01*
X44535761Y-20296502D01*
X44535763Y-20296503D01*
X44643982Y-20325500D01*
X44643984Y-20325500D01*
X44756016Y-20325500D01*
X44756018Y-20325500D01*
X44864237Y-20296503D01*
X44864239Y-20296501D01*
X44864241Y-20296501D01*
X44893064Y-20279859D01*
X44961263Y-20240485D01*
X45040485Y-20161263D01*
X45096503Y-20064237D01*
X45125500Y-19956018D01*
X45125500Y-19912193D01*
X45144407Y-19854002D01*
X45154497Y-19842189D01*
X45261019Y-19735667D01*
X45554456Y-19442231D01*
X45558711Y-19434860D01*
X45564942Y-19424070D01*
X45579469Y-19398907D01*
X45591384Y-19378269D01*
X45610500Y-19306928D01*
X45610500Y-18404249D01*
X45591384Y-18332908D01*
X45554456Y-18268946D01*
X45502231Y-18216721D01*
X45502228Y-18216719D01*
X44309496Y-17023987D01*
X44281719Y-16969470D01*
X44280500Y-16953983D01*
X44280500Y-13480581D01*
X44284185Y-13469237D01*
X44283265Y-13457345D01*
X44293416Y-13440827D01*
X44299407Y-13422390D01*
X44309056Y-13415379D01*
X44315302Y-13405217D01*
X44333222Y-13397821D01*
X44348907Y-13386426D01*
X44360836Y-13386426D01*
X44371861Y-13381876D01*
X44389251Y-13386426D01*
X44410093Y-13386426D01*
X44431337Y-13396237D01*
X44432937Y-13397220D01*
X44468189Y-13420775D01*
X44477617Y-13424680D01*
X44484309Y-13428793D01*
X44488663Y-13433904D01*
X44502476Y-13443133D01*
X49720504Y-18661161D01*
X49748281Y-18715678D01*
X49749500Y-18731165D01*
X49749500Y-19897324D01*
X49730593Y-19955515D01*
X49681093Y-19991479D01*
X49624878Y-19992950D01*
X49556018Y-19974500D01*
X49443982Y-19974500D01*
X49380615Y-19991479D01*
X49335758Y-20003498D01*
X49238739Y-20059513D01*
X49159513Y-20138739D01*
X49103498Y-20235758D01*
X49102231Y-20240486D01*
X49074816Y-20342805D01*
X49074500Y-20343983D01*
X49074500Y-20387805D01*
X49055593Y-20445996D01*
X49045504Y-20457809D01*
X48112810Y-21390504D01*
X48058293Y-21418281D01*
X48042806Y-21419500D01*
X43557195Y-21419500D01*
X43499004Y-21400593D01*
X43487191Y-21390504D01*
X42509496Y-20412809D01*
X42481719Y-20358292D01*
X42480500Y-20342805D01*
X42480500Y-18162255D01*
X42499407Y-18104064D01*
X42509490Y-18092257D01*
X42540485Y-18061263D01*
X42579859Y-17993064D01*
X42596501Y-17964241D01*
X42596501Y-17964239D01*
X42596503Y-17964237D01*
X42625500Y-17856018D01*
X42625500Y-17743982D01*
X42596503Y-17635763D01*
X42596501Y-17635760D01*
X42596501Y-17635758D01*
X42540486Y-17538739D01*
X42540485Y-17538737D01*
X42461263Y-17459515D01*
X42461260Y-17459513D01*
X42364240Y-17403498D01*
X42364242Y-17403498D01*
X42322251Y-17392247D01*
X42256018Y-17374500D01*
X42143982Y-17374500D01*
X42077748Y-17392247D01*
X42035758Y-17403498D01*
X41938739Y-17459513D01*
X41859513Y-17538739D01*
X41803498Y-17635758D01*
X41803497Y-17635763D01*
X41774500Y-17743982D01*
X41774500Y-17856018D01*
X41790489Y-17915690D01*
X41803498Y-17964241D01*
X41858506Y-18059515D01*
X41859515Y-18061263D01*
X41890505Y-18092253D01*
X41918281Y-18146768D01*
X41919500Y-18162255D01*
X41919500Y-20536931D01*
X41931943Y-20583365D01*
X41931943Y-20583366D01*
X41938616Y-20608269D01*
X41975544Y-20672231D01*
X42027769Y-20724456D01*
X42027771Y-20724457D01*
X43133809Y-21830496D01*
X43161586Y-21885013D01*
X43152015Y-21945445D01*
X43108750Y-21988710D01*
X43063805Y-21999500D01*
X42418750Y-21999500D01*
X42360559Y-21980593D01*
X42324595Y-21931093D01*
X42324595Y-21869907D01*
X42333013Y-21851000D01*
X42344095Y-21831806D01*
X42366392Y-21793186D01*
X42400500Y-21665892D01*
X42400500Y-21534108D01*
X42366392Y-21406814D01*
X42366390Y-21406811D01*
X42366390Y-21406809D01*
X42300503Y-21292690D01*
X42300501Y-21292688D01*
X42300500Y-21292686D01*
X42207314Y-21199500D01*
X42207311Y-21199498D01*
X42207309Y-21199496D01*
X42093189Y-21133609D01*
X42093187Y-21133608D01*
X42074378Y-21128568D01*
X42029999Y-21102946D01*
X38187437Y-17260384D01*
X38159660Y-17205867D01*
X38169231Y-17145435D01*
X38187437Y-17120376D01*
X46578317Y-8729496D01*
X46632834Y-8701719D01*
X46648321Y-8700500D01*
X46906110Y-8700500D01*
X46964301Y-8719407D01*
G37*
G04 #@! TD.AperFunction*
G04 #@! TA.AperFunction,Conductor*
G36*
X42510869Y-11219407D02*
G01*
X42546833Y-11268907D01*
X42546833Y-11330093D01*
X42522682Y-11369503D01*
X39992681Y-13899504D01*
X37479623Y-16412562D01*
X37425106Y-16440339D01*
X37364674Y-16430768D01*
X37339615Y-16412562D01*
X34826557Y-13899504D01*
X34798780Y-13844987D01*
X34808351Y-13784555D01*
X34851616Y-13741290D01*
X34896561Y-13730500D01*
X36095890Y-13730500D01*
X36095892Y-13730500D01*
X36223186Y-13696392D01*
X36223188Y-13696390D01*
X36223190Y-13696390D01*
X36337309Y-13630503D01*
X36337309Y-13630502D01*
X36337314Y-13630500D01*
X37888318Y-12079496D01*
X37889377Y-12078956D01*
X37889940Y-12077912D01*
X37896912Y-12075116D01*
X37942835Y-12051719D01*
X37945078Y-12051390D01*
X37951671Y-12050500D01*
X38019748Y-12050500D01*
X38078231Y-12038867D01*
X38088455Y-12032035D01*
X38110503Y-12029059D01*
X38128556Y-12032343D01*
X38146852Y-12030903D01*
X38155089Y-12033837D01*
X38160836Y-12035148D01*
X38160837Y-12035149D01*
X38250000Y-12055500D01*
X38865824Y-12055500D01*
X38865826Y-12055500D01*
X38919014Y-12048497D01*
X39046181Y-12014422D01*
X39095743Y-11993893D01*
X39209757Y-11928067D01*
X39252317Y-11895409D01*
X39345409Y-11802317D01*
X39378067Y-11759757D01*
X39443893Y-11645743D01*
X39464422Y-11596181D01*
X39475802Y-11553706D01*
X39501424Y-11509328D01*
X39781258Y-11229496D01*
X39835774Y-11201719D01*
X39851261Y-11200500D01*
X42452678Y-11200500D01*
X42510869Y-11219407D01*
G37*
G04 #@! TD.AperFunction*
G04 #@! TA.AperFunction,Conductor*
G36*
X40986604Y-4719407D02*
G01*
X41022568Y-4768907D01*
X41022568Y-4830093D01*
X40998417Y-4869504D01*
X38857418Y-7010504D01*
X38802901Y-7038281D01*
X38787414Y-7039500D01*
X37123796Y-7039500D01*
X37065605Y-7020593D01*
X37029641Y-6971093D01*
X37029641Y-6909907D01*
X37065605Y-6860407D01*
X37068795Y-6858184D01*
X37121840Y-6822740D01*
X37240240Y-6704340D01*
X37333260Y-6565125D01*
X37397335Y-6410434D01*
X37429999Y-6246220D01*
X37430000Y-6246216D01*
X37430000Y-6012501D01*
X37429999Y-6012500D01*
X36979999Y-6012500D01*
X36979999Y-5512500D01*
X37429999Y-5512500D01*
X37430000Y-5512499D01*
X37430000Y-5278783D01*
X37429999Y-5278779D01*
X37397335Y-5114565D01*
X37333260Y-4959874D01*
X37262852Y-4854501D01*
X37246244Y-4795613D01*
X37267422Y-4738210D01*
X37318295Y-4704217D01*
X37345168Y-4700500D01*
X40928413Y-4700500D01*
X40986604Y-4719407D01*
G37*
G04 #@! TD.AperFunction*
G04 #@! TA.AperFunction,Conductor*
G36*
X56589489Y-4268407D02*
G01*
X56625453Y-4317907D01*
X56625453Y-4379093D01*
X56611390Y-4406691D01*
X56599199Y-4423470D01*
X56599195Y-4423475D01*
X56520588Y-4577751D01*
X56467086Y-4742413D01*
X56465886Y-4750000D01*
X57106988Y-4750000D01*
X57074075Y-4807007D01*
X57040000Y-4934174D01*
X57040000Y-5065826D01*
X57074075Y-5192993D01*
X57106988Y-5250000D01*
X56465886Y-5250000D01*
X56467086Y-5257586D01*
X56520588Y-5422248D01*
X56599195Y-5576524D01*
X56599197Y-5576528D01*
X56700962Y-5716596D01*
X56734862Y-5750496D01*
X56762639Y-5805013D01*
X56753068Y-5865445D01*
X56709803Y-5908710D01*
X56664858Y-5919500D01*
X56149500Y-5919500D01*
X56091309Y-5900593D01*
X56055345Y-5851093D01*
X56050500Y-5820500D01*
X56050500Y-4348500D01*
X56069407Y-4290309D01*
X56118907Y-4254345D01*
X56149500Y-4249500D01*
X56531298Y-4249500D01*
X56589489Y-4268407D01*
G37*
G04 #@! TD.AperFunction*
G04 #@! TD*
M02*
