M48
; DRILL file {KiCad 9.0.0-9.0.0-2~ubuntu22.04.1} date 2025-03-23T22:02:49+0100
; FORMAT={-:-/ absolute / metric / decimal}
; #@! TF.CreationDate,2025-03-23T22:02:49+01:00
; #@! TF.GenerationSoftware,Kicad,Pcbnew,9.0.0-9.0.0-2~ubuntu22.04.1
; #@! TF.FileFunction,Plated,1,2,PTH
FMAT,2
METRIC
; #@! TA.AperFunction,Plated,PTH,ViaDrill
T1C0.300
; #@! TA.AperFunction,Plated,PTH,ComponentDrill
T2C0.750
; #@! TA.AperFunction,Plated,PTH,ComponentDrill
T3C0.800
; #@! TA.AperFunction,Plated,PTH,ComponentDrill
T4C0.800
; #@! TA.AperFunction,Plated,PTH,ComponentDrill
T5C1.200
; #@! TA.AperFunction,Plated,PTH,ComponentDrill
T6C2.700
%
G90
G05
T1
X8.7Y-13.6
X9.5Y-5.8
X9.6Y-4.75
X9.9Y-10.5
X10.4Y-18.4
X11.3Y-17.7
X11.5Y-5.8
X12.9Y-5.7
X13.8Y-18.35
X14.397Y-3.4
X15.3Y-16.35
X15.667Y-3.3
X16.55Y-18.4
X16.9Y-3.3
X17.85Y-16.15
X18.6Y-3.5
X19.0Y-18.4
X19.8Y-3.4
X20.2Y-16.25
X20.5Y-13.5
X21.83Y-8.84
X22.4Y-8.55
X23.0Y-13.5
X23.56Y-17.61
X23.6Y-16.5
X23.68Y-18.51
X24.0Y-6.55
X26.0Y-2.0
X26.2Y-20.6
X27.4Y-16.5
X27.9Y-7.4
X29.7Y-11.3
X30.8Y-15.6
X31.5Y-12.1
X32.053Y-7.755
X32.5Y-1.8
X32.547Y-8.25
X32.6Y-12.4
X32.9Y-20.9
X33.6Y-17.9
X38.6Y-6.4
X38.9Y-1.8
X40.1Y-17.3
X40.65Y-21.6
X41.4Y-17.3
X41.5Y-11.9
X41.9Y-21.6
X42.2Y-17.8
X42.5Y-10.5
X43.5Y-7.9
X43.95Y-9.6
X44.0Y-6.4
X44.7Y-19.9
X44.8Y-4.0
X44.8Y-12.8
X44.8Y-14.6
X44.8Y-18.59
X45.0Y-1.7
X46.4Y-6.4
X46.4Y-11.5
X46.75Y-19.0
X47.25Y-18.5
X47.6Y-10.4
X47.7Y-13.4
X48.0Y-15.95
X48.6Y-14.5
X49.4Y-6.5
X49.5Y-20.4
X49.9Y-3.6
X50.45Y-21.5
X51.15Y-17.15
X51.65Y-20.4
X51.8Y-18.75
X52.8Y-8.3
X53.4Y-18.8
X53.65Y-20.35
X54.4Y-12.6
X54.55Y-17.2
X56.05Y-20.3
X56.7Y-18.65
X58.25Y-20.4
X58.45Y-18.45
X58.8Y-10.6
X59.7Y-17.55
X59.9Y-10.6
X61.1Y-19.1
T2
X29.35Y-5.263
X35.15Y-5.263
T4
X55.0Y-2.5
X55.0Y-4.5
X57.0Y-2.5
X57.0Y-4.5
X59.0Y-2.5
X59.0Y-4.5
T5
X56.75Y-17.0
X61.75Y-17.0
T6
X30.0Y-18.5
X50.75Y-12.25
T3
X27.92Y-1.882G85X27.92Y-1.283
G05
X27.92Y-6.162G85X27.92Y-5.363
G05
X36.58Y-1.882G85X36.58Y-1.283
G05
X36.58Y-6.163G85X36.58Y-5.362
G05
M30
