G04 #@! TF.GenerationSoftware,KiCad,Pcbnew,8.0.7-8.0.7-0~ubuntu22.04.1*
G04 #@! TF.CreationDate,2025-01-18T09:20:26+01:00*
G04 #@! TF.ProjectId,esp32_boilerplate,65737033-325f-4626-9f69-6c6572706c61,rev?*
G04 #@! TF.SameCoordinates,Original*
G04 #@! TF.FileFunction,Copper,L1,Top*
G04 #@! TF.FilePolarity,Positive*
%FSLAX46Y46*%
G04 Gerber Fmt 4.6, Leading zero omitted, Abs format (unit mm)*
G04 Created by KiCad (PCBNEW 8.0.7-8.0.7-0~ubuntu22.04.1) date 2025-01-18 09:20:26*
%MOMM*%
%LPD*%
G01*
G04 APERTURE LIST*
G04 #@! TA.AperFunction,SMDPad,CuDef*
%ADD10R,1.100000X2.500000*%
G04 #@! TD*
G04 #@! TA.AperFunction,SMDPad,CuDef*
%ADD11R,3.600000X2.340000*%
G04 #@! TD*
G04 #@! TA.AperFunction,ComponentPad*
%ADD12C,0.750000*%
G04 #@! TD*
G04 #@! TA.AperFunction,ComponentPad*
%ADD13O,1.200000X2.000000*%
G04 #@! TD*
G04 #@! TA.AperFunction,ComponentPad*
%ADD14O,1.200000X1.800000*%
G04 #@! TD*
G04 #@! TA.AperFunction,SMDPad,CuDef*
%ADD15R,0.300000X1.300000*%
G04 #@! TD*
G04 #@! TA.AperFunction,SMDPad,CuDef*
%ADD16R,0.900000X0.800000*%
G04 #@! TD*
G04 #@! TA.AperFunction,SMDPad,CuDef*
%ADD17R,0.950000X2.100000*%
G04 #@! TD*
G04 #@! TA.AperFunction,SMDPad,CuDef*
%ADD18R,2.100000X0.950000*%
G04 #@! TD*
G04 #@! TA.AperFunction,SMDPad,CuDef*
%ADD19R,0.900000X0.900000*%
G04 #@! TD*
G04 #@! TA.AperFunction,SMDPad,CuDef*
%ADD20R,1.500000X1.360000*%
G04 #@! TD*
G04 #@! TA.AperFunction,SMDPad,CuDef*
%ADD21R,0.810000X0.860000*%
G04 #@! TD*
G04 #@! TA.AperFunction,SMDPad,CuDef*
%ADD22O,1.750000X0.560000*%
G04 #@! TD*
G04 #@! TA.AperFunction,SMDPad,CuDef*
%ADD23R,1.000000X0.750000*%
G04 #@! TD*
G04 #@! TA.AperFunction,SMDPad,CuDef*
%ADD24R,0.800000X0.800000*%
G04 #@! TD*
G04 #@! TA.AperFunction,ViaPad*
%ADD25C,0.450000*%
G04 #@! TD*
G04 #@! TA.AperFunction,ViaPad*
%ADD26C,0.600000*%
G04 #@! TD*
G04 #@! TA.AperFunction,Conductor*
%ADD27C,0.500000*%
G04 #@! TD*
G04 #@! TA.AperFunction,Conductor*
%ADD28C,0.300000*%
G04 #@! TD*
G04 #@! TA.AperFunction,Conductor*
%ADD29C,0.160000*%
G04 #@! TD*
G04 #@! TA.AperFunction,Conductor*
%ADD30C,0.240000*%
G04 #@! TD*
G04 #@! TA.AperFunction,Conductor*
%ADD31C,0.200000*%
G04 #@! TD*
G04 APERTURE END LIST*
D10*
G04 #@! TO.P,U2,1,GND*
G04 #@! TO.N,GND*
X52900000Y-8852000D03*
G04 #@! TO.P,U2,2,VOUT*
G04 #@! TO.N,/3V3*
X50600000Y-8852000D03*
G04 #@! TO.P,U2,3,VIN*
G04 #@! TO.N,/5V*
X48300000Y-8852000D03*
D11*
G04 #@! TO.P,U2,4,VOUT*
G04 #@! TO.N,/3V3*
X50600000Y-14792000D03*
G04 #@! TD*
D12*
G04 #@! TO.P,USBC1,*
G04 #@! TO.N,*
X43074000Y-5005500D03*
X37274000Y-5005500D03*
D13*
G04 #@! TO.P,USBC1,0,SH*
G04 #@! TO.N,GND*
X44504000Y-5505500D03*
G04 #@! TO.P,USBC1,1*
G04 #@! TO.N,N/C*
X35844000Y-5505500D03*
D14*
G04 #@! TO.P,USBC1,2*
X35844000Y-1325500D03*
G04 #@! TO.P,USBC1,3*
X44504000Y-1325500D03*
D15*
G04 #@! TO.P,USBC1,A1,GND*
G04 #@! TO.N,GND*
X43524000Y-6265500D03*
G04 #@! TO.P,USBC1,A4,VBUS*
G04 #@! TO.N,/5V*
X42724000Y-6265500D03*
G04 #@! TO.P,USBC1,A5,CC1*
G04 #@! TO.N,Net-(USBC1-CC1)*
X41424000Y-6265500D03*
G04 #@! TO.P,USBC1,A6,DP1*
G04 #@! TO.N,/USB_P*
X40424000Y-6265500D03*
G04 #@! TO.P,USBC1,A7,DN1*
G04 #@! TO.N,/USB_N*
X39924000Y-6265500D03*
G04 #@! TO.P,USBC1,A8,SBU1*
G04 #@! TO.N,unconnected-(USBC1-SBU1-PadA8)*
X38924000Y-6265500D03*
G04 #@! TO.P,USBC1,A9,VBUS*
G04 #@! TO.N,/5V*
X37624000Y-6265500D03*
G04 #@! TO.P,USBC1,A12,GND*
G04 #@! TO.N,GND*
X36824000Y-6265500D03*
G04 #@! TO.P,USBC1,B1,GND*
X37124000Y-6265500D03*
G04 #@! TO.P,USBC1,B4,VBUS*
G04 #@! TO.N,/5V*
X37924000Y-6265500D03*
G04 #@! TO.P,USBC1,B5,CC2*
G04 #@! TO.N,Net-(USBC1-CC2)*
X38424000Y-6265500D03*
G04 #@! TO.P,USBC1,B6,DP2*
G04 #@! TO.N,/USB_P*
X39424000Y-6265500D03*
G04 #@! TO.P,USBC1,B7,DN2*
G04 #@! TO.N,/USB_N*
X40924000Y-6265500D03*
G04 #@! TO.P,USBC1,B8,SBU2*
G04 #@! TO.N,unconnected-(USBC1-SBU2-PadB8)*
X41924000Y-6265500D03*
G04 #@! TO.P,USBC1,B9,VBUS*
G04 #@! TO.N,/5V*
X42424000Y-6265500D03*
G04 #@! TO.P,USBC1,B12,GND*
G04 #@! TO.N,GND*
X43224000Y-6265500D03*
G04 #@! TD*
D16*
G04 #@! TO.P,C1,1,1*
G04 #@! TO.N,GND*
X34930000Y-17350000D03*
G04 #@! TO.P,C1,2,2*
G04 #@! TO.N,/3V3*
X34930000Y-18750000D03*
G04 #@! TD*
D17*
G04 #@! TO.P,U3,1,GND*
G04 #@! TO.N,GND*
X1900000Y-23900000D03*
G04 #@! TO.P,U3,2,3V3*
G04 #@! TO.N,/3V3*
X3170000Y-23900000D03*
G04 #@! TO.P,U3,3,EN*
G04 #@! TO.N,/ESP_EN*
X4440000Y-23900000D03*
G04 #@! TO.P,U3,4,SENSOR_VP*
G04 #@! TO.N,unconnected-(U3-SENSOR_VP-Pad4)*
X5710000Y-23900000D03*
G04 #@! TO.P,U3,5,SENSOR_VN*
G04 #@! TO.N,unconnected-(U3-SENSOR_VN-Pad5)*
X6980000Y-23900000D03*
G04 #@! TO.P,U3,6,IO34*
G04 #@! TO.N,unconnected-(U3-IO34-Pad6)*
X8250000Y-23900000D03*
G04 #@! TO.P,U3,7,IO35*
G04 #@! TO.N,unconnected-(U3-IO35-Pad7)*
X9520000Y-23900000D03*
G04 #@! TO.P,U3,8,IO32*
G04 #@! TO.N,unconnected-(U3-IO32-Pad8)*
X10790000Y-23900000D03*
G04 #@! TO.P,U3,9,IO33*
G04 #@! TO.N,unconnected-(U3-IO33-Pad9)*
X12060000Y-23900000D03*
G04 #@! TO.P,U3,10,IO25*
G04 #@! TO.N,unconnected-(U3-IO25-Pad10)*
X13330000Y-23900000D03*
G04 #@! TO.P,U3,11,IO26*
G04 #@! TO.N,unconnected-(U3-IO26-Pad11)*
X14600000Y-23900000D03*
G04 #@! TO.P,U3,12,IO27*
G04 #@! TO.N,unconnected-(U3-IO27-Pad12)*
X15870000Y-23900000D03*
G04 #@! TO.P,U3,13,IO14*
G04 #@! TO.N,unconnected-(U3-IO14-Pad13)*
X17140000Y-23900000D03*
G04 #@! TO.P,U3,14,IO12*
G04 #@! TO.N,unconnected-(U3-IO12-Pad14)*
X18410000Y-23900000D03*
D18*
G04 #@! TO.P,U3,15,GND*
G04 #@! TO.N,GND*
X19900000Y-20610000D03*
G04 #@! TO.P,U3,16,IO13*
G04 #@! TO.N,unconnected-(U3-IO13-Pad16)*
X19900000Y-19340000D03*
G04 #@! TO.P,U3,17,NC*
G04 #@! TO.N,unconnected-(U3-NC-Pad17)*
X19900000Y-18070000D03*
G04 #@! TO.P,U3,18,NC*
G04 #@! TO.N,unconnected-(U3-NC-Pad18)*
X19900000Y-16800000D03*
G04 #@! TO.P,U3,19,NC*
G04 #@! TO.N,unconnected-(U3-NC-Pad19)*
X19900000Y-15530000D03*
G04 #@! TO.P,U3,20,NC*
G04 #@! TO.N,unconnected-(U3-NC-Pad20)*
X19900000Y-14260000D03*
G04 #@! TO.P,U3,21,NC*
G04 #@! TO.N,unconnected-(U3-NC-Pad21)*
X19900000Y-12990000D03*
G04 #@! TO.P,U3,22,NC*
G04 #@! TO.N,unconnected-(U3-NC-Pad22)*
X19900000Y-11720000D03*
G04 #@! TO.P,U3,23,IO15*
G04 #@! TO.N,unconnected-(U3-IO15-Pad23)*
X19900000Y-10450000D03*
G04 #@! TO.P,U3,24,IO2*
G04 #@! TO.N,/ESP_LED*
X19900000Y-9180000D03*
D17*
G04 #@! TO.P,U3,25,IO0*
G04 #@! TO.N,/ESP_PROG*
X18410000Y-5900000D03*
G04 #@! TO.P,U3,26,IO4*
G04 #@! TO.N,unconnected-(U3-IO4-Pad26)*
X17140000Y-5900000D03*
G04 #@! TO.P,U3,27,IO16*
G04 #@! TO.N,unconnected-(U3-IO16-Pad27)*
X15870000Y-5900000D03*
G04 #@! TO.P,U3,28,IO17*
G04 #@! TO.N,unconnected-(U3-IO17-Pad28)*
X14600000Y-5900000D03*
G04 #@! TO.P,U3,29,IO5*
G04 #@! TO.N,unconnected-(U3-IO5-Pad29)*
X13330000Y-5900000D03*
G04 #@! TO.P,U3,30,IO18*
G04 #@! TO.N,unconnected-(U3-IO18-Pad30)*
X12060000Y-5900000D03*
G04 #@! TO.P,U3,31,IO19*
G04 #@! TO.N,unconnected-(U3-IO19-Pad31)*
X10790000Y-5900000D03*
G04 #@! TO.P,U3,32,NC*
G04 #@! TO.N,unconnected-(U3-NC-Pad32)*
X9520000Y-5900000D03*
G04 #@! TO.P,U3,33,IO21*
G04 #@! TO.N,unconnected-(U3-IO21-Pad33)*
X8250000Y-5900000D03*
G04 #@! TO.P,U3,34,RXD0*
G04 #@! TO.N,/ESP_RXD*
X6980000Y-5900000D03*
G04 #@! TO.P,U3,35,TXD0*
G04 #@! TO.N,/ESP_TXD*
X5710000Y-5900000D03*
G04 #@! TO.P,U3,36,IO22*
G04 #@! TO.N,unconnected-(U3-IO22-Pad36)*
X4440000Y-5900000D03*
G04 #@! TO.P,U3,37,IO23*
G04 #@! TO.N,unconnected-(U3-IO23-Pad37)*
X3170000Y-5900000D03*
G04 #@! TO.P,U3,38,GND*
G04 #@! TO.N,GND*
X1900000Y-5900000D03*
D19*
G04 #@! TO.P,U3,39,GND*
X8180000Y-15000000D03*
X8180000Y-16400000D03*
X8180000Y-17800000D03*
X9580000Y-15000000D03*
X9580000Y-16400000D03*
X9580000Y-17800000D03*
X10980000Y-15000000D03*
X10980000Y-16400000D03*
X10980000Y-17800000D03*
G04 #@! TD*
D20*
G04 #@! TO.P,C3,1,1*
G04 #@! TO.N,/3V3*
X49400000Y-17800000D03*
G04 #@! TO.P,C3,2,2*
G04 #@! TO.N,GND*
X51800000Y-17800000D03*
G04 #@! TD*
D21*
G04 #@! TO.P,R3,1,1*
G04 #@! TO.N,GND*
X30450000Y-22900000D03*
G04 #@! TO.P,R3,2,2*
G04 #@! TO.N,Net-(LED1-K)*
X28950000Y-22900000D03*
G04 #@! TD*
D22*
G04 #@! TO.P,U1,1,GND*
G04 #@! TO.N,GND*
X42900000Y-18900000D03*
G04 #@! TO.P,U1,2,TXD*
G04 #@! TO.N,/ESP_RXD*
X42900000Y-17630000D03*
G04 #@! TO.P,U1,3,RXD*
G04 #@! TO.N,/ESP_TXD*
X42900000Y-16360000D03*
G04 #@! TO.P,U1,4,V3*
G04 #@! TO.N,/3V3*
X42900000Y-15080000D03*
G04 #@! TO.P,U1,5,UD+*
G04 #@! TO.N,/USB_P*
X42900000Y-13820000D03*
G04 #@! TO.P,U1,6,UD-*
G04 #@! TO.N,/USB_N*
X42900000Y-12550000D03*
G04 #@! TO.P,U1,7,NC.*
G04 #@! TO.N,unconnected-(U1-NC.-Pad7)*
X42900000Y-11280000D03*
G04 #@! TO.P,U1,8,~{OUT}*
G04 #@! TO.N,unconnected-(U1-~{OUT}-Pad8)*
X42900000Y-10010000D03*
G04 #@! TO.P,U1,9,~{CTS}*
G04 #@! TO.N,unconnected-(U1-~{CTS}-Pad9)*
X37160000Y-10010000D03*
G04 #@! TO.P,U1,10,~{DSR}*
G04 #@! TO.N,unconnected-(U1-~{DSR}-Pad10)*
X37160000Y-11280000D03*
G04 #@! TO.P,U1,11,~{RI}*
G04 #@! TO.N,unconnected-(U1-~{RI}-Pad11)*
X37160000Y-12550000D03*
G04 #@! TO.P,U1,12,~{DCD}*
G04 #@! TO.N,unconnected-(U1-~{DCD}-Pad12)*
X37160000Y-13820000D03*
G04 #@! TO.P,U1,13,~{DTR}*
G04 #@! TO.N,unconnected-(U1-~{DTR}-Pad13)*
X37160000Y-15080000D03*
G04 #@! TO.P,U1,14,~{RTS}*
G04 #@! TO.N,unconnected-(U1-~{RTS}-Pad14)*
X37160000Y-16360000D03*
G04 #@! TO.P,U1,15,R232*
G04 #@! TO.N,unconnected-(U1-R232-Pad15)*
X37160000Y-17630000D03*
G04 #@! TO.P,U1,16,VCC*
G04 #@! TO.N,/3V3*
X37160000Y-18900000D03*
G04 #@! TD*
D21*
G04 #@! TO.P,R1,1,1*
G04 #@! TO.N,GND*
X36376000Y-8150000D03*
G04 #@! TO.P,R1,2,2*
G04 #@! TO.N,Net-(USBC1-CC2)*
X37876000Y-8150000D03*
G04 #@! TD*
D23*
G04 #@! TO.P,SW2,1,A*
G04 #@! TO.N,/ESP_EN*
X25000000Y-12150000D03*
G04 #@! TO.P,SW2,2,B*
X31000000Y-12150000D03*
G04 #@! TO.P,SW2,3,C*
G04 #@! TO.N,GND*
X25000000Y-15850000D03*
G04 #@! TO.P,SW2,4,D*
X31000000Y-15850000D03*
G04 #@! TD*
D21*
G04 #@! TO.P,R2,1,1*
G04 #@! TO.N,GND*
X43480000Y-8150000D03*
G04 #@! TO.P,R2,2,2*
G04 #@! TO.N,Net-(USBC1-CC1)*
X41980000Y-8150000D03*
G04 #@! TD*
D20*
G04 #@! TO.P,C2,1,1*
G04 #@! TO.N,/5V*
X49400000Y-5800000D03*
G04 #@! TO.P,C2,2,2*
G04 #@! TO.N,GND*
X51800000Y-5800000D03*
G04 #@! TD*
D24*
G04 #@! TO.P,LED2,1,K*
G04 #@! TO.N,Net-(LED2-K)*
X26800000Y-20600000D03*
G04 #@! TO.P,LED2,2,A*
G04 #@! TO.N,/3V3*
X25200000Y-20600000D03*
G04 #@! TD*
D21*
G04 #@! TO.P,R7,1,1*
G04 #@! TO.N,GND*
X30450000Y-20600000D03*
G04 #@! TO.P,R7,2,2*
G04 #@! TO.N,Net-(LED2-K)*
X28950000Y-20600000D03*
G04 #@! TD*
D23*
G04 #@! TO.P,SW1,1,A*
G04 #@! TO.N,/ESP_PROG*
X25000000Y-5650000D03*
G04 #@! TO.P,SW1,2,B*
X31000000Y-5650000D03*
G04 #@! TO.P,SW1,3,C*
G04 #@! TO.N,GND*
X25000000Y-9350000D03*
G04 #@! TO.P,SW1,4,D*
X31000000Y-9350000D03*
G04 #@! TD*
D24*
G04 #@! TO.P,LED1,1,K*
G04 #@! TO.N,Net-(LED1-K)*
X26800000Y-22913000D03*
G04 #@! TO.P,LED1,2,A*
G04 #@! TO.N,/ESP_LED*
X25200000Y-22913000D03*
G04 #@! TD*
D25*
G04 #@! TO.N,/ESP_LED*
X22856190Y-20856190D03*
X24400000Y-23000000D03*
D26*
G04 #@! TO.N,/ESP_TXD*
X5710000Y-7290000D03*
X40700000Y-15900000D03*
G04 #@! TO.N,/ESP_RXD*
X40134313Y-16465687D03*
X6939878Y-10060122D03*
G04 #@! TO.N,/ESP_EN*
X21950000Y-16750000D03*
X4500000Y-22300000D03*
G04 #@! TD*
D27*
G04 #@! TO.N,/3V3*
X50600000Y-14792000D02*
X50600000Y-11700000D01*
X39100000Y-16439339D02*
X39100000Y-18000000D01*
X38200000Y-18900000D02*
X26000000Y-18900000D01*
X25200000Y-19700000D02*
X25200000Y-20600000D01*
X50100000Y-11700000D02*
X46720000Y-15080000D01*
X42900000Y-15080000D02*
X40459339Y-15080000D01*
X3170000Y-22350000D02*
X3170000Y-23900000D01*
X50600000Y-11700000D02*
X50600000Y-8852000D01*
X26000000Y-18900000D02*
X25200000Y-19700000D01*
D28*
X37160000Y-18900000D02*
X35080000Y-18900000D01*
D27*
X50600000Y-11700000D02*
X50100000Y-11700000D01*
X24265000Y-21535000D02*
X3985000Y-21535000D01*
X39100000Y-18000000D02*
X38200000Y-18900000D01*
X38200000Y-18900000D02*
X37160000Y-18900000D01*
X40459339Y-15080000D02*
X39100000Y-16439339D01*
X49400000Y-15992000D02*
X50600000Y-14792000D01*
X46720000Y-15080000D02*
X42900000Y-15080000D01*
X49400000Y-17800000D02*
X49400000Y-15992000D01*
X25200000Y-20600000D02*
X24265000Y-21535000D01*
X3985000Y-21535000D02*
X3170000Y-22350000D01*
D29*
G04 #@! TO.N,GND*
X36376000Y-8150000D02*
X36376000Y-6713500D01*
X36376000Y-6713500D02*
X36824000Y-6265500D01*
D30*
G04 #@! TO.N,/5V*
X42200000Y-5231500D02*
X42200000Y-4055500D01*
X42424000Y-5455500D02*
X42424000Y-5965500D01*
X42424000Y-5965500D02*
X42724000Y-6265500D01*
D27*
X42200000Y-4055500D02*
X39259000Y-4055500D01*
D30*
X37924000Y-6265500D02*
X37924000Y-5390500D01*
X42424000Y-5455500D02*
X42200000Y-5231500D01*
D27*
X48300000Y-6900000D02*
X45455500Y-4055500D01*
X39259000Y-4055500D02*
X38149000Y-5165500D01*
X49400000Y-5800000D02*
X48300000Y-6900000D01*
D30*
X37924000Y-5390500D02*
X38149000Y-5165500D01*
D27*
X48300000Y-6900000D02*
X48300000Y-8852000D01*
X45455500Y-4055500D02*
X42200000Y-4055500D01*
D29*
G04 #@! TO.N,Net-(LED1-K)*
X26800000Y-22913000D02*
X28937000Y-22913000D01*
G04 #@! TO.N,/ESP_LED*
X21370000Y-19370000D02*
X22856190Y-20856190D01*
X24400000Y-23000000D02*
X25113000Y-23000000D01*
X19900000Y-9180000D02*
X21110000Y-9180000D01*
X21110000Y-9180000D02*
X21370000Y-9440000D01*
X21370000Y-9440000D02*
X21370000Y-19370000D01*
G04 #@! TO.N,Net-(LED2-K)*
X26800000Y-20600000D02*
X28950000Y-20600000D01*
G04 #@! TO.N,Net-(USBC1-CC2)*
X38424000Y-7602000D02*
X37876000Y-8150000D01*
X38424000Y-6265500D02*
X38424000Y-7602000D01*
G04 #@! TO.N,Net-(USBC1-CC1)*
X41424000Y-7594000D02*
X41980000Y-8150000D01*
X41424000Y-6265500D02*
X41424000Y-7594000D01*
G04 #@! TO.N,/ESP_TXD*
X5710000Y-7290000D02*
X5710000Y-5900000D01*
X41160000Y-16360000D02*
X40700000Y-15900000D01*
X42900000Y-16360000D02*
X41160000Y-16360000D01*
D31*
G04 #@! TO.N,/USB_P*
X40215500Y-5315500D02*
X40424000Y-5524000D01*
X39424000Y-5450000D02*
X39558500Y-5315500D01*
X39424000Y-6265500D02*
X39424000Y-10939000D01*
X39424000Y-6265500D02*
X39424000Y-5450000D01*
X40424000Y-5524000D02*
X40424000Y-6265500D01*
X39424000Y-10939000D02*
X42305000Y-13820000D01*
X39558500Y-5315500D02*
X40215500Y-5315500D01*
D29*
G04 #@! TO.N,/ESP_RXD*
X6980000Y-10020000D02*
X6980000Y-5900000D01*
X6939878Y-10060122D02*
X6980000Y-10020000D01*
X41298626Y-17630000D02*
X40134313Y-16465687D01*
X42900000Y-17630000D02*
X41298626Y-17630000D01*
D31*
G04 #@! TO.N,/USB_N*
X40058500Y-7300000D02*
X40789500Y-7300000D01*
X40058500Y-10303500D02*
X42305000Y-12550000D01*
X39924000Y-6265500D02*
X39924000Y-7165500D01*
X40924000Y-7165500D02*
X40924000Y-6265500D01*
X40058500Y-7300000D02*
X40058500Y-10303500D01*
X39924000Y-7165500D02*
X40058500Y-7300000D01*
X40789500Y-7300000D02*
X40924000Y-7165500D01*
D29*
G04 #@! TO.N,/ESP_EN*
X4440000Y-22460000D02*
X4440000Y-23900000D01*
X21950000Y-16750000D02*
X25000000Y-13700000D01*
X4500000Y-22300000D02*
X4500000Y-22400000D01*
X4500000Y-22400000D02*
X4440000Y-22460000D01*
X25000000Y-12150000D02*
X31000000Y-12150000D01*
X25000000Y-13700000D02*
X25000000Y-12150000D01*
G04 #@! TO.N,/ESP_PROG*
X31000000Y-5650000D02*
X18660000Y-5650000D01*
G04 #@! TD*
M02*
