G04 #@! TF.GenerationSoftware,KiCad,Pcbnew,8.0.7-8.0.7-0~ubuntu22.04.1*
G04 #@! TF.CreationDate,2025-01-18T09:20:26+01:00*
G04 #@! TF.ProjectId,esp32_boilerplate,65737033-325f-4626-9f69-6c6572706c61,rev?*
G04 #@! TF.SameCoordinates,Original*
G04 #@! TF.FileFunction,Paste,Top*
G04 #@! TF.FilePolarity,Positive*
%FSLAX46Y46*%
G04 Gerber Fmt 4.6, Leading zero omitted, Abs format (unit mm)*
G04 Created by KiCad (PCBNEW 8.0.7-8.0.7-0~ubuntu22.04.1) date 2025-01-18 09:20:26*
%MOMM*%
%LPD*%
G01*
G04 APERTURE LIST*
%ADD10R,1.100000X2.500000*%
%ADD11R,3.600000X2.340000*%
%ADD12R,0.300000X1.300000*%
%ADD13R,0.900000X0.800000*%
%ADD14R,0.950000X2.100000*%
%ADD15R,2.100000X0.950000*%
%ADD16R,0.900000X0.900000*%
%ADD17R,1.500000X1.360000*%
%ADD18R,0.810000X0.860000*%
%ADD19O,1.750000X0.560000*%
%ADD20R,1.000000X0.750000*%
%ADD21R,0.800000X0.800000*%
G04 APERTURE END LIST*
D10*
G04 #@! TO.C,U2*
X52900000Y-8852000D03*
X50600000Y-8852000D03*
X48300000Y-8852000D03*
D11*
X50600000Y-14792000D03*
G04 #@! TD*
D12*
G04 #@! TO.C,USBC1*
X43524000Y-6265500D03*
X42724000Y-6265500D03*
X41424000Y-6265500D03*
X40424000Y-6265500D03*
X39924000Y-6265500D03*
X38924000Y-6265500D03*
X37624000Y-6265500D03*
X36824000Y-6265500D03*
X37124000Y-6265500D03*
X37924000Y-6265500D03*
X38424000Y-6265500D03*
X39424000Y-6265500D03*
X40924000Y-6265500D03*
X41924000Y-6265500D03*
X42424000Y-6265500D03*
X43224000Y-6265500D03*
G04 #@! TD*
D13*
G04 #@! TO.C,C1*
X34930000Y-17350000D03*
X34930000Y-18750000D03*
G04 #@! TD*
D14*
G04 #@! TO.C,U3*
X1900000Y-23900000D03*
X3170000Y-23900000D03*
X4440000Y-23900000D03*
X5710000Y-23900000D03*
X6980000Y-23900000D03*
X8250000Y-23900000D03*
X9520000Y-23900000D03*
X10790000Y-23900000D03*
X12060000Y-23900000D03*
X13330000Y-23900000D03*
X14600000Y-23900000D03*
X15870000Y-23900000D03*
X17140000Y-23900000D03*
X18410000Y-23900000D03*
D15*
X19900000Y-20610000D03*
X19900000Y-19340000D03*
X19900000Y-18070000D03*
X19900000Y-16800000D03*
X19900000Y-15530000D03*
X19900000Y-14260000D03*
X19900000Y-12990000D03*
X19900000Y-11720000D03*
X19900000Y-10450000D03*
X19900000Y-9180000D03*
D14*
X18410000Y-5900000D03*
X17140000Y-5900000D03*
X15870000Y-5900000D03*
X14600000Y-5900000D03*
X13330000Y-5900000D03*
X12060000Y-5900000D03*
X10790000Y-5900000D03*
X9520000Y-5900000D03*
X8250000Y-5900000D03*
X6980000Y-5900000D03*
X5710000Y-5900000D03*
X4440000Y-5900000D03*
X3170000Y-5900000D03*
X1900000Y-5900000D03*
D16*
X8180000Y-15000000D03*
X8180000Y-16400000D03*
X8180000Y-17800000D03*
X9580000Y-15000000D03*
X9580000Y-16400000D03*
X9580000Y-17800000D03*
X10980000Y-15000000D03*
X10980000Y-16400000D03*
X10980000Y-17800000D03*
G04 #@! TD*
D17*
G04 #@! TO.C,C3*
X49400000Y-17800000D03*
X51800000Y-17800000D03*
G04 #@! TD*
D18*
G04 #@! TO.C,R3*
X30450000Y-22900000D03*
X28950000Y-22900000D03*
G04 #@! TD*
D19*
G04 #@! TO.C,U1*
X42900000Y-18900000D03*
X42900000Y-17630000D03*
X42900000Y-16360000D03*
X42900000Y-15080000D03*
X42900000Y-13820000D03*
X42900000Y-12550000D03*
X42900000Y-11280000D03*
X42900000Y-10010000D03*
X37160000Y-10010000D03*
X37160000Y-11280000D03*
X37160000Y-12550000D03*
X37160000Y-13820000D03*
X37160000Y-15080000D03*
X37160000Y-16360000D03*
X37160000Y-17630000D03*
X37160000Y-18900000D03*
G04 #@! TD*
D18*
G04 #@! TO.C,R1*
X36376000Y-8150000D03*
X37876000Y-8150000D03*
G04 #@! TD*
D20*
G04 #@! TO.C,SW2*
X25000000Y-12150000D03*
X31000000Y-12150000D03*
X25000000Y-15850000D03*
X31000000Y-15850000D03*
G04 #@! TD*
D18*
G04 #@! TO.C,R2*
X43480000Y-8150000D03*
X41980000Y-8150000D03*
G04 #@! TD*
D17*
G04 #@! TO.C,C2*
X49400000Y-5800000D03*
X51800000Y-5800000D03*
G04 #@! TD*
D21*
G04 #@! TO.C,LED2*
X26800000Y-20600000D03*
X25200000Y-20600000D03*
G04 #@! TD*
D18*
G04 #@! TO.C,R7*
X30450000Y-20600000D03*
X28950000Y-20600000D03*
G04 #@! TD*
D20*
G04 #@! TO.C,SW1*
X25000000Y-5650000D03*
X31000000Y-5650000D03*
X25000000Y-9350000D03*
X31000000Y-9350000D03*
G04 #@! TD*
D21*
G04 #@! TO.C,LED1*
X26800000Y-22913000D03*
X25200000Y-22913000D03*
G04 #@! TD*
M02*
